<svg xmlns="http://www.w3.org/2000/svg" viewBox="0 0 512 512">
  <path fill="#e2ae83" d="M256 69L71 169l-61-61L194 8z"/>
  <path fill="#d39c72" d="M502 108l-61 61L256 69l62-61z"/>
  <path fill="#f2c397" d="M256 269v235L71 405V169z"/>
  <path fill="#e2ae83" d="M441 169v236l-185 99V269z"/>
  <path fill="#d39c72" d="M411 186v235l30-16V169z"/>
  <g fill="#f2c397">
    <path d="M441 169l61 62-61 34-123 66-62-62 185-100z"/>
    <path d="M441 169l61 62-61 34-123 66-62-62 185-100z"/>
  </g>
  <path fill="#e2ae83" d="M415 183l62 62 25-14-61-62z"/>
  <path fill="#ffd2a6" d="M256 269l-62 62-123-66-61-34 61-62z"/>
  <path fill="#c48d69" d="M441 169L256 269 71 169 256 69z"/>
  <path d="M452 169l56-56a8 8 0 00-2-12L322 1c-3-2-7-1-9 1l-57 57-57-57a7 7 0 00-9-1l-59 32a7 7 0 00-3 10 8 8 0 0010 3l55-29 51 51-172 92-50-51 90-48 4-5-1-6a7 7 0 00-10-3L6 101a7 7 0 00-2 12l56 56-56 57a8 8 0 002 12l58 31v139h1v1l1 1 1 1 185 100h1v1h2a8 8 0 002 0 7 7 0 002 0v-1h1l185-100 1-1 1-1v-1h1v-1-1-1-136l58-31a8 8 0 002-12l-56-57zM319 17l171 92-50 51-172-92 51-51zm-63 61l169 91-169 92-169-92 169-91zM72 179l172 92-51 51-118-64-53-28 50-51zm118 159a7 7 0 009-1l50-49v204L79 400V277l111 61zm247-80l-37 20-4 5a7 7 0 0011 9l26-15v123l-169 92V288l49 49a7 7 0 009 1l59-32c2-1 3-3 3-5v-5a8 8 0 00-10-3l-55 29-51-51 172-92 50 51-53 28z"/>
</svg>
