<svg xmlns="http://www.w3.org/2000/svg" height="599pt" viewBox="-72 0 599 599.3" width="599pt">
  <path d="M62 0h393v537H62zm0 0" fill="#5eb3d1"/>
  <path d="M320 72h-20v465h113V165zm0 0" fill="#4fa1b7"/>
  <path d="M393 599H0V62h289l104 103zm0 0" fill="#87ced9"/>
  <path d="M393 165H289V62zm0 0" fill="#b9e6ed"/>
  <path d="M72 196h248v21H72zm0 0M72 134h83v21H72zm0 0M72 258h166v21H72zm0 0M258 258h62v21h-62zm0 0M72 320h248v21H72zm0 0M72 444h248v21H72zm0 0M165 382h155v21H165zm0 0M72 382h73v21H72zm0 0M72 506h42v21H72zm0 0M134 506h186v21H134zm0 0" fill="#5eb3d1"/>
</svg>
