<svg height="512" viewBox="0 0 64 64" width="512" xmlns="http://www.w3.org/2000/svg">
  <path d="M36 13V9h-8v4s-7 8-7 12v31a5 5 0 005 5h12a5 5 0 005-5V25c0-4-7-12-7-12z" fill="#96c3f0"/>
  <path d="M32 62a5 5 0 01-5-5h2a3 3 0 006 0h2a5 5 0 01-5 5z" fill="#f4f4e6"/>
  <path d="M26 3h12v6H26z" fill="#e33e5c"/>
  <path d="M29 3h2v3h-2zM33 3h2v3h-2z" fill="#8b3123"/>
  <path d="M21 28h22v18H21z" fill="#e33e5c"/>
  <g fill="#f4f4e6">
    <path d="M28 11h5v2h-5zM40 28h-2v-3.7l-2.9-4.8 1.8-1 3 5a1 1 0 01.1.5zM38 46h2v5h-2zM38 53h2v2h-2z"/>
  </g>
  <path d="M30 36a2 2 0 01-4 0c0-1.1 2-4 2-4s2 2.9 2 4zM38 39a3 3 0 01-6 0c0-1.7 3-5 3-5s3 3.3 3 5z" fill="#e6f1fd"/>
</svg>
