<svg width="213" height="364" viewBox="0 0 213 364" fill="none" xmlns="http://www.w3.org/2000/svg">
<g clip-path="">
<path d="M182.127 317.327C181.213 331.057 172.837 342.291 163.514 342.291H49.3465C40.0233 342.291 31.6473 331.057 30.7339 317.327L12.722 46.6725C11.8086 32.9436 18.6899 21.7094 28.013 21.7094H184.848C194.171 21.7094 201.053 32.9425 200.139 46.6725L182.127 317.327Z" fill="#6B3A15"/>
<path d="M106 78V324H183L197 78H106Z" fill="#552E11"/>
<path d="M193.916 21.7103C204.379 21.7103 212.861 34.2613 212.861 49.7422C212.861 65.2241 204.378 77.7741 193.916 77.7741H18.9446C8.48228 77.7752 0 65.2252 0 49.7422C0 34.2613 8.48228 21.7103 18.9446 21.7103H193.916Z" fill="#6B3A15"/>
<path d="M202.547 22C208.32 22 213 34.5367 213 50C213 65.4643 208.32 78 202.547 78H106C106 59.9567 106 50.4676 106 50.4676C106 35.0043 106 38.9806 106 22H202.547Z" fill="#623513"/>
<g opacity="0.6">
<g clip-path="url(#clip1)">
<path d="M103.269 126.4C90.6457 118.879 79.4236 126.187 79.4236 126.187L114.598 144.341C114.598 144.341 115.892 133.92 103.269 126.4Z" fill="white"/>
<path d="M101.112 151.003C113.521 154.121 114.273 146.06 114.273 146.06L79.2102 127.8C79.2102 127.8 88.7019 147.889 101.112 151.003Z" fill="white"/>
<path d="M156.136 147.889C156.136 147.889 151.275 136.392 139.955 136.392C132.871 136.392 128.306 139.713 121.825 144.877C118.114 147.838 108.042 155.673 99.9656 161.937C88.3125 157.699 76.0272 155.441 63.6226 155.257H62.602H62.5463L62.435 155.29C62.3771 155.313 62.3225 155.344 62.2726 155.382C62.1851 155.443 62.1148 155.526 62.0685 155.622L49.1021 179.597C49.0355 179.705 49.0002 179.83 49 179.957C48.9993 180.01 49.0071 180.063 49.0232 180.114C49.0467 180.216 49.0945 180.311 49.1624 180.391C49.2023 180.443 49.251 180.486 49.3062 180.521C49.421 180.599 49.5568 180.641 49.6959 180.641H50.4382C58.6842 180.677 66.9225 181.149 75.1184 182.054C75.8653 182.137 76.6169 182.225 77.373 182.322C74.5896 185.094 64.1236 196.347 64.1236 213.757C64.1236 232.863 82.0771 240.831 91.643 241.164C102.944 241.557 107.681 237.889 115.869 234.064C120.113 232.082 126.849 228.151 130.672 222.395C134.495 216.64 137.278 209.129 137.278 201.243C137.278 192.402 133.725 183.075 124.205 175.412C119.264 171.465 113.879 168.104 108.158 165.397L119.343 150.578C119.343 150.578 117.297 160.463 129.378 161.322C141.458 162.182 155.705 149.719 155.705 149.719C155.705 149.719 121.839 150.361 121.18 149.719C120.522 149.076 120.749 148.753 121.18 148.333C121.612 147.912 156.136 147.889 156.136 147.889ZM113.818 230.659L113.479 230.983C113.294 231.071 112.477 231.856 111.624 232.05C111.624 232.05 111.596 232.078 111.577 232.087C72.7988 229.874 92.6729 189.769 94.8394 185.607C99.8404 186.937 104.438 188.623 108.103 190.743C119.789 197.52 123.249 204.814 123.263 211.313C123.263 216.704 120.819 221.652 118.337 225.25C117.304 226.746 116.166 228.168 114.932 229.505C114.477 230.031 114.087 230.396 113.818 230.659ZM123.333 176.516C132.537 183.953 135.859 192.794 135.886 201.271C135.886 208.828 133.238 216.127 129.512 221.661C126.564 226.139 122.374 229.67 117.451 231.824C116.836 232.024 116.198 232.15 115.553 232.198H114.189L114.254 232.165L114.333 232.096C114.366 232.036 124.618 222.964 124.66 211.332C124.66 204.287 120.763 196.453 108.803 189.561C100.174 184.581 86.9992 182.054 75.2715 180.724C67.1645 179.831 59.0166 179.356 50.8603 179.301L63.103 156.666H63.6226C75.5711 156.847 87.4093 158.975 98.6667 162.967L88.6972 170.686C88.6972 170.686 93.1739 170.968 96.31 172.27C97.9974 172.923 99.6063 173.761 101.107 174.769L107.309 166.547C113.026 169.231 118.404 172.577 123.333 176.516Z" fill="white"/>
<path d="M161.156 128.511C161.068 128.388 160.969 128.273 160.859 128.169C160.763 128.101 160.659 128.047 160.548 128.007C160.881 127.974 161.191 127.825 161.425 127.587C161.631 127.365 161.743 127.072 161.736 126.769C161.74 126.549 161.684 126.332 161.573 126.141C161.477 125.966 161.334 125.821 161.16 125.721C160.943 125.615 160.706 125.553 160.465 125.541C160.363 125.541 159.894 125.541 159.073 125.541H158.173V129.943H159.073V128.132H159.305C159.526 128.124 159.744 128.191 159.922 128.321C160.187 128.586 160.398 128.9 160.543 129.245L160.915 129.961H162.023L161.499 129.074C161.295 128.733 161.188 128.552 161.156 128.511ZM160.381 127.374C160.062 127.426 159.739 127.444 159.416 127.43H159.054V126.229H159.416C159.738 126.214 160.06 126.235 160.376 126.293C160.496 126.327 160.602 126.398 160.678 126.497C160.75 126.591 160.787 126.707 160.785 126.825C160.788 126.946 160.751 127.065 160.678 127.162C160.605 127.263 160.5 127.337 160.381 127.374Z" fill="white"/>
<path d="M163.638 125.633C163.28 124.987 162.744 124.456 162.093 124.104C161.464 123.756 160.757 123.573 160.038 123.573C159.318 123.573 158.611 123.756 157.983 124.104C157.329 124.455 156.791 124.986 156.433 125.633C156.067 126.265 155.874 126.982 155.874 127.712C155.874 128.442 156.067 129.159 156.433 129.791C156.79 130.437 157.324 130.969 157.973 131.324C158.605 131.684 159.32 131.873 160.047 131.873C160.775 131.873 161.489 131.684 162.121 131.324C162.768 130.968 163.3 130.436 163.656 129.791C164.02 129.163 164.21 128.45 164.208 127.726C164.206 126.99 164.009 126.269 163.638 125.633ZM162.947 129.38C162.658 129.898 162.229 130.325 161.708 130.613C161.201 130.904 160.627 131.057 160.042 131.057C159.458 131.057 158.883 130.904 158.377 130.613C157.857 130.327 157.429 129.899 157.143 129.38C156.845 128.875 156.685 128.302 156.679 127.717C156.684 127.127 156.844 126.549 157.143 126.04C157.43 125.519 157.861 125.093 158.386 124.811C158.89 124.532 159.457 124.386 160.033 124.386C160.609 124.386 161.176 124.532 161.68 124.811C162.206 125.092 162.64 125.519 162.928 126.04C163.227 126.549 163.386 127.127 163.392 127.717C163.391 128.298 163.237 128.87 162.947 129.375V129.38Z" fill="white"/>
</g>
</g>
</g>
<defs>
<clipPath id="clip0">
<rect width="213" height="364" fill="white"/>
</clipPath>
<clipPath id="clip1">
<rect x="49" y="123" width="115" height="118" fill="white"/>
</clipPath>
</defs>
</svg>
