<svg width="147" height="187" viewBox="0 0 147 187" fill="none" xmlns="http://www.w3.org/2000/svg">
<path d="M121.483 82.5365C121.433 82.5472 120.917 82.7498 120.267 83.0075C120.212 83.0188 120.159 83.0275 120.104 83.0391C114.314 84.2623 107.368 86.9283 106.021 89.4445C104.889 90.8514 104.653 91.8723 107.152 91.6952L92.688 115.644C84.2287 119.935 78.5776 121.921 68.4647 130.866C61.2749 143.634 50.8112 159.788 43.7379 172.705C43.1069 173.041 42.4764 173.378 41.8565 173.722C42.4042 173.516 42.9613 173.301 43.518 173.094C43.3437 173.414 43.1708 173.741 43.0009 174.056C47.04 176.965 56.6332 175.939 67.3299 173.25C68.6381 172.965 69.9601 172.657 71.2858 172.322C80.5651 169.974 90.1343 166.365 98.0639 161.128C98.1205 161.032 98.1714 160.934 98.2277 160.838C98.5705 160.826 98.9116 160.813 99.2504 160.803C98.9834 160.702 98.7023 160.613 98.4197 160.521C106.161 147.328 113.667 131.548 121.048 118.52C121.051 118.392 121.057 118.265 121.05 118.142C120.948 116.296 119.784 114.997 118.077 113.967C117.536 113.577 116.941 113.291 116.292 113.062C116.13 112.989 115.97 112.922 115.803 112.852C114.434 112.278 112.911 111.77 111.403 111.25L123.706 87.8085C126.737 86.6874 127.759 85.4821 128.114 84.2575C128.289 83.9567 128.374 83.6884 128.364 83.4637C128.359 83.3514 128.318 83.2554 128.271 83.1611C128.247 83.114 128.226 83.0635 128.192 83.0208C128.158 82.9781 128.117 82.9413 128.074 82.9029C128.03 82.8644 127.978 82.8263 127.925 82.7921C127.872 82.7579 127.815 82.7302 127.753 82.7001C127.629 82.64 127.5 82.5822 127.343 82.5382C126.87 82.4062 126.237 82.3519 125.507 82.3533C124.534 82.3553 123.375 82.4608 122.099 82.6637C121.779 82.7144 121.449 82.7727 121.118 82.8343C120.874 82.8797 120.623 82.9314 120.374 82.9824C120.739 82.8281 121.103 82.6841 121.484 82.5365L121.483 82.5365Z" fill="url(#paint0_linear)"/>
<path d="M23.88 6.7572C24.106 9.46489 25.0115 11.5963 27.9966 11.8862L37.9829 59.2603C32.2652 66.1785 27.4045 68.9184 25.1078 85.353C31.3061 111.637 37.3201 144.763 43.892 170.955C52.5193 178.26 63.5828 178.633 74.0687 175.742C84.7454 173.664 94.4877 168.407 98.9619 158.025C93.1904 131.645 83.8337 99.3052 77.6867 73.0081C72.9322 64.2733 64.8533 59.7174 56.6984 54.8661L44.5578 7.9978C47.1017 6.41002 46.9643 4.09824 45.9616 1.5727C43.8358 -7.97149 21.4905 -2.69893 23.8797 6.75727L23.88 6.7572Z" fill="#80D62C" stroke="black" stroke-width="6.6372"/>
<path d="M31.1987 -0.886335C25.6452 0.421152 24.4117 1.20667 25.6061 5.93482C25.8321 8.64251 26.7377 10.7739 29.7227 11.0638L39.709 58.4379C33.9913 65.3561 29.1306 68.0961 26.8339 84.5306C33.0322 110.814 39.0462 143.941 45.6181 170.133C48.3141 172.416 51.228 174.033 54.3078 175.074C53.696 174.635 49.0397 172.555 48.449 172.055C41.6434 144.932 35.5341 111.18 29.1156 83.9626C31.4939 66.9435 35.4479 67.151 41.369 59.9873L31.4772 11.5032C28.3863 11.2032 32.0474 6.43406 31.8134 3.63015C31.0511 0.612846 32.708 -2.01264 35.4474 -3.88548C35.2788 -3.85049 31.3672 -0.922922 31.1994 -0.883432L31.1987 -0.886335Z" fill="white"/>
<path d="M23.88 6.7572C24.106 9.46489 25.0115 11.5963 27.9966 11.8862L37.9829 59.2603C32.2652 66.1785 27.4045 68.9185 25.1078 85.353C31.3061 111.637 37.3201 144.763 43.892 170.955C52.5193 178.26 63.5828 178.633 74.0687 175.742C84.7454 173.664 94.4877 168.407 98.9619 158.025C93.1904 131.645 83.8337 99.3052 77.6867 73.0081C72.9322 64.2733 64.8533 59.7174 56.6984 54.8661L44.5578 7.9978C47.1017 6.41002 46.9643 4.09824 45.9616 1.5727C43.8358 -7.97149 21.4905 -2.69893 23.8797 6.75727L23.88 6.7572Z" stroke="black" stroke-width="6.6372"/>
<path d="M43.5049 6.62941C41.1143 8.21973 38.2351 9.4778 35.0383 10.2284C32.225 10.8889 29.4667 11.0847 26.9017 10.8768C29.5355 12.1829 32.6313 12.606 35.7347 11.8774C39.0216 11.1056 41.7243 9.18047 43.5044 6.62957L43.5049 6.62941Z" fill="black"/>
<path d="M26.2243 5.32019L31.9444 5.15547L31.9488 -0.157846C31.9488 -0.157846 24.5524 2.99979 26.2243 5.32023L26.2243 5.32019Z" fill="#4E9A06"/>
<path d="M41.907 1.0486C39.5164 2.63892 36.6372 3.897 33.4404 4.64759C30.6271 5.30811 27.8688 5.50386 25.3038 5.29596C27.9376 6.60206 31.0334 7.02521 34.1368 6.29657C37.4238 5.52483 40.1264 3.59968 41.9065 1.04877L41.907 1.0486Z" fill="black"/>
<path d="M44.233 1.96316C45.9854 5.11435 45.7764 6.80594 43.2322 8.39358L55.2494 55.5918C63.4486 59.2424 68.0747 59.3542 77.4455 73.0494C83.5921 99.345 92.9493 131.687 98.7207 158.067C97.3224 161.311 87.9737 172.085 77.8746 172.812C89.9125 166.565 66.8828 97.5586 61.0248 77.0523C57.7708 62.9595 54.8948 59.5788 51.3514 58.0447L38.8383 9.89267C41.4727 8.24844 40.1471 5.93594 39.1087 3.32056C41.303 1.9546 43.5257 -2.88012 44.2329 1.96564L44.233 1.96316Z" fill="#4E9A06"/>
<path d="M41.9813 1.51812C41.9813 1.51812 39.7562 2.65185 36.7856 3.91631C36.7856 3.91631 39.445 -0.602899 34.417 -0.839844C34.417 -0.839844 42.4458 -1.30387 41.9813 1.51817L41.9813 1.51812Z" fill="white"/>
<path opacity="0.36466" d="M64.0396 173.601C59.2628 173.823 55.0879 173.095 51.8173 171.47L49.8793 170.507L49.4305 168.285L48.9818 166.062L51.0629 164.883C53.7647 163.352 57.6653 161.47 60.8805 160.146C64.7941 158.534 74.453 156.348 78.5933 156.137C82.7157 155.927 86.1411 155.991 89.951 156.351C92.966 156.635 93.1609 156.69 93.3023 157.292C93.4093 157.748 93.1292 158.468 92.3249 159.804C89.572 164.376 85.6591 167.594 79.947 169.983C76.7064 171.339 67.4575 173.442 64.04 173.601L64.0396 173.601Z" fill="white"/>
<path opacity="0.27068" d="M100.104 157.655C90.1438 155.999 79.5246 155.349 68.4554 157.948C58.7134 160.235 49.597 165.014 42.0394 169.933C48.0148 161.06 56.8564 154.52 67.6028 151.997C78.985 149.325 90.4532 151.642 100.104 157.655Z" fill="black"/>
<path opacity="0.25188" d="M40.9527 60.8743C40.9527 60.8743 58.1313 60.4493 57.3283 57.0294C56.5254 53.6096 76.1066 70.2617 74.94 72.1394C73.7735 74.017 40.7648 92.5921 29.8885 83.9197C19.0122 75.247 42.1846 60.9861 40.9527 60.8745L40.9527 60.8743Z" fill="white"/>
<path d="M55.0293 56.9387C52.6388 58.5291 49.7595 59.7871 46.5627 60.5377C43.7494 61.1982 40.9911 61.394 38.4261 61.186C41.0599 62.4921 44.3342 63.6753 47.4375 62.9466C50.7245 62.1749 53.2487 59.4898 55.0288 56.9389L55.0293 56.9387Z" fill="black"/>
<path d="M73.5124 72.6458C67.2026 76.8434 60.1171 80.6448 51.6795 82.6258C44.2536 84.3693 36.4582 84.4055 29.688 83.8566C36.64 87.3042 44.8123 88.4206 53.0035 86.4974C61.6797 84.4603 68.8135 79.3789 73.5123 72.6456L73.5124 72.6458Z" fill="black"/>
<defs>
<linearGradient id="paint0_linear" x1="97.1333" y1="127.26" x2="105.554" y2="83.2253" gradientUnits="userSpaceOnUse">
<stop stop-color="#D3D7CF"/>
<stop offset="1" stop-color="#D3D7CF" stop-opacity="0"/>
</linearGradient>
</defs>
</svg>
