<?xml version="1.0" encoding="iso-8859-1"?>
<!-- Generator: Adobe Illustrator 19.0.0, SVG Export Plug-In . SVG Version: 6.00 Build 0)  -->
<svg version="1.1" id="Layer_1" xmlns="http://www.w3.org/2000/svg" xmlns:xlink="http://www.w3.org/1999/xlink" x="0px" y="0px"
	 viewBox="0 0 504.123 504.123" style="enable-background:new 0 0 504.123 504.123;" xml:space="preserve">
<path style="fill:#0EE0B8;" d="M411.916,0H92.207C78.62,0,67.623,11.012,67.623,24.6v327.601l157.995,151.922h186.297
	c13.588,0,24.584-11.004,24.584-24.584V24.6C436.5,11.012,425.504,0,411.916,0z"/>
<path style="fill:#D2DBDB;" d="M411.916,0H92.207C78.62,0,67.623,11.012,67.623,24.6v327.601l157.995,151.922h186.297
	c13.588,0,24.584-11.004,24.584-24.584V24.6C436.5,11.012,425.504,0,411.916,0z"/>
<g>
	<path style="fill:#C5D3D3;" d="M436.5,392.893V24.6c0-13.588-10.996-24.6-24.584-24.6H210.369"/>
	<path style="fill:#C5D3D3;" d="M205.659,357.754v122.628c0,1.757,0.236,3.466,0.599,5.128l18.897,18.188
		c1.394,0.252,2.796,0.425,4.261,0.425h128.638L205.848,357.754H205.659z"/>
</g>
<g>
	<path style="fill:#ACC1C1;" d="M205.659,357.754v122.628c0,1.757,0.236,3.466,0.599,5.128l18.897,18.188
		c1.394,0.252,2.796,0.425,4.261,0.425h65.631l-73.46-122.754L205.659,357.754z"/>
	<path style="fill:#ACC1C1;" d="M225.619,504.123h0.173V377.084c0-13.58-11.004-24.584-24.584-24.584H67.907L225.619,504.123z"/>
</g>
<polyline style="fill:#93A4A5;" points="67.907,352.5 225.619,504.123 225.792,504.123 225.792,377.084 "/>
<g>
	<path style="fill:#616B6B;" d="M378.88,244.24c0,3.45-3.182,6.27-7.081,6.27H132.348c-3.915,0-7.081-2.812-7.081-6.27l0,0
		c0-3.45,3.167-6.27,7.081-6.27h239.443C375.69,237.97,378.88,240.782,378.88,244.24L378.88,244.24z"/>
	<path style="fill:#616B6B;" d="M378.88,292.777c0,3.458-3.182,6.27-7.081,6.27H132.348c-3.915,0-7.081-2.804-7.081-6.27l0,0
		c0-3.45,3.167-6.254,7.081-6.254h239.443C375.69,286.523,378.88,289.319,378.88,292.777L378.88,292.777z"/>
</g>
<g>
	<path style="fill:#C63205;" d="M373.059,423.511c0,17.762-14.399,32.161-32.154,32.161h-38.849
		c-17.755,0-32.146-14.399-32.146-32.161v-38.849c0-17.762,14.391-32.146,32.146-32.146h38.849
		c17.755,0,32.154,14.383,32.154,32.146V423.511z"/>
	<path style="fill:#C63205;" d="M145.408,89.553c1.3-1.441,1.93-3.033,1.93-4.766c0-4.364-3.45-7.798-7.861-7.798h-11.981
		c-0.646,0-1.182,0.52-1.182,1.182v24.726c0,0.638,0.536,1.15,1.182,1.15h12.146c4.64,0,8.531-3.86,8.531-8.476
		C148.173,93.216,147.141,91.041,145.408,89.553z M133.727,93.334h4.789c0.961,0,1.772,0.819,1.772,1.82
		c0,1.016-0.78,1.804-1.772,1.804h-4.789V93.334z M138.335,86.457h-4.616v-2.465h4.616c0.685,0,1.276,0.551,1.276,1.229
		C139.618,85.874,139.02,86.457,138.335,86.457z"/>
	<path style="fill:#C63205;" d="M172.867,76.981h-10.902c-0.646,0-1.174,0.52-1.174,1.182v24.726c0,0.638,0.528,1.15,1.174,1.15
		h5.049c0.662,0,1.166-0.512,1.166-1.15v-6.073h2.174c3.009,0,4.419,2.938,4.419,4.907v1.166c0,0.638,0.512,1.15,1.174,1.15h5.049
		c0.67,0,1.205-0.512,1.205-1.15v-1.434c0-2.489-0.866-5.553-3.143-7.444c1.938-2.024,3.143-4.876,3.143-7.648
		C182.209,81.187,177.995,76.981,172.867,76.981z M168.188,83.984h3.356c1.591,0,2.93,1.339,2.93,2.922
		c0,1.599-1.323,2.907-2.93,2.907h-3.356V83.984z"/>
	<path style="fill:#C63205;" d="M211.039,96.957h-8.617v-3.505h7.877c0.646,0,1.166-0.528,1.166-1.182v-4.632
		c0-0.654-0.52-1.174-1.166-1.174h-7.877v-2.363h8.381c0.662,0,1.174-0.559,1.174-1.182v-4.742c0-0.662-0.512-1.182-1.174-1.182
		h-14.612c-0.638,0-1.166,0.52-1.166,1.182v24.726c0,0.638,0.528,1.15,1.166,1.15h14.848c0.63,0,1.174-0.512,1.174-1.15v-4.758
		C212.212,97.493,211.669,96.957,211.039,96.957z"/>
	<path style="fill:#C63205;" d="M235.969,77.036c-0.165-0.394-0.599-0.685-1.095-0.685c-0.449,0-0.882,0.291-1.071,0.685
		L222.602,102.4c-0.142,0.362-0.118,0.803,0.095,1.134c0.228,0.331,0.591,0.512,0.992,0.512h5.317c0.48,0,0.914-0.26,1.095-0.709
		l1.528-3.647h6.569l1.489,3.631c0.189,0.449,0.614,0.725,1.103,0.725h5.309h0.016c0.662,0,1.182-0.512,1.182-1.15
		c0-0.276-0.079-0.504-0.197-0.709L235.969,77.036z M234.874,91.12l0.756,1.757h-1.481L234.874,91.12z"/>
	<path style="fill:#C63205;" d="M271.667,89.159l7.609-10.295c0.244-0.37,0.315-0.835,0.079-1.252
		c-0.165-0.378-0.599-0.63-1.04-0.63h-5.671c-0.402,0-0.756,0.181-0.977,0.512l-5.301,7.546v-6.877c0-0.662-0.544-1.182-1.189-1.182
		h-5.057c-0.63,0-1.182,0.52-1.182,1.182v24.726c0,0.638,0.551,1.15,1.182,1.15h5.057c0.646,0,1.189-0.512,1.189-1.15v-6.624
		l0.701-0.945l5.648,8.224c0.213,0.315,0.583,0.496,0.992,0.496h6.357c0.433,0,0.827-0.236,1.032-0.63
		c0.228-0.402,0.173-0.859-0.079-1.229L271.667,89.159z"/>
	<path style="fill:#C63205;" d="M298.874,76.981h-5.049c-0.662,0-1.197,0.52-1.197,1.182v24.726c0,0.638,0.536,1.15,1.197,1.15
		h5.049c0.646,0,1.182-0.512,1.182-1.15V78.163C300.064,77.509,299.52,76.981,298.874,76.981z"/>
	<path style="fill:#C63205;" d="M335.596,76.981h-4.718c-0.638,0-1.174,0.52-1.174,1.182v9.397l-8.72-10.161
		c-0.189-0.276-0.52-0.425-0.874-0.425h-4.403c-0.685,0-1.189,0.52-1.189,1.182v24.726c0,0.638,0.504,1.15,1.189,1.15h4.718
		c0.662,0,1.182-0.512,1.182-1.15v-14.36l13.091,15.73c0.252,0.291,0.575,0.433,0.898,0.433c0.165,0,0.291-0.016,0.441-0.095
		c0.449-0.158,0.78-0.599,0.78-1.103V78.155C336.817,77.509,336.289,76.981,335.596,76.981z"/>
	<path style="fill:#C63205;" d="M377.612,88.489c-0.079-0.575-0.551-0.985-1.134-0.985h-13.296c-0.677,0-1.197,0.512-1.197,1.166
		v4.632c0,0.654,0.52,1.174,1.197,1.174h5.829c-1.048,1.646-2.859,3.048-5.537,3.048c-3.694,0-6.585-3.033-6.585-6.908
		c0-3.899,2.891-6.979,6.585-6.979c2.166,0,4.167,1.04,5.341,2.757c0.173,0.268,0.473,0.449,0.772,0.504
		c0.331,0.063,0.646-0.039,0.922-0.213l4.151-3.056c0.228-0.189,0.417-0.473,0.449-0.78c0.063-0.307-0.032-0.63-0.213-0.866
		c-2.686-3.647-6.648-5.585-11.414-5.585c-7.861,0-14.265,6.372-14.265,14.218c0,7.822,6.396,14.163,14.265,14.163
		c7.916,0,14.336-6.341,14.336-14.163C377.817,89.884,377.746,89.198,377.612,88.489z"/>
</g>
<path style="fill:#616B6B;" d="M182.752,118.422h-9.476c-1.276,0-2.324,1.04-2.324,2.347v37.014l-31.216-38.495
	c-0.473-0.544-1.15-0.866-1.835-0.866h-9.303c-1.268,0-2.292,1.04-2.292,2.347v69.151c0,1.268,1.024,2.316,2.292,2.316h9.507
	c1.276,0,2.324-1.048,2.324-2.316v-45.773l40.543,48.435c0.473,0.551,1.111,0.835,1.78,0.835c0.276,0,0.536-0.024,0.796-0.142
	c0.929-0.323,1.544-1.205,1.544-2.174v-70.341C185.092,119.461,184.029,118.422,182.752,118.422z"/>
<g>
	<path style="fill:#404949;" d="M238.001,177.703h-28.514v-18.747h26.498c1.3,0,2.347-1.032,2.347-2.339v-9.492
		c0-1.26-1.048-2.292-2.347-2.292h-26.498v-12.06h27.9c1.292,0,2.339-1.032,2.339-2.332v-9.673c0-1.308-1.048-2.347-2.339-2.347
		h-40.306c-1.26,0-2.332,1.04-2.332,2.347v69.152c0,1.268,1.071,2.316,2.332,2.316h40.921c1.268,0,2.3-1.048,2.3-2.316v-9.878
		C240.301,178.743,239.269,177.703,238.001,177.703z"/>
	<path style="fill:#404949;" d="M320.173,118.422h-10.571c-0.961,0-1.788,0.575-2.158,1.465l-15.714,38.676l-15.746-38.676
		c-0.339-0.882-1.189-1.465-2.143-1.465h-10.594c-0.756,0-1.481,0.394-1.891,1.04c-0.449,0.614-0.52,1.441-0.236,2.158
		l13.383,33.312l-1.528,3.663l-15.746-38.715c-0.347-0.882-1.205-1.465-2.158-1.465h-10.587c-0.756,0-1.489,0.394-1.883,1.04
		c-0.449,0.614-0.544,1.441-0.252,2.166l28.467,70.333c0.339,0.89,1.182,1.465,2.127,1.465l0,0c0.961,0,1.82-0.567,2.19-1.441
		l7.207-17.833l7.255,17.833c0.339,0.866,1.189,1.441,2.143,1.441l0,0c0.914,0,1.804-0.567,2.15-1.465l28.436-70.333
		c0.291-0.733,0.221-1.552-0.213-2.166C321.678,118.816,320.922,118.422,320.173,118.422z"/>
	<path style="fill:#404949;" d="M355.942,147.968h-10.201c-4.261,0-7.712-3.474-7.712-7.735c0-4.261,3.45-7.751,7.712-7.751h20.842
		c1.292,0,2.339-1.048,2.339-2.332v-9.374c0-1.308-1.048-2.347-2.339-2.347h-22.016c-11.863,0-21.496,9.681-21.496,21.591
		c0,11.973,9.838,22.111,21.496,22.111h9.602c4.742,0,8.326,3.348,8.326,7.853c0,4.419-3.584,7.719-8.326,7.719h-25.033
		c-1.276,0-2.292,1.048-2.292,2.347v9.878c0,1.268,1.016,2.316,2.292,2.316h26.797c12.028,0,21.874-10.019,21.874-22.37
		C377.817,157.798,367.97,147.968,355.942,147.968z"/>
</g>
<g>
	<path style="fill:#616B6B;" d="M257.221,119.887c-0.347-0.882-1.205-1.465-2.158-1.465h-10.587c-0.756,0-1.489,0.394-1.883,1.04
		c-0.449,0.614-0.544,1.441-0.252,2.166l8.641,21.362l11.13-11.122L257.221,119.887z"/>
	<path style="fill:#616B6B;" d="M273.841,118.422h-10.594c-0.756,0-1.481,0.394-1.891,1.04c-0.449,0.614-0.52,1.441-0.236,2.158
		l3.214,7.995l10.815-10.799C274.755,118.579,274.322,118.422,273.841,118.422z"/>
	<path style="fill:#616B6B;" d="M235.985,144.833h-26.498v-12.06h27.9c1.292,0,2.339-1.032,2.339-2.332v-9.673
		c0-1.308-1.048-2.347-2.339-2.347h-40.306c-1.26,0-2.332,1.04-2.332,2.347v69.152c0,1.268,1.071,2.316,2.332,2.316h4.64
		l14.533-14.541h-6.758v-18.747H235l3.34-3.34v-8.491C238.332,145.865,237.284,144.833,235.985,144.833z"/>
</g>
<g>
</g>
<g>
</g>
<g>
</g>
<g>
</g>
<g>
</g>
<g>
</g>
<g>
</g>
<g>
</g>
<g>
</g>
<g>
</g>
<g>
</g>
<g>
</g>
<g>
</g>
<g>
</g>
<g>
</g>
</svg>
