<svg xmlns="http://www.w3.org/2000/svg" viewBox="0 0 512 512">
  <path d="M468 74c-1-2-7-25-30-35A4723 4723 0 00335 0H177l-3 1L74 39a54 54 0 00-30 35l-20 84 79 69v253h306V227l79-69-20-84z" fill="#ff7140"/>
  <path d="M57 51a58 58 0 00-13 23l-20 84 79 69V127L57 51z" fill="#e03c2f"/>
  <path fill="#d83a25" d="M81 177v31l22 19V127L81 90z"/>
  <path d="M468 74c-1-1-4-13-13-23l-46 76v100l79-69-20-84z" fill="#e03c2f"/>
  <path d="M257 93c41 0 80-40 80-93H176c0 53 39 93 81 93z" fill="#ed4d2e"/>
  <path d="M292 0c0 43-26 77-58 88 7 3 15 5 23 5 41 0 80-40 80-93h-45z" fill="#d83a25"/>
  <path d="M278 37h-43a8 8 0 110-17h43a8 8 0 110 17z" fill="#fff"/>
  <g fill="#fcf1d4">
    <path d="M249 29c0-5 3-9 8-9h-22a8 8 0 100 17h22c-5 0-8-4-8-8zM17 185c-1 4 2 9 6 10l80 32v-36l-79-33-7 27z"/>
  </g>
  <path fill="#f7dda4" d="M81 187v31l22 9v-36l-22-9z"/>
  <path fill="#d83a25" d="M431 177v31l-22 19V127l22-37z"/>
  <path d="M495 185l-3-10-4-17-79 33v36l80-32c4-1 7-6 6-10z" fill="#fcf1d4"/>
  <path fill="#f7dda4" d="M431 187v31l-22 9v-36l22-9z"/>
  <path d="M168 478h-65v25c0 5 4 9 9 9h288c5 0 9-4 9-9v-25H168z" fill="#fcf1d4"/>
</svg>
