<?xml version="1.0" encoding="iso-8859-1"?>
<!-- Generator: Adobe Illustrator 19.0.0, SVG Export Plug-In . SVG Version: 6.00 Build 0)  -->
<svg version="1.1" id="Layer_1" xmlns="http://www.w3.org/2000/svg" xmlns:xlink="http://www.w3.org/1999/xlink" x="0px" y="0px"
	 viewBox="0 0 512 512" style="enable-background:new 0 0 512 512;" xml:space="preserve">
<path style="fill:#F9EBDB;" d="M297.514,235.243V512H48.432V235.243l47.049-66.422l77.486,22.141l77.486-22.141
	C250.465,168.822,297.514,235.243,297.514,235.243z"/>
<path style="fill:#FC9851;" d="M264.303,356.518v122.271H81.643V356.518c45.665,0,45.665,22.141,91.33,22.141
	S218.638,356.518,264.303,356.518z"/>
<polygon style="fill:#E8D6BD;" points="250.454,168.822 206.184,235.243 139.762,235.243 95.481,168.822 "/>
<path style="fill:#F9EBDB;" d="M380.541,0c-27.469,0-49.816,22.348-49.816,49.816v44.281c0,18.312-14.898,33.211-33.211,33.211
	s-33.211-14.898-33.211-33.211V49.816C264.303,22.348,241.955,0,214.486,0S164.67,22.348,164.67,49.816v152.216h16.605V49.816
	c0-18.312,14.898-33.211,33.211-33.211s33.211,14.898,33.211,33.211v44.281c0,27.469,22.348,49.816,49.816,49.816
	s49.816-22.348,49.816-49.816V49.816c0-18.312,14.898-33.211,33.211-33.211s33.211,14.898,33.211,33.211v351.481h16.605V49.816
	C430.357,22.348,408.009,0,380.541,0z"/>
<g>
	<circle style="fill:#EF5352;" cx="150.832" cy="442.811" r="8.303"/>
	<circle style="fill:#EF5352;" cx="117.622" cy="409.6" r="8.303"/>
</g>
<path style="fill:#FFFFFF;" d="M184.043,210.335h-22.141c-4.586,0-8.303-3.716-8.303-8.303c0-4.586,3.716-8.303,8.303-8.303h22.141
	c4.586,0,8.303,3.716,8.303,8.303C192.346,206.619,188.63,210.335,184.043,210.335z"/>
<polygon style="fill:#EF5352;" points="463.568,395.762 463.568,478.789 380.541,478.789 380.541,395.762 422.054,379.157 "/>
<g>
</g>
<g>
</g>
<g>
</g>
<g>
</g>
<g>
</g>
<g>
</g>
<g>
</g>
<g>
</g>
<g>
</g>
<g>
</g>
<g>
</g>
<g>
</g>
<g>
</g>
<g>
</g>
<g>
</g>
</svg>
