<svg height="464pt" viewBox="0 -28 464 464" width="464pt" xmlns="http://www.w3.org/2000/svg">
  <path d="M232 8C104 8 0 37 0 72v272c0 35 104 64 232 64s232-29 232-64V72c0-35-104-64-232-64zm0 0" fill="#f98c96"/>
  <path d="M232 8C104 8 0 37 0 72v40c0 35 104 64 232 64s232-29 232-64V72c0-35-104-64-232-64zm0 0M40 204v176c42 17 112 28 192 28s150-11 192-28V204c-42 17-112 28-192 28S82 221 40 204zm0 0" fill="#dd3e46"/>
  <path d="M152 304s104-64 184 8c0 0-16 40-96 40s-88-48-88-48zm0 0M464 64c-1 9-7 18-15 23l-15 9c-40 19-116 32-202 32C104 128 0 99 0 64S104 0 232 0s232 29 232 64zm0 0" fill="#cfdfe8"/>
  <path d="M200 72c0-13-29-24-64-24S72 59 72 72s29 24 64 24 64-11 64-24zm0 0" fill="#426d78"/>
  <path d="M449 87l-15 9c-18-12-67-34-170-40V40c122 7 171 36 185 47zm0 0M224 40h16v16h-16zm0 0M152 304s0 32-40 48c9-31 9-65 0-96 0 0 40 24 40 48zm0 0" fill="#aabece"/>
  <g fill="#f98c96">
    <path d="M373 272v-16c22 0 61-15 61-15l6 14c-2 1-42 17-67 17zm0 0M341 256h16v16h-16zm0 0M64 344h16v16H64zm0 0"/>
  </g>
</svg>
