<svg width="213" height="364" viewBox="0 0 213 364" fill="none" xmlns="http://www.w3.org/2000/svg">
<g clip-path="">
<path d="M182.127 317.327C181.213 331.057 172.837 342.291 163.514 342.291H49.3465C40.0233 342.291 31.6473 331.057 30.7339 317.327L12.722 46.6725C11.8086 32.9436 18.6899 21.7094 28.013 21.7094H184.848C194.171 21.7094 201.053 32.9425 200.139 46.6725L182.127 317.327Z" fill="#505050"/>
<path d="M107 78V324H184L198 78H107Z" fill="#404040"/>
<path d="M193.916 21.7103C204.379 21.7103 212.861 34.2613 212.861 49.7422C212.861 65.2241 204.378 77.7741 193.916 77.7741H18.9446C8.48228 77.7752 0 65.2252 0 49.7422C0 34.2613 8.48228 21.7103 18.9446 21.7103H193.916Z" fill="#505050"/>
<path d="M202.547 22C208.32 22 213 34.5367 213 50C213 65.4643 208.32 78 202.547 78H106C106 59.9567 106 50.4676 106 50.4676C106 35.0043 106 38.9806 106 22H202.547Z" fill="#4B4B4B"/>
<g opacity="0.6">
<g style="mix-blend-mode:overlay">
<path d="M57.2644 181.57H107.02H57.2644Z" stroke="white" stroke-width="3.5" stroke-linecap="round" stroke-linejoin="round"/>
<path d="M105.438 181.966L99.5026 244.574H70.1832L58.8274 181.966" stroke="white" stroke-width="3.5" stroke-linecap="round" stroke-linejoin="round"/>
<path d="M92.1431 244.574L94.3589 181.57H82.4492L84.4671 244.574H78.0968L70.302 181.57M60.9246 193.061H104.251L103.459 203.364H62.7051L64.5648 213.666H102.351L101.481 223.969H66.5035L68.3236 234.271H100.294L60.9246 193.061Z" stroke="white" stroke-width="3.5" stroke-linecap="round" stroke-linejoin="round"/>
<path d="M77.8594 140.954L141.048 141.113C146.588 147.294 155.688 168.097 156.084 173.249L124.43 174.834C123.639 164.135 118.891 154.585 118.099 153.08L77.8594 140.954ZM124.43 176.815L113.747 246.159L138.279 200.59L149.357 246.555L155.688 177.607L124.43 176.815Z" fill="white"/>
<path d="M128.387 139.567C134.942 139.567 140.257 134.245 140.257 127.68C140.257 121.115 134.942 115.792 128.387 115.792C121.831 115.792 116.516 121.115 116.516 127.68C116.516 134.245 121.831 139.567 128.387 139.567Z" fill="white"/>
<path d="M65.7122 170.079C76.5536 164.531 76.4745 156.21 77.3449 156.21C87.6324 160.569 97.5242 161.757 103.855 160.172C85.4167 174.437 94.7545 174.834 92.2222 174.041C84.4275 171.267 73.1112 179.589 65.7122 170.079ZM85.0605 158.984C95.1502 158.984 95.1502 155.814 97.1286 154.902C97.1286 154.902 98.3156 158.984 100.69 160.965" fill="white"/>
</g>
</g>
</g>
<defs>
<clipPath id="clip0">
<rect width="213" height="364" fill="white"/>
</clipPath>
</defs>
</svg>
