<?xml version="1.0" encoding="iso-8859-1"?>
<!-- Generator: Adobe Illustrator 19.0.0, SVG Export Plug-In . SVG Version: 6.00 Build 0)  -->
<svg version="1.1" id="Layer_1" xmlns="http://www.w3.org/2000/svg" xmlns:xlink="http://www.w3.org/1999/xlink" x="0px" y="0px"
	 viewBox="0 0 512 512" style="enable-background:new 0 0 512 512;" xml:space="preserve">
<g>
	<path style="fill:#527F72;" d="M282.483,97.103V44.138h-52.966v52.966c0,63.267-61.793,97.103-61.793,158.897v238.345
		c0,9.746,7.91,17.655,17.655,17.655h141.241c9.746,0,17.655-7.91,17.655-17.655V256
		C344.276,194.207,282.483,160.371,282.483,97.103"/>
	<polygon style="fill:#355B4F;" points="220.691,44.138 291.311,44.138 291.311,0 220.691,0 	"/>
	<polygon style="fill:#F9EBB0;" points="203.035,476.69 308.966,476.69 308.966,406.069 203.035,406.069 	"/>
	<path style="fill:#355B4F;" d="M256,273.552c4.273-9.181,13.727-17.549,25.088-17.549c15.298,0,26.324,11.855,27.71,25.988
		c0,0,0.742,3.513-0.9,9.825c-2.242,8.598-7.512,16.243-14.61,22.069L256,344.279l-37.288-30.393
		c-7.097-5.826-12.367-13.974-14.61-22.572c-1.642-6.321-0.9-9.834-0.9-9.834c1.386-14.124,12.412-25.476,27.71-25.476
		C242.273,256.003,251.727,264.371,256,273.552"/>
	<path style="fill:#CCBB85;" d="M282.483,450.207h-52.966c-4.873,0-8.828-3.946-8.828-8.828c0-4.882,3.955-8.828,8.828-8.828h52.966
		c4.873,0,8.828,3.946,8.828,8.828C291.31,446.261,287.356,450.207,282.483,450.207"/>
</g>
<g>
</g>
<g>
</g>
<g>
</g>
<g>
</g>
<g>
</g>
<g>
</g>
<g>
</g>
<g>
</g>
<g>
</g>
<g>
</g>
<g>
</g>
<g>
</g>
<g>
</g>
<g>
</g>
<g>
</g>
</svg>
