<svg width="195" height="74" viewBox="0 0 195 74" fill="none" xmlns="http://www.w3.org/2000/svg">
<path d="M82.2879 47.4012C82.5383 47.0242 82.6634 46.7729 82.6634 46.5215C83.9155 43.3798 85.6683 40.615 88.0471 38.2273C90.0503 36.2165 92.0535 34.2058 94.0567 32.0694C95.8095 30.31 97.4371 28.5506 99.1899 26.6656C98.9395 26.2885 98.8143 25.9115 98.5639 25.6602C98.1883 25.1575 97.8127 24.7805 97.3119 24.4035C93.8063 21.3874 91.4275 17.6173 89.6747 13.3444C89.1739 12.0877 88.7983 10.831 88.5479 9.44864C88.4227 8.94595 88.5479 8.31761 88.6731 7.68925C88.9235 6.93523 89.4243 6.55821 90.1755 6.55821C90.9267 6.55821 91.4275 6.93522 91.6779 7.56357C91.9283 8.19193 92.0535 8.82029 92.1787 9.32297C92.6795 12.0877 94.0567 14.4755 95.9347 16.7376C96.0599 16.8632 96.1851 17.2402 96.3103 17.3659C96.4355 17.2402 96.5607 17.2402 96.6859 17.1146C96.8111 15.8579 96.9363 14.6012 97.0615 13.3444C97.1867 11.8364 97.4371 10.3283 97.4371 8.82028C97.4371 7.18656 97.3119 5.55285 97.1867 3.91913C97.1867 3.1651 97.0615 2.2854 97.0615 1.53138C97.0615 0.651683 97.5623 0.0233234 98.1883 0.0233234C98.9395 -0.102347 99.5655 0.274665 99.8159 1.28003C100.567 4.29613 100.692 7.31224 100.442 10.454C100.191 12.5904 99.9411 14.8525 99.6907 16.9889C99.6907 17.1146 99.6907 17.1146 99.6907 17.2402C99.4403 19.5023 99.8159 21.513 102.445 22.3927C102.695 22.1414 102.946 21.7644 103.196 21.3874C105.074 18.7483 106.577 15.8579 107.954 12.8418C108.956 10.7054 109.832 8.56895 110.834 6.55821C111.084 5.92986 111.46 5.30151 111.96 4.67315C112.586 3.79346 113.588 3.54212 114.464 3.91913C115.341 4.29614 115.842 5.05016 115.842 6.05553C115.842 6.68388 115.716 7.31224 115.591 7.94059C115.216 9.1973 114.965 10.5797 114.464 11.8364C111.46 19.7537 107.328 27.0426 102.069 33.5774C98.9395 37.5989 95.8095 41.6204 92.6795 45.6418C91.8031 46.8986 90.9267 48.2809 90.0503 49.5376C88.0471 52.6794 86.9203 55.9469 86.4195 59.717C85.4179 66.0005 85.0423 72.1584 84.6667 78.442C84.4163 82.8404 83.7902 87.1132 83.2894 91.5117C83.039 94.2765 82.6635 96.9156 82.2879 99.6803C82.2879 99.806 82.2879 99.9317 82.2879 100.434C82.6635 99.9317 83.039 99.6803 83.2894 99.429C86.7951 95.1562 90.8015 91.6374 95.1835 88.3699C97.8127 86.4849 100.442 84.4741 103.071 82.5891C107.578 79.196 111.334 75.0488 114.59 70.399C116.968 67.0059 118.346 63.1101 119.097 59.0886C120.224 53.4334 119.347 48.1553 116.342 43.2541C115.216 41.369 114.339 39.484 113.463 37.4732C111.71 33.2004 111.835 28.6763 113.338 24.4035C113.838 22.8954 114.59 21.3874 115.341 19.8793C117.344 16.2349 119.472 12.7161 121.476 9.07163C121.726 8.69462 121.851 8.44327 122.102 8.19193C122.728 7.56357 123.479 7.43791 124.105 7.81492C124.731 8.19193 125.106 8.94596 124.856 9.82565C124.731 10.2027 124.48 10.5797 124.355 10.9567C122.477 14.3498 120.599 17.7429 118.846 21.136C118.095 22.5184 117.469 24.0265 116.843 25.5345C115.216 29.933 115.591 34.2058 117.72 38.3529C118.22 39.3583 118.846 40.3637 119.472 41.4947C120.224 43.1284 120.975 44.7621 121.851 46.3959C121.976 46.5215 121.976 46.7729 122.352 46.8986C122.477 45.8932 122.602 44.8878 122.602 44.0081C122.853 39.2326 122.602 34.5828 121.976 29.8073C121.851 29.0533 121.851 28.2993 121.851 27.5452C121.976 26.2885 122.602 25.5345 123.604 25.2832C124.606 25.0318 125.482 25.6602 125.983 26.6656C126.859 28.4249 127.235 30.4357 127.36 32.4464C127.485 35.0855 127.61 37.7246 127.61 40.238C127.61 40.4893 127.61 40.8664 127.61 41.369C127.986 41.1177 128.236 40.992 128.362 40.7407C129.488 39.6096 130.49 38.4786 131.617 37.3476C134.997 33.9545 137.626 30.0587 139.379 25.6602C139.755 24.7805 140.13 23.9008 140.506 23.0211C140.756 22.5184 141.007 22.1414 141.257 21.7644C141.883 21.0104 142.76 20.8847 143.511 21.136C144.262 21.513 144.763 22.2671 144.638 23.1468C144.512 23.7751 144.387 24.2778 144.137 24.7805C142.008 30.0587 139.004 34.7085 135.373 38.9813C133.495 41.1177 131.867 43.5054 130.114 45.7675C129.739 46.2702 129.363 46.8986 128.862 47.7783C129.363 47.6526 129.488 47.5269 129.739 47.5269C132.744 46.0189 135.999 45.3905 139.379 45.1392C141.883 44.8878 144.512 44.6365 146.891 43.6311C150.522 41.9974 153.777 39.861 156.532 36.9706C157.408 36.0909 157.909 34.9598 158.66 33.9545C159.161 33.2004 159.536 32.4464 160.037 31.8181C160.788 30.8127 161.915 30.5613 162.792 31.064C163.793 31.5667 164.044 32.6977 163.543 33.9545C163.292 34.5828 163.042 35.0855 162.666 35.5882C161.164 37.5989 159.787 39.484 158.159 41.369C154.779 45.5162 150.272 47.5269 145.138 48.4066C142.259 48.9093 139.504 49.5376 136.625 50.2917C132.243 51.4227 128.862 53.9361 126.859 58.0833C126.358 58.963 125.983 59.8427 125.482 60.848C122.728 66.5032 119.097 71.6557 115.341 76.6825C112.461 80.5783 108.83 83.4688 104.949 86.2335C101.443 88.747 97.8127 91.2604 94.1819 93.7738C89.7999 97.0412 86.0439 100.937 83.2894 105.713C81.5366 108.603 80.4099 111.745 80.0343 115.138C79.1579 121.798 78.6571 128.585 78.5319 135.371C78.5319 137.633 78.7822 140.021 78.9074 142.283C79.0326 142.283 79.0327 142.283 79.1579 142.283C79.2831 142.031 79.4082 141.78 79.5334 141.529C82.5382 134.868 87.1707 129.716 93.8063 126.574C101.443 123.055 109.331 120.165 117.594 118.28C121.726 117.4 125.858 116.269 129.989 115.138C136.875 113.253 141.257 108.729 143.386 101.942C145.264 95.9102 146.015 89.7523 145.138 83.4688C144.638 79.8243 144.012 76.1799 143.511 72.4097C143.511 72.0327 143.386 71.5301 143.511 71.153C143.636 70.399 144.137 69.8963 145.013 69.7707C145.89 69.645 146.516 69.8963 146.891 70.6503C147.142 71.0274 147.267 71.53 147.392 71.9071C147.893 74.2948 148.268 76.6826 148.644 79.0703C148.769 79.573 148.769 79.95 148.894 80.704C149.145 80.2013 149.27 79.95 149.52 79.6987C150.522 77.6879 151.398 75.6772 152.4 73.7921C154.278 70.1477 155.154 66.2519 155.53 62.2304C155.655 60.7223 156.031 59.0886 156.281 57.5806C156.406 56.8266 156.782 56.3239 157.533 56.0725C158.41 55.8212 159.286 56.5752 159.286 57.7063C159.536 59.8427 159.411 61.9791 159.161 64.1155C158.66 68.2626 157.408 72.1584 155.53 75.9285C154.028 78.6933 152.776 81.5837 151.398 84.4741C149.896 87.4902 149.52 90.632 149.646 94.1508C149.896 93.8995 150.146 93.7738 150.272 93.6481C152.024 90.7577 154.403 88.2443 156.657 85.7309C160.788 81.081 163.042 75.4258 164.795 69.5193C165.17 68.2626 165.421 67.0059 165.796 65.8749C166.172 64.6182 167.048 63.8641 168.175 64.2411C169.177 64.4925 169.803 65.4978 169.552 66.7546C168.801 70.776 168.05 74.7975 166.673 78.6933C166.422 79.4473 166.172 80.0757 165.796 81.081C167.424 80.2013 168.551 79.3216 169.302 77.9393C170.304 76.3055 171.055 74.6718 171.931 73.0381C173.183 70.5247 174.31 68.0113 175.562 65.4978C175.687 65.2465 175.938 64.8695 176.063 64.6182C176.564 63.9898 177.19 63.7385 177.816 63.9898C178.442 64.2411 178.817 64.8695 178.692 65.7492C178.692 66.0005 178.567 66.3775 178.442 66.6289C176.939 69.8963 175.562 73.2894 174.06 76.5569C172.056 80.8297 168.801 83.5945 164.294 84.9768C163.793 85.1025 163.292 85.3538 162.917 85.8565C160.914 88.747 158.41 91.386 155.78 93.6481C153.902 95.2818 152.525 97.1669 151.398 99.3033C150.647 100.811 149.771 102.194 148.894 103.827C149.27 103.827 149.646 103.827 149.896 103.702C152.776 103.073 155.78 103.199 158.66 103.702C161.414 104.079 164.169 104.204 166.923 103.576C171.18 102.445 174.185 99.6803 176.438 96.0359C177.064 94.9048 177.315 93.5225 177.69 92.2658C178.442 89.124 178.817 85.9822 178.942 82.8404C179.068 81.8351 179.068 80.704 179.193 79.6987C179.318 78.5676 180.069 77.9393 180.946 77.9393C181.947 77.9393 182.698 78.4419 182.949 79.573C183.199 81.3324 183.324 82.9661 183.45 84.7255C183.7 89.2496 182.698 93.5224 180.32 97.4182C179.944 98.1723 179.568 98.9263 179.193 99.6803C176.689 104.581 172.808 107.598 167.424 108.477C165.296 108.854 163.042 108.603 160.914 108.226C157.658 107.723 156.782 107.598 153.777 108.226C154.028 108.352 154.153 108.477 154.278 108.603C157.658 109.357 160.914 110.614 164.044 111.87C166.297 112.75 168.551 113.504 170.804 114.258C175.437 115.766 179.568 114.635 183.074 111.242C185.328 109.106 187.331 106.592 189.084 104.079C189.96 102.696 190.836 101.44 191.838 100.183C192.088 99.806 192.464 99.429 192.84 99.1777C193.34 98.8006 193.841 98.8006 194.342 99.1777C194.843 99.5547 195.093 100.057 194.968 100.56C194.843 101.063 194.718 101.44 194.467 101.817C191.838 106.467 188.708 110.739 184.576 114.258C181.446 117.023 177.816 118.531 173.559 118.154C171.806 118.028 169.928 117.526 168.3 117.023C164.92 115.892 161.665 114.509 158.41 113.378C156.532 112.75 154.528 112.122 152.525 111.619C152.275 111.493 152.024 111.493 151.774 111.619C152.15 111.745 152.525 111.996 153.026 112.122C155.655 113.253 157.784 115.012 159.536 117.274C160.037 117.903 160.413 118.657 160.788 119.411C161.289 120.542 160.914 121.547 160.162 122.175C159.411 122.678 158.41 122.552 157.533 121.673C156.782 120.919 156.031 120.039 155.154 119.159C153.902 117.777 152.4 116.646 150.772 115.892C148.268 114.635 145.89 114.635 143.386 115.641C141.382 116.395 139.504 117.149 137.501 117.903C133.495 119.536 129.238 120.542 124.981 121.17C120.098 121.798 115.466 123.181 110.834 124.563C107.703 125.443 104.699 126.448 101.819 127.705C96.8111 129.967 92.4291 132.857 88.4227 136.628C85.7935 139.141 84.1659 142.283 83.4147 145.802C82.1627 150.828 81.9123 155.981 82.2879 161.133C82.4131 164.401 82.5382 167.668 82.6634 170.81C82.7886 172.444 82.9139 174.203 82.7887 175.837C82.7887 176.842 82.5383 177.722 82.1627 178.602C81.7871 179.481 81.161 180.11 80.1594 179.984C79.1578 179.858 78.657 179.23 78.4066 178.35C78.1562 177.345 77.9059 176.214 77.9059 175.083C77.7807 173.198 77.7806 171.187 77.7806 169.302C77.7806 165.658 77.2798 162.013 76.5286 158.494C75.4018 153.342 72.5222 148.943 69.267 144.922C67.5142 142.785 65.511 141.026 63.1322 139.895C61.3794 139.015 59.7518 138.01 58.1242 137.005C56.121 135.748 53.8674 134.994 51.6138 134.365C47.7326 133.36 43.9766 132.229 40.0954 131.224C39.219 130.972 38.3426 131.098 37.4662 131.224C35.8386 131.601 34.3362 131.978 32.7086 132.48C29.3282 133.486 26.073 134.742 22.8177 135.748C19.8129 136.628 16.6829 137.005 13.5529 136.628C10.9237 136.376 8.41971 135.622 6.0409 134.24C5.4149 133.863 4.7889 133.36 4.1629 132.732C3.5369 132.103 3.53691 131.224 4.03771 130.595C4.41331 129.967 5.1645 129.59 6.0409 129.841C7.1677 130.218 8.41971 130.595 9.54651 130.972C14.5545 132.732 19.5625 132.732 24.5705 131.098C26.9493 130.344 29.203 129.464 31.8322 128.585C31.3314 128.333 31.081 128.208 30.8306 128.082C27.0745 126.448 23.4437 124.814 19.9381 122.678C18.9365 122.05 17.8097 121.547 16.6829 121.044C16.3073 120.919 15.8065 120.793 15.4309 120.919C14.0537 121.044 12.5513 121.296 11.1741 121.421C7.54331 121.924 4.1629 121.044 1.03289 119.159C0.78249 119.034 0.532101 118.782 0.281701 118.531C-0.0939002 118.028 -0.0939002 117.526 0.281701 117.023C0.782502 116.395 2.6605 116.143 3.2865 116.772C3.4117 116.897 3.5369 117.023 3.6621 117.149C6.16611 118.028 8.79531 118.782 11.6749 118.154C11.2993 117.903 11.1741 117.651 10.9237 117.526C9.67172 116.52 8.29451 115.641 7.04251 114.635C6.1661 113.881 5.28971 113.001 4.66371 112.122C3.91251 111.242 4.03771 110.237 4.66371 109.608C5.28971 108.854 6.16611 108.854 7.16771 109.357C7.54331 109.608 7.91891 109.734 8.29451 109.985C11.9253 112.499 15.5561 114.886 19.0617 117.526C21.8161 119.536 24.8209 121.17 27.9509 122.552C28.0761 122.678 28.3266 122.678 28.4518 122.678C28.4518 122.678 28.5769 122.678 28.5769 122.552C28.5769 122.427 28.5769 122.301 28.5769 122.301C27.1997 119.411 26.1982 116.395 25.3218 113.253C23.4437 107.095 21.3153 101.063 18.8113 95.0305C18.3105 93.8995 17.8097 92.7684 17.4341 91.6374C17.3089 91.2604 17.1837 90.8834 17.1837 90.5063C17.0585 89.6267 17.5593 88.747 18.3105 88.4956C19.1869 88.1186 20.0633 88.3699 20.6893 89.2496C20.9397 89.501 21.0649 89.878 21.1901 90.1293C24.1949 96.1615 26.6989 102.445 28.3265 108.98C29.0778 111.745 30.2045 114.258 31.707 116.52C32.7086 118.154 33.9606 119.788 35.0874 121.421C35.3378 121.798 35.5882 122.05 36.089 122.552C36.2142 121.924 36.2142 121.421 36.2142 121.044C36.3394 116.646 36.4646 112.122 35.5882 107.849C35.5882 107.598 35.463 107.346 35.463 107.095C35.463 106.09 36.089 105.336 36.9654 105.21C37.7166 105.084 38.593 105.461 39.0938 106.215C39.3442 106.592 39.4694 107.095 39.5946 107.472C39.845 108.729 39.9702 109.86 40.0954 111.116C40.0954 111.493 40.2206 111.87 40.2206 112.247C40.3458 112.247 40.471 112.247 40.471 112.247C40.9718 111.368 41.4726 110.614 41.8482 109.734C42.7246 107.723 43.601 105.587 44.227 103.45C44.6026 102.194 44.6026 100.937 44.7278 99.5546C44.7278 98.5493 44.7278 97.4182 44.6026 96.4129C44.6026 96.1615 44.6026 95.7845 44.6026 95.5332C44.7278 94.6535 45.2286 94.0251 45.9798 94.0251C46.731 93.8995 47.4822 94.4021 47.7326 95.2818C47.8578 95.7845 47.983 96.2872 47.983 96.7899C48.2334 101.314 47.6074 105.713 45.3538 109.734C43.601 113.001 42.5994 116.395 41.9734 120.039C41.8482 121.044 41.9734 121.924 42.4742 122.678C43.3506 124.186 44.4774 125.569 45.9798 126.448C46.9814 127.077 48.1082 127.579 49.1098 128.082C51.3634 129.213 53.7422 130.344 55.9958 131.475C56.747 131.852 57.6234 132.229 58.3746 132.606C61.2542 133.737 63.8834 135.12 66.3874 136.753C68.5158 138.136 70.519 139.895 72.2718 141.78C72.8978 142.534 73.649 143.162 74.4002 143.791C74.4002 143.665 74.5254 143.539 74.5254 143.414C74.4002 139.895 74.275 136.376 74.1498 132.857C74.0246 124.563 74.0246 116.269 73.7742 107.975C73.7742 105.587 73.3986 103.199 72.8978 100.811C72.1466 97.0412 70.2686 93.8995 67.5142 91.2604C65.0102 88.8726 62.0054 86.8619 58.7502 85.6052C56.747 84.8512 54.7438 83.9715 52.8658 83.0918C50.6122 82.0864 48.609 80.704 46.731 79.196C45.8546 78.4419 44.853 77.8136 43.9766 77.1852C40.9718 74.9232 37.7166 73.9178 33.9606 73.6665C29.3282 73.2894 24.8209 72.6611 20.4389 71.153C17.4341 70.1477 14.8049 68.6396 12.5513 66.2519C9.9221 63.4871 7.41811 60.5967 5.54011 57.2036C5.16451 56.5752 4.9141 55.9469 4.7889 55.3185C4.5385 54.4388 4.91409 53.6848 5.6653 53.3078C6.4165 52.9308 7.2929 53.0564 7.9189 53.6848C8.29451 54.0618 8.5449 54.4388 8.7953 54.9415C9.7969 56.4495 10.6733 57.9576 11.6749 59.5913C12.6765 61.0994 13.9285 62.3561 15.4309 63.6128C15.3057 63.2358 15.3057 62.9844 15.3057 62.7331C14.9301 61.225 14.4293 59.8427 14.1789 58.3346C13.4277 54.3131 12.0505 50.6687 10.1725 47.0242C9.79691 46.3959 9.54651 45.7675 9.17091 45.1392C8.79531 44.1338 9.04571 43.3798 9.79691 42.8771C10.5481 42.3744 11.5497 42.6258 12.0505 43.6311C14.1789 47.1499 16.1821 50.7943 17.0585 54.9415C17.4341 56.7009 17.8097 58.5859 18.1853 60.3453C18.5609 62.4817 19.4373 64.3668 20.1885 66.2519C20.3137 66.6289 20.8145 66.8802 21.0649 67.0059C23.4437 68.1369 25.9478 68.6396 28.4518 69.0166C32.5834 69.5193 36.715 69.7707 40.8466 70.776C40.9718 70.776 41.097 70.776 41.3474 70.776C40.9718 70.399 40.8466 70.1477 40.471 69.8963C38.3426 68.0113 36.2142 66.1262 33.9606 64.2411C31.2062 61.9791 28.8274 59.34 27.0745 56.1982C26.0729 54.5645 25.0714 52.9308 24.0697 51.1714C23.5689 50.2917 23.1933 49.412 22.8177 48.4066C22.6925 47.9039 22.5673 47.4012 22.5673 46.8986C22.5673 46.1445 23.0681 45.5162 23.8193 45.2648C24.5705 45.0135 25.1965 45.1392 25.6973 45.6418C25.9477 45.8932 26.1981 46.2702 26.4485 46.6472C26.9493 47.5269 27.325 48.4066 27.8258 49.2863C30.3298 54.6902 34.4614 58.586 39.219 62.1047C39.219 62.1047 39.3442 62.1047 39.4694 62.1047C39.4694 61.8534 39.4694 61.6021 39.3442 61.3507C37.967 54.8158 37.0906 48.1553 36.4646 41.4947C36.3394 39.3583 35.9638 37.2219 35.7134 35.0855C35.7134 34.7085 35.5882 34.3315 35.7134 33.9545C35.8386 33.0748 36.4646 32.3207 37.341 32.1951C38.2174 32.0694 39.0938 32.5721 39.3442 33.4518C39.5946 34.2058 39.7198 34.9598 39.845 35.8395C40.8466 41.746 41.723 47.5269 42.5994 53.4334C42.7246 54.0618 42.8498 54.6902 43.1002 55.6955C43.3506 55.3185 43.3506 55.1928 43.4758 55.0672C44.3522 52.4281 45.2286 49.9147 46.2302 47.2756C48.3586 41.2434 48.4838 35.0855 46.8562 28.9276C46.3554 27.1682 45.9798 25.5345 45.6042 23.7751C45.479 23.2724 45.3538 22.7698 45.3538 22.2671C45.3538 21.3874 45.8546 20.759 46.4806 20.5077C47.2318 20.2563 47.983 20.5077 48.3586 21.0104C48.7342 21.513 49.1098 22.1414 49.3602 22.7698C50.2366 24.6548 50.6122 26.6655 50.8626 28.802C51.4886 33.4518 51.4886 38.1016 50.6122 42.7514C50.3618 44.2595 49.861 45.6418 49.4854 47.1499C48.2334 51.297 46.9814 55.5698 45.7294 59.717C44.9782 62.1047 45.3538 64.2411 46.3554 66.3775C48.609 71.153 51.6138 75.3002 55.9958 78.3163C58.1242 79.8243 60.3778 81.2067 62.6314 82.7148C64.3842 83.8458 66.137 84.9768 67.7646 86.1079C70.519 88.1186 72.7726 90.632 74.4002 93.6481C75.2766 95.2818 76.2783 96.9156 77.2799 98.675C77.4051 98.2979 77.5303 98.0466 77.5303 97.7953C78.5319 90.7577 79.6586 83.5945 79.909 76.4312C80.1594 71.4044 79.909 66.3775 79.909 61.3507C79.909 60.094 79.7839 58.963 79.6586 57.7063C79.5334 54.5645 78.0311 51.9254 76.2782 49.412C75.2766 48.0296 74.1498 46.6472 73.023 45.2648C69.6426 41.1177 66.8882 36.4679 64.7598 31.5667C64.5094 30.8127 64.0086 30.4357 63.3826 29.933C62.2558 29.3046 61.2542 28.5506 60.2526 27.7966C56.4966 25.1575 54.1178 21.6387 52.365 17.4916C52.365 17.3659 52.2398 17.2402 52.2398 17.1146C51.8642 15.9835 52.2398 14.9782 53.2414 14.7268C54.3682 14.4755 55.3698 15.1038 55.6202 16.2349C55.6202 16.4862 55.7454 16.6119 55.7454 16.8632C57.2478 19.5023 58.7502 22.2671 61.2542 24.1521C61.3794 24.2778 61.6298 24.4035 61.755 24.5291C61.755 24.5291 61.8802 24.5291 62.0054 24.5291C61.755 23.7751 61.5046 22.8954 61.2542 22.1414C61.129 21.6387 60.8786 21.136 60.8786 20.5077C60.7534 19.628 61.2542 18.9996 62.0054 18.7483C62.7566 18.4969 63.5078 18.4969 64.0086 19.1253C64.3842 19.628 64.7598 20.1307 65.0102 20.6333C66.8882 24.2778 68.7662 27.9223 70.7694 31.441C72.397 34.3315 74.1498 37.2219 75.9026 40.238C76.0278 40.4893 76.2782 40.7407 76.5286 40.8664C76.5286 40.615 76.5286 40.3637 76.4034 40.1123C74.5254 33.5774 73.5238 26.9169 73.023 20.1307C72.8978 18.6226 72.6474 17.2402 72.5222 15.7322C72.5222 15.3552 72.397 14.9782 72.397 14.6012C72.5222 13.4701 73.1482 12.8418 74.1498 12.7161C75.0262 12.5904 75.9026 13.3444 76.0278 14.3498C76.153 14.7268 76.153 15.1038 76.153 15.4808C77.405 22.0157 78.657 28.6763 79.909 35.2112C80.535 38.7299 81.2862 42.3744 82.0374 45.8932C82.0374 46.7729 82.1627 46.8986 82.2879 47.4012Z" fill="#DB9EA0"/>
</svg>
