<svg width="195" height="74" fill="none" xmlns="http://www.w3.org/2000/svg">
  <path d="M82 47h1c1-4 3-6 5-9l6-6 5-5v-1l-2-2a28 28 0 01-8-15V8l1-1 2 1v1l4 8h1v-4-4-5-2l1-2 2 1v16c-1 3 0 5 2 5l1-1 5-8 3-6 1-2 2-1 2 2v2l-2 4c-3 8-7 15-12 22l-9 12-3 4-4 10-1 18-2 14-1 8 1-1 12-11 8-5 12-13 4-11c1-6 0-11-3-16l-3-6V24l2-4 6-11 1-1h2l1 2-1 1-5 10-2 5c-2 4-1 8 1 12l1 3 3 5v1l1-3-1-14v-2c0-2 1-2 2-3l2 2 1 5 1 8v1l4-4c3-3 6-7 7-11l2-3v-1l3-1 1 2-1 2c-2 5-5 10-9 14l-5 7-1 2h1l9-3 8-1 10-7 2-3 1-2 3-1 1 3-1 2-5 5c-3 5-8 7-13 7l-8 2c-5 1-8 4-10 8l-2 3c-2 6-6 11-10 16l-10 9-11 8c-4 3-8 7-11 12l-3 9-1 20v7h1c3-7 7-12 14-15 7-4 15-7 24-9l12-3c7-2 11-6 13-13 2-6 3-12 2-19l-1-11v-1l1-1 2 1v1l2 7v2l1-1 2-6 4-12v-4l2-2 1 2v6l-3 12-5 8-1 10 7-8c4-5 6-11 8-16l1-4 2-2c1 0 2 1 2 3l-3 12-1 2 3-3 3-5 4-8 2-1 1 2-1 1-4 10c-2 4-5 7-10 8l-1 1-7 8-5 5-2 5h18c4-2 7-4 9-8l2-4 1-9v-3l2-2c1 0 2 0 2 2v5c1 4 0 9-3 12l-1 3c-2 5-6 8-12 8h-13v1c4 0 7 2 10 3l7 2c4 2 9 1 12-3l6-7a43 43 0 014-5h1l1 2-1 1c-2 4-5 9-9 12s-7 5-11 4l-6-1-10-4a81 81 0 00-6-1h1l7 5 1 2-1 3h-2l-3-3-4-3h-8l-5 2-13 3-14 4-9 3c-5 2-10 5-14 9-2 2-4 5-5 9l-1 15 1 10v5l-1 3-2 1-2-2v-3-6l-1-11c-2-5-4-9-8-13-1-2-3-4-6-5l-5-3-6-3-12-3h-3l-4 1-10 4-9 1c-3-1-6-1-8-3l-2-1v-2l2-1 4 1c5 2 10 2 15 0l7-2-1-1a88 88 0 01-14-7h-6c-3 1-7 0-10-2H0v-2h4c2 1 5 2 8 1h-1l-4-3-2-3v-2l2-1 1 1 11 8a48 48 0 009 5h1v-1l-4-9a198 198 0 00-8-22l1-3 3 1v1c3 6 6 12 7 19l4 8 3 4 1 2v-2-13l-1-1 2-2 2 1 1 1v5l2-2 2-7 1-3v-4l1-2 2 1v2c0 4 0 9-3 13l-3 10v3c1 1 2 3 4 3l3 2 7 3 2 2 8 4c3 1 5 3 6 5l2 2 1-1-1-10v-25l-1-7-5-10-9-5-6-3-6-4-3-2c-3-2-6-3-10-3l-14-3c-3-1-5-2-7-5-3-3-6-5-7-9l-1-2 1-2 2 1 1 1 3 5 3 4v-1l-1-5-4-11-1-2 1-2c1-1 2 0 2 1l5 11 1 5 2 6 1 1 7 2 13 2-1-1-6-6-7-8a177 177 0 01-4-8v-1l1-2 2 1v1l2 2c2 6 6 10 11 13v-1l-3-20v-6-1l1-2 2 1 1 3a855 855 0 013 20v-1l3-8c2-6 2-12 1-18l-1-5-1-2 1-1h2l1 2 2 6v14l-2 4-3 13v6c3 5 6 9 10 12l7 5 5 3c3 2 5 5 6 8l3 5 1-1 2-22V61v-3c0-3-2-6-4-9l-3-4-8-13-2-2-3-2c-4-3-6-6-8-11l1-2c1-1 2 0 3 1v1l5 7 1 1-1-3v-1l1-2h2l1 2 6 10 5 9 1 1-1-1-3-20v-4l-1-1 2-2 2 1v1l4 20 2 11v1z" fill="#DB9EA0"/>
</svg>