<svg width="36" height="115" viewBox="0 0 36 115" fill="none" xmlns="http://www.w3.org/2000/svg">
<path d="M18.7524 62.6878C18.9891 62.2948 19.2259 61.9018 19.5415 61.5087C20.4094 60.2511 21.4352 58.9934 22.6977 58.0501C23.4868 57.4999 24.2758 56.9496 25.2227 56.7924C25.775 56.7138 26.3274 56.6352 26.8008 56.7138C28.0633 56.871 28.9312 57.8929 29.0891 59.2292C29.168 60.251 29.0102 61.2729 28.6945 62.2162C28.2211 63.7097 27.4321 65.046 26.4852 66.3823C25.3016 68.033 23.9602 69.5265 22.5399 71.02C21.2774 72.2777 20.0149 73.614 18.7524 74.8717C17.8056 75.815 17.0165 76.9154 16.3853 78.0945C15.0439 80.5313 13.9392 83.0467 13.229 85.7192C12.44 88.9421 12.3611 92.1649 12.7556 95.4663C12.7556 95.6236 12.8345 95.7808 12.8345 95.938C12.8345 96.0166 12.9134 96.0952 12.9134 96.0952C13.229 94.2873 13.5447 92.4793 13.9392 90.75C14.2548 89.3351 14.8072 87.9988 15.2806 86.6625C15.6751 85.6407 16.3064 84.776 17.0165 83.9899C17.6478 83.3611 18.279 82.8895 19.147 82.6536C20.3305 82.4178 21.2774 82.8108 21.9087 83.8327C22.3032 84.5402 22.461 85.3262 22.5399 86.1123C22.6188 87.6058 22.3032 89.0993 21.9876 90.5928C21.0407 94.6017 19.4626 98.2961 17.8056 102.069C17.1743 103.484 16.622 104.82 15.9118 106.235C15.6751 106.786 15.6751 107.257 15.9118 107.807C16.9376 110.166 17.8845 112.602 18.8313 114.961C19.4626 116.533 20.0149 118.105 20.5673 119.755C20.6462 119.913 20.7251 120.148 20.804 120.463C20.9618 120.148 21.0407 119.913 21.1196 119.755C21.9087 117.397 22.6977 115.118 23.5657 112.76C24.1969 111.109 25.1438 109.615 26.2485 108.2C27.0375 107.257 28.0633 106.707 29.168 106.393C30.1937 106.078 31.2195 106.55 31.8508 107.572C32.3242 108.436 32.482 109.38 32.5609 110.401C32.6398 112.602 32.2453 114.803 31.5351 116.926C30.6672 119.598 29.4047 122.114 28.0633 124.629C26.0907 128.245 24.4336 131.939 23.0922 135.791C22.3821 138.071 21.593 140.272 20.804 142.551C20.3305 143.809 19.936 145.145 19.147 146.246C18.9891 146.481 18.8313 146.639 18.6735 146.796C18.4368 147.032 18.0423 147.032 17.7267 146.953C17.411 146.796 17.2532 146.56 17.2532 146.246C17.3321 145.617 17.3321 144.988 17.4899 144.438C18.4368 141.608 19.3048 138.699 19.5415 135.712C19.6204 134.612 19.6204 133.511 19.6204 132.411C19.6204 131.939 19.4626 131.546 19.147 131.153C18.1212 129.974 17.0165 128.952 15.8329 127.93C14.0181 126.437 12.2822 124.786 10.783 122.978C9.91501 121.878 9.12596 120.777 8.49471 119.52C8.10019 118.655 7.78457 117.79 7.78457 116.847C7.78457 115.275 8.81033 114.41 10.3884 114.646C11.3353 114.803 12.1244 115.275 12.9134 115.825C14.965 117.319 16.5431 119.205 17.8845 121.328C18.0423 121.563 18.2001 121.721 18.4368 121.878C18.3579 121.406 18.2001 120.935 18.1212 120.463C17.411 117.712 16.2275 115.039 15.2806 112.367C14.7283 110.716 13.7814 109.301 12.6767 107.965C10.9408 105.921 9.28378 103.877 7.54786 101.833C5.33851 99.1608 3.44476 96.2524 1.86665 93.1868C0.998693 91.4575 0.288553 89.7281 0.0518366 87.763C-0.0270689 87.0555 -0.0270882 86.3481 0.130723 85.7192C0.446345 83.9899 1.86665 83.4397 3.36585 84.383C3.91819 84.776 4.47053 85.2476 4.94396 85.7192C6.36426 87.1341 7.46894 88.7849 8.4158 90.5928C8.96814 91.6147 9.52049 92.6365 10.2306 93.6584C10.2306 93.5012 10.2306 93.344 10.2306 93.1868C10.0728 90.9072 10.2306 88.6277 10.3884 86.3481C10.4673 85.3262 10.3096 84.383 10.2306 83.3611C9.83612 79.2736 8.65252 75.2647 7.62675 71.2558C6.9166 68.6618 6.20646 66.0679 5.89084 63.3953C5.65412 61.4301 5.57521 59.5436 6.12755 57.5785C6.28536 57.1068 6.36427 56.7138 6.60099 56.3208C7.46895 54.5914 9.04707 54.4342 10.3096 55.8491C11.0197 56.5566 11.4931 57.4213 11.8088 58.3645C12.2033 59.465 12.5189 60.4869 12.7556 61.5873C13.3079 64.1027 13.6236 66.6181 13.9392 69.2907C14.097 69.0549 14.1759 68.8977 14.1759 68.8191C15.1228 65.9106 16.1486 63.0808 17.0165 60.1724C17.1743 59.5436 17.3321 58.9148 17.4111 58.2859C17.7267 54.1198 17.0165 50.1895 15.3595 46.3379C14.4915 44.3727 13.5447 42.4076 12.7556 40.4424C11.9666 38.6345 11.3353 36.748 10.6252 34.9401C10.3096 34.154 10.1517 33.2893 10.2306 32.3461C10.3096 31.0884 11.0197 30.2237 12.1244 30.1451C12.5978 30.1451 13.1501 30.2237 13.6236 30.4595C14.2548 30.774 14.8861 31.2456 15.4384 31.7172C17.0165 33.2107 18.2001 35.0187 19.068 36.9838C20.1727 39.5778 20.8829 42.2504 21.2774 45.0016C21.2774 45.0802 21.2774 45.2374 21.3563 45.4732C21.4352 45.2374 21.5141 45.1588 21.593 45.0016C22.6188 40.128 23.0922 35.1759 22.6977 30.2237C22.6977 29.7521 22.5399 29.2805 22.3032 28.8874C21.2774 26.8437 19.936 25.0358 18.0423 23.7781C16.8587 22.992 15.6751 22.2059 14.4915 21.4985C13.7025 20.9483 12.9134 20.4766 12.0455 20.005C9.83611 18.6687 8.17911 16.8608 6.75881 14.7384C6.44318 14.2668 6.20647 13.7952 5.96975 13.2449C5.57522 12.1444 6.20646 11.1226 7.39004 11.044C8.10019 10.9654 8.88924 11.044 9.59939 11.2798C12.1244 12.0658 14.4126 13.3235 16.4642 15.0528C17.4899 15.9175 18.3579 16.8608 19.3837 17.804C19.147 17.0966 18.9103 16.4677 18.5157 15.8389C17.3321 13.9524 16.0696 12.0658 14.8861 10.1793C13.7814 8.37137 12.9923 6.40623 12.3611 4.44109C12.1244 3.65504 11.9666 2.86898 12.1244 2.00432C12.3611 0.275 13.9392 -0.511055 15.4384 0.353606C16.1486 0.746634 16.622 1.29687 17.0165 1.84711C18.1212 3.49782 18.9891 5.22715 19.5415 7.11368C20.2516 9.70767 20.9618 12.3803 21.6719 14.9742C21.7509 15.2101 21.8298 15.4459 21.9876 15.6817C22.0665 15.4459 22.0665 15.2887 22.0665 15.0528C22.3032 13.7952 22.461 12.4589 22.6977 11.2012C23.0922 9.23603 23.9602 7.42811 25.1438 5.856C25.6172 5.22715 26.2484 4.5983 26.9586 4.12667C27.8266 3.49783 28.4578 3.57643 29.3258 4.20527C30.1937 4.75551 30.5883 5.54157 30.7461 6.56344C30.9039 7.74253 30.7461 9.00022 30.5883 10.1793C30.1148 13.5593 29.0891 16.7822 27.9844 20.005C27.8266 20.4766 27.6688 20.8697 27.5109 21.3413C26.5641 23.5422 26.2485 25.8218 26.0117 28.1014C25.775 30.3809 25.4594 32.7391 25.2227 35.0187C25.2227 35.1759 25.2227 35.4117 25.3016 35.6475C25.3805 35.4117 25.5383 35.1759 25.6172 35.0187C26.3274 33.4465 27.1164 31.8744 28.2211 30.4595C28.6945 29.8307 29.3258 29.2018 29.8781 28.6516C30.3515 28.2586 30.825 27.9442 31.3773 27.7869C32.8765 27.1581 34.2968 27.7083 35.0859 29.0446C35.8749 30.3023 36.1117 31.7958 35.9538 33.2893C35.796 35.4903 35.0859 37.534 34.139 39.4992C32.7976 42.0932 31.1406 44.5299 29.3258 46.8095C27.3531 49.2463 25.2227 51.5258 23.2501 53.9626C20.9618 56.3994 19.5415 59.3864 18.7524 62.6878Z" fill="#9A4C5F"/>
</svg>
