<svg width="93" height="122" viewBox="0 0 93 122" fill="none" xmlns="http://www.w3.org/2000/svg">
<path d="M31.6864 62.7539C32.2095 61.7111 32.2095 60.7552 32.1223 59.7993C31.9479 58.4958 31.5993 57.3662 30.989 56.2365C30.466 55.1937 29.8558 54.1509 29.2456 53.195C27.938 51.1964 26.6304 49.2846 25.3228 47.2859C21.2256 41.2899 19.0463 34.5118 18.1745 27.3861C17.913 25.4744 18.0002 23.5626 18.436 21.6508C18.6976 20.6949 19.0463 19.739 19.5693 18.957C19.6565 18.8701 19.7437 18.7832 19.8308 18.6094C20.7026 17.5666 21.7486 16.6976 23.2306 16.9583C24.7125 17.219 25.5843 18.2618 26.0202 19.5653C26.3688 20.6949 26.456 21.9115 26.7175 23.0412C26.979 24.4316 27.1534 25.8219 27.5021 27.2123C27.7636 28.342 28.2867 29.2979 28.984 30.2538C29.2456 30.6883 29.6814 31.0359 30.0301 31.3835C30.466 31.1228 30.5532 30.6883 30.6403 30.3407C30.989 28.9503 31.3377 27.5599 31.5992 26.1695C32.0351 23.0412 32.471 19.8259 32.9069 16.6107C33.4299 12.9609 33.8658 9.3112 34.999 5.74836C35.2605 4.79247 35.6092 3.83659 36.1323 2.9676C36.481 2.27241 37.004 1.57723 37.5271 1.05584C39.2705 -0.595239 41.537 -0.247647 42.8446 1.66412C43.4548 2.62001 43.8036 3.66279 43.9779 4.70558C44.4138 6.87804 44.3266 9.05052 44.0651 11.3099C43.542 15.3072 42.3216 19.1308 41.1883 23.0412C40.5781 25.1268 39.9679 27.2992 39.4449 29.3848C39.0962 30.7752 39.009 32.1656 39.3577 33.5559C39.4449 33.9035 39.532 34.2511 39.7936 34.5987C40.0551 34.9463 40.3166 35.0332 40.6653 34.7725C41.014 34.5118 41.2755 34.2511 41.537 33.9904C42.0601 33.3821 42.4959 32.6869 43.019 31.9918C43.9779 30.6014 44.9368 29.1241 45.9829 27.8206C46.6803 26.8647 47.552 25.9958 48.3366 25.2137C49.034 24.5185 49.8185 24.084 50.6902 23.7364C53.2183 22.7805 55.4848 24.4316 56.0078 26.604C56.2693 27.8206 56.095 28.9503 55.7463 30.08C55.3105 31.3835 54.613 32.5132 53.7413 33.5559C52.6081 34.9463 51.3005 36.076 49.8185 37.1188C48.2494 38.2484 46.5931 39.2912 44.9368 40.334C44.0651 40.9423 43.2805 41.4637 42.4959 42.1589C40.4038 43.8969 39.2705 46.1562 39.3577 48.937C39.4449 50.2405 39.532 51.4571 39.8807 52.6736C40.0551 53.195 40.2294 53.7164 40.491 54.2378C41.014 55.1937 41.4499 55.2806 42.2344 54.4116C43.8036 52.7605 45.3727 51.1095 47.2033 49.806C47.9007 49.2846 48.5981 48.7632 49.3826 48.4156C52.7824 46.9383 56.1822 49.3715 55.7463 53.0212C55.572 54.7592 54.8746 56.2365 53.7413 57.4531C52.7824 58.5828 51.6492 59.5386 50.4287 60.4076C49.557 61.0159 48.5981 61.7111 47.7263 62.3194C46.6803 63.0146 45.8085 63.8836 45.1111 64.9263C44.3266 66.1429 44.2394 67.3595 45.024 68.663C45.8957 70.1403 47.1161 71.2699 48.2494 72.3996C49.557 73.6162 50.8646 74.8328 52.1722 76.0494C53.2183 77.0922 54.0028 78.3956 54.613 79.786C55.0489 80.8288 55.3976 81.8716 55.9207 82.8275C56.3565 83.7834 56.9667 84.8261 57.4898 85.782C57.6641 86.0427 57.9256 86.3034 58.1 86.5641C58.623 86.2165 58.8846 85.782 59.0589 85.2606C59.3204 84.3048 59.6691 83.262 59.8435 82.3061C60.0178 81.0026 60.105 79.6122 60.1922 78.2218C60.2793 75.1804 60.4537 72.2258 60.9767 69.1844C61.3254 67.1857 61.9356 65.274 62.8945 63.536C63.3304 62.7539 63.8534 61.9718 64.3765 61.2766C64.7252 60.7552 65.2482 60.4076 65.7713 60.06C66.9917 59.2779 68.2993 59.6255 69.0839 60.7552C69.6069 61.4504 69.7812 62.2325 69.9556 63.0146C70.2171 64.4919 69.9556 65.8822 69.6941 67.2726C69.3454 69.2713 68.9095 71.2699 68.5608 73.2686C68.2993 74.9197 68.3865 76.6577 68.7352 78.3956C68.8223 78.6563 68.9095 78.917 68.9967 79.1777C69.4325 80.0467 69.9556 80.3074 70.9145 79.9598C71.6119 79.6991 72.1349 79.2646 72.4836 78.6563C73.0067 77.8743 73.4425 77.0921 73.7912 76.2232C74.9245 73.6162 75.7091 70.8354 76.3193 68.0547C77.3653 63.3622 78.4114 58.7565 79.9805 54.2378C80.5908 52.5867 81.2882 51.0226 81.9855 49.4584C82.2471 48.8501 82.5957 48.2418 83.0316 47.7204C83.3803 47.199 83.8162 46.7645 84.252 46.4169C85.9083 45.0266 87.739 45.461 88.8722 47.2859C89.3953 48.1549 89.6568 49.1108 89.744 50.1536C90.0055 52.6736 89.744 55.1937 88.8722 57.6269C88.0005 60.06 87.216 62.4063 86.3442 64.8395C85.8212 66.4905 85.3853 68.1416 85.211 69.7927C85.1238 70.3141 85.211 70.7486 85.2981 71.27C85.3853 71.8783 85.8212 72.3127 86.4314 72.4865C87.0416 72.6603 87.6518 72.8341 88.262 73.0948C89.1338 73.4424 89.9183 73.7031 90.7029 74.1376C92.5335 75.1804 93.3181 76.7446 92.8822 78.8301C92.4464 81.1764 90.6157 82.6537 88.1748 82.8275C87.6518 82.8275 87.1288 82.8275 86.6057 82.7406C84.9494 82.6537 83.3803 82.6537 81.724 83.0013C80.6779 83.262 79.8934 83.6964 79.196 84.4785C78.7601 84.9999 78.6729 85.2606 79.0216 85.8689C79.2831 86.3034 79.6318 86.7379 79.9805 87.1724C80.7651 88.2152 81.6368 89.1711 82.3342 90.2139C83.3803 91.778 84.0777 93.4291 84.252 95.3409C84.4264 97.3395 83.8162 99.0775 82.3342 100.468C80.9395 101.858 79.196 102.032 77.5397 100.989C76.7551 100.468 75.9706 99.8596 75.3604 99.1644C73.8784 97.6872 72.4836 96.0361 71.0017 94.5588C69.9556 93.4291 68.7352 92.5601 67.3404 91.8649C66.2071 91.3435 65.0739 91.3435 63.9406 92.0387C62.7202 92.9077 62.4587 93.9505 63.2432 95.254C63.6791 96.0361 64.2893 96.7313 64.8124 97.4265C65.6841 98.7299 66.643 100.033 67.4276 101.337C67.8634 102.032 68.2121 102.901 68.2993 103.77C68.4736 104.987 68.2121 106.029 67.2532 106.812C66.2071 107.594 65.0739 107.767 63.9406 107.246C63.3304 106.985 62.7202 106.551 62.1972 106.203C61.1511 105.595 60.105 104.9 58.9717 104.291C58.4487 103.944 57.7513 103.77 57.0539 103.509C57.0539 103.944 57.0539 104.291 57.0539 104.552C57.2283 105.856 57.3154 107.072 57.4898 108.376C57.8385 111.591 57.6641 114.719 56.7924 117.848C56.4437 119.238 55.8335 120.455 55.1361 121.671C53.3926 124.365 50.6903 125.495 47.552 124.8C46.8546 124.626 46.2444 124.452 45.6342 124.191C45.024 123.931 44.3266 123.583 43.8035 123.148C42.0601 121.845 41.3627 120.194 41.7986 118.021C42.0601 116.631 42.4959 115.241 42.9318 113.937C43.9779 110.896 44.1522 107.68 43.8907 104.552C43.7164 102.467 43.4548 100.294 42.8446 98.2954C42.5831 97.6003 42.2344 97.0788 41.6242 96.6443C40.8396 96.123 40.0551 96.0361 39.2705 96.3837C38.7475 96.6444 38.2244 96.9051 37.7886 97.3396C36.6553 98.3823 35.6092 99.512 34.5631 100.642C33.7786 101.511 32.994 102.467 32.2095 103.336C31.3377 104.291 30.2917 105.074 29.1584 105.595C27.1534 106.551 25.2356 106.464 23.4049 105.074C21.7486 103.77 21.4 101.858 22.446 100.033C22.9691 99.0775 23.8408 98.2954 24.7997 97.861C25.933 97.3396 27.1534 96.992 28.3738 96.7313C29.2456 96.5575 30.1173 96.2968 30.989 96.0361C32.0351 95.6885 32.2966 95.0802 32.0351 94.2981C31.6864 93.2553 31.0762 92.9077 30.0301 93.1684C28.8097 93.4291 27.8508 94.0374 26.8047 94.6457C24.1895 96.123 21.6615 97.6872 19.0463 99.1644C16.5182 100.555 13.903 101.598 11.1135 102.206C7.80089 102.901 4.83699 102.119 2.22178 100.033C1.00135 98.9906 0.216793 97.7741 0.0424459 96.123C-0.131901 94.6457 0.216793 93.2553 1.35005 92.2125C3.26787 90.3877 5.53438 89.4318 8.14958 89.8663C10.0674 90.2139 11.898 90.6483 13.8159 91.0828C15.2978 91.4304 16.7798 91.6911 18.3489 91.5173C19.8308 91.3435 21.0513 90.7352 22.0102 89.6925C22.8819 88.7366 22.7947 87.8676 21.6615 87.0855C21.1384 86.7379 20.441 86.3903 19.8308 86.1296C18.6104 85.6082 17.39 85.1737 16.2567 84.7393C13.9902 83.8703 11.898 82.5668 10.2417 80.8288C9.02131 79.5253 8.06241 78.048 7.62654 76.3101C7.19067 74.2245 7.53938 72.3127 8.67263 70.4879C8.93415 70.1403 9.28284 69.7058 9.63153 69.4451C10.852 68.4023 12.1596 68.2285 13.5543 68.9237C14.3389 69.3582 15.1235 69.8796 15.7337 70.4879C16.6926 71.4438 17.5643 72.4865 18.2617 73.5293C19.8308 75.8756 21.3128 78.2218 22.8819 80.5681C23.6665 81.7847 24.451 82.9144 25.4971 83.8703C26.0201 84.3917 26.6304 84.8261 27.2406 85.1737C27.6764 85.4344 28.1995 85.5213 28.6354 85.6082C29.5071 85.6951 30.1173 85.4344 30.5532 84.6523C30.7275 84.2178 30.9019 83.7834 31.0762 83.3489C31.5121 82.1323 32.0351 81.0026 32.7325 79.9598C33.1684 79.3515 33.6914 78.7432 34.3016 78.3088C35.6092 77.266 37.2655 77.4398 38.3988 78.6563C39.2705 79.5253 39.7064 80.5681 39.7064 81.7847C39.7936 82.9144 39.7064 84.0441 39.7064 85.1737C39.7064 86.0427 39.6192 86.9986 39.9679 87.8676C41.9729 88.5628 44.1522 89.0842 46.0701 90.4746C46.0701 90.127 46.07 89.8663 45.9829 89.6056C45.1983 85.5213 43.542 81.7847 40.6653 78.7432C39.7064 77.7874 38.7475 76.9184 37.5271 76.3101C36.6553 75.8756 35.7836 75.528 34.9119 75.0935C30.6404 73.1817 26.8919 70.401 23.4049 67.2726C21.7486 65.7953 20.441 64.1442 19.3078 62.3194C18.7847 61.4504 18.2617 60.4945 17.7387 59.6255C16.8669 57.9745 16.6054 56.2365 17.0413 54.3247C17.2156 53.4557 17.6515 52.6736 18.2617 51.9784C19.1334 51.0226 20.2667 50.675 21.5743 51.0226C22.446 51.2832 23.2306 51.6308 23.8408 52.326C24.451 53.0212 25.0612 53.7164 25.5843 54.4985C26.8919 56.4103 28.1123 58.4089 29.3327 60.3207C29.7686 60.929 30.2917 61.5373 30.8147 62.0587C30.7275 62.1456 31.1634 62.4063 31.6864 62.7539Z" fill="#0D9380"/>
</svg>
