<svg width="93" height="122" fill="none" xmlns="http://www.w3.org/2000/svg">
  <path d="M32 63v-3l-1-4-2-3-4-6c-4-6-6-12-7-20v-5a9 9 0 012-3l3-2c2 0 3 1 3 3l1 3 1 4 1 3 1 1 1-1 1-4 1-9 2-11a11 11 0 013-5c1-2 4-1 5 1l1 3v6l-3 12-2 6v5l1 1h1l1-1 1-2 3-4 2-3 3-1c2-1 4 0 5 3v3l-2 4-4 3-5 3-3 2c-2 2-3 4-3 7l1 4v1h2l5-4 2-2c4-1 7 1 7 5l-2 4c-1 2-2 3-4 3l-2 2-3 3v4l3 3 4 4 3 4 1 3 1 3 1 1 1-2 1-3v-4l1-9a18 18 0 013-8l2-1c1-1 2 0 3 1l1 2v4l-1 6a15 15 0 000 6l2 1 1-1 2-3 2-8 4-14 2-5 1-1 1-2c2-1 4-1 5 1l1 3-1 8-3 7-1 5v1l1 1 2 1 3 1c2 1 2 3 2 5-1 2-2 4-5 4h-6l-3 1v2l1 1 2 3 2 5c0 2 0 4-2 5-1 2-3 2-4 1l-3-2-4-4-4-3h-3c-1 1-2 2-1 3l2 2 2 4 1 3-1 3h-3l-2-1-3-2h-2v14l-2 4c-2 2-4 3-7 3l-2-1-2-1c-2-1-3-3-2-5l1-4 1-9-1-7-1-1-3-1-1 1-3 4-3 2-3 3c-2 1-4 0-6-1-1-1-2-3-1-5l3-2 3-1 3-1 1-2-2-1-3 2-8 4c-2 2-5 3-8 3-3 1-6 0-9-2l-2-4 1-4c2-2 5-3 7-2l6 1 4 1 4-2v-3l-2-1-4-1-6-4-2-5c-1-2 0-4 1-6l1-1h4l2 1 2 4 5 7 2 3 2 1 2 1 2-1v-2l2-3 1-2c2-1 3-1 4 1l2 3v6l6 2c-1-4-2-8-5-11l-3-3-3-1-12-8-4-5-1-2-1-6 1-2 4-1 2 1 2 2 3 6 2 2 1 1z" fill="#0D9380"/>
</svg>