<svg width="213" height="322" viewBox="0 0 213 322" fill="none" xmlns="http://www.w3.org/2000/svg">
<path d="M182.127 296.327C181.213 310.057 172.837 321.291 163.514 321.291H49.3465C40.0233 321.291 31.6473 310.057 30.7339 296.327L12.722 25.6725C11.8086 11.9436 18.6899 0.709351 28.013 0.709351H184.848C194.171 0.709351 201.053 11.9425 200.139 25.6725L182.127 296.327Z" fill="#DC2F00"/>
<path d="M106 57V303H183L197 57H106Z" fill="#B32600"/>
<path d="M193.916 0.710327C204.379 0.710327 212.861 13.2613 212.861 28.7422C212.861 44.2241 204.378 56.7741 193.916 56.7741H18.9446C8.48228 56.7752 0 44.2252 0 28.7422C0 13.2613 8.48228 0.710327 18.9446 0.710327H193.916Z" fill="#DC2F00"/>
<path d="M202.547 1C208.32 1 213 13.5367 213 29C213 44.4643 208.32 57 202.547 57H106C106 38.9567 106 29.4676 106 29.4676C106 14.0043 106 17.9806 106 1H202.547Z" fill="#CC2C00"/>
</svg>
