<svg width="213" height="321" viewBox="0 0 213 321" fill="none" xmlns="http://www.w3.org/2000/svg">
<path d="M182.127 295.618C181.213 309.348 172.837 320.581 163.514 320.581H49.3465C40.0233 320.581 31.6473 309.348 30.7339 295.618L12.722 24.9631C11.8086 11.2342 18.6899 0 28.013 0H184.848C194.171 0 201.053 11.2332 200.139 24.9631L182.127 295.618Z" fill="#09F167"/>
<path d="M106 56.2905V302.291H183L197 56.2905H106Z" fill="#08D35A"/>
<path d="M193.916 0.000976562C204.379 0.000976562 212.861 12.552 212.861 28.0329C212.861 43.5148 204.378 56.0648 193.916 56.0648H18.9446C8.48228 56.0658 0 43.5158 0 28.0329C0 12.552 8.48228 0.000976562 18.9446 0.000976562H193.916Z" fill="#09F167"/>
<path d="M202.547 0.290527C208.32 0.290527 213 12.8273 213 28.2905C213 43.7548 208.32 56.2905 202.547 56.2905H106C106 38.2473 106 28.7581 106 28.7581C106 13.2948 106 17.2712 106 0.290527H202.547Z" fill="#08DD5F"/>
</svg>
