<svg width="389" height="126" viewBox="0 0 389 126" fill="none" xmlns="http://www.w3.org/2000/svg">
<g filter="url(#filter0_dii)">
<rect width="379" height="116" rx="25" fill="#FF8A00"/>
</g>
<g filter="url(#filter1_d)">
<path d="M110.527 75H92.0947C91.4867 75 91.0387 74.872 90.7507 74.616C90.4947 74.328 90.3667 73.88 90.3667 73.272V42.168C90.3667 41.56 90.4947 41.128 90.7507 40.872C91.0387 40.584 91.4867 40.44 92.0947 40.44H107.407C110.543 40.44 112.863 41.048 114.367 42.264C115.871 43.448 116.623 45.288 116.623 47.784V50.088C116.623 51.432 116.383 52.536 115.903 53.4C115.455 54.232 114.751 54.856 113.791 55.272C115.839 55.464 117.359 56.168 118.351 57.384C119.343 58.6 119.839 60.376 119.839 62.712V67.128C119.839 69.816 119.071 71.8 117.535 73.08C116.031 74.36 113.695 75 110.527 75ZM101.167 48.6V53.784H105.247C105.855 53.784 106.303 53.624 106.591 53.304C106.911 52.984 107.071 52.504 107.071 51.864V50.52C107.071 49.88 106.911 49.4 106.591 49.08C106.303 48.76 105.855 48.6 105.247 48.6H101.167ZM101.167 61.176V66.84H107.407C108.015 66.84 108.463 66.68 108.751 66.36C109.071 66.04 109.231 65.56 109.231 64.92V63.048C109.231 62.408 109.071 61.944 108.751 61.656C108.463 61.336 108.015 61.176 107.407 61.176H101.167ZM154.572 65.928C154.572 67.4 154.348 68.744 153.9 69.96C153.484 71.144 152.716 72.168 151.596 73.032C150.508 73.864 149.004 74.52 147.084 75C145.164 75.48 142.716 75.72 139.74 75.72C136.764 75.72 134.316 75.48 132.396 75C130.476 74.52 128.956 73.864 127.836 73.032C126.748 72.168 125.98 71.144 125.532 69.96C125.116 68.744 124.908 67.4 124.908 65.928V42.168C124.908 41.56 125.036 41.128 125.292 40.872C125.58 40.584 126.028 40.44 126.636 40.44H134.172C134.78 40.44 135.212 40.584 135.468 40.872C135.756 41.128 135.9 41.56 135.9 42.168V64.056C135.9 64.696 136.14 65.24 136.62 65.688C137.1 66.104 138.172 66.312 139.836 66.312C141.532 66.312 142.62 66.104 143.1 65.688C143.58 65.24 143.82 64.696 143.82 64.056V42.168C143.82 41.56 143.948 41.128 144.204 40.872C144.492 40.584 144.94 40.44 145.548 40.44H152.844C153.452 40.44 153.884 40.584 154.14 40.872C154.428 41.128 154.572 41.56 154.572 42.168V65.928ZM177.28 75H169.504C168.896 75 168.448 74.872 168.16 74.616C167.904 74.328 167.776 73.88 167.776 73.272V49.704H160.72C160.112 49.704 159.664 49.576 159.376 49.32C159.12 49.032 158.992 48.584 158.992 47.976V42.168C158.992 41.56 159.12 41.128 159.376 40.872C159.664 40.584 160.112 40.44 160.72 40.44H186.064C186.672 40.44 187.104 40.584 187.36 40.872C187.648 41.128 187.792 41.56 187.792 42.168V47.976C187.792 48.584 187.648 49.032 187.36 49.32C187.104 49.576 186.672 49.704 186.064 49.704H179.008V73.272C179.008 73.88 178.864 74.328 178.576 74.616C178.32 74.872 177.888 75 177.28 75ZM208.78 75H201.004C200.396 75 199.948 74.872 199.66 74.616C199.404 74.328 199.276 73.88 199.276 73.272V49.704H192.22C191.612 49.704 191.164 49.576 190.876 49.32C190.62 49.032 190.492 48.584 190.492 47.976V42.168C190.492 41.56 190.62 41.128 190.876 40.872C191.164 40.584 191.612 40.44 192.22 40.44H217.564C218.172 40.44 218.604 40.584 218.86 40.872C219.148 41.128 219.292 41.56 219.292 42.168V47.976C219.292 48.584 219.148 49.032 218.86 49.32C218.604 49.576 218.172 49.704 217.564 49.704H210.508V73.272C210.508 73.88 210.364 74.328 210.076 74.616C209.82 74.872 209.388 75 208.78 75ZM253.006 65.928C253.006 67.4 252.782 68.744 252.334 69.96C251.918 71.144 251.15 72.168 250.03 73.032C248.942 73.864 247.422 74.52 245.47 75C243.55 75.48 241.102 75.72 238.126 75.72C235.15 75.72 232.686 75.48 230.734 75C228.782 74.52 227.246 73.864 226.126 73.032C225.038 72.168 224.27 71.144 223.822 69.96C223.406 68.744 223.198 67.4 223.198 65.928V49.56C223.198 48.088 223.406 46.76 223.822 45.576C224.27 44.36 225.038 43.32 226.126 42.456C227.246 41.592 228.782 40.92 230.734 40.44C232.686 39.96 235.15 39.72 238.126 39.72C241.102 39.72 243.55 39.96 245.47 40.44C247.422 40.92 248.942 41.592 250.03 42.456C251.15 43.32 251.918 44.36 252.334 45.576C252.782 46.76 253.006 48.088 253.006 49.56V65.928ZM234.094 64.2C234.094 64.84 234.334 65.384 234.814 65.832C235.294 66.248 236.398 66.456 238.126 66.456C239.854 66.456 240.958 66.248 241.438 65.832C241.918 65.384 242.158 64.84 242.158 64.2V51.288C242.158 50.68 241.918 50.168 241.438 49.752C240.958 49.304 239.854 49.08 238.126 49.08C236.398 49.08 235.294 49.304 234.814 49.752C234.334 50.168 234.094 50.68 234.094 51.288V64.2ZM268.045 75H260.845C260.237 75 259.789 74.872 259.501 74.616C259.245 74.328 259.117 73.88 259.117 73.272V42.168C259.117 41.56 259.245 41.128 259.501 40.872C259.789 40.584 260.237 40.44 260.845 40.44H265.837C266.445 40.44 266.957 40.536 267.373 40.728C267.821 40.92 268.253 41.256 268.669 41.736L277.981 52.392V42.168C277.981 41.56 278.109 41.128 278.365 40.872C278.653 40.584 279.101 40.44 279.709 40.44H286.909C287.517 40.44 287.949 40.584 288.205 40.872C288.493 41.128 288.637 41.56 288.637 42.168V73.272C288.637 73.88 288.493 74.328 288.205 74.616C287.949 74.872 287.517 75 286.909 75H279.709C279.101 75 278.653 74.872 278.365 74.616C278.109 74.328 277.981 73.88 277.981 73.272V67.368L269.773 57.432V73.272C269.773 73.88 269.629 74.328 269.341 74.616C269.085 74.872 268.653 75 268.045 75Z" fill="white"/>
</g>
<defs>
<filter id="filter0_dii" x="-4" y="-4" width="393" height="130" filterUnits="userSpaceOnUse" color-interpolation-filters="sRGB">
<feFlood flood-opacity="0" result="BackgroundImageFix"/>
<feColorMatrix in="SourceAlpha" type="matrix" values="0 0 0 0 0 0 0 0 0 0 0 0 0 0 0 0 0 0 127 0"/>
<feOffset dx="6" dy="6"/>
<feGaussianBlur stdDeviation="2"/>
<feColorMatrix type="matrix" values="0 0 0 0 0 0 0 0 0 0 0 0 0 0 0 0 0 0 0.25 0"/>
<feBlend mode="normal" in2="BackgroundImageFix" result="effect1_dropShadow"/>
<feBlend mode="normal" in="SourceGraphic" in2="effect1_dropShadow" result="shape"/>
<feColorMatrix in="SourceAlpha" type="matrix" values="0 0 0 0 0 0 0 0 0 0 0 0 0 0 0 0 0 0 127 0" result="hardAlpha"/>
<feOffset dx="-10" dy="-10"/>
<feGaussianBlur stdDeviation="2"/>
<feComposite in2="hardAlpha" operator="arithmetic" k2="-1" k3="1"/>
<feColorMatrix type="matrix" values="0 0 0 0 1 0 0 0 0 0.678824 0 0 0 0 0.3 0 0 0 1 0"/>
<feBlend mode="normal" in2="shape" result="effect2_innerShadow"/>
<feColorMatrix in="SourceAlpha" type="matrix" values="0 0 0 0 0 0 0 0 0 0 0 0 0 0 0 0 0 0 127 0" result="hardAlpha"/>
<feOffset dx="10" dy="10"/>
<feGaussianBlur stdDeviation="2"/>
<feComposite in2="hardAlpha" operator="arithmetic" k2="-1" k3="1"/>
<feColorMatrix type="matrix" values="0 0 0 0 0.8 0 0 0 0 0.432941 0 0 0 0 0 0 0 0 1 0"/>
<feBlend mode="normal" in2="effect2_innerShadow" result="effect3_innerShadow"/>
</filter>
<filter id="filter1_d" x="90.3667" y="39.72" width="206.27" height="44" filterUnits="userSpaceOnUse" color-interpolation-filters="sRGB">
<feFlood flood-opacity="0" result="BackgroundImageFix"/>
<feColorMatrix in="SourceAlpha" type="matrix" values="0 0 0 0 0 0 0 0 0 0 0 0 0 0 0 0 0 0 127 0"/>
<feOffset dx="4" dy="4"/>
<feGaussianBlur stdDeviation="2"/>
<feColorMatrix type="matrix" values="0 0 0 0 0 0 0 0 0 0 0 0 0 0 0 0 0 0 0.25 0"/>
<feBlend mode="normal" in2="BackgroundImageFix" result="effect1_dropShadow"/>
<feBlend mode="normal" in="SourceGraphic" in2="effect1_dropShadow" result="shape"/>
</filter>
</defs>
</svg>
