<svg width="93" height="93" fill="none" xmlns="http://www.w3.org/2000/svg">
  <g filter="">
    <path d="M42.5 0a42.5 42.5 0 100 85 42.5 42.5 0 000-85zm0 79.3a37 37 0 110-73.9 37 37 0 010 73.9z" fill="#000"/>
    <ellipse cx="42.5" cy="42.4" rx="42.5" ry="42.4" fill="#A10094"/>
    <path d="M62.4 22.5a4 4 0 00-5.6 0L42.5 36.8 28.2 22.5a4 4 0 00-5.6 5.7l14.3 14.2-14.3 14.3a4 4 0 105.6 5.6l14.3-14.2 14.3 14.2a4 4 0 005.6-5.6L48.1 42.4l14.3-14.2a4 4 0 000-5.7z" fill="#fff"/>
  </g>
  <defs>
    <filter id="filter0_d" x="0" y="0" width="93" height="92.9" filterUnits="userSpaceOnUse" color-interpolation-filters="sRGB">
      <feFlood flood-opacity="0" result="BackgroundImageFix"/>
      <feColorMatrix in="SourceAlpha" values="0 0 0 0 0 0 0 0 0 0 0 0 0 0 0 0 0 0 127 0"/>
      <feOffset dx="4" dy="4"/>
      <feGaussianBlur stdDeviation="2"/>
      <feColorMatrix values="0 0 0 0 0 0 0 0 0 0 0 0 0 0 0 0 0 0 0.25 0"/>
      <feBlend in2="BackgroundImageFix" result="effect1_dropShadow"/>
      <feBlend in="SourceGraphic" in2="effect1_dropShadow" result="shape"/>
    </filter>
  </defs>
</svg>