<svg width="93" height="93" viewBox="0 0 93 93" fill="none" xmlns="http://www.w3.org/2000/svg">
<g filter="url(#filter0_d)">
<path d="M42.4983 0C19.0649 0 0 19.0355 0 42.4332C0 65.8309 19.0649 84.8665 42.4983 84.8665C65.933 84.8665 85 65.8309 85 42.4332C85 19.0355 65.933 0 42.4983 0ZM42.4983 79.3013C22.1378 79.3013 5.57387 62.7621 5.57387 42.4332C5.57387 22.1041 22.1376 5.56533 42.4983 5.56533C62.8605 5.56533 79.4257 22.1043 79.4257 42.4332C79.4259 62.7621 62.8605 79.3013 42.4983 79.3013Z" fill="black"/>
<ellipse cx="42.5" cy="42.4332" rx="42.5" ry="42.4332" fill="#A10094"/>
<path d="M62.4188 22.5456C60.8603 20.9895 58.3357 20.9895 56.7772 22.5456L42.5011 36.7992L28.225 22.5456C26.6665 20.9895 24.1413 20.9895 22.5828 22.5456C21.0243 24.1008 21.0243 26.6238 22.5828 28.179L36.8571 42.4326L22.581 56.6865C21.0225 58.2414 21.0225 60.7635 22.581 62.3202C23.3601 63.0984 24.3813 63.4873 25.4019 63.4873C26.4226 63.4873 27.4435 63.0984 28.2223 62.3202L42.5011 48.0651L56.7772 62.3208C57.5566 63.0991 58.5769 63.4879 59.5976 63.4879C60.6179 63.4879 61.6391 63.0994 62.4182 62.3208C63.9767 60.7659 63.9767 58.2427 62.4182 56.6877L48.1427 42.4326L62.4188 28.179C63.9773 26.6238 63.9773 24.1018 62.4188 22.5456Z" fill="white"/>
</g>
<defs>
<filter id="filter0_d" x="0" y="0" width="93" height="92.8665" filterUnits="userSpaceOnUse" color-interpolation-filters="sRGB">
<feFlood flood-opacity="0" result="BackgroundImageFix"/>
<feColorMatrix in="SourceAlpha" type="matrix" values="0 0 0 0 0 0 0 0 0 0 0 0 0 0 0 0 0 0 127 0"/>
<feOffset dx="4" dy="4"/>
<feGaussianBlur stdDeviation="2"/>
<feColorMatrix type="matrix" values="0 0 0 0 0 0 0 0 0 0 0 0 0 0 0 0 0 0 0.25 0"/>
<feBlend mode="normal" in2="BackgroundImageFix" result="effect1_dropShadow"/>
<feBlend mode="normal" in="SourceGraphic" in2="effect1_dropShadow" result="shape"/>
</filter>
</defs>
</svg>
