<?xml version="1.0" encoding="iso-8859-1"?>
<!-- Generator: Adobe Illustrator 19.0.0, SVG Export Plug-In . SVG Version: 6.00 Build 0)  -->
<svg version="1.1" id="Layer_1" xmlns="http://www.w3.org/2000/svg" xmlns:xlink="http://www.w3.org/1999/xlink" x="0px" y="0px"
	 viewBox="0 0 289.94 289.94" style="enable-background:new 0 0 289.94 289.94;" xml:space="preserve">
<g>
	<path style="fill:#E4E7E7;" d="M244.674,54.346L217.193,289.94H72.767L45.259,54.346H244.674z"/>
	<path style="fill:#F4B459;" d="M45.304,108.727h199.333l-18.121,135.157H63.425L45.304,108.727z"/>
	<path style="fill:#2B414D;" d="M45.304,27.182h199.333c10.003,0,18.121,8.118,18.121,18.121v18.121H27.183V45.303
		C27.183,35.291,35.301,27.182,45.304,27.182z"/>
	<path style="fill:#5A6F7B;" d="M72.486,0h144.97c10.003,0,18.121,8.118,18.121,18.121v9.061H54.365v-9.061
		C54.365,8.109,62.483,0,72.486,0z"/>
	<g>
		<rect x="172.152" y="108.727" style="fill:#E3A753;" width="18.121" height="135.157"/>
		<rect x="135.91" y="108.727" style="fill:#E3A753;" width="18.121" height="135.157"/>
		<rect x="63.425" y="108.727" style="fill:#E3A753;" width="18.121" height="135.157"/>
		<rect x="99.668" y="108.727" style="fill:#E3A753;" width="18.121" height="135.157"/>
		<rect x="208.395" y="108.727" style="fill:#E3A753;" width="18.121" height="135.157"/>
	</g>
</g>
<g>
</g>
<g>
</g>
<g>
</g>
<g>
</g>
<g>
</g>
<g>
</g>
<g>
</g>
<g>
</g>
<g>
</g>
<g>
</g>
<g>
</g>
<g>
</g>
<g>
</g>
<g>
</g>
<g>
</g>
</svg>
