<svg width="139" height="139" viewBox="0 0 139 139" fill="none" xmlns="http://www.w3.org/2000/svg">
<g clip-path="url(#clip0)">
<path d="M94.3008 25.4467L95.6399 31.9229L103.822 122.244L59.2271 131.466L30.9151 45.307L29.5759 38.8308L94.3008 25.4467Z" fill="#DDDAD4"/>
<path d="M94.3008 25.4466L95.6399 31.9228L103.822 122.244L81.5244 126.855L61.9385 32.1387L94.3008 25.4466Z" fill="#C4C2BF"/>
<path d="M81.9636 69.6029L84.1572 80.2112C85.4721 86.5701 81.2491 92.8683 74.7718 94.2077C68.2968 95.5467 61.9215 91.44 60.6066 85.0811L58.4129 74.4728C57.098 68.1139 61.3217 61.8155 67.7968 60.4766C74.274 59.1372 80.6486 63.244 81.9636 69.6029Z" fill="#874D20"/>
<path d="M81.9643 69.6028L84.1579 80.2111C85.4728 86.5698 81.2499 92.8677 74.7734 94.2075L67.7983 60.4763C74.2753 59.1375 80.6494 63.2443 81.9643 69.6028Z" fill="#663310"/>
<path d="M104.425 18.6192L106.077 26.6089C106.36 27.9791 105.479 29.32 104.109 29.6033L22.2219 46.5363C20.8515 46.8196 19.5108 45.9382 19.2275 44.5681L17.5753 36.5784C17.2919 35.208 18.1731 33.8673 19.5435 33.5839L28.124 31.8096L26.0715 21.8837C25.7881 20.5133 26.6693 19.1727 28.0397 18.8893L87.8014 6.53149C89.1718 6.24811 90.5124 7.1293 90.7958 8.49971L92.8483 18.4254L101.43 16.6509C102.8 16.3675 104.141 17.2486 104.425 18.6192Z" fill="#FF4328"/>
<path d="M68.4651 53.6964L74.302 81.9236C74.5287 83.0198 73.8236 84.0925 72.7274 84.3192C71.6312 84.5458 70.5586 83.8408 70.3319 82.7446L64.495 54.5174C64.2683 53.4212 64.9733 52.3485 66.0695 52.1219C67.1657 51.8952 68.2383 52.6 68.4651 53.6964Z" fill="#391B10"/>
<path d="M91.7187 13.4839L92.7449 18.4467L28.2281 31.7878L27.2019 26.825L91.7187 13.4839Z" fill="#C13421"/>
</g>
<defs>
<clipPath id="clip0">
<rect x="0.848633" y="24.512" width="116.56" height="116.56" transform="rotate(-11.6832 0.848633 24.512)" fill="white"/>
</clipPath>
</defs>
</svg>
