<svg width="99" height="88" viewBox="0 0 99 88" fill="none" xmlns="http://www.w3.org/2000/svg">
<path d="M67.5564 44.3607C64.4609 40.8053 61.6758 36.9911 59.2315 32.9602C55.178 35.5545 54.5547 29.839 54.2811 29.0587C54.0075 28.2784 47.5776 31.7594 47.5776 31.7594C47.5776 31.7594 44.5628 37.7282 38.4876 34.9262L29.3976 38.093C29.3976 38.093 32.5695 41.4371 30.8569 43.2865C30.6471 49.9609 29.7437 56.5954 28.1613 63.0829C26.6412 69.1631 32.2553 74.1895 39.0399 77.5894C44.2841 77.412 48.2211 78.9017 57.2402 75.7146C65.028 72.9582 67.6881 68.6716 71.2552 65.6771C73.6113 58.8875 73.3782 51.0743 67.5564 44.3607Z" fill="#DD0020"/>
<path d="M28.1613 63.0829C29.7387 56.5948 30.637 49.9604 30.8417 43.2865C30.5907 43.55 30.2891 43.7603 29.955 43.9047C26.4943 45.4754 19.8516 44.6951 19.877 38.4983C19.8796 38.451 19.8796 38.4037 19.877 38.3564C14.6885 46.2051 7.14389 41.9691 4.45337 40.064C4.69151 40.2869 4.93472 40.4997 5.18807 40.7024C5.44141 40.9051 5.69476 41.0774 5.94304 41.2497C7.68098 42.9521 10.6654 45.8099 12.9404 47.8366C16.3555 50.8362 21.169 53.1619 21.3514 54.7377C21.5339 56.3135 14.9874 59.6982 10.8833 63.1234C6.77907 66.5486 2.2138 70.5109 7.89379 69.6141C13.5738 68.7172 20.6066 64.0912 24.1078 66.8678C27.6091 69.6445 25.334 70.3285 21.3768 75.1674C17.4195 80.0063 5.55795 94.0568 23.9102 82.8184C28.3134 80.1228 33.365 77.8326 38.741 77.5944H38.9994C32.2706 74.1895 26.6413 69.1581 28.1613 63.0829Z" fill="#B20000"/>
<path d="M85.8378 51.1909C79.2103 51.4949 77.4876 51.6975 76.5299 50.066C74.7565 47.0613 79.3421 41.959 86.2786 41.1635C86.5774 40.7838 86.989 40.5087 87.4542 40.3781C87.761 40.2922 88.0835 40.2783 88.3966 40.3376H88.427C88.7857 40.1153 89.2008 40.001 89.6228 40.0082C89.7121 40.0005 89.802 40.0005 89.8913 40.0082C90.0115 39.9839 90.1336 39.9703 90.2561 39.9677H90.3169H90.4082H90.5146H90.6767C94.8366 38.4983 93.2557 33.8013 88.7563 33.8874C83.1828 34.0141 69.2285 37.0086 71.0222 34.237C72.4156 32.109 75.775 23.5307 75.6432 20.1967C75.8003 20.1156 72.7652 23.1102 72.9172 23.0189C68.6763 24.4478 64.2478 23.4243 64.2478 23.4243C63.9286 25.6993 62.9101 30.1075 59.6876 32.5447C59.5204 32.6714 59.3633 32.7778 59.1809 32.8791C61.6252 36.9101 64.4104 40.7242 67.5058 44.2796C73.3277 50.9933 73.5607 58.8064 71.2198 65.596C71.9992 64.9702 72.8203 64.398 73.6773 63.8834C82.1289 58.5733 95.9007 59.4904 97.8261 58.092C101.089 55.8372 92.4653 50.8818 85.8378 51.1909Z" fill="#B20000"/>
<path d="M64.268 23.1962C64.268 23.1962 63.2192 31.3893 57.9344 33.6492C52.6496 35.909 58.127 43.2154 58.127 43.2154L62.6162 38.0877C62.6162 38.0877 67.5108 30.7661 68.1898 28.1972C69.6187 22.6743 70.0645 23.3532 70.0645 23.3532L64.268 23.1962Z" fill="#DD0020"/>
<path d="M38.827 26.8797C39.811 28.1654 40.3917 29.714 40.4957 31.3297C40.5998 32.9454 40.2226 34.5556 39.4117 35.9569C38.6008 37.3583 37.3927 38.4877 35.94 39.2026C34.4874 39.9175 32.8554 40.1857 31.2504 39.9733C29.6453 39.7609 28.1393 39.0774 26.9226 38.0093C25.7059 36.9412 24.8332 35.5364 24.4147 33.9724C23.9962 32.4083 24.0508 30.7554 24.5716 29.2224C25.0923 27.6894 26.0558 26.3452 27.3404 25.3596C29.0652 24.038 31.2443 23.4557 33.3985 23.7408C35.5526 24.0258 37.5053 25.1549 38.827 26.8797Z" fill="#900000"/>
<path d="M38.1178 25.4206C39.104 26.7067 39.6867 28.2565 39.7921 29.8738C39.8974 31.4912 39.5208 33.1034 38.7097 34.5066C37.8986 35.9098 36.6895 37.0409 35.2355 37.7569C33.7814 38.4728 32.1477 38.7415 30.5409 38.5287C28.9342 38.316 27.4266 37.6315 26.209 36.5618C24.9913 35.4922 24.1183 34.0854 23.7003 32.5195C23.2823 30.9535 23.3381 29.2988 23.8607 27.7646C24.3833 26.2304 25.3492 24.8857 26.6362 23.9005C28.3607 22.5805 30.5387 21.9991 32.6916 22.2842C34.8445 22.5692 36.7962 23.6973 38.1178 25.4206Z" fill="#D20008"/>
<path d="M56.9412 19.8012C57.9268 21.0875 58.5089 22.6371 58.6138 24.2542C58.7187 25.8713 58.3417 27.4831 57.5306 28.8859C56.7194 30.2887 55.5105 31.4195 54.0566 32.1353C52.6028 32.851 50.9694 33.1196 49.3629 32.907C47.7565 32.6944 46.2491 32.0102 45.0315 30.9409C43.8139 29.8717 42.9407 28.4654 42.5224 26.8998C42.104 25.3343 42.1593 23.6799 42.6812 22.1458C43.2031 20.6117 44.1682 19.2668 45.4545 18.2812C47.1793 16.9595 49.3585 16.3772 51.5126 16.6623C53.6668 16.9473 55.6195 18.0765 56.9412 19.8012Z" fill="#900000"/>
<path d="M56.2318 18.3421C57.2181 19.6282 57.8007 21.1779 57.9061 22.7953C58.0115 24.4126 57.6348 26.0248 56.8237 27.428C56.0126 28.8312 54.8035 29.9624 53.3495 30.6783C51.8954 31.3943 50.2617 31.6629 48.6549 31.4502C47.0482 31.2374 45.5406 30.553 44.323 29.4833C43.1053 28.4136 42.2323 27.0069 41.8143 25.4409C41.3963 23.875 41.4521 22.2203 41.9747 20.6861C42.4973 19.1519 43.4632 17.8071 44.7502 16.822C46.4752 15.5033 48.6528 14.9227 50.8053 15.2077C52.9578 15.4926 54.9094 16.6199 56.2318 18.3421Z" fill="#D20008"/>
<path d="M36.4559 27.6347C37.1126 28.4923 37.5002 29.5253 37.5698 30.6032C37.6395 31.6811 37.388 32.7554 36.8472 33.6903C36.3063 34.6253 35.5005 35.3789 34.5314 35.8559C33.5623 36.3329 32.4736 36.5119 31.4028 36.3703C30.332 36.2287 29.3273 35.7727 28.5156 35.0602C27.7039 34.3476 27.1217 33.4104 26.8425 32.367C26.5634 31.3235 26.5999 30.2208 26.9474 29.1981C27.2949 28.1754 27.9378 27.2787 28.7948 26.6214C29.364 26.1839 30.0139 25.8631 30.7073 25.6773C31.4007 25.4914 32.124 25.4442 32.8356 25.5383C33.5473 25.6325 34.2334 25.8661 34.8546 26.2258C35.4759 26.5856 36.02 27.0643 36.4559 27.6347Z" fill="white"/>
<path d="M33.7348 29.707C33.8271 30.0277 33.8221 30.3685 33.7207 30.6865C33.6192 31.0044 33.4257 31.2851 33.1646 31.493C32.9036 31.701 32.5868 31.8268 32.2542 31.8547C31.9217 31.8826 31.5883 31.8112 31.2963 31.6496C31.0043 31.488 30.7668 31.2435 30.6138 30.9469C30.4608 30.6503 30.3992 30.315 30.4368 29.9834C30.4743 29.6518 30.6094 29.3388 30.8249 29.0839C31.0403 28.8291 31.3265 28.6439 31.6473 28.5517C31.8602 28.4898 32.0833 28.4706 32.3036 28.4953C32.524 28.5199 32.7373 28.5878 32.9313 28.6952C33.1253 28.8026 33.2962 28.9472 33.4341 29.1208C33.572 29.2945 33.6742 29.4937 33.7348 29.707Z" fill="black"/>
<path d="M54.57 20.5563C55.2273 21.4138 55.6156 22.4469 55.6857 23.5251C55.7558 24.6032 55.5045 25.6779 54.9638 26.6132C54.423 27.5486 53.617 28.3025 52.6477 28.7798C51.6784 29.257 50.5894 29.436 49.5183 29.2943C48.4473 29.1525 47.4423 28.6963 46.6305 27.9833C45.8188 27.2704 45.2367 26.3326 44.9579 25.2888C44.6791 24.245 44.7162 23.1419 45.0643 22.1192C45.4125 21.0964 46.0562 20.1999 46.9139 19.5429C48.0642 18.6637 49.5162 18.2766 50.9515 18.4666C52.3868 18.6566 53.6881 19.4081 54.57 20.5563Z" fill="white"/>
<path d="M51.854 22.6338C51.9456 22.9548 51.9399 23.2958 51.8377 23.6136C51.7354 23.9314 51.5412 24.2117 51.2795 24.4191C51.0179 24.6265 50.7006 24.7516 50.3679 24.7786C50.0351 24.8056 49.7019 24.7332 49.4102 24.5707C49.1186 24.4083 48.8817 24.1629 48.7296 23.8657C48.5774 23.5686 48.5169 23.233 48.5556 22.9014C48.5942 22.5698 48.7304 22.2571 48.9468 22.0029C49.1633 21.7487 49.4503 21.5645 49.7715 21.4735C50.2015 21.3516 50.6623 21.4054 51.0527 21.6229C51.4431 21.8404 51.7313 22.204 51.854 22.6338Z" fill="black"/>
<path d="M68.5494 18.9043C77.1631 19.0665 77.2796 2.24439 70.343 0.298706C70.7005 1.09785 70.9034 1.95749 70.9409 2.83215C71.0879 6.15097 69.1016 9.52044 66.3047 9.64712C63.5078 9.77379 60.9591 6.60698 60.8071 3.2831C60.8071 3.20709 60.8071 3.13112 60.8071 3.05511C60.7159 8.07134 61.3746 18.7726 68.5494 18.9043Z" fill="#B20000"/>
<path d="M70.2163 0C70.267 0.0962708 70.3025 0.197607 70.3481 0.298944C76.3929 3.61775 77.1529 18.4637 68.5493 18.3016C61.3695 18.1648 60.721 8.07156 60.8021 3.05027C58.5534 5.67938 57.4095 9.07666 57.6099 12.5304C57.8329 17.5415 60.6196 21.6508 64.3337 23.4293C64.3337 23.4293 68.7013 24.5338 72.9474 23.105C74.5661 22.1091 75.901 20.7131 76.8236 19.0515C78.091 16.7777 78.6916 14.1927 78.5564 11.593C78.3234 5.85732 74.7765 1.19072 70.2163 0Z" fill="#900000"/>
<path d="M6.66248 36.1929C0.622748 31.8252 2.78631 26.2314 3.22206 21.4482C0.181929 24.4428 -0.897318 29.5097 0.810223 34.4043C1.54861 36.5604 2.80273 38.5033 4.46345 40.064C7.15397 41.9692 14.6986 46.2051 19.8871 38.3565V38.2551C21.0569 36.1091 21.5763 33.6688 21.3818 31.2324C18.823 37.7636 12.834 40.6568 6.66248 36.1929Z" fill="#900000"/>
<path d="M14.1211 19.8774C14.1464 19.9484 14.1819 20.0193 14.2072 20.0903C15.3017 23.2267 14.3237 25.7196 11.6738 26.6418C9.02378 27.5639 5.7151 26.5657 4.62572 23.4293C4.29963 22.5036 4.17357 21.5192 4.25584 20.5412C3.89624 20.8182 3.55753 21.1214 3.24246 21.4482C1.8136 24.9545 -0.152357 32.3268 5.86711 36.6945C12.0386 41.1584 20.0949 38.3007 21.3667 31.2324C21.2769 29.9606 21.0179 28.7065 20.5966 27.5031C19.5075 24.2183 17.186 21.4844 14.1211 19.8774Z" fill="#B20000"/>
<path d="M14.121 19.8774C14.121 19.8774 16.32 24.7619 11.6787 26.6418C11.6787 26.6418 17.5614 29.1752 13.0772 35.7622C13.0772 35.7622 21.3919 32.4129 19.3348 24.8177C19.3348 24.8278 17.2827 21.1442 14.121 19.8774Z" fill="#8C0000"/>
<path d="M70.2165 0C70.2165 0 72.0964 7.09365 67.4551 8.99373C67.4551 8.99373 74.042 12.7838 68.5141 20.1003C68.5141 20.1003 78.3337 14.3393 76.2715 6.73896C76.2664 6.73896 73.3732 1.27179 70.2165 0Z" fill="#8C0000"/>
<path d="M62.0538 37.6568C62.0538 37.6568 65.9249 33.1777 71.0424 34.3228C76.16 35.4679 88.3763 32.671 91.462 34.3228C94.5477 35.9746 93.2405 39.1313 90.9553 39.8964C89.263 40.4791 93.2354 38.3763 82.9446 40.0788C72.6537 41.7813 71.615 44.2286 63.9843 48.7685C56.3535 53.3085 58.5627 39.0806 58.5627 39.0806L62.0538 37.6568Z" fill="#DD0020"/>
<path d="M90.9146 39.9674C89.3135 40.5147 87.763 41.0467 86.2277 41.599C85.4576 41.8776 84.7077 42.1563 83.9375 42.4452C83.1673 42.734 82.4782 43.038 81.7638 43.3927C80.3621 44.0651 79.0665 44.9391 77.918 45.9869C77.3647 46.4895 76.9198 47.0999 76.6108 47.7806C76.3032 48.5099 76.2744 49.3267 76.5297 50.0759C76.2276 49.7392 76.0044 49.3393 75.8764 48.9054C75.7484 48.4715 75.7189 48.0145 75.7899 47.5678C75.9403 46.6543 76.3184 45.7934 76.8895 45.0647C77.9954 43.68 79.4025 42.5658 81.0038 41.8067C81.7801 41.4193 82.5888 41.1006 83.4207 40.8541C84.2365 40.616 85.0573 40.4133 85.8883 40.2563C87.5412 39.9196 89.234 39.8224 90.9146 39.9674Z" fill="#720000"/>
<path d="M75.7142 20.9615C75.8257 22.1754 75.7763 23.3987 75.5672 24.5996C75.3786 25.7897 75.087 26.9612 74.6957 28.1008C74.3065 29.2424 73.8147 30.3465 73.2263 31.3994C72.6401 32.4721 71.9048 33.4564 71.0425 34.3229C71.2857 33.1069 71.61 31.977 71.9444 30.8521C72.2788 29.7273 72.6436 28.6278 73.0236 27.5232C73.4036 26.4186 73.7989 25.3292 74.2296 24.2348C74.6652 23.1178 75.1608 22.0251 75.7142 20.9615Z" fill="#720000"/>
<path d="M60.7972 3.05005C61.2685 4.76773 62.0893 6.34858 63.3307 7.24542C63.946 7.68821 64.6552 7.98299 65.403 8.1068C65.7881 8.17267 66.1327 8.1828 66.6444 8.2284C67.1424 8.2828 67.6333 8.3898 68.1088 8.54762C69.111 8.85332 69.9922 9.46549 70.6284 10.298C71.2646 11.1306 71.6238 12.1416 71.6556 13.1889C71.6838 14.1319 71.5186 15.0707 71.17 15.9474C70.8214 16.8241 70.2969 17.6201 69.6288 18.2862C70.2984 16.7331 70.5196 15.0234 70.2673 13.351C70.1308 12.6214 69.8059 11.9402 69.3248 11.375C68.8441 10.8363 68.2257 10.4387 67.5362 10.2248C67.176 10.1002 66.8043 10.0119 66.4266 9.9613C65.9613 9.91547 65.4994 9.84101 65.0433 9.73836C64.053 9.50554 63.1453 9.00613 62.4186 8.29427C61.7272 7.58735 61.2284 6.71517 60.9695 5.76082C60.7224 4.87934 60.6638 3.95572 60.7972 3.05005Z" fill="#5D0000"/>
<path d="M4.26072 20.5411C4.72687 22.2588 5.52744 23.8346 6.79416 24.7315C7.40855 25.1759 8.11814 25.4708 8.86652 25.5928C9.25161 25.6587 9.59109 25.6688 10.1028 25.7144C10.6005 25.7711 11.0911 25.8781 11.5672 26.0337C12.5707 26.3567 13.4536 26.9747 14.1006 27.8071C14.719 28.6394 15.0721 29.6388 15.114 30.6749C15.1399 31.6176 14.9735 32.5558 14.6251 33.4321C14.2766 34.3084 13.7534 35.1046 13.0872 35.7722C13.7464 34.2197 13.9621 32.5149 13.7105 30.8472C13.5748 30.1183 13.2518 29.4373 12.7731 28.8711C12.2894 28.3335 11.6698 27.9362 10.9794 27.7209C10.6192 27.5963 10.2475 27.5081 9.86977 27.4575C9.40454 27.4116 8.94258 27.3372 8.48651 27.2345C7.49789 26.9956 6.59257 26.493 5.86692 25.7803C5.17908 25.0707 4.68076 24.1995 4.41779 23.2469C4.17562 22.3661 4.12209 21.444 4.26072 20.5411Z" fill="#5D0000"/>
<path d="M0.800049 34.394C2.02117 37.2415 4.38741 40.1803 7.09313 41.3812C8.4531 41.9683 9.90583 42.3113 11.3848 42.3946C12.8231 42.5544 14.2783 42.3415 15.6106 41.7764C16.9267 41.1966 18.0537 40.2591 18.8635 39.0707C19.7058 37.8581 20.3142 36.4988 20.6572 35.0628C21.0179 33.6005 21.1546 32.092 21.0625 30.5887C20.9913 29.0047 20.6307 27.4472 19.9985 25.993C20.893 27.3562 21.4776 28.8991 21.7111 30.5127C21.9687 32.0911 21.9549 33.7018 21.6706 35.2756C21.3931 36.884 20.7896 38.4186 19.8972 39.7851C18.9795 41.1923 17.6809 42.3099 16.1527 43.0077C14.6135 43.643 12.9358 43.8682 11.2834 43.6613C9.66731 43.5112 8.09509 43.0519 6.65231 42.3084C3.76418 40.8188 1.50435 37.4341 0.800049 34.394Z" fill="#720000"/>
<path d="M58.1572 15.8543C59.3341 18.6707 61.5207 20.9458 64.2882 22.2335C65.6482 22.8204 67.1009 23.1634 68.5798 23.2469C70.0197 23.4041 71.4759 23.1914 72.8107 22.6287C74.1249 22.0459 75.2512 21.1091 76.0636 19.923C76.9059 18.7104 77.5143 17.3511 77.8573 15.9151C78.2133 14.452 78.3499 12.9442 78.2626 11.441C78.1714 9.92095 77.8725 7.6155 77.2189 6.20691C78.1309 7.47363 78.6325 9.8044 78.9061 11.365C79.1688 12.943 79.1551 14.5546 78.8656 16.1279C78.589 17.7357 77.9873 19.2701 77.0973 20.6374C76.1734 22.0393 74.8718 23.1513 73.3427 23.8447C71.8037 24.4811 70.1253 24.7047 68.4734 24.4933C66.8556 24.3439 65.2816 23.8846 63.8372 23.1404C62.426 22.4007 61.1892 21.368 60.2096 20.1113C59.23 18.8547 58.5303 17.4033 58.1572 15.8543Z" fill="#720000"/>
<path d="M5.21338 41.3003C6.72257 42.0859 8.17672 42.9729 9.56584 43.9553C10.9491 44.913 12.2868 45.9264 13.5889 46.9955C14.8911 48.0646 16.1528 49.1438 17.3891 50.2788C18.6254 51.4138 19.8466 52.7464 21.0069 54.0131C19.4025 53.3301 17.8741 52.481 16.4467 51.4796C15.0335 50.5555 13.6687 49.5594 12.3577 48.4953C11.0555 47.4363 9.79385 46.3165 8.593 45.1309C7.36594 43.9463 6.23578 42.6654 5.21338 41.3003Z" fill="#720000"/>
<path d="M15.1394 87.0541C16.0109 86.6893 16.9077 86.3752 17.759 85.9698C18.6102 85.5645 19.4665 85.1642 20.2924 84.7335C20.7181 84.5156 21.1133 84.3028 21.5085 84.0596C21.9037 83.8164 22.2989 83.5529 22.6941 83.2996L25.0705 81.739C26.6778 80.6955 28.3423 79.7431 30.0563 78.8863C31.8124 78.0091 33.6736 77.3603 35.5944 76.9558C36.5943 76.7507 37.6141 76.6589 38.6346 76.6822C39.6479 76.7278 40.5549 76.819 41.4974 76.8849C43.34 77.0538 45.1915 77.1045 47.0405 77.0369C48.858 76.9591 50.6627 76.6959 52.4266 76.2515C54.1914 75.7986 55.9059 75.1688 57.5442 74.3717C60.8682 72.7442 63.972 70.7011 66.7811 68.2914C68.2708 67.0957 69.7807 65.9302 71.3413 64.8155C72.9031 63.6818 74.5382 62.6527 76.236 61.7349C77.9532 60.7778 79.7948 60.0634 81.7082 59.6118C83.6163 59.264 85.5561 59.1213 87.4946 59.1862C89.3592 59.1862 91.2644 59.0747 93.1391 58.9886C94.0786 58.9512 95.0156 58.8649 95.9462 58.7302C96.4067 58.6643 96.8597 58.554 97.299 58.4009C97.7455 58.2521 98.1384 57.9755 98.4289 57.6053C98.1767 58.0184 97.8084 58.3479 97.3699 58.5529C96.937 58.7663 96.4838 58.936 96.0171 59.0595C95.0902 59.2921 94.1514 59.4747 93.205 59.6068C92.2676 59.7537 91.3201 59.8652 90.3827 59.9817C89.4453 60.0983 88.4928 60.2097 87.5402 60.2857C85.6916 60.336 83.8536 60.584 82.0578 61.0255C80.3088 61.5409 78.6358 62.2854 77.0821 63.2397C73.9233 65.2209 70.9262 67.4488 68.1188 69.9027C65.2035 72.4603 61.9672 74.6269 58.4917 76.3478C54.9363 78.0515 51.0626 78.9889 47.1216 79.0991C45.188 79.12 43.2552 79.015 41.3352 78.785C40.3928 78.6887 39.4402 78.5823 38.5484 78.5063C37.6703 78.4444 36.7879 78.4835 35.9187 78.6228C34.1194 78.9388 32.364 79.4678 30.6897 80.1986C28.9604 80.9321 27.2708 81.7557 25.6279 82.6662L23.1502 84.0495C22.7296 84.2825 22.3141 84.5055 21.8834 84.7234C21.4532 84.9348 21.0117 85.1226 20.561 85.2858C18.7876 85.9901 15.869 87.12 15.1394 87.0541Z" fill="#720000"/>
<path d="M52.4165 40.4743C52.8016 41.6752 50.2023 43.5854 46.6048 44.7508C43.0073 45.9162 39.7797 45.8909 39.3895 44.6951C38.9994 43.4993 41.6038 41.5789 45.2012 40.4186C48.7987 39.2583 52.0263 39.2532 52.4165 40.4743Z" fill="black"/>
<path d="M67.992 55.2798C69.8972 61.9985 63.8574 69.5938 54.4989 72.2539C45.1404 74.914 36.0047 71.6205 34.0996 64.9069C32.1944 58.1932 38.2342 50.5929 47.5927 47.9328C56.9513 45.2727 66.0818 48.5814 67.992 55.2798Z" fill="#DC2F00"/>
<path d="M5.27417 69.224C5.46349 69.356 5.68311 69.4379 5.9126 69.4622C6.13467 69.49 6.35935 69.49 6.58143 69.4622C7.02385 69.4245 7.4597 69.3308 7.87855 69.1835C8.74499 68.8717 9.59112 68.5062 10.412 68.089C12.1497 67.3065 13.9412 66.6495 15.7728 66.1231C16.6969 65.8581 17.6337 65.64 18.5798 65.4694C19.5494 65.2807 20.536 65.1924 21.5237 65.206C22.0754 65.2075 22.6219 65.3123 23.135 65.515C23.6098 65.7259 24.0518 66.0041 24.4473 66.3409C25.1813 67.0344 25.6808 67.9394 25.8761 68.9301C25.3861 68.1668 24.723 67.5297 23.9406 67.0706C23.5649 66.869 23.1622 66.7222 22.7448 66.6348C22.3552 66.5761 21.9589 66.5761 21.5693 66.6348C20.6807 66.7445 19.8004 66.9138 18.9345 67.1415C18.0478 67.3594 17.156 67.6026 16.2693 67.8559L10.8832 69.4419C10.4323 69.5686 10.0066 69.7054 9.51009 69.827C9.02771 69.9499 8.53639 70.0346 8.04069 70.0803C7.53203 70.1234 7.01979 70.091 6.52063 69.984C6.02336 69.8991 5.57741 69.6272 5.27417 69.224Z" fill="#720000"/>
</svg>
