<svg width="99" height="88" fill="none" xmlns="http://www.w3.org/2000/svg">
  <path d="M67.56 44.36a82.53 82.53 0 01-8.33-11.4c-4.05 2.6-4.68-3.12-4.95-3.9-.27-.78-6.7 2.7-6.7 2.7s-3.02 5.97-9.1 3.17l-9.08 3.16s3.17 3.35 1.46 5.2a96.31 96.31 0 01-2.7 19.8c-1.52 6.07 4.1 11.1 10.88 14.5 5.24-.18 9.18 1.31 18.2-1.88 7.79-2.75 10.45-7.04 14.02-10.03 2.35-6.8 2.12-14.6-3.7-21.32z" fill="#DD0020"/>
  <path d="M28.16 63.08a96.3 96.3 0 002.68-19.8 2.7 2.7 0 01-.89.62c-3.46 1.58-10.1.8-10.07-5.4v-.14c-5.2 7.85-12.74 3.6-15.43 1.7.24.23.48.44.74.64.25.2.5.38.75.55 1.74 1.7 4.73 4.56 7 6.59 3.42 3 8.23 5.32 8.41 6.9.18 1.57-6.36 4.96-10.47 8.38-4.1 3.43-8.67 7.4-2.99 6.5 5.68-.9 12.72-5.53 16.22-2.75 3.5 2.77 1.22 3.46-2.73 8.3C17.42 80 5.56 94.06 23.9 82.82c4.4-2.7 9.46-4.99 14.83-5.23H39c-6.73-3.4-12.36-8.43-10.84-14.5zM85.84 51.2c-6.63.3-8.35.5-9.31-1.13-1.77-3 2.81-8.11 9.75-8.9.3-.39.7-.66 1.17-.8.31-.08.63-.1.95-.03h.03a2.2 2.2 0 011.2-.33h.26c.12-.03.24-.04.37-.04H90.68c4.16-1.47 2.58-6.17-1.92-6.08-5.58.12-19.53 3.12-17.74.35 1.4-2.13 4.76-10.7 4.62-14.04.16-.08-2.87 2.91-2.72 2.82-4.24 1.43-8.67.4-8.67.4-.32 2.28-1.34 6.69-4.56 9.12-.17.13-.33.24-.5.34a82.53 82.53 0 008.32 11.4c5.82 6.71 6.05 14.53 3.71 21.32.78-.63 1.6-1.2 2.46-1.72 8.45-5.3 22.22-4.39 24.15-5.79 3.26-2.25-5.36-7.2-12-6.9z" fill="#B20000"/>
  <path d="M64.27 23.2s-1.05 8.19-6.34 10.45c-5.28 2.26.2 9.57.2 9.57l4.49-5.13s4.9-7.32 5.57-9.9c1.43-5.52 1.87-4.84 1.87-4.84l-5.8-.15z" fill="#DD0020"/>
  <path d="M38.83 26.88a8.19 8.19 0 11-13 9.95 8.19 8.19 0 0113-9.95z" fill="#900000"/>
  <path d="M38.12 25.42a8.2 8.2 0 11-13 9.97 8.2 8.2 0 0113-9.97z" fill="#D20008"/>
  <path d="M56.94 19.8a8.2 8.2 0 11-13 9.97 8.2 8.2 0 0113-9.97z" fill="#900000"/>
  <path d="M56.23 18.34a8.2 8.2 0 11-13 9.97 8.2 8.2 0 0113-9.97z" fill="#D20008"/>
  <path d="M36.46 27.63a5.46 5.46 0 11-8.68 6.65 5.46 5.46 0 018.68-6.65z" fill="#fff"/>
  <path d="M33.73 29.7a1.69 1.69 0 11-3.24.94 1.69 1.69 0 013.24-.93z" fill="#000"/>
  <path d="M54.57 20.56a5.46 5.46 0 11-8.67 6.64 5.46 5.46 0 018.67-6.64z" fill="#fff"/>
  <path d="M51.85 22.63a1.69 1.69 0 11-3.24.93 1.69 1.69 0 013.24-.93z" fill="#000"/>
  <path d="M68.55 18.9c8.61.17 8.73-16.66 1.8-18.6.35.8.55 1.66.6 2.53.14 3.32-1.85 6.69-4.65 6.82-2.8.12-5.34-3.04-5.5-6.37v-.22c-.08 5.01.57 15.71 7.75 15.84z" fill="#B20000"/>
  <path d="M70.22 0l.13.3c6.04 3.32 6.8 18.16-1.8 18-7.18-.14-7.83-10.23-7.75-15.25a13.4 13.4 0 00-3.19 9.48c.22 5.01 3.01 9.12 6.72 10.9 0 0 4.37 1.1 8.62-.32 1.62-1 2.95-2.4 3.87-4.06a13.84 13.84 0 001.74-7.46C78.32 5.86 74.78 1.2 70.22 0zM6.66 36.2C.62 31.82 2.8 26.22 3.22 21.44.18 24.45-.9 29.5.81 34.4c.74 2.16 2 4.1 3.65 5.66 2.7 1.9 10.24 6.15 15.43-1.7v-.1a12.58 12.58 0 001.5-7.03c-2.57 6.53-8.56 9.43-14.73 4.96z" fill="#900000"/>
  <path d="M14.12 19.88l.09.21c1.1 3.14.11 5.63-2.54 6.55-2.65.92-5.95-.07-7.04-3.21a6.94 6.94 0 01-.37-2.89c-.36.28-.7.58-1.02.9-1.43 3.51-3.4 10.89 2.63 15.25 6.17 4.47 14.22 1.61 15.5-5.46a14.34 14.34 0 00-.77-3.73 13.36 13.36 0 00-6.48-7.62z" fill="#B20000"/>
  <path d="M14.12 19.88s2.2 4.88-2.44 6.76c0 0 5.88 2.54 1.4 9.12 0 0 8.31-3.35 6.25-10.94 0 0-2.05-3.68-5.2-4.94zM70.22 0s1.88 7.1-2.76 9c0 0 6.58 3.78 1.05 11.1 0 0 9.82-5.76 7.76-13.36 0 0-2.9-5.47-6.05-6.74z" fill="#8C0000"/>
  <path d="M62.05 37.66s3.87-4.48 9-3.34c5.11 1.15 17.33-1.65 20.41 0 3.09 1.65 1.78 4.81-.5 5.58-1.7.58 2.28-1.52-8.02.18-10.29 1.7-11.33 4.15-18.96 8.69-7.63 4.54-5.42-9.69-5.42-9.69l3.5-1.42z" fill="#DD0020"/>
  <path d="M90.91 39.97a311.48 311.48 0 00-6.97 2.48c-.77.28-1.46.59-2.18.94-1.4.68-2.7 1.55-3.84 2.6-.56.5-1 1.11-1.3 1.8-.32.72-.35 1.54-.09 2.29a3.04 3.04 0 01-.74-2.51 5.5 5.5 0 011.1-2.5c1.1-1.39 2.51-2.5 4.11-3.26.78-.4 1.59-.7 2.42-.96a26.1 26.1 0 012.47-.6 17.6 17.6 0 015.02-.28zM75.71 20.96c.12 1.22.07 2.44-.14 3.64a20.81 20.81 0 01-2.34 6.8 12.95 12.95 0 01-2.19 2.92c.25-1.21.57-2.34.9-3.47a82.3 82.3 0 012.29-6.62c.44-1.11.93-2.2 1.48-3.27z" fill="#720000"/>
  <path d="M60.8 3.05c.47 1.72 1.29 3.3 2.53 4.2.62.44 1.33.73 2.07.86.39.06.73.07 1.24.12.5.05 1 .16 1.47.32a5.01 5.01 0 013.55 4.64 6.9 6.9 0 01-2.03 5.1c.67-1.56.89-3.27.64-4.94a3.98 3.98 0 00-2.73-3.13 5.72 5.72 0 00-1.11-.26c-.47-.04-.93-.12-1.39-.22a5.57 5.57 0 01-2.62-1.45 5.8 5.8 0 01-1.45-2.53c-.25-.88-.3-1.8-.17-2.71zM4.26 20.54c.47 1.72 1.27 3.3 2.53 4.2.62.44 1.33.73 2.08.85.38.07.72.08 1.23.12.5.06 1 .17 1.47.32 1 .33 1.88.94 2.53 1.78.62.83.97 1.83 1.01 2.86a6.95 6.95 0 01-2.02 5.1c.66-1.55.87-3.26.62-4.92a4.27 4.27 0 00-.94-1.98 4.02 4.02 0 00-1.8-1.15 5.72 5.72 0 00-1.1-.26c-.47-.05-.93-.12-1.38-.23a5.62 5.62 0 01-2.62-1.45 5.9 5.9 0 01-1.45-2.53 6.5 6.5 0 01-.16-2.7z" fill="#5D0000"/>
  <path d="M.8 34.4c1.22 2.84 3.59 5.78 6.3 6.98 1.35.59 2.8.93 4.28 1.01 1.44.16 2.9-.05 4.23-.61a7.69 7.69 0 003.25-2.7 11.85 11.85 0 001.8-4.02c.36-1.46.5-2.97.4-4.47a12.99 12.99 0 00-1.06-4.6c.9 1.37 1.48 2.9 1.71 4.52.26 1.58.24 3.2-.04 4.77-.28 1.6-.88 3.14-1.77 4.5a8.87 8.87 0 01-3.75 3.23 9.63 9.63 0 01-4.87.65c-1.61-.15-3.18-.6-4.63-1.35C3.76 40.8 1.5 37.43.8 34.39zM58.16 15.85a12.24 12.24 0 006.13 6.38c1.36.59 2.81.93 4.29 1.02 1.44.15 2.9-.06 4.23-.62a7.75 7.75 0 003.25-2.7 11.85 11.85 0 001.8-4.01c.35-1.47.49-2.98.4-4.48-.09-1.52-.39-3.82-1.04-5.23.91 1.26 1.41 3.6 1.69 5.16a13.8 13.8 0 01-.04 4.76 12 12 0 01-1.77 4.5 8.9 8.9 0 01-3.76 3.21 9.56 9.56 0 01-4.87.65c-1.61-.15-3.19-.6-4.63-1.35a11.18 11.18 0 01-5.68-7.29z" fill="#720000"/>
  <path d="M5.21 41.3c1.51.79 2.97 1.67 4.36 2.66 1.38.95 2.72 1.97 4.02 3.04a90.47 90.47 0 013.8 3.28A61.65 61.65 0 0121 54a24.97 24.97 0 01-4.56-2.53 49.31 49.31 0 01-7.86-6.35 31.93 31.93 0 01-3.38-3.83zM15.14 87.05c.87-.36 1.77-.67 2.62-1.08.85-.4 1.7-.8 2.53-1.24.43-.21.82-.43 1.22-.67.4-.24.79-.5 1.18-.76l2.38-1.56c1.6-1.04 3.27-2 4.99-2.85a23 23 0 015.53-1.93c1-.2 2.02-.3 3.04-.28 1.02.05 1.92.14 2.87.2 1.84.17 3.7.22 5.54.16a26.72 26.72 0 0010.5-2.67 43.7 43.7 0 009.24-6.08c1.5-1.2 3-2.36 4.56-3.47a43.74 43.74 0 014.9-3.09 21.28 21.28 0 015.47-2.12c1.9-.35 3.85-.49 5.78-.42 1.87 0 3.77-.12 5.65-.2.94-.04 1.88-.13 2.8-.26.47-.07.92-.18 1.36-.33a2.4 2.4 0 001.13-.8c-.25.42-.62.75-1.06.95-.43.22-.89.39-1.35.51-.93.23-1.87.41-2.81.55-.94.14-1.89.26-2.83.37-.93.12-1.89.23-2.84.3-1.85.06-3.69.3-5.48.75a20.67 20.67 0 00-4.98 2.21 70.7 70.7 0 00-8.96 6.66 44.62 44.62 0 01-9.63 6.45 28.13 28.13 0 01-11.37 2.75 44.6 44.6 0 01-5.78-.31l-2.8-.28a11.5 11.5 0 00-2.62.11c-1.8.32-3.56.85-5.23 1.58a53.7 53.7 0 00-5.06 2.47l-2.48 1.38c-.42.23-.84.46-1.27.67-.43.21-.87.4-1.32.57-1.77.7-4.7 1.83-5.42 1.76z" fill="#720000"/>
  <path d="M52.42 40.47c.38 1.2-2.22 3.12-5.82 4.28-3.6 1.17-6.82 1.14-7.21-.05-.4-1.2 2.21-3.12 5.81-4.28 3.6-1.16 6.83-1.17 7.22.05z" fill="#000"/>
  <path d="M68 55.28c1.9 6.72-4.14 14.31-13.5 16.97-9.36 2.66-18.5-.63-20.4-7.34-1.9-6.72 4.13-14.32 13.5-16.98 9.35-2.66 18.48.65 20.4 7.35z" fill="#DC2F00"/>
  <path d="M5.27 69.22c.2.14.41.22.64.24a5.25 5.25 0 001.97-.28c.86-.3 1.71-.67 2.53-1.1a39.9 39.9 0 015.36-1.96c.93-.26 1.86-.48 2.81-.65.97-.19 1.96-.28 2.94-.26a4.42 4.42 0 012.93 1.13c.73.7 1.23 1.6 1.43 2.59a5.77 5.77 0 00-1.94-1.86c-.38-.2-.78-.35-1.2-.44a3.95 3.95 0 00-1.17 0 20 20 0 00-2.64.51c-.88.22-1.77.46-2.66.72l-5.39 1.58c-.45.13-.87.27-1.37.39-.48.12-.97.2-1.47.25-.5.04-1.02.01-1.52-.1-.5-.08-.94-.35-1.25-.76z" fill="#720000"/>
</svg>