<svg width="494" height="537" viewBox="0 0 494 537" fill="none" xmlns="http://www.w3.org/2000/svg">
<path d="M152 684C340.881 684 494 530.881 494 342C494 153.119 340.881 0 152 0C-36.8814 0 -190 153.119 -190 342C-190 530.881 -36.8814 684 152 684Z" fill="#285680"/>
<path d="M152 0C104.474 0 59.2354 9.70572 18.1129 27.2185C16.2378 38.4101 6.88585 57.5268 7.16889 63.6238C8.48972 63.8832 94.1194 -23.6452 83.4939 35.4383C76.6421 73.471 6.65 73.247 9.65724 111.539C83.199 140.373 108.849 56.7956 171.317 57.1376C192.156 57.2555 245.519 24.3056 255.697 31.0159C296.925 58.1754 246.274 154.454 214.728 122.412C184.396 92.0806 141.115 133.038 143.061 180.34C158.828 181.048 165.562 135.574 179.737 150.739C195.351 167.45 189.714 201.096 168.109 208.82C146.363 216.592 61.0634 151.152 82.0197 200.754C105.063 255.804 12.9829 298.342 105.936 276.147C149.759 265.64 135.195 298.991 155.868 314.899C180.492 333.804 169.595 288.79 187.544 295.641C213.666 305.748 183.051 331.787 223.962 312.883C271.948 290.995 253.916 325.124 268.61 347.437C296.159 389.09 363.863 429.068 399.349 374.018C407.71 361.034 402.344 258.363 455.012 327.235C488.457 370.987 476.983 275.546 481.511 250.474C441.485 106.055 309.167 0 152 0Z" fill="#24AE5F"/>
<path d="M198.217 496.278L135.147 449.012L92.8692 450.674L49.0106 436.876L14.6809 413.208L-63.1889 431.204L-95.3016 446.735L-131.035 494.875L-118.392 551.293C-114.784 555.951 -111.045 560.515 -107.201 564.985L-41.0651 595.859L3.57181 601.886L30.1299 656.393L30.9318 661.877C68.5754 676.135 109.368 684.001 152 684.001C181.412 684.001 209.951 680.286 237.193 673.293L246.168 619.705L286.96 586.602L303.907 533.757L218.737 533.403L198.217 496.278Z" fill="#FAC176"/>
<path d="M163.793 625.029C151.021 624.051 103.849 609.309 93.0343 589.65C82.22 569.991 58.6338 536.581 57.655 542.478C56.9828 546.487 -49.792 510.129 -123.145 484.243L-131.035 494.869L-118.392 551.287C-114.784 555.945 -111.045 560.509 -107.201 564.979L-41.0651 595.853L3.57181 601.879L30.1299 656.387L30.9318 661.871C68.5754 676.129 109.368 683.995 152 683.995C181.412 683.995 209.951 680.28 237.193 673.287L243.998 632.659C237.995 630.784 231.073 628.308 222.758 625.029C190.327 612.257 176.565 626.008 163.793 625.029Z" fill="#88C057"/>
<path d="M286.96 586.602L303.907 533.757L218.737 533.403L198.205 496.278L135.136 449.012L92.8575 450.674L48.9989 436.876L14.6692 413.208L-63.2007 431.204L-95.3015 446.735L-123.145 484.238C-49.7919 510.135 56.9828 546.493 57.6551 542.484C58.6339 536.587 82.2201 569.997 93.0344 589.656C103.849 609.315 151.021 624.057 163.793 625.035C176.565 626.014 190.327 612.264 222.759 625.035C231.073 628.314 237.995 630.79 243.998 632.666L246.168 619.705L286.96 586.602Z" fill="#88C057"/>
<path d="M280.839 25.394C278.552 68.5568 276.865 99.7495 276.865 99.7495L210.965 165.649C210.965 165.649 272.738 254.192 276.865 264.487C280.981 274.783 332.458 287.142 342.765 280.962C353.06 274.783 392.19 241.833 408.665 264.487C420.128 280.255 418.654 294.017 425.706 303.699C430.565 303.77 436.638 307.037 444.209 314.667C454.918 317.875 467.123 321.024 477.997 323.653C481.605 302.544 478.928 264.888 481.523 250.477C453.101 147.995 378.097 65.0542 280.839 25.394Z" fill="#24AE5F"/>
<path d="M320.995 44.8809C318.849 85.6143 317.104 117.927 317.104 117.927L269.931 165.1C269.931 165.1 314.155 228.488 317.104 235.858C320.052 243.229 356.905 252.074 364.276 247.652C371.647 243.229 399.655 219.643 411.448 235.858C423.241 252.074 415.871 265.341 435.035 271.238C451.227 276.226 473.563 281.168 480.143 282.583C480.238 269.469 480.273 257.334 481.511 250.47C457.158 162.588 398.511 89.0933 320.995 44.8809Z" fill="#1F9451" fill-opacity="0.99"/>
</svg>
