<svg width="557" height="557" viewBox="0 0 557 557" fill="none" xmlns="http://www.w3.org/2000/svg">
<path d="M278.5 557C432.311 557 557 432.311 557 278.5C557 124.689 432.311 0 278.5 0C124.689 0 0 124.689 0 278.5C0 432.311 124.689 557 278.5 557Z" fill="#285680"/>
<path d="M278.5 0C239.798 0 202.959 7.90364 169.472 22.1648C167.945 31.2784 160.33 46.8456 160.56 51.8106C161.636 52.0219 231.366 -19.2549 222.714 28.8584C217.134 59.8295 160.138 59.647 162.586 90.8294C222.473 114.31 243.361 46.2502 294.23 46.5287C311.2 46.6247 354.655 19.7927 362.943 25.2571C396.517 47.3738 355.27 125.776 329.581 99.6838C304.881 74.9837 269.636 108.336 271.221 146.856C284.06 147.432 289.544 110.401 301.087 122.751C313.802 136.359 309.212 163.758 291.618 170.048C273.91 176.377 204.448 123.087 221.513 163.48C240.278 208.308 165.295 242.948 240.989 224.874C276.675 216.318 264.815 243.476 281.65 256.431C301.702 271.826 292.828 235.169 307.445 240.749C328.716 248.979 303.786 270.183 337.1 254.789C376.177 236.965 361.493 264.757 373.459 282.927C395.893 316.847 451.026 349.402 479.923 304.573C486.732 294 482.362 210.392 525.251 266.476C552.486 302.105 543.142 224.385 546.83 203.968C514.236 86.3638 406.485 0 278.5 0Z" fill="#24AE5F"/>
<path d="M316.136 404.133L264.777 365.642L230.348 366.997L194.633 355.76L166.678 336.486L103.266 351.141L77.1158 363.789L48.0173 402.99L58.3122 448.933C61.2509 452.727 64.2952 456.443 67.4259 460.083L121.282 485.225L157.631 490.132L179.258 534.519L179.911 538.985C210.565 550.595 243.784 557.001 278.5 557.001C302.451 557.001 325.691 553.976 347.875 548.281L355.184 504.643L388.402 477.686L402.202 434.653L332.846 434.365L316.136 404.133Z" fill="#FAC176"/>
<path d="M3.60129 323.13C4.92657 323.015 5.09943 322.899 5.21467 322.784C17.6703 310.338 28.0421 308.254 38.4234 289.575C48.8047 270.897 36.349 270.897 38.4234 239.762C40.4977 208.628 36.349 223.158 38.4234 189.949C39.1725 178.003 37.9144 171.434 23.394 166.738C8.38381 200.964 0 238.744 0 278.503C0 293.695 1.25805 308.59 3.60129 323.13Z" fill="#88C057"/>
<path d="M288.104 508.979C277.703 508.181 239.289 496.177 230.483 480.168C221.676 464.159 202.47 436.953 201.673 441.754C201.125 445.02 114.175 415.412 54.442 394.333L48.0173 402.985L58.3122 448.928C61.2509 452.722 64.2952 456.438 67.4259 460.078L121.282 485.22L157.631 490.127L179.258 534.514L179.911 538.98C210.565 550.59 243.784 556.996 278.5 556.996C302.451 556.996 325.691 553.971 347.875 548.276L353.417 515.192C348.528 513.665 342.891 511.648 336.121 508.979C309.711 498.578 298.504 509.776 288.104 508.979Z" fill="#88C057"/>
<path d="M388.402 477.686L402.202 434.653L332.846 434.365L316.126 404.133L264.767 365.642L230.339 366.997L194.624 355.76L166.668 336.486L103.256 351.141L77.1159 363.789L54.4421 394.328C114.176 415.417 201.125 445.025 201.673 441.759C202.47 436.958 221.677 464.164 230.483 480.173C239.289 496.182 277.703 508.186 288.104 508.984C298.504 509.781 309.711 498.583 336.121 508.984C342.891 511.653 348.529 513.67 353.417 515.197L355.184 504.643L388.402 477.686Z" fill="#88C057"/>
<path d="M383.418 20.679C381.555 55.8277 380.181 81.2288 380.181 81.2288L326.517 134.893C326.517 134.893 376.82 206.996 380.181 215.379C383.533 223.763 425.452 233.828 433.845 228.795C442.229 223.763 474.094 196.931 487.51 215.379C496.844 228.219 495.644 239.426 501.387 247.311C505.343 247.368 510.289 250.029 516.454 256.242C525.174 258.854 535.114 261.418 543.968 263.56C546.907 246.37 544.727 215.706 546.84 203.97C523.695 120.517 462.617 52.9754 383.418 20.679Z" fill="#24AE5F"/>
<path d="M416.118 36.5478C414.37 69.7181 412.948 96.0315 412.948 96.0315L374.535 134.445C374.535 134.445 410.548 186.064 412.948 192.066C415.349 198.068 445.36 205.271 451.362 201.669C457.364 198.068 480.173 178.861 489.776 192.066C499.379 205.271 493.377 216.075 508.983 220.876C522.168 224.939 540.357 228.962 545.716 230.115C545.793 219.436 545.822 209.554 546.83 203.965C526.999 132.4 479.241 72.5511 416.118 36.5478Z" fill="#1F9451" fill-opacity="0.99"/>
</svg>
