<svg width="389" height="126" viewBox="0 0 389 126" fill="none" xmlns="http://www.w3.org/2000/svg">
<g filter="url(#filter0_dii)">
<rect width="379" height="116" rx="25" fill="#E67C00"/>
</g>
<g filter="url(#filter1_d)">
<path d="M34.8628 75H27.4228C26.8148 75 26.3668 74.872 26.0788 74.616C25.8228 74.328 25.6948 73.88 25.6948 73.272V42.168C25.6948 41.56 25.8228 41.128 26.0788 40.872C26.3668 40.584 26.8148 40.44 27.4228 40.44H34.8628C35.4708 40.44 35.9028 40.584 36.1588 40.872C36.4468 41.128 36.5908 41.56 36.5908 42.168V52.584H44.6068V42.168C44.6068 41.56 44.7348 41.128 44.9908 40.872C45.2788 40.584 45.7268 40.44 46.3348 40.44H53.7748C54.3828 40.44 54.8148 40.584 55.0708 40.872C55.3588 41.128 55.5028 41.56 55.5028 42.168V73.272C55.5028 73.88 55.3588 74.328 55.0708 74.616C54.8148 74.872 54.3828 75 53.7748 75H46.3348C45.7268 75 45.2788 74.872 44.9908 74.616C44.7348 74.328 44.6068 73.88 44.6068 73.272V62.616H36.5908V73.272C36.5908 73.88 36.4468 74.328 36.1588 74.616C35.9028 74.872 35.4708 75 34.8628 75ZM91.3967 65.928C91.3967 67.4 91.1727 68.744 90.7247 69.96C90.3087 71.144 89.5407 72.168 88.4207 73.032C87.3327 73.864 85.8127 74.52 83.8607 75C81.9407 75.48 79.4927 75.72 76.5167 75.72C73.5407 75.72 71.0767 75.48 69.1247 75C67.1727 74.52 65.6367 73.864 64.5167 73.032C63.4287 72.168 62.6607 71.144 62.2127 69.96C61.7967 68.744 61.5887 67.4 61.5887 65.928V49.56C61.5887 48.088 61.7967 46.76 62.2127 45.576C62.6607 44.36 63.4287 43.32 64.5167 42.456C65.6367 41.592 67.1727 40.92 69.1247 40.44C71.0767 39.96 73.5407 39.72 76.5167 39.72C79.4927 39.72 81.9407 39.96 83.8607 40.44C85.8127 40.92 87.3327 41.592 88.4207 42.456C89.5407 43.32 90.3087 44.36 90.7247 45.576C91.1727 46.76 91.3967 48.088 91.3967 49.56V65.928ZM72.4847 64.2C72.4847 64.84 72.7247 65.384 73.2047 65.832C73.6847 66.248 74.7887 66.456 76.5167 66.456C78.2447 66.456 79.3487 66.248 79.8287 65.832C80.3087 65.384 80.5487 64.84 80.5487 64.2V51.288C80.5487 50.68 80.3087 50.168 79.8287 49.752C79.3487 49.304 78.2447 49.08 76.5167 49.08C74.7887 49.08 73.6847 49.304 73.2047 49.752C72.7247 50.168 72.4847 50.68 72.4847 51.288V64.2ZM122.323 40.44H129.475C130.083 40.44 130.515 40.584 130.771 40.872C131.059 41.128 131.203 41.56 131.203 42.168V60.792C131.203 61.816 131.155 62.776 131.059 63.672C130.995 64.536 130.755 65.56 130.339 66.744L127.939 73.272C127.779 73.752 127.539 74.168 127.219 74.52C126.931 74.84 126.531 75 126.019 75H119.635C119.123 75 118.659 74.888 118.243 74.664C117.827 74.44 117.555 74.072 117.427 73.56L115.219 65.736C115.123 65.416 114.995 65.208 114.835 65.112C114.707 64.984 114.547 64.92 114.355 64.92H113.923C113.731 64.92 113.555 64.984 113.395 65.112C113.267 65.208 113.155 65.416 113.059 65.736L110.803 73.56C110.675 74.04 110.435 74.408 110.083 74.664C109.731 74.888 109.299 75 108.787 75H102.451C101.939 75 101.491 74.84 101.107 74.52C100.755 74.2 100.499 73.784 100.339 73.272L97.9393 66.648C97.5233 65.464 97.2673 64.44 97.1713 63.576C97.1073 62.68 97.0753 61.72 97.0753 60.696V42.168C97.0753 41.56 97.2033 41.128 97.4593 40.872C97.7473 40.584 98.1953 40.44 98.8033 40.44H106.195C106.803 40.44 107.235 40.584 107.491 40.872C107.779 41.128 107.923 41.56 107.923 42.168V59.832L110.707 53.784C110.963 53.24 111.299 52.856 111.715 52.632C112.131 52.408 112.643 52.296 113.251 52.296H115.267C115.875 52.296 116.387 52.408 116.803 52.632C117.219 52.856 117.555 53.24 117.811 53.784L120.595 59.832V42.168C120.595 41.56 120.723 41.128 120.979 40.872C121.267 40.584 121.715 40.44 122.323 40.44ZM164.03 75H156.254C155.646 75 155.198 74.872 154.91 74.616C154.654 74.328 154.526 73.88 154.526 73.272V49.704H147.47C146.862 49.704 146.414 49.576 146.126 49.32C145.87 49.032 145.742 48.584 145.742 47.976V42.168C145.742 41.56 145.87 41.128 146.126 40.872C146.414 40.584 146.862 40.44 147.47 40.44H172.814C173.422 40.44 173.854 40.584 174.11 40.872C174.398 41.128 174.542 41.56 174.542 42.168V47.976C174.542 48.584 174.398 49.032 174.11 49.32C173.854 49.576 173.422 49.704 172.814 49.704H165.758V73.272C165.758 73.88 165.614 74.328 165.326 74.616C165.07 74.872 164.638 75 164.03 75ZM208.256 65.928C208.256 67.4 208.032 68.744 207.584 69.96C207.168 71.144 206.4 72.168 205.28 73.032C204.192 73.864 202.672 74.52 200.72 75C198.8 75.48 196.352 75.72 193.376 75.72C190.4 75.72 187.936 75.48 185.984 75C184.032 74.52 182.496 73.864 181.376 73.032C180.288 72.168 179.52 71.144 179.072 69.96C178.656 68.744 178.448 67.4 178.448 65.928V49.56C178.448 48.088 178.656 46.76 179.072 45.576C179.52 44.36 180.288 43.32 181.376 42.456C182.496 41.592 184.032 40.92 185.984 40.44C187.936 39.96 190.4 39.72 193.376 39.72C196.352 39.72 198.8 39.96 200.72 40.44C202.672 40.92 204.192 41.592 205.28 42.456C206.4 43.32 207.168 44.36 207.584 45.576C208.032 46.76 208.256 48.088 208.256 49.56V65.928ZM189.344 64.2C189.344 64.84 189.584 65.384 190.064 65.832C190.544 66.248 191.648 66.456 193.376 66.456C195.104 66.456 196.208 66.248 196.688 65.832C197.168 65.384 197.408 64.84 197.408 64.2V51.288C197.408 50.68 197.168 50.168 196.688 49.752C196.208 49.304 195.104 49.08 193.376 49.08C191.648 49.08 190.544 49.304 190.064 49.752C189.584 50.168 189.344 50.68 189.344 51.288V64.2ZM234.316 75H226.876C226.268 75 225.82 74.872 225.532 74.616C225.276 74.328 225.148 73.88 225.148 73.272V42.168C225.148 41.56 225.276 41.128 225.532 40.872C225.82 40.584 226.268 40.44 226.876 40.44H241.564C245.916 40.44 248.892 41.304 250.492 43.032C252.092 44.76 252.892 47.016 252.892 49.8V55.944C252.892 58.728 252.092 60.984 250.492 62.712C248.892 64.44 245.916 65.304 241.564 65.304H236.044V73.272C236.044 73.88 235.9 74.328 235.612 74.616C235.356 74.872 234.924 75 234.316 75ZM235.948 49.416V56.664H240.268C241.196 56.664 241.804 56.424 242.092 55.944C242.38 55.464 242.524 54.92 242.524 54.312V51.768C242.524 51.16 242.38 50.616 242.092 50.136C241.804 49.656 241.196 49.416 240.268 49.416H235.948ZM284.027 75H259.595C258.987 75 258.539 74.872 258.251 74.616C257.995 74.328 257.867 73.88 257.867 73.272V42.168C257.867 41.56 257.995 41.128 258.251 40.872C258.539 40.584 258.987 40.44 259.595 40.44H267.035C267.643 40.44 268.075 40.584 268.331 40.872C268.619 41.128 268.763 41.56 268.763 42.168V65.928H275.339V58.152C275.339 57.544 275.467 57.112 275.723 56.856C276.011 56.568 276.459 56.424 277.067 56.424H284.027C284.635 56.424 285.067 56.568 285.323 56.856C285.611 57.112 285.755 57.544 285.755 58.152V73.272C285.755 73.88 285.611 74.328 285.323 74.616C285.067 74.872 284.635 75 284.027 75ZM303.77 50.52L301.514 57.816H309.05L306.794 50.52C306.666 50.232 306.522 50.024 306.362 49.896C306.234 49.768 306.074 49.704 305.882 49.704H304.682C304.49 49.704 304.314 49.768 304.154 49.896C304.026 50.024 303.898 50.232 303.77 50.52ZM301.034 73.272C301.034 73.88 300.89 74.328 300.602 74.616C300.346 74.872 299.914 75 299.306 75H292.25C291.642 75 291.194 74.872 290.906 74.616C290.65 74.328 290.522 73.88 290.522 73.272V60.6C290.522 59.64 290.666 58.536 290.954 57.288C291.274 56.04 291.754 54.584 292.394 52.92L296.57 42.024C296.762 41.48 297.05 41.08 297.434 40.824C297.85 40.568 298.378 40.44 299.018 40.44H311.93C312.538 40.44 313.034 40.568 313.418 40.824C313.834 41.08 314.138 41.48 314.33 42.024L318.506 52.92C319.146 54.584 319.61 56.04 319.898 57.288C320.218 58.536 320.378 59.64 320.378 60.6V73.272C320.378 73.88 320.234 74.328 319.946 74.616C319.69 74.872 319.258 75 318.65 75H311.402C310.762 75 310.282 74.872 309.962 74.616C309.674 74.328 309.53 73.88 309.53 73.272V66.552H301.034V73.272ZM342.605 75H334.829C334.221 75 333.773 74.872 333.485 74.616C333.229 74.328 333.101 73.88 333.101 73.272V67.128L325.757 57.288C325.021 56.296 324.525 55.432 324.269 54.696C324.045 53.96 323.933 52.856 323.933 51.384V42.168C323.933 41.56 324.061 41.128 324.317 40.872C324.605 40.584 325.053 40.44 325.661 40.44H333.053C333.661 40.44 334.093 40.584 334.349 40.872C334.637 41.128 334.781 41.56 334.781 42.168V50.04C334.781 50.36 334.797 50.696 334.829 51.048C334.861 51.4 334.989 51.736 335.213 52.056L337.421 55.512C337.581 55.8 337.741 56.008 337.901 56.136C338.093 56.264 338.317 56.328 338.573 56.328H339.053C339.309 56.328 339.517 56.264 339.677 56.136C339.869 56.008 340.045 55.8 340.205 55.512L342.413 52.056C342.637 51.736 342.765 51.4 342.797 51.048C342.829 50.696 342.845 50.36 342.845 50.04V42.168C342.845 41.56 342.973 41.128 343.229 40.872C343.517 40.584 343.965 40.44 344.573 40.44H351.725C352.333 40.44 352.765 40.584 353.021 40.872C353.309 41.128 353.453 41.56 353.453 42.168V51.384C353.453 52.856 353.325 53.96 353.069 54.696C352.813 55.432 352.333 56.296 351.629 57.288L344.333 67.176V73.272C344.333 73.88 344.189 74.328 343.901 74.616C343.645 74.872 343.213 75 342.605 75Z" fill="white"/>
</g>
<defs>
<filter id="filter0_dii" x="-4" y="-4" width="393" height="130" filterUnits="userSpaceOnUse" color-interpolation-filters="sRGB">
<feFlood flood-opacity="0" result="BackgroundImageFix"/>
<feColorMatrix in="SourceAlpha" type="matrix" values="0 0 0 0 0 0 0 0 0 0 0 0 0 0 0 0 0 0 127 0"/>
<feOffset dx="6" dy="6"/>
<feGaussianBlur stdDeviation="2"/>
<feColorMatrix type="matrix" values="0 0 0 0 0 0 0 0 0 0 0 0 0 0 0 0 0 0 0.25 0"/>
<feBlend mode="normal" in2="BackgroundImageFix" result="effect1_dropShadow"/>
<feBlend mode="normal" in="SourceGraphic" in2="effect1_dropShadow" result="shape"/>
<feColorMatrix in="SourceAlpha" type="matrix" values="0 0 0 0 0 0 0 0 0 0 0 0 0 0 0 0 0 0 127 0" result="hardAlpha"/>
<feOffset dx="-10" dy="-10"/>
<feGaussianBlur stdDeviation="2"/>
<feComposite in2="hardAlpha" operator="arithmetic" k2="-1" k3="1"/>
<feColorMatrix type="matrix" values="0 0 0 0 1 0 0 0 0 0.678824 0 0 0 0 0.3 0 0 0 1 0"/>
<feBlend mode="normal" in2="shape" result="effect2_innerShadow"/>
<feColorMatrix in="SourceAlpha" type="matrix" values="0 0 0 0 0 0 0 0 0 0 0 0 0 0 0 0 0 0 127 0" result="hardAlpha"/>
<feOffset dx="10" dy="10"/>
<feGaussianBlur stdDeviation="2"/>
<feComposite in2="hardAlpha" operator="arithmetic" k2="-1" k3="1"/>
<feColorMatrix type="matrix" values="0 0 0 0 0.8 0 0 0 0 0.432941 0 0 0 0 0 0 0 0 1 0"/>
<feBlend mode="normal" in2="effect2_innerShadow" result="effect3_innerShadow"/>
</filter>
<filter id="filter1_d" x="25.6948" y="39.72" width="335.759" height="44" filterUnits="userSpaceOnUse" color-interpolation-filters="sRGB">
<feFlood flood-opacity="0" result="BackgroundImageFix"/>
<feColorMatrix in="SourceAlpha" type="matrix" values="0 0 0 0 0 0 0 0 0 0 0 0 0 0 0 0 0 0 127 0"/>
<feOffset dx="4" dy="4"/>
<feGaussianBlur stdDeviation="2"/>
<feColorMatrix type="matrix" values="0 0 0 0 0 0 0 0 0 0 0 0 0 0 0 0 0 0 0.25 0"/>
<feBlend mode="normal" in2="BackgroundImageFix" result="effect1_dropShadow"/>
<feBlend mode="normal" in="SourceGraphic" in2="effect1_dropShadow" result="shape"/>
</filter>
</defs>
</svg>
