<svg width="117" height="122" viewBox="0 0 117 122" fill="none" xmlns="http://www.w3.org/2000/svg">
<path d="M44.7034 35.5983C44.6706 36.2358 44.6903 36.8749 44.7621 37.5092C44.8269 38.1381 44.9272 38.7628 45.0625 39.3804C45.3281 40.607 45.7115 41.8052 46.2074 42.9582C47.1902 45.2427 48.5124 47.3658 50.1291 49.2556C51.7566 51.1377 53.5763 52.8445 55.5586 54.3483C57.588 55.8883 59.6266 57.4525 61.6392 59.0469C63.6518 60.6413 65.6706 62.258 67.5008 64.2365C68.3957 65.2284 69.2 66.2985 69.904 67.4339C70.61 68.5352 71.2427 69.6459 71.8897 70.7492C73.1494 72.8583 74.9021 74.6303 76.9974 75.913C79.1466 77.2563 81.5088 78.224 83.9827 78.7746C82.689 78.7268 81.4046 78.5352 80.1533 78.2032C78.8839 77.8767 77.6505 77.4233 76.4718 76.85C75.2811 76.2608 74.1642 75.5328 73.1446 74.6811C72.1119 73.8072 71.2056 72.7942 70.4517 71.671C68.9815 69.5556 67.6775 67.3818 65.9864 65.6672C65.1142 64.787 64.1969 63.9527 63.238 63.1678C62.2726 62.36 61.2787 61.5672 60.2768 60.7731L54.2752 55.9891C52.2174 54.339 50.3756 52.4364 48.7932 50.326C47.197 48.2165 45.9769 45.8473 45.1869 43.3226C44.8058 42.0666 44.5591 40.7737 44.4509 39.4656C44.3351 38.1712 44.4203 36.8666 44.7034 35.5983Z" fill="#030000"/>
<path d="M27.3136 54.1316C24.1965 53.4274 27.2531 52.4769 31.4512 51.4573L31.2667 51.467C9.86825 52.8321 10.4083 67.4464 10.4083 67.4464C13.6427 60.2757 20.0005 58.9496 39.8557 57.8671C40.1505 57.8522 40.4264 57.8326 40.7154 57.8134C39.0859 56.3162 31.3616 55.0419 27.3136 54.1316Z" fill="#35567B"/>
<path d="M49.2251 52.0694C50.1474 50.8986 51.1365 49.782 52.1874 48.7253C50.9823 49.1361 49.7533 49.4732 48.5072 49.7345C43.9079 50.7193 38.4532 51.0152 31.4568 51.4616C27.2529 52.4769 23.0441 53.8084 26.1633 54.5097C30.2092 55.4229 39.0769 56.3099 40.7005 57.8339C42.4389 57.7166 44.0547 57.5556 45.5479 57.3511C46.6682 55.5194 47.8961 53.7558 49.2251 52.0694Z" fill="#45688F"/>
<path d="M49.0757 94.3634C49.7856 95.8492 53.8437 92.4564 55.7579 90.7221C56.036 90.2601 56.3124 89.7881 56.5889 89.285C59.3401 84.329 61.5692 80.2371 63.8246 76.8697C61.815 77.4126 59.4297 77.0557 57.1184 74.3059C56.2502 75.6586 55.3684 77.148 54.4763 78.7942C54.2562 79.2001 54.0416 79.5921 53.8269 79.9842C55.0544 83.1374 48.2859 92.7228 49.0757 94.3634Z" fill="#336AA8"/>
<path d="M55.7625 90.7343C53.8609 92.4511 50.7688 95.0541 50.0501 93.562C49.2604 91.9213 55.0633 83.1437 53.8316 79.9964C44.8357 96.4627 41.1292 100.374 33.2245 101.301C33.2128 101.292 45.5035 107.693 55.7625 90.7343Z" fill="#45688F"/>
<path d="M75.8058 47.9357L44.524 35.3848C44.524 35.3848 43.0148 42.4834 49.5063 49.8028C50.3483 49.1238 51.674 49.0271 52.4185 50.2047C52.6565 50.5466 52.7688 50.9603 52.7363 51.3756C52.7039 51.7909 52.5287 52.1822 52.2404 52.4829C60.3365 59.6569 64.7761 59.947 70.4411 69.6254C76.3037 79.641 84.2268 79.2023 87.1552 77.3475C90.0835 75.4927 75.8058 47.9357 75.8058 47.9357Z" fill="#1F233F"/>
<path d="M47.536 67.9169C47.7514 67.5299 47.9606 67.1516 48.1705 66.7784C47.4207 66.8399 46.6549 66.8987 45.8409 66.9319C43.6938 67.0477 41.7265 67.1726 39.9052 67.3045C39.6666 67.7237 39.4264 68.1329 39.1895 68.5312C40.0904 68.4139 41.0316 68.321 42.0217 68.2588C43.9923 68.154 45.8103 68.033 47.536 67.9169Z" fill="#2F5B8C"/>
<path d="M66.8089 46.0463L63.8427 48.8017C65.4393 48.0514 67.098 47.4409 68.8001 46.9773C77.7151 44.4934 71.4334 42.6869 67.8195 41.9637C67.5577 43.342 67.2203 44.7049 66.8089 46.0463Z" fill="#2BD5DF"/>
<path d="M56.1693 54.6175C54.2674 55.4047 52.3009 56.0261 50.2919 56.4745C48.8711 56.805 47.2948 57.0904 45.5628 57.3308C45.03 58.1974 44.492 59.1166 43.9489 60.0884C46.5117 59.9068 48.8394 59.6941 50.9827 59.3981C51.5813 59.3185 52.167 59.2281 52.7397 59.1269C53.7761 57.5454 54.9221 56.0386 56.1693 54.6175Z" fill="#2F5B8C"/>
<path d="M52.1875 48.7255C55.4557 47.6141 58.4411 45.8009 60.934 43.413C59.8632 43.5505 56.5628 44.3706 52.1875 48.7255Z" fill="#2F5B8C"/>
<path d="M22.2269 83.3987C22.2269 83.3987 33.3611 89.1651 43.2559 75.159C40.187 75.3745 37.1313 75.7491 34.1012 76.2813C30.2759 81.1815 27.0237 82.8441 22.2269 83.3987Z" fill="#2F5B8C"/>
<path d="M73.9766 50.0153C74.3395 47.1327 73.7982 44.96 69.5584 49.714L70.5001 49.3418C70.5001 49.3418 72.1878 49.5757 73.9766 50.0153Z" fill="#1F9DB4"/>
<path d="M69.3085 58.3684L72.8124 55.1108C72.8124 55.1108 72.8347 55.0425 72.8689 54.9206C66.4424 56.8499 62.5023 59.9854 58.8916 64.871C67.4248 62.282 69.3085 58.3684 69.3085 58.3684Z" fill="#45688F"/>
<path d="M54.8646 58.7201C54.1752 58.8767 53.4641 59.0162 52.7311 59.1386C52.2977 59.7924 51.864 60.4713 51.4302 61.1752C50.379 62.876 49.3141 64.7445 48.1704 66.7785C48.5709 66.7461 48.9714 66.7138 49.3552 66.6739C50.2034 65.2107 51.0362 63.8845 51.8537 62.6952C52.7883 61.3193 53.7933 59.9924 54.8646 58.7201Z" fill="#45688F"/>
<path d="M51.4301 61.1752C51.8653 60.4693 52.299 59.7905 52.731 59.1386C52.1578 59.2364 51.5721 59.3268 50.974 59.4098C48.8307 59.7058 46.503 59.9185 43.9402 60.1001C41.879 60.2508 39.6702 60.3844 37.2785 60.5379C15.8801 61.9029 16.4172 76.5151 16.4172 76.5151C20.2769 70.3478 24.8865 68.4203 39.9195 67.315C41.7409 67.1831 43.7082 67.0582 45.8553 66.9425C46.6546 66.8988 47.4204 66.8399 48.1849 66.789C49.311 64.7424 50.3789 62.876 51.4301 61.1752Z" fill="#45688F"/>
<path d="M65.7447 41.6074C65.7447 41.6074 66.6363 41.732 67.8154 41.9696C68.4203 38.5948 68.2831 35.2027 63.2585 40.9828C62.5253 41.8316 61.7495 42.6427 60.9341 43.4128C61.0526 43.3927 61.1724 43.3807 61.2926 43.3771L65.7447 41.6074Z" fill="#1F899B"/>
<path d="M63.3049 49.3039L63.8426 48.8018L66.8088 46.0464C67.2193 44.706 67.556 43.344 67.8172 41.9667C66.6499 41.7376 65.7465 41.6045 65.7465 41.6045L61.2945 43.3742C61.1743 43.3778 61.0544 43.3898 60.9359 43.41C58.443 45.7979 55.4577 47.6111 52.1894 48.7225C51.1376 49.7801 50.1478 50.8977 49.225 52.0695C47.8984 53.7532 46.6726 55.5139 45.5541 57.3424C47.2866 57.1054 48.8629 56.82 50.2831 56.4862C52.2954 56.0344 54.2647 55.4092 56.169 54.6175C61.9214 52.1736 63.3049 49.3039 63.3049 49.3039Z" fill="#3F6187"/>
<path d="M72.8731 54.9144C73.0997 54.8461 73.3149 54.7874 73.5537 54.7145C81.3946 52.5213 77.4927 50.8812 73.9788 50.0122C73.7332 51.6716 73.3637 53.3103 72.8731 54.9144Z" fill="#00B1BD"/>
<path d="M44.6773 75.0465C37.6926 87.1491 33.9859 90.3057 26.9939 91.1235C26.9939 91.1235 39.9632 97.8776 50.3658 79.1221C51.2735 77.4914 52.1176 75.9617 52.9259 74.5129C52.1761 74.5743 51.4103 74.6332 50.5963 74.6664C48.4638 74.7927 46.4987 74.9146 44.6773 75.0465Z" fill="#336AA8"/>
<path d="M58.8955 64.8651C62.4999 59.9883 66.44 56.8528 72.8728 54.9147C73.3633 53.3105 73.7329 51.6719 73.9785 50.0125C72.1897 49.5729 70.502 49.339 70.502 49.339L69.5603 49.7112L66.055 51.1078C66.055 51.1078 61.2881 51.1379 54.8665 58.7172C53.7952 59.9895 52.7902 61.3164 51.8556 62.6923C51.042 63.8844 50.2092 65.2106 49.3571 66.671C49.1371 67.0458 48.9195 67.4358 48.6978 67.8316C50.3778 67.7049 51.9496 67.5805 53.4348 67.4161C54.9199 67.2517 56.2059 67.0864 57.4877 66.865C57.9554 66.1676 58.4246 65.501 58.8955 64.8651Z" fill="#35567B"/>
<path d="M57.3211 73.9985C55.9309 76.8486 54.4875 79.6738 52.991 82.4741L51.8732 84.5711L51.3059 85.6158L50.6938 86.6549C49.8705 88.0131 49.0158 89.3533 48.1415 90.6838C47.2671 92.0142 46.3509 93.3102 45.3873 94.5856C44.4388 95.885 43.3762 97.0972 42.2123 98.2078C41.5936 98.7485 40.9007 99.1977 40.1546 99.5418C39.4269 99.8871 38.6748 100.179 37.9045 100.414C36.3759 100.871 34.8032 101.166 33.2127 101.292C34.7645 101 36.2871 100.569 37.7623 100.006C38.4927 99.7312 39.2027 99.4053 39.8868 99.0301C40.5607 98.6703 41.1824 98.22 41.7344 97.6919C42.8182 96.5675 43.8121 95.3598 44.7069 94.0798C45.6256 92.7989 46.5267 91.5054 47.3977 90.1858C48.2687 88.8663 49.1288 87.5433 49.9713 86.2077L50.5938 85.216L51.1867 84.1852L52.3811 82.13C53.9815 79.3952 55.6282 76.6847 57.3211 73.9985Z" fill="#006DE8"/>
<path d="M63.8205 76.8755C65.4698 74.3311 67.4601 72.0247 69.7358 70.0207C67.1956 71.5014 63.2157 73.077 57.3254 73.9926C57.2518 74.0952 57.1803 74.1948 57.1152 74.2857C59.4256 77.0615 61.8109 77.4184 63.8205 76.8755Z" fill="#2F5B8C"/>
<path d="M77.5697 62.8423L74.0687 66.102C73.6668 66.7961 73.1527 67.4189 72.5471 67.9449C74.7991 66.589 77.2315 65.5584 79.7721 64.8837C89.0542 62.2903 81.8895 60.4585 78.3748 59.7887C78.0131 61.438 77.5697 62.8423 77.5697 62.8423Z" fill="#00B1BD"/>
<path d="M76.7189 59.5108C76.7189 59.5108 77.4094 59.6065 78.3646 59.8033C79.1529 56.1916 79.5442 51.4251 74.0139 57.7926C72.6702 59.3657 71.1645 60.7928 69.5218 62.0504C70.3817 61.632 71.3109 61.3747 72.2636 61.2913L76.7189 59.5108Z" fill="#1F899B"/>
<path d="M65.6532 64.4115C63.063 65.6163 60.3136 66.4442 57.4889 66.87C56.207 67.0914 54.8615 67.2716 53.4359 67.421C52.0103 67.5705 50.3718 67.7136 48.6989 67.8366L47.5389 67.919C45.8237 68.0205 43.9864 68.1498 42.0392 68.2714C41.0491 68.3336 40.108 68.4265 39.207 68.5439C20.6789 70.9511 21.175 84.2466 21.175 84.2466C24.1459 79.7455 27.0689 77.6072 34.1014 76.2812C37.1315 75.749 40.1872 75.3745 43.2561 75.159L44.6715 75.0422C46.4929 74.9104 48.458 74.7884 50.6052 74.6727C51.4045 74.6289 52.1703 74.5701 52.9348 74.5191C54.3484 74.3967 55.6736 74.2448 56.9104 74.0635C57.0492 74.0433 57.1939 74.0272 57.3298 74.0048C60.3993 69.2549 63.2691 66.2749 65.6532 64.4115Z" fill="#45688F"/>
<path d="M69.6377 70.0703C70.5485 69.286 71.5208 68.5761 72.5452 67.9476C73.1508 67.4216 73.6649 66.7988 74.0668 66.1047L77.5677 62.845C77.5677 62.845 78.0112 61.4407 78.3708 59.7943C77.4072 59.6092 76.7251 59.5018 76.7251 59.5018L72.2782 61.2706C71.3255 61.354 70.3963 61.6112 69.5364 62.0297C68.3262 62.9476 67.0274 63.7425 65.6594 64.4026C63.2753 66.266 60.4084 69.2481 57.3273 73.9896C63.2049 73.0916 67.0946 71.5489 69.6377 70.0703Z" fill="#35567B"/>
<path d="M69.5301 62.0388C68.629 62.8455 67.6414 63.5499 66.5854 64.1393C65.5295 64.7394 64.4356 65.2701 63.3107 65.728C61.0462 66.6263 58.6956 67.2905 56.2958 67.7103C53.9005 68.1374 51.4751 68.3734 49.0423 68.4161C47.8258 68.4536 46.6015 68.3967 45.4178 68.3822C44.2341 68.3677 43.0536 68.4044 41.8731 68.5032C39.5182 68.6564 37.1874 69.0688 34.923 69.7329C32.6666 70.3818 30.5222 71.3703 28.5633 72.6645C26.603 73.9657 24.9257 75.6496 23.6321 77.615C22.3342 79.6205 21.4889 81.8847 21.1548 84.2501C21.0511 81.9562 21.8884 79.4273 23.0759 77.2827C24.2941 75.1305 25.9635 73.2675 27.9695 71.8214C29.9694 70.38 32.1911 69.2746 34.5471 68.5488C36.8931 67.8272 39.3139 67.3757 41.7624 67.2031C42.9836 67.1157 44.1997 67.0912 45.4262 67.1142C46.6526 67.1371 47.8228 67.1952 49.0112 67.1908C51.3941 67.1923 53.7743 67.0276 56.1343 66.6977C58.4924 66.379 60.8171 65.8491 63.0805 65.1145C64.2147 64.7449 65.3263 64.309 66.4095 63.809C67.5039 63.3201 68.5489 62.7274 69.5301 62.0388Z" fill="#006DE8"/>
<path d="M58.5502 45.4985C57.6477 46.3059 56.6584 47.0107 55.6004 47.5998C54.547 48.201 53.4547 48.7315 52.3308 49.1877C50.0701 50.0903 47.7227 50.7583 45.3255 51.1813C42.9293 51.6089 40.5028 51.8442 38.0691 51.885C36.866 51.9099 35.6333 51.8647 34.4496 51.8503C33.2659 51.8358 32.0833 51.8754 30.9049 51.9712C28.5499 52.1232 26.219 52.5357 23.9548 53.201C21.7025 53.8434 19.5612 54.8253 17.6048 56.1129C15.642 57.4167 13.9634 59.1044 12.6702 61.0743C11.3765 63.0451 10.7608 65.0671 10.4161 67.4478C10.3512 65.0964 10.9416 62.7733 12.1211 60.7382C13.3402 58.5882 15.0087 56.7264 17.0127 55.2798C19.014 53.8408 21.2353 52.7356 23.5902 52.0073C25.9352 51.282 28.355 50.8254 30.803 50.6464C32.0243 50.5591 33.2403 50.5346 34.466 50.5525C35.6916 50.5704 36.8627 50.6335 38.0539 50.6312C40.4298 50.6392 42.8033 50.4815 45.1573 50.1595C47.5135 49.8399 49.8365 49.3103 52.0984 48.5771C53.2295 48.2114 54.3372 47.7769 55.4153 47.2762C56.5148 46.7855 57.5646 46.1902 58.5502 45.4985Z" fill="#006DE8"/>
<path d="M83.1179 40.0677C91.3903 53.1477 74.4884 67.9741 83.9745 78.7864C85.3448 78.7882 86.5413 78.0483 88.2224 76.9857C99.3544 69.944 101.894 48.7092 94.8541 37.5743C87.8145 26.4393 63.1176 18.6203 47.2924 30.7078C45.1779 32.3251 44.4329 33.7972 44.6448 35.2098C54.9963 31.9053 76.4057 29.4295 83.1179 40.0677Z" fill="#284E79"/>
<path d="M83.548 39.6169C76.8274 28.9904 54.9995 31.9074 44.648 35.212C45.4883 40.7864 61.296 45.4213 66.9185 54.2925C72.8984 63.7485 76.2778 78.7613 83.9916 78.7629C74.497 67.9625 91.8175 52.6949 83.548 39.6169Z" fill="#336AA8"/>
<path d="M89.3817 58.9869C88.965 59.2503 88.4796 59.3841 87.9868 59.3715C87.494 59.359 87.016 59.2006 86.6132 58.9164C86.2104 58.6322 85.901 58.2349 85.724 57.7748C85.547 57.3148 85.5104 56.8125 85.6188 56.3317C85.7272 55.8508 85.9757 55.4129 86.333 55.0732C86.6903 54.7336 87.1403 54.5076 87.6261 54.4237C88.1118 54.3398 88.6116 54.4018 89.0621 54.6019C89.5126 54.8021 89.8936 55.1313 90.1571 55.5479C90.332 55.8246 90.4507 56.1331 90.5064 56.4557C90.5621 56.7783 90.5537 57.1087 90.4817 57.428C90.4097 57.7474 90.2755 58.0494 90.0868 58.3169C89.8981 58.5844 89.6585 58.8121 89.3817 58.9869Z" fill="#006DE8"/>
<path d="M91.9275 50.5854C91.3635 50.941 90.7068 51.1215 90.0402 51.104C89.3737 51.0865 88.7274 50.8719 88.1828 50.4872C87.6382 50.1025 87.2199 49.565 86.9806 48.9427C86.7414 48.3204 86.692 47.6411 86.8386 46.9907C86.9853 46.3403 87.3215 45.7479 87.8046 45.2885C88.2878 44.829 88.8963 44.5231 89.5532 44.4093C90.2102 44.2956 90.8861 44.3791 91.4957 44.6493C92.1052 44.9195 92.6209 45.3644 92.9777 45.9276C93.2151 46.3023 93.3762 46.72 93.4519 47.1571C93.5276 47.5941 93.5163 48.0417 93.4188 48.4744C93.3212 48.907 93.1393 49.3162 92.8834 49.6784C92.6275 50.0407 92.3027 50.3489 91.9275 50.5854Z" fill="#006DE8"/>
<path d="M92.5638 41.516C92.2111 41.739 91.8002 41.8524 91.3831 41.8419C90.9659 41.8314 90.5613 41.6974 90.2202 41.4569C89.8792 41.2165 89.6171 40.8803 89.4671 40.4909C89.3172 40.1015 89.286 39.6764 89.3776 39.2693C89.4691 38.8622 89.6794 38.4914 89.9817 38.2037C90.284 37.9161 90.6648 37.7245 91.0759 37.6532C91.4871 37.582 91.9101 37.6342 92.2916 37.8034C92.6731 37.9725 92.9958 38.2509 93.219 38.6035C93.3674 38.8377 93.4681 39.0989 93.5154 39.3721C93.5628 39.6452 93.5558 39.9251 93.495 40.1955C93.4341 40.466 93.3206 40.7219 93.1608 40.9484C93.001 41.175 92.7982 41.3679 92.5638 41.516Z" fill="#006DE8"/>
<path d="M96.2231 46.3601C95.9502 46.5334 95.6319 46.6219 95.3087 46.6143C94.9854 46.6067 94.6717 46.5033 94.4072 46.3173C94.1427 46.1313 93.9393 45.871 93.8228 45.5694C93.7063 45.2678 93.682 44.9383 93.7528 44.6228C93.8236 44.3073 93.9864 44.02 94.2207 43.797C94.4549 43.5741 94.75 43.4257 95.0686 43.3706C95.3872 43.3155 95.715 43.3561 96.0105 43.4874C96.306 43.6187 96.5559 43.8347 96.7286 44.1081C96.9597 44.4739 97.0363 44.9164 96.9415 45.3386C96.8467 45.7608 96.5884 46.1281 96.2231 46.3601Z" fill="#006DE8"/>
<path d="M87.493 42.0071C87.2204 42.1791 86.9028 42.2664 86.5805 42.258C86.2582 42.2496 85.9456 42.1458 85.6823 41.9597C85.419 41.7736 85.2168 41.5137 85.1012 41.2127C84.9855 40.9118 84.9618 40.5833 85.0328 40.2688C85.1039 39.9543 85.2666 39.6679 85.5004 39.4459C85.7342 39.2239 86.0285 39.0762 86.3463 39.0214C86.664 38.9667 86.9908 39.0073 87.2854 39.1383C87.5801 39.2693 87.8292 39.4846 88.0015 39.7572C88.1159 39.9383 88.1935 40.1402 88.2299 40.3513C88.2663 40.5624 88.2607 40.7786 88.2135 40.9875C88.1663 41.1965 88.0783 41.394 87.9547 41.569C87.8311 41.7439 87.6742 41.8928 87.493 42.0071Z" fill="#006DE8"/>
<path d="M83.2219 47.4976C82.8747 47.7174 82.4701 47.8292 82.0593 47.819C81.6485 47.8088 81.25 47.6769 80.9141 47.4402C80.5782 47.2035 80.32 46.8725 80.1722 46.4891C80.0245 46.1057 79.9937 45.687 80.0839 45.2861C80.174 44.8852 80.381 44.52 80.6787 44.2368C80.9764 43.9535 81.3514 43.7649 81.7563 43.6947C82.1612 43.6246 82.5777 43.6761 82.9534 43.8427C83.329 44.0093 83.6468 44.2835 83.8666 44.6308C84.0125 44.8613 84.1116 45.1184 84.1581 45.3872C84.2047 45.6561 84.1979 45.9315 84.138 46.1977C84.0782 46.4639 83.9665 46.7158 83.8093 46.9388C83.6521 47.1618 83.4525 47.3517 83.2219 47.4976Z" fill="#006DE8"/>
<path d="M51.3205 28.1548C50.6126 28.5708 49.9281 29.0253 49.2699 29.5161C48.6481 29.9641 48.0548 30.4503 47.4934 30.9719C46.9415 31.4799 46.4444 32.0443 46.0103 32.6559C45.5928 33.2223 45.3148 33.8792 45.1989 34.5732C45.1086 35.2149 45.2491 35.8678 45.5954 36.4156C45.9925 36.999 46.4756 37.519 47.0281 37.9581C48.2003 38.9165 49.4319 39.7998 50.7155 40.6028C55.8771 43.9276 61.438 46.9928 65.85 51.7775C66.9582 52.9966 67.903 54.3547 68.6607 55.8176C69.3812 57.2887 69.976 58.6875 70.5774 60.1265C71.7614 62.9999 72.9619 65.8318 74.2698 68.5943C74.9279 69.9676 75.6549 71.3068 76.4479 72.6068C77.2144 73.8999 78.1318 75.0973 79.1807 76.1739C80.1836 77.2652 81.4922 78.0289 82.9356 78.3654C84.3872 78.6563 86.0066 78.2243 87.3758 77.4973C86.7229 77.9823 86.0049 78.3729 85.243 78.6576C84.477 78.9224 83.6652 79.0288 82.8569 78.9704C81.2033 78.8497 79.6938 78.0023 78.4575 76.978C75.9856 74.8543 74.2742 72.1221 72.7461 69.3881C71.218 66.654 69.9501 63.7738 68.662 60.9589C68.0203 59.5575 67.4029 58.116 66.7354 56.7938C66.0482 55.5074 65.1985 54.3146 64.2071 53.2448C62.2449 51.0295 59.8291 49.137 57.3481 47.3354C54.8672 45.5337 52.2648 43.8581 49.7345 42.0077C48.4323 41.0979 47.1983 40.0942 46.0423 39.0045C45.4227 38.4219 44.898 37.746 44.4872 37.0013C44.0602 36.1878 43.9359 35.2492 44.1364 34.3526C44.3544 33.5199 44.7663 32.7505 45.3384 32.1074C45.863 31.4976 46.4565 30.9506 47.1069 30.4772C48.4124 29.5357 49.8273 28.7559 51.3205 28.1548Z" fill="#006DE8"/>
<path d="M95.9623 63.2053C94.7116 62.8254 93.6017 62.0831 92.7729 61.0724C91.9441 60.0616 91.4337 58.8278 91.3062 57.5269C91.1787 56.2261 91.4398 54.9166 92.0566 53.7642C92.6733 52.6117 93.618 51.6681 94.7711 51.0526C95.9242 50.4371 97.234 50.1774 98.5347 50.3063C99.8355 50.4352 101.069 50.947 102.079 51.7769C103.088 52.6068 103.829 53.7176 104.208 54.9686C104.586 56.2197 104.585 57.555 104.205 58.8055C103.695 60.4818 102.54 61.887 100.995 62.712C99.4489 63.5371 97.6388 63.7145 95.9623 63.2053Z" fill="#006DE8"/>
<path d="M89.879 30.1707C89.7227 31.4685 89.1851 32.6907 88.3341 33.6829C87.4831 34.675 86.357 35.3925 85.0982 35.7446C83.8394 36.0967 82.5044 36.0675 81.2622 35.6608C80.02 35.2542 78.9262 34.4882 78.1193 33.4599C77.3124 32.4315 76.8286 31.187 76.7291 29.8837C76.6296 28.5804 76.9189 27.2768 77.5603 26.1379C78.2017 24.999 79.1665 24.0758 80.3326 23.4853C81.4987 22.8947 82.8137 22.6632 84.1114 22.8201C85.8508 23.0304 87.4355 23.9229 88.5171 25.3013C89.5986 26.6797 90.0885 28.4312 89.879 30.1707Z" fill="#006DE8"/>
<path d="M90.2208 29.0752C90.0645 30.3736 89.5267 31.5964 88.6754 32.5891C87.824 33.5817 86.6975 34.2997 85.4381 34.6521C84.1788 35.0044 82.8432 34.9755 81.6003 34.5688C80.3575 34.1622 79.2631 33.3961 78.4556 32.3674C77.6481 31.3388 77.1638 30.0938 77.0639 28.7899C76.964 27.486 77.253 26.1818 77.8943 25.0421C78.5357 23.9025 79.5006 22.9786 80.667 22.3873C81.8334 21.7961 83.149 21.564 84.4473 21.7204C86.1882 21.9302 87.7745 22.8229 88.8572 24.2022C89.94 25.5814 90.4305 27.3343 90.2208 29.0752Z" fill="#284E79"/>
<path d="M96.6154 63.7982C95.3655 63.4165 94.257 62.6728 93.4298 61.6611C92.6026 60.6493 92.094 59.4151 91.9682 58.1144C91.8424 56.8136 92.1051 55.5048 92.7231 54.3533C93.341 53.2018 94.2865 52.2595 95.44 51.6453C96.5935 51.0311 97.9032 50.7727 99.2036 50.9028C100.504 51.0329 101.736 51.5456 102.745 52.3761C103.754 53.2066 104.494 54.3177 104.872 55.5687C105.25 56.8198 105.248 58.1547 104.867 59.4048C104.614 60.2352 104.2 61.0076 103.648 61.6779C103.096 62.3482 102.418 62.9032 101.651 63.3112C100.885 63.7192 100.046 63.9722 99.1818 64.0558C98.3177 64.1394 97.4456 64.0518 96.6154 63.7982Z" fill="#284E79"/>
<path d="M96.601 61.1019C95.7667 60.8487 95.0263 60.3538 94.4734 59.6797C93.9204 59.0057 93.5797 58.1828 93.4945 57.3152C93.4092 56.4476 93.5831 55.5741 93.9943 54.8053C94.4054 54.0365 95.0353 53.4069 95.8043 52.9961C96.5732 52.5853 97.4468 52.4118 98.3144 52.4975C99.182 52.5831 100.005 52.9242 100.678 53.4774C101.352 54.0307 101.847 54.7713 102.1 55.6057C102.353 56.44 102.352 57.3306 102.099 58.1648C101.758 59.2828 100.988 60.22 99.9575 60.7706C98.9267 61.3213 97.7195 61.4404 96.601 61.1019Z" fill="white"/>
<path d="M97.1307 57.6645C96.858 57.5809 96.6163 57.4185 96.4359 57.1976C96.2555 56.9767 96.1446 56.7074 96.1173 56.4235C96.0899 56.1397 96.1472 55.8541 96.2821 55.6028C96.4169 55.3515 96.6232 55.1458 96.8748 55.0117C97.1265 54.8776 97.4122 54.821 97.696 54.8492C97.9797 54.8774 98.2488 54.989 98.4692 55.17C98.6895 55.351 98.8513 55.5932 98.9341 55.8661C99.0169 56.1389 99.017 56.4302 98.9344 56.7032C98.8793 56.8849 98.789 57.054 98.6684 57.2007C98.5479 57.3475 98.3996 57.469 98.2321 57.5583C98.0645 57.6476 97.881 57.7029 97.692 57.7212C97.503 57.7394 97.3122 57.7201 97.1307 57.6645Z" fill="black"/>
<path d="M88.2577 29.1633C88.1493 30.0577 87.7781 30.8999 87.191 31.5834C86.604 32.2669 85.8275 32.761 84.9596 33.0032C84.0918 33.2454 83.1716 33.2248 82.3155 32.944C81.4593 32.6633 80.7057 32.135 80.1498 31.4259C79.5939 30.7169 79.2607 29.8589 79.1924 28.9605C79.124 28.0621 79.3236 27.1636 79.7659 26.3787C80.2082 25.5937 80.8733 24.9575 81.6772 24.5505C82.481 24.1435 83.3875 23.9841 84.282 24.0922C84.876 24.1641 85.4501 24.3522 85.9714 24.646C86.4928 24.9397 86.9511 25.3333 87.3203 25.8042C87.6895 26.2751 87.9623 26.8141 88.1231 27.3905C88.284 27.9668 88.3297 28.5692 88.2577 29.1633Z" fill="white"/>
<path d="M84.2527 28.7809C84.2178 29.0743 84.0966 29.3507 83.9046 29.5751C83.7125 29.7996 83.4582 29.9621 83.1738 30.042C82.8894 30.1219 82.5876 30.1157 82.3068 30.024C82.0259 29.9324 81.7785 29.7596 81.5959 29.5273C81.4133 29.2951 81.3037 29.0139 81.281 28.7194C81.2582 28.4248 81.3233 28.1301 81.4681 27.8726C81.6128 27.6151 81.8307 27.4063 82.0942 27.2726C82.3576 27.1389 82.6548 27.0864 82.9481 27.1216C83.1429 27.1446 83.3312 27.2057 83.5023 27.3016C83.6733 27.3975 83.8238 27.5262 83.945 27.6804C84.0662 27.8345 84.1558 28.0111 84.2086 28.2C84.2614 28.3888 84.2764 28.5863 84.2527 28.7809Z" fill="black"/>
<path d="M10.4141 67.4507C10.8321 65.8274 11.6842 64.3485 12.8788 63.1726C14.084 61.9866 15.5106 61.0491 17.0774 60.4133C17.8569 60.086 18.6613 59.8213 19.4829 59.6217C20.2825 59.4228 21.0875 59.2412 21.9047 59.0859C23.5289 58.7771 25.1563 58.5505 26.7832 58.3369C28.4102 58.1233 30.0488 57.9801 31.6768 57.8517C33.3049 57.7232 34.9563 57.6115 36.5759 57.5258C38.1955 57.44 39.8473 57.3774 41.479 57.3181C43.1107 57.2588 44.8839 57.3055 46.522 57.2064C44.9131 57.5928 43.1546 57.7298 41.5369 57.9678C39.9191 58.2057 38.2905 58.3782 36.6716 58.5621L31.8031 59.1052C30.1846 59.2761 28.569 59.4491 26.9588 59.6703C25.3486 59.8915 23.7326 60.0774 22.1341 60.3381C21.333 60.4648 20.5444 60.605 19.7499 60.772C18.9742 60.9335 18.2092 61.1423 17.4591 61.3974C15.9548 61.9032 14.5524 62.6724 13.3173 63.6691C12.0506 64.669 11.0528 65.9687 10.4141 67.4507Z" fill="#1F4753"/>
<path d="M72.107 68.237C69.8704 70.132 67.3196 71.621 64.5699 72.6369C62.4858 73.4444 60.3395 74.0813 58.1523 74.5415C57.052 74.7773 55.9376 74.9419 54.8161 75.034C54.2538 75.0835 53.6879 75.1112 53.1185 75.1171L51.4605 75.1264C49.2578 75.1401 47.06 75.1841 44.873 75.3245C42.686 75.4649 40.5027 75.6434 38.3375 75.9638C36.176 76.2629 34.0379 76.7125 31.939 77.3094C29.8437 77.8967 27.8304 78.7449 25.9466 79.8342C24.0446 80.9316 22.4126 82.4414 21.1708 84.2525C22.2136 82.2581 23.7392 80.5566 25.6084 79.3031C27.4688 78.0334 29.5003 77.0348 31.6419 76.3373C35.9017 74.8914 40.3707 74.2925 44.8076 74.0169C47.0319 73.8988 49.255 73.8567 51.4767 73.8907L53.1321 73.9283C53.6714 73.9378 54.2094 73.9241 54.7499 73.8946C55.8252 73.8313 56.9064 73.7101 57.9781 73.5466C60.142 73.19 62.2799 72.6903 64.3777 72.0508C66.4702 71.3986 70.0565 69.0658 72.107 68.237Z" fill="#1F4753"/>
<path d="M71.6664 45.0423C71.2231 45.3225 70.7067 45.465 70.1825 45.4518C69.6582 45.4385 69.1497 45.2701 68.7212 44.9677C68.2926 44.6654 67.9634 44.2428 67.7751 43.7533C67.5868 43.2639 67.5479 42.7296 67.6633 42.218C67.7787 41.7064 68.0432 41.2406 68.4234 40.8794C68.8036 40.5181 69.2824 40.2778 69.7992 40.1887C70.316 40.0996 70.8476 40.1658 71.3268 40.3789C71.806 40.5919 72.2112 40.9424 72.4912 41.3858C72.6775 41.6799 72.804 42.0079 72.8634 42.351C72.9228 42.694 72.9139 43.0455 72.8373 43.3851C72.7607 43.7248 72.6178 44.046 72.4169 44.3303C72.216 44.6147 71.9609 44.8566 71.6664 45.0423Z" fill="black"/>
</svg>
