<svg width="117" height="122" viewBox="0 0 117 122" fill="none" xmlns="http://www.w3.org/2000/svg">
<path d="M44.7034 35.5983C44.6706 36.2358 44.6903 36.8749 44.7621 37.5092C44.8269 38.1381 44.9272 38.7628 45.0625 39.3804C45.3281 40.607 45.7115 41.8052 46.2074 42.9582C47.1902 45.2427 48.5124 47.3658 50.1291 49.2556C51.7566 51.1377 53.5763 52.8445 55.5586 54.3483C57.588 55.8883 59.6266 57.4525 61.6392 59.0469C63.6518 60.6413 65.6706 62.258 67.5008 64.2365C68.3957 65.2284 69.2 66.2985 69.904 67.4339C70.61 68.5352 71.2427 69.6459 71.8897 70.7492C73.1494 72.8583 74.9021 74.6303 76.9974 75.913C79.1466 77.2563 81.5088 78.224 83.9827 78.7746C82.689 78.7268 81.4046 78.5352 80.1533 78.2032C78.8839 77.8767 77.6505 77.4233 76.4718 76.85C75.2811 76.2608 74.1642 75.5328 73.1446 74.6811C72.1119 73.8072 71.2056 72.7942 70.4517 71.671C68.9815 69.5556 67.6775 67.3818 65.9864 65.6672C65.1142 64.787 64.1969 63.9527 63.238 63.1678C62.2726 62.36 61.2787 61.5672 60.2768 60.7731L54.2752 55.9891C52.2174 54.339 50.3756 52.4364 48.7932 50.326C47.197 48.2165 45.9769 45.8473 45.1869 43.3226C44.8058 42.0666 44.5591 40.7737 44.4509 39.4656C44.3351 38.1712 44.4203 36.8666 44.7034 35.5983Z" fill="#030000"/>
<path d="M27.3136 54.1316C24.1965 53.4274 27.2531 52.4769 31.4512 51.4573L31.2667 51.467C9.86825 52.8321 10.4083 67.4464 10.4083 67.4464C13.6427 60.2757 20.0005 58.9496 39.8557 57.8671C40.1505 57.8522 40.4264 57.8326 40.7154 57.8134C39.0859 56.3162 31.3616 55.0419 27.3136 54.1316Z" fill="#35567B"/>
<path d="M49.2251 52.0694C50.1474 50.8986 51.1365 49.782 52.1874 48.7252C50.9823 49.1361 49.7533 49.4731 48.5072 49.7345C43.9079 50.7193 38.4532 51.0152 31.4568 51.4615C27.2529 52.4768 23.0441 53.8083 26.1633 54.5097C30.2092 55.4229 39.0769 56.3098 40.7005 57.8339C42.4389 57.7165 44.0547 57.5556 45.5479 57.3511C46.6682 55.5194 47.8961 53.7557 49.2251 52.0694Z" fill="#45688F"/>
<path d="M49.0757 94.3633C49.7856 95.8491 53.8437 92.4564 55.7579 90.722C56.036 90.2601 56.3124 89.788 56.5889 89.285C59.3401 84.3289 61.5692 80.237 63.8246 76.8696C61.815 77.4125 59.4297 77.0556 57.1184 74.3058C56.2502 75.6585 55.3684 77.1479 54.4763 78.7941C54.2562 79.2 54.0416 79.592 53.8269 79.9841C55.0544 83.1373 48.2859 92.7227 49.0757 94.3633Z" fill="#336AA8"/>
<path d="M55.7623 90.7343C53.8607 92.451 50.7686 95.054 50.0498 93.5619C49.2601 91.9213 55.063 83.1437 53.8313 79.9964C44.8354 96.4627 41.129 100.374 33.2242 101.301C33.2125 101.292 45.5033 107.693 55.7623 90.7343Z" fill="#45688F"/>
<path d="M75.8058 47.9357L44.524 35.3848C44.524 35.3848 43.0148 42.4834 49.5063 49.8028C50.3483 49.1238 51.674 49.0271 52.4185 50.2047C52.6565 50.5466 52.7688 50.9603 52.7363 51.3756C52.7039 51.7909 52.5287 52.1822 52.2404 52.4829C60.3365 59.6569 64.7761 59.947 70.4411 69.6254C76.3037 79.641 84.2268 79.2023 87.1552 77.3475C90.0835 75.4927 75.8058 47.9357 75.8058 47.9357Z" fill="#1F233F"/>
<path d="M47.5357 67.9169C47.7512 67.5298 47.9603 67.1516 48.1703 66.7784C47.4204 66.8398 46.6546 66.8987 45.8407 66.9319C43.6935 67.0477 41.7263 67.1725 39.9049 67.3044C39.6663 67.7237 39.4261 68.1329 39.1893 68.5312C40.0902 68.4139 41.0313 68.321 42.0214 68.2587C43.992 68.154 45.81 68.033 47.5357 67.9169Z" fill="#2F5B8C"/>
<path d="M66.8089 46.0463L63.8427 48.8017C65.4393 48.0514 67.098 47.4409 68.8001 46.9773C77.7151 44.4934 71.4334 42.6869 67.8195 41.9637C67.5577 43.342 67.2203 44.7049 66.8089 46.0463Z" fill="#2BD5DF"/>
<path d="M56.1693 54.6174C54.2674 55.4047 52.3009 56.026 50.2919 56.4744C48.8711 56.8049 47.2948 57.0903 45.5628 57.3307C45.03 58.1974 44.492 59.1166 43.9489 60.0883C46.5117 59.9068 48.8394 59.6941 50.9827 59.398C51.5813 59.3184 52.167 59.228 52.7397 59.1268C53.7761 57.5453 54.9221 56.0385 56.1693 54.6174Z" fill="#2F5B8C"/>
<path d="M52.1875 48.7254C55.4557 47.6141 58.4411 45.8008 60.934 43.4129C59.8632 43.5505 56.5628 44.3705 52.1875 48.7254Z" fill="#2F5B8C"/>
<path d="M22.2269 83.3986C22.2269 83.3986 33.3611 89.165 43.2559 75.159C40.187 75.3744 37.1313 75.749 34.1012 76.2812C30.2759 81.1815 27.0237 82.844 22.2269 83.3986Z" fill="#2F5B8C"/>
<path d="M73.9766 50.0152C74.3395 47.1326 73.7982 44.9599 69.5584 49.7139L70.5001 49.3417C70.5001 49.3417 72.1878 49.5756 73.9766 50.0152Z" fill="#1F9DB4"/>
<path d="M69.3085 58.3683L72.8124 55.1108C72.8124 55.1108 72.8347 55.0424 72.8689 54.9205C66.4424 56.8498 62.5023 59.9853 58.8916 64.8709C67.4248 62.2819 69.3085 58.3683 69.3085 58.3683Z" fill="#45688F"/>
<path d="M54.8646 58.72C54.1752 58.8766 53.4641 59.0161 52.7311 59.1385C52.2977 59.7924 51.864 60.4712 51.4302 61.1751C50.379 62.8759 49.3141 64.7444 48.1704 66.7784C48.5709 66.7461 48.9714 66.7137 49.3552 66.6738C50.2034 65.2106 51.0362 63.8844 51.8537 62.6951C52.7883 61.3192 53.7933 59.9924 54.8646 58.72Z" fill="#45688F"/>
<path d="M51.4301 61.1751C51.8653 60.4693 52.299 59.7904 52.731 59.1385C52.1578 59.2364 51.5721 59.3268 50.974 59.4098C48.8307 59.7058 46.503 59.9185 43.9402 60.1001C41.879 60.2508 39.6702 60.3844 37.2785 60.5378C15.8801 61.9029 16.4172 76.5151 16.4172 76.5151C20.2769 70.3477 24.8865 68.4203 39.9195 67.315C41.7409 67.1831 43.7082 67.0582 45.8553 66.9425C46.6546 66.8987 47.4204 66.8399 48.1849 66.7889C49.311 64.7423 50.3789 62.8759 51.4301 61.1751Z" fill="#45688F"/>
<path d="M65.7447 41.6074C65.7447 41.6074 66.6363 41.732 67.8154 41.9695C68.4203 38.5947 68.2831 35.2026 63.2585 40.9828C62.5253 41.8315 61.7495 42.6426 60.9341 43.4128C61.0526 43.3926 61.1724 43.3807 61.2926 43.377L65.7447 41.6074Z" fill="#1F899B"/>
<path d="M63.3049 49.3039L63.8426 48.8018L66.8088 46.0464C67.2193 44.706 67.556 43.344 67.8172 41.9667C66.6499 41.7376 65.7465 41.6045 65.7465 41.6045L61.2945 43.3742C61.1743 43.3778 61.0544 43.3898 60.9359 43.41C58.443 45.7979 55.4577 47.6111 52.1894 48.7225C51.1376 49.7801 50.1478 50.8977 49.225 52.0695C47.8984 53.7532 46.6726 55.5139 45.5541 57.3424C47.2866 57.1054 48.8629 56.82 50.2831 56.4862C52.2954 56.0344 54.2647 55.4092 56.169 54.6175C61.9214 52.1736 63.3049 49.3039 63.3049 49.3039Z" fill="#3F6187"/>
<path d="M72.8731 54.9144C73.0997 54.8461 73.3149 54.7874 73.5537 54.7145C81.3946 52.5213 77.4927 50.8812 73.9788 50.0122C73.7332 51.6716 73.3637 53.3103 72.8731 54.9144Z" fill="#00B1BD"/>
<path d="M44.6773 75.0465C37.6926 87.1491 33.9859 90.3056 26.9939 91.1235C26.9939 91.1235 39.9632 97.8776 50.3658 79.122C51.2735 77.4914 52.1176 75.9617 52.9259 74.5128C52.1761 74.5743 51.4103 74.6332 50.5963 74.6664C48.4638 74.7926 46.4987 74.9146 44.6773 75.0465Z" fill="#336AA8"/>
<path d="M58.8955 64.865C62.4999 59.9882 66.44 56.8527 72.8728 54.9146C73.3633 53.3104 73.7329 51.6718 73.9785 50.0124C72.1897 49.5728 70.502 49.3389 70.502 49.3389L69.5603 49.7111L66.055 51.1077C66.055 51.1077 61.2881 51.1378 54.8665 58.717C53.7952 59.9894 52.7902 61.3162 51.8556 62.6922C51.042 63.8843 50.2092 65.2105 49.3571 66.6708C49.1371 67.0457 48.9195 67.4357 48.6978 67.8315C50.3778 67.7048 51.9496 67.5804 53.4348 67.416C54.9199 67.2515 56.2059 67.0863 57.4877 66.8649C57.9554 66.1675 58.4246 65.5009 58.8955 64.865Z" fill="#35567B"/>
<path d="M57.3211 73.9985C55.9309 76.8485 54.4875 79.6738 52.991 82.4741L51.8732 84.571L51.3059 85.6157L50.6938 86.6549C49.8705 88.0131 49.0158 89.3533 48.1415 90.6837C47.2671 92.0142 46.3509 93.3102 45.3873 94.5856C44.4388 95.885 43.3762 97.0972 42.2123 98.2077C41.5936 98.7484 40.9007 99.1977 40.1546 99.5418C39.4269 99.887 38.6748 100.178 37.9045 100.414C36.3759 100.871 34.8032 101.166 33.2127 101.292C34.7645 101 36.2871 100.569 37.7623 100.005C38.4927 99.7312 39.2027 99.4052 39.8868 99.0301C40.5607 98.6702 41.1824 98.22 41.7344 97.6919C42.8182 96.5675 43.8121 95.3597 44.7069 94.0798C45.6256 92.7989 46.5267 91.5054 47.3977 90.1858C48.2687 88.8662 49.1288 87.5433 49.9713 86.2077L50.5938 85.216L51.1867 84.1852L52.3811 82.1299C53.9815 79.3952 55.6282 76.6847 57.3211 73.9985Z" fill="#006DE8"/>
<path d="M63.8205 76.8755C65.4698 74.331 67.4601 72.0246 69.7358 70.0206C67.1956 71.5013 63.2157 73.0769 57.3254 73.9925C57.2518 74.0951 57.1803 74.1948 57.1152 74.2857C59.4256 77.0614 61.8109 77.4183 63.8205 76.8755Z" fill="#2F5B8C"/>
<path d="M77.5697 62.8422L74.0687 66.1019C73.6668 66.796 73.1527 67.4188 72.5471 67.9448C74.7991 66.5889 77.2315 65.5583 79.7721 64.8836C89.0542 62.2902 81.8895 60.4584 78.3748 59.7886C78.0131 61.438 77.5697 62.8422 77.5697 62.8422Z" fill="#00B1BD"/>
<path d="M76.7189 59.5107C76.7189 59.5107 77.4094 59.6064 78.3646 59.8033C79.1529 56.1916 79.5442 51.4251 74.0139 57.7925C72.6702 59.3656 71.1645 60.7927 69.5218 62.0503C70.3817 61.6319 71.3109 61.3746 72.2636 61.2913L76.7189 59.5107Z" fill="#1F899B"/>
<path d="M65.6532 64.4115C63.063 65.6163 60.3136 66.4442 57.4889 66.87C56.207 67.0914 54.8615 67.2716 53.4359 67.421C52.0103 67.5704 50.3718 67.7136 48.6989 67.8365L47.5389 67.919C45.8237 68.0205 43.9864 68.1498 42.0392 68.2714C41.0491 68.3336 40.108 68.4265 39.207 68.5438C20.6789 70.9511 21.175 84.2465 21.175 84.2465C24.1459 79.7455 27.0689 77.6072 34.1014 76.2812C37.1315 75.749 40.1872 75.3744 43.2561 75.159L44.6715 75.0422C46.4929 74.9103 48.458 74.7884 50.6052 74.6726C51.4045 74.6289 52.1703 74.57 52.9348 74.5191C54.3484 74.3966 55.6736 74.2448 56.9104 74.0635C57.0492 74.0432 57.1939 74.0272 57.3298 74.0048C60.3993 69.2549 63.2691 66.2749 65.6532 64.4115Z" fill="#45688F"/>
<path d="M69.6377 70.0703C70.5485 69.2859 71.5208 68.5761 72.5452 67.9475C73.1508 67.4215 73.6649 66.7988 74.0668 66.1046L77.5677 62.8449C77.5677 62.8449 78.0112 61.4407 78.3708 59.7943C77.4072 59.6092 76.7251 59.5017 76.7251 59.5017L72.2782 61.2706C71.3255 61.3539 70.3963 61.6112 69.5364 62.0296C68.3262 62.9476 67.0274 63.7425 65.6594 64.4025C63.2753 66.266 60.4084 69.248 57.3273 73.9895C63.2049 73.0915 67.0946 71.5489 69.6377 70.0703Z" fill="#35567B"/>
<path d="M69.5301 62.0387C68.629 62.8453 67.6414 63.5498 66.5854 64.1392C65.5295 64.7393 64.4356 65.27 63.3107 65.7279C61.0462 66.6262 58.6956 67.2904 56.2958 67.7102C53.9005 68.1372 51.4751 68.3733 49.0423 68.416C47.8258 68.4534 46.6015 68.3965 45.4178 68.3821C44.2341 68.3676 43.0536 68.4043 41.8731 68.503C39.5182 68.6563 37.1874 69.0687 34.923 69.7328C32.6666 70.3817 30.5222 71.3702 28.5633 72.6644C26.603 73.9656 24.9257 75.6495 23.6321 77.6149C22.3342 79.6204 21.4889 81.8846 21.1548 84.25C21.0511 81.9561 21.8884 79.4271 23.0759 77.2825C24.2941 75.1304 25.9635 73.2674 27.9695 71.8212C29.9694 70.3799 32.1911 69.2745 34.5471 68.5487C36.8931 67.8271 39.3139 67.3756 41.7624 67.2029C42.9836 67.1156 44.1997 67.0911 45.4262 67.1141C46.6526 67.137 47.8228 67.1951 49.0112 67.1907C51.3941 67.1922 53.7743 67.0275 56.1343 66.6976C58.4924 66.3789 60.8171 65.849 63.0805 65.1144C64.2147 64.7448 65.3263 64.3088 66.4095 63.8089C67.5039 63.32 68.5489 62.7272 69.5301 62.0387Z" fill="#006DE8"/>
<path d="M58.5502 45.4984C57.6477 46.3059 56.6584 47.0106 55.6004 47.5998C54.547 48.201 53.4547 48.7314 52.3308 49.1876C50.0701 50.0902 47.7227 50.7582 45.3255 51.1812C42.9293 51.6088 40.5028 51.8441 38.0691 51.885C36.866 51.9099 35.6333 51.8647 34.4496 51.8502C33.2659 51.8357 32.0833 51.8754 30.9049 51.9712C28.5499 52.1232 26.219 52.5356 23.9548 53.2009C21.7025 53.8433 19.5612 54.8253 17.6048 56.1128C15.642 57.4167 13.9634 59.1044 12.6702 61.0742C11.3765 63.045 10.7608 65.067 10.4161 67.4477C10.3512 65.0963 10.9416 62.7733 12.1211 60.7381C13.3402 58.5881 15.0087 56.7264 17.0127 55.2798C19.014 53.8408 21.2353 52.7356 23.5902 52.0072C25.9352 51.2819 28.355 50.8253 30.803 50.6464C32.0243 50.559 33.2403 50.5346 34.466 50.5525C35.6916 50.5704 36.8627 50.6334 38.0539 50.6312C40.4298 50.6391 42.8033 50.4815 45.1573 50.1595C47.5135 49.8398 49.8365 49.3103 52.0984 48.5771C53.2295 48.2113 54.3372 47.7768 55.4153 47.2761C56.5148 46.7854 57.5646 46.1901 58.5502 45.4984Z" fill="#006DE8"/>
<path d="M83.1179 40.0676C91.3903 53.1477 74.4884 67.9741 83.9745 78.7863C85.3448 78.7881 86.5413 78.0483 88.2224 76.9857C99.3544 69.9439 101.894 48.7091 94.8541 37.5742C87.8145 26.4393 63.1176 18.6202 47.2924 30.7077C45.1779 32.3251 44.4329 33.7971 44.6448 35.2098C54.9963 31.9052 76.4057 29.4294 83.1179 40.0676Z" fill="#284E79"/>
<path d="M83.5478 39.6169C76.8271 28.9904 54.9992 31.9073 44.6478 35.2119C45.4881 40.7863 61.2958 45.4213 66.9183 54.2924C72.8982 63.7484 76.2775 78.7612 83.9913 78.7628C74.4968 67.9624 91.8172 52.6948 83.5478 39.6169Z" fill="#336AA8"/>
<path d="M89.3815 58.9868C88.9648 59.2502 88.4793 59.384 87.9865 59.3715C87.4937 59.3589 87.0157 59.2005 86.613 58.9163C86.2102 58.6321 85.9007 58.2348 85.7237 57.7748C85.5467 57.3147 85.5101 56.8124 85.6185 56.3316C85.7269 55.8507 85.9755 55.4128 86.3328 55.0731C86.6901 54.7335 87.1401 54.5075 87.6258 54.4236C88.1116 54.3397 88.6113 54.4017 89.0618 54.6019C89.5123 54.802 89.8934 55.1312 90.1568 55.5478C90.3317 55.8245 90.4505 56.133 90.5062 56.4556C90.5619 56.7782 90.5535 57.1086 90.4815 57.4279C90.4095 57.7473 90.2753 58.0493 90.0866 58.3168C89.8978 58.5843 89.6582 58.812 89.3815 58.9868Z" fill="#006DE8"/>
<path d="M91.9275 50.5853C91.3635 50.9409 90.7068 51.1214 90.0402 51.1039C89.3737 51.0864 88.7274 50.8718 88.1828 50.4871C87.6382 50.1024 87.2199 49.5649 86.9806 48.9426C86.7414 48.3202 86.692 47.641 86.8386 46.9906C86.9853 46.3401 87.3215 45.7478 87.8046 45.2883C88.2878 44.8289 88.8963 44.523 89.5532 44.4092C90.2102 44.2954 90.8861 44.379 91.4957 44.6492C92.1052 44.9194 92.6209 45.3643 92.9777 45.9275C93.2151 46.3021 93.3762 46.7199 93.4519 47.1569C93.5276 47.5939 93.5163 48.0416 93.4188 48.4742C93.3212 48.9069 93.1393 49.3161 92.8834 49.6783C92.6275 50.0406 92.3027 50.3488 91.9275 50.5853Z" fill="#006DE8"/>
<path d="M92.5638 41.516C92.2111 41.739 91.8002 41.8524 91.3831 41.8418C90.9659 41.8313 90.5613 41.6974 90.2202 41.4569C89.8792 41.2164 89.6171 40.8802 89.4671 40.4908C89.3172 40.1014 89.286 39.6763 89.3776 39.2692C89.4691 38.8621 89.6794 38.4913 89.9817 38.2037C90.284 37.916 90.6648 37.7244 91.0759 37.6532C91.4871 37.5819 91.9101 37.6342 92.2916 37.8033C92.6731 37.9724 92.9958 38.2509 93.219 38.6034C93.3674 38.8377 93.4681 39.0988 93.5154 39.372C93.5628 39.6452 93.5558 39.925 93.495 40.1955C93.4341 40.466 93.3206 40.7218 93.1608 40.9484C93.001 41.175 92.7982 41.3678 92.5638 41.516Z" fill="#006DE8"/>
<path d="M96.2229 46.36C95.9499 46.5333 95.6317 46.6218 95.3084 46.6142C94.9852 46.6066 94.6714 46.5032 94.407 46.3172C94.1425 46.1312 93.9391 45.8709 93.8226 45.5693C93.7061 45.2676 93.6817 44.9382 93.7525 44.6227C93.8234 44.3072 93.9862 44.0198 94.2204 43.7969C94.4546 43.574 94.7497 43.4256 95.0684 43.3705C95.387 43.3154 95.7148 43.356 96.0103 43.4873C96.3058 43.6186 96.5557 43.8346 96.7284 44.1079C96.9594 44.4738 97.036 44.9163 96.9412 45.3385C96.8465 45.7606 96.5881 46.128 96.2229 46.36Z" fill="#006DE8"/>
<path d="M87.493 42.0071C87.2204 42.1791 86.9028 42.2664 86.5805 42.258C86.2582 42.2495 85.9456 42.1457 85.6823 41.9597C85.419 41.7736 85.2168 41.5137 85.1012 41.2127C84.9855 40.9117 84.9618 40.5832 85.0328 40.2688C85.1039 39.9543 85.2666 39.6679 85.5004 39.4459C85.7342 39.2239 86.0285 39.0761 86.3463 39.0214C86.664 38.9666 86.9908 39.0073 87.2854 39.1383C87.5801 39.2692 87.8292 39.4846 88.0015 39.7572C88.1159 39.9383 88.1935 40.1401 88.2299 40.3512C88.2663 40.5623 88.2607 40.7785 88.2135 40.9875C88.1663 41.1964 88.0783 41.394 87.9547 41.569C87.8311 41.7439 87.6742 41.8928 87.493 42.0071Z" fill="#006DE8"/>
<path d="M83.2219 47.4976C82.8747 47.7173 82.4701 47.8292 82.0593 47.8189C81.6485 47.8087 81.25 47.6769 80.9141 47.4402C80.5782 47.2035 80.32 46.8725 80.1722 46.4891C80.0245 46.1056 79.9937 45.687 80.0839 45.2861C80.174 44.8852 80.381 44.52 80.6787 44.2367C80.9764 43.9535 81.3514 43.7648 81.7563 43.6947C82.1612 43.6245 82.5777 43.676 82.9534 43.8426C83.329 44.0093 83.6468 44.2835 83.8666 44.6307C84.0125 44.8613 84.1116 45.1183 84.1581 45.3872C84.2047 45.6561 84.1979 45.9315 84.138 46.1977C84.0782 46.4639 83.9665 46.7157 83.8093 46.9388C83.6521 47.1618 83.4525 47.3517 83.2219 47.4976Z" fill="#006DE8"/>
<path d="M51.3205 28.1548C50.6126 28.5708 49.9281 29.0252 49.2699 29.5161C48.6481 29.964 48.0548 30.4502 47.4934 30.9719C46.9415 31.4798 46.4444 32.0442 46.0103 32.6559C45.5928 33.2222 45.3148 33.8791 45.1989 34.5731C45.1086 35.2148 45.2491 35.8678 45.5954 36.4155C45.9925 36.9989 46.4756 37.519 47.0281 37.9581C48.2003 38.9164 49.4319 39.7998 50.7155 40.6028C55.8771 43.9276 61.438 46.9927 65.85 51.7774C66.9582 52.9965 67.903 54.3546 68.6607 55.8176C69.3812 57.2887 69.976 58.6874 70.5774 60.1265C71.7614 62.9998 72.9619 65.8317 74.2698 68.5943C74.9279 69.9675 75.6549 71.3067 76.4479 72.6068C77.2144 73.8998 78.1318 75.0972 79.1807 76.1738C80.1836 77.2652 81.4922 78.0289 82.9356 78.3654C84.3872 78.6563 86.0066 78.2242 87.3758 77.4972C86.7229 77.9823 86.0049 78.3729 85.243 78.6575C84.477 78.9223 83.6652 79.0287 82.8569 78.9703C81.2033 78.8497 79.6938 78.0022 78.4575 76.9779C75.9856 74.8543 74.2742 72.122 72.7461 69.388C71.218 66.654 69.9501 63.7737 68.662 60.9588C68.0203 59.5575 67.4029 58.1159 66.7354 56.7938C66.0482 55.5073 65.1985 54.3145 64.2071 53.2447C62.2449 51.0294 59.8291 49.1369 57.3481 47.3353C54.8672 45.5337 52.2648 43.858 49.7345 42.0077C48.4323 41.0979 47.1983 40.0941 46.0423 39.0044C45.4227 38.4218 44.898 37.7459 44.4872 37.0012C44.0602 36.1878 43.9359 35.2491 44.1364 34.3526C44.3544 33.5198 44.7663 32.7505 45.3384 32.1073C45.863 31.4975 46.4565 30.9505 47.1069 30.4771C48.4124 29.5356 49.8273 28.7558 51.3205 28.1548Z" fill="#006DE8"/>
<path d="M95.9623 63.2052C94.7116 62.8253 93.6017 62.083 92.7729 61.0723C91.9441 60.0615 91.4337 58.8277 91.3062 57.5268C91.1787 56.2259 91.4398 54.9165 92.0566 53.764C92.6733 52.6116 93.618 51.6679 94.7711 51.0524C95.9242 50.4369 97.234 50.1772 98.5347 50.3062C99.8355 50.4351 101.069 50.9469 102.079 51.7768C103.088 52.6067 103.829 53.7174 104.208 54.9685C104.586 56.2196 104.585 57.5549 104.205 58.8054C103.695 60.4817 102.54 61.8868 100.995 62.7119C99.4489 63.537 97.6388 63.7144 95.9623 63.2052Z" fill="#006DE8"/>
<path d="M89.879 30.1706C89.7227 31.4684 89.1851 32.6906 88.3341 33.6828C87.4831 34.6749 86.357 35.3924 85.0982 35.7445C83.8394 36.0966 82.5044 36.0674 81.2622 35.6608C80.02 35.2541 78.9262 34.4881 78.1193 33.4598C77.3124 32.4314 76.8286 31.1869 76.7291 29.8836C76.6296 28.5803 76.9189 27.2767 77.5603 26.1378C78.2017 24.9989 79.1665 24.0757 80.3326 23.4852C81.4987 22.8946 82.8137 22.6631 84.1114 22.82C85.8508 23.0303 87.4355 23.9228 88.5171 25.3012C89.5986 26.6796 90.0885 28.4311 89.879 30.1706Z" fill="#006DE8"/>
<path d="M90.2208 29.0751C90.0645 30.3735 89.5267 31.5963 88.6754 32.589C87.824 33.5816 86.6975 34.2996 85.4381 34.652C84.1788 35.0044 82.8432 34.9754 81.6003 34.5687C80.3575 34.1621 79.2631 33.396 78.4556 32.3673C77.6481 31.3387 77.1638 30.0937 77.0639 28.7898C76.964 27.4859 77.253 26.1817 77.8943 25.042C78.5357 23.9024 79.5006 22.9785 80.667 22.3873C81.8334 21.796 83.149 21.5639 84.4473 21.7203C86.1882 21.9301 87.7745 22.8228 88.8572 24.2021C89.94 25.5813 90.4305 27.3342 90.2208 29.0751Z" fill="#284E79"/>
<path d="M96.6154 63.7982C95.3655 63.4164 94.257 62.6727 93.4298 61.661C92.6026 60.6493 92.094 59.415 91.9682 58.1143C91.8424 56.8135 92.1051 55.5047 92.7231 54.3532C93.341 53.2018 94.2865 52.2594 95.44 51.6452C96.5935 51.0311 97.9032 50.7727 99.2036 50.9028C100.504 51.0329 101.736 51.5456 102.745 52.3761C103.754 53.2066 104.494 54.3176 104.872 55.5687C105.25 56.8197 105.248 58.1547 104.867 59.4047C104.614 60.2352 104.2 61.0076 103.648 61.6779C103.096 62.3481 102.418 62.9031 101.651 63.3111C100.885 63.7191 100.046 63.9722 99.1818 64.0557C98.3177 64.1393 97.4456 64.0518 96.6154 63.7982Z" fill="#284E79"/>
<path d="M96.6007 61.1018C95.7665 60.8486 95.0261 60.3537 94.4731 59.6797C93.9202 59.0056 93.5795 58.1828 93.4942 57.3151C93.4089 56.4475 93.5829 55.5741 93.994 54.8053C94.4052 54.0365 95.035 53.4069 95.804 52.9961C96.573 52.5853 97.4465 52.4117 98.3141 52.4974C99.1817 52.5831 100.004 52.9241 100.678 53.4774C101.352 54.0306 101.847 54.7713 102.099 55.6056C102.352 56.44 102.352 57.3306 102.099 58.1648C101.758 59.2827 100.988 60.2199 99.9572 60.7706C98.9264 61.3212 97.7193 61.4404 96.6007 61.1018Z" fill="white"/>
<path d="M97.1307 57.6644C96.858 57.5809 96.6163 57.4184 96.4359 57.1975C96.2555 56.9767 96.1446 56.7073 96.1173 56.4235C96.0899 56.1396 96.1472 55.854 96.2821 55.6027C96.4169 55.3515 96.6232 55.1458 96.8748 55.0116C97.1265 54.8775 97.4122 54.821 97.696 54.8491C97.9797 54.8773 98.2488 54.9889 98.4692 55.1699C98.6895 55.3509 98.8513 55.5931 98.9341 55.866C99.0169 56.1389 99.017 56.4302 98.9344 56.7031C98.8793 56.8848 98.789 57.0539 98.6684 57.2007C98.5479 57.3474 98.3996 57.4689 98.2321 57.5582C98.0645 57.6475 97.881 57.7029 97.692 57.7211C97.503 57.7393 97.3122 57.7201 97.1307 57.6644Z" fill="black"/>
<path d="M88.2577 29.1631C88.1493 30.0576 87.7781 30.8998 87.191 31.5833C86.604 32.2668 85.8275 32.7609 84.9596 33.0031C84.0918 33.2452 83.1716 33.2247 82.3155 32.9439C81.4593 32.6632 80.7057 32.1349 80.1498 31.4258C79.5939 30.7168 79.2607 29.8588 79.1924 28.9604C79.124 28.062 79.3236 27.1635 79.7659 26.3785C80.2082 25.5936 80.8733 24.9574 81.6772 24.5504C82.481 24.1434 83.3875 23.9839 84.282 24.0921C84.876 24.1639 85.4501 24.3521 85.9714 24.6458C86.4928 24.9396 86.9511 25.3332 87.3203 25.8041C87.6895 26.275 87.9623 26.814 88.1231 27.3904C88.284 27.9667 88.3297 28.5691 88.2577 29.1631Z" fill="white"/>
<path d="M84.2527 28.7809C84.2178 29.0743 84.0966 29.3507 83.9046 29.5751C83.7125 29.7996 83.4582 29.9621 83.1738 30.042C82.8894 30.1219 82.5876 30.1157 82.3068 30.024C82.0259 29.9324 81.7785 29.7596 81.5959 29.5273C81.4133 29.2951 81.3037 29.0139 81.281 28.7194C81.2582 28.4248 81.3233 28.1301 81.4681 27.8726C81.6128 27.6151 81.8307 27.4063 82.0942 27.2726C82.3576 27.1389 82.6548 27.0864 82.9481 27.1216C83.1429 27.1446 83.3312 27.2057 83.5023 27.3016C83.6733 27.3975 83.8238 27.5262 83.945 27.6804C84.0662 27.8345 84.1558 28.0111 84.2086 28.2C84.2614 28.3888 84.2764 28.5863 84.2527 28.7809Z" fill="black"/>
<path d="M71.6664 45.0422C71.2231 45.3224 70.7067 45.4649 70.1825 45.4517C69.6582 45.4384 69.1497 45.27 68.7212 44.9676C68.2926 44.6653 67.9634 44.2427 67.7751 43.7532C67.5868 43.2638 67.5479 42.7295 67.6633 42.2179C67.7787 41.7063 68.0432 41.2405 68.4234 40.8793C68.8036 40.5181 69.2824 40.2777 69.7992 40.1886C70.316 40.0995 70.8476 40.1657 71.3268 40.3788C71.806 40.5919 72.2112 40.9423 72.4912 41.3857C72.6775 41.6798 72.804 42.0078 72.8634 42.3509C72.9228 42.694 72.9139 43.0454 72.8373 43.385C72.7607 43.7247 72.6178 44.0459 72.4169 44.3302C72.216 44.6146 71.9609 44.8565 71.6664 45.0422Z" fill="black"/>
<path d="M10.4141 67.4507C10.8321 65.8274 11.6842 64.3485 12.8788 63.1726C14.084 61.9866 15.5106 61.049 17.0774 60.4132C17.8569 60.086 18.6613 59.8213 19.4829 59.6216C20.2825 59.4228 21.0875 59.2411 21.9047 59.0859C23.5289 58.7771 25.1563 58.5505 26.7832 58.3368C28.4102 58.1232 30.0488 57.9801 31.6768 57.8516C33.3049 57.7231 34.9563 57.6114 36.5759 57.5257C38.1955 57.44 39.8473 57.3774 41.479 57.3181C43.1107 57.2588 44.8839 57.3054 46.522 57.2063C44.9131 57.5927 43.1546 57.7298 41.5369 57.9677C39.9191 58.2057 38.2905 58.3782 36.6716 58.562L31.8031 59.1052C30.1846 59.276 28.569 59.449 26.9588 59.6702C25.3486 59.8914 23.7326 60.0774 22.1341 60.338C21.333 60.4647 20.5444 60.6049 19.7499 60.7719C18.9742 60.9334 18.2092 61.1423 17.4591 61.3973C15.9548 61.9032 14.5524 62.6724 13.3173 63.6691C12.0506 64.669 11.0528 65.9686 10.4141 67.4507Z" fill="#1F4753"/>
<path d="M72.107 68.237C69.8704 70.1319 67.3196 71.621 64.5699 72.6369C62.4858 73.4443 60.3395 74.0813 58.1523 74.5415C57.052 74.7773 55.9376 74.9418 54.8161 75.034C54.2538 75.0835 53.6879 75.1112 53.1185 75.117L51.4605 75.1264C49.2578 75.1401 47.06 75.184 44.873 75.3244C42.686 75.4648 40.5027 75.6434 38.3375 75.9637C36.176 76.2629 34.0379 76.7125 31.939 77.3094C29.8437 77.8966 27.8304 78.7449 25.9466 79.8342C24.0446 80.9316 22.4126 82.4414 21.1708 84.2524C22.2136 82.2581 23.7392 80.5565 25.6084 79.3031C27.4688 78.0334 29.5003 77.0348 31.6419 76.3373C35.9017 74.8914 40.3707 74.2925 44.8076 74.0169C47.0319 73.8988 49.255 73.8567 51.4767 73.8907L53.1321 73.9283C53.6714 73.9377 54.2094 73.9241 54.7499 73.8946C55.8252 73.8312 56.9064 73.7101 57.9781 73.5465C60.142 73.1899 62.2799 72.6902 64.3777 72.0507C66.4702 71.3986 70.0565 69.0658 72.107 68.237Z" fill="#1F4753"/>
</svg>
