<svg width="117" height="122" fill="none" xmlns="http://www.w3.org/2000/svg">
  <path d="M44.7 35.6c-.03.64-.01 1.27.06 1.9a19.5 19.5 0 001.45 5.45 24.7 24.7 0 003.92 6.3 35.71 35.71 0 005.43 5.1c2.03 1.54 4.07 3.1 6.08 4.7a50.08 50.08 0 015.86 5.19c.9.99 1.7 2.06 2.4 3.2.71 1.1 1.34 2.2 1.99 3.3a15.18 15.18 0 005.1 5.17 22.33 22.33 0 007 2.86 19.55 19.55 0 01-7.51-1.92c-1.2-.59-2.32-1.32-3.34-2.17a14.6 14.6 0 01-2.69-3c-1.47-2.12-2.77-4.3-4.46-6.01a35.73 35.73 0 00-2.75-2.5c-.97-.81-1.96-1.6-2.96-2.4l-6-4.78a31.42 31.42 0 01-5.49-5.66 22.98 22.98 0 01-3.6-7 18.55 18.55 0 01-.74-3.86c-.11-1.3-.03-2.6.25-3.87z" fill="#030000"/>
  <path d="M27.31 54.13c-3.11-.7-.06-1.65 4.14-2.67h-.18C9.87 52.84 10.4 67.46 10.4 67.46c3.23-7.17 9.59-8.5 29.45-9.58l.86-.06c-1.63-1.5-9.36-2.77-13.4-3.68z" fill="#35567B"/>
  <path d="M49.23 52.07a38.73 38.73 0 012.96-3.34c-1.2.4-2.44.74-3.68 1-4.6.99-10.06 1.29-17.05 1.73-4.2 1.02-8.42 2.35-5.3 3.05 4.05.91 12.92 1.8 14.54 3.32 1.74-.11 3.35-.27 4.85-.48a54.34 54.34 0 013.68-5.28z" fill="#45688F"/>
  <path d="M49.08 94.36c.7 1.49 4.76-1.9 6.68-3.64.28-.46.55-.93.83-1.44 2.75-4.95 4.98-9.04 7.23-12.41-2 .54-4.39.19-6.7-2.56a70.4 70.4 0 00-3.3 5.67c1.23 3.16-5.53 12.74-4.74 14.38z" fill="#336AA8"/>
  <path d="M55.76 90.73c-1.9 1.72-5 4.32-5.71 2.83-.79-1.64 5.01-10.42 3.78-13.56-9 16.46-12.7 20.37-20.6 21.3-.02 0 12.27 6.4 22.53-10.57z" fill="#45688F"/>
  <path d="M75.8 47.94L44.53 35.38s-1.5 7.1 4.99 14.42c.84-.68 2.16-.77 2.9.4a1.8 1.8 0 01-.17 2.28c8.1 7.18 12.54 7.47 18.2 17.15 5.86 10.01 13.79 9.57 16.72 7.72 2.92-1.86-11.35-29.41-11.35-29.41z" fill="#1F233F"/>
  <path d="M47.54 67.92l.63-1.14c-.75.06-1.52.12-2.33.15-2.15.12-4.11.24-5.93.37l-.72 1.23c.9-.12 1.84-.2 2.83-.27 1.97-.1 3.79-.23 5.52-.34z" fill="#2F5B8C"/>
  <path d="M66.8 46.05l-2.96 2.75a30.5 30.5 0 014.96-1.82c8.92-2.49 2.63-4.3-.98-5.02a38.3 38.3 0 01-1.01 4.09z" fill="#2BD5DF"/>
  <path d="M56.17 54.62a35.7 35.7 0 01-5.88 1.85c-1.42.34-3 .62-4.73.86-.53.87-1.07 1.79-1.61 2.76 2.56-.18 4.89-.4 7.03-.7.6-.07 1.19-.16 1.76-.26a40.44 40.44 0 013.43-4.51zM52.19 48.73a23.65 23.65 0 008.74-5.32c-1.07.14-4.37.96-8.74 5.32zM22.23 83.4s11.13 5.77 21.03-8.24c-3.07.21-6.13.59-9.16 1.12-3.82 4.9-7.08 6.56-11.87 7.12z" fill="#2F5B8C"/>
  <path d="M73.98 50.02c.36-2.89-.18-5.06-4.42-.3l.94-.38s1.69.24 3.48.68z" fill="#1F9DB4"/>
  <path d="M69.3 58.37l3.51-3.26.06-.19C66.44 56.85 62.5 60 58.89 64.87c8.53-2.59 10.42-6.5 10.42-6.5zM54.86 58.72c-.68.16-1.4.3-2.13.42-.43.65-.87 1.33-1.3 2.04-1.05 1.7-2.12 3.56-3.26 5.6l1.19-.1a61.41 61.41 0 012.5-3.98c.93-1.38 1.93-2.7 3-3.98z" fill="#45688F"/>
  <path d="M51.43 61.18c.44-.71.87-1.39 1.3-2.04a107.37 107.37 0 01-8.8.96c-2.05.15-4.26.28-6.65.44-21.4 1.36-20.86 15.98-20.86 15.98 3.86-6.17 8.47-8.1 23.5-9.2 1.82-.14 3.79-.26 5.94-.38.8-.04 1.56-.1 2.32-.15 1.13-2.05 2.2-3.91 3.25-5.61z" fill="#45688F"/>
  <path d="M65.74 41.6s.9.13 2.08.37c.6-3.38.46-6.77-4.56-.99-.73.85-1.51 1.66-2.33 2.43l.36-.03 4.45-1.77z" fill="#1F899B"/>
  <path d="M63.3 49.3l.54-.5 2.97-2.75c.4-1.34.75-2.7 1-4.08-1.16-.23-2.06-.37-2.06-.37l-4.46 1.77c-.12 0-.24.02-.35.04a23.65 23.65 0 01-8.75 5.31 38.7 38.7 0 00-2.96 3.35 54.32 54.32 0 00-3.68 5.27c1.74-.23 3.31-.52 4.73-.85a35.71 35.71 0 005.89-1.87c5.75-2.45 7.13-5.32 7.13-5.32z" fill="#3F6187"/>
  <path d="M72.87 54.91l.68-.2c7.84-2.19 3.94-3.83.43-4.7-.25 1.66-.62 3.3-1.1 4.9z" fill="#00B1BD"/>
  <path d="M44.68 75.05c-6.99 12.1-10.7 15.26-17.69 16.07 0 0 12.97 6.76 23.38-12l2.56-4.6c-.75.05-1.52.11-2.33.15-2.14.12-4.1.24-5.92.38z" fill="#336AA8"/>
  <path d="M58.9 64.87c3.6-4.88 7.54-8.02 13.97-9.96.5-1.6.86-3.24 1.1-4.9-1.78-.44-3.47-.67-3.47-.67l-.94.37-3.5 1.4s-4.77.03-11.2 7.6a48.36 48.36 0 00-3 3.98 66.75 66.75 0 00-2.5 3.98l-.66 1.16c1.68-.13 3.25-.25 4.73-.41 1.49-.17 2.78-.33 4.06-.56.47-.7.93-1.36 1.4-2z" fill="#35567B"/>
  <path d="M57.32 74A257.4 257.4 0 0153 82.47l-1.12 2.1-.56 1.05-.62 1.03c-.82 1.36-1.67 2.7-2.55 4.03a72.71 72.71 0 01-2.75 3.9 27.05 27.05 0 01-3.18 3.63 8.6 8.6 0 01-2.06 1.33c-.72.35-1.48.64-2.25.87-1.52.46-3.1.76-4.69.88 1.55-.29 3.08-.72 4.55-1.28.73-.28 1.44-.6 2.13-.98.67-.36 1.3-.81 1.84-1.34a29.84 29.84 0 002.98-3.61c.92-1.28 1.82-2.57 2.69-3.9.87-1.31 1.73-2.64 2.57-3.97l.62-1 .6-1.02 1.2-2.06c1.6-2.73 3.24-5.45 4.93-8.13z" fill="#006DE8"/>
  <path d="M63.82 76.88a33.19 33.19 0 015.92-6.86C67.2 71.5 63.22 73.08 57.33 74l-.21.3c2.3 2.77 4.7 3.13 6.7 2.59z" fill="#2F5B8C"/>
  <path d="M77.57 62.84l-3.5 3.26c-.4.7-.92 1.32-1.52 1.84a27.88 27.88 0 017.22-3.06c9.28-2.59 2.12-4.42-1.4-5.1-.36 1.66-.8 3.06-.8 3.06z" fill="#00B1BD"/>
  <path d="M76.72 59.51s.69.1 1.64.3c.8-3.62 1.18-8.38-4.35-2.02-1.34 1.58-2.85 3-4.49 4.26a7.83 7.83 0 012.74-.76l4.46-1.78z" fill="#1F899B"/>
  <path d="M65.65 64.41a29.94 29.94 0 01-8.16 2.46c-1.28.22-2.63.4-4.05.55-1.43.15-3.07.3-4.74.42l-1.16.08-5.5.35c-1 .06-1.93.16-2.83.27-18.53 2.41-18.04 15.7-18.04 15.7 2.98-4.5 5.9-6.63 12.93-7.96 3.03-.53 6.09-.9 9.16-1.12l1.41-.12c1.82-.13 3.79-.25 5.94-.37.8-.04 1.56-.1 2.32-.15 1.42-.12 2.74-.28 3.98-.46l.42-.06c3.07-4.75 5.94-7.73 8.32-9.59z" fill="#45688F"/>
  <path d="M69.64 70.07c.9-.78 1.88-1.5 2.9-2.12a7.26 7.26 0 001.53-1.85l3.5-3.25s.44-1.4.8-3.06c-.96-.18-1.64-.29-1.64-.29l-4.45 1.77c-.95.08-1.88.34-2.74.76-1.21.92-2.51 1.71-3.88 2.37-2.38 1.87-5.25 4.85-8.33 9.59 5.87-.9 9.76-2.44 12.3-3.92z" fill="#35567B"/>
  <path d="M69.53 62.04c-.9.8-1.89 1.51-2.94 2.1-1.06.6-2.15 1.13-3.28 1.59-2.26.9-4.61 1.56-7.01 1.98-2.4.43-4.82.66-7.26.7-1.21.04-2.44-.01-3.62-.03-1.19-.01-2.37.02-3.55.12a32.1 32.1 0 00-6.95 1.23c-2.25.65-4.4 1.64-6.36 2.93a17.47 17.47 0 00-4.93 4.95c-1.3 2.01-2.14 4.27-2.48 6.64-.1-2.3.74-4.82 1.93-6.97a17.14 17.14 0 014.89-5.46c2-1.44 4.22-2.55 6.58-3.27a32.26 32.26 0 017.21-1.35c1.22-.08 2.44-.1 3.67-.09 1.22.03 2.4.09 3.58.08 2.38 0 4.76-.16 7.12-.5 2.36-.31 4.69-.84 6.95-1.58 1.13-.37 2.25-.8 3.33-1.3 1.1-.49 2.14-1.08 3.12-1.77zM58.55 45.5c-.9.8-1.9 1.51-2.95 2.1-1.05.6-2.15 1.13-3.27 1.59-2.26.9-4.6 1.57-7 2-2.4.42-4.83.65-7.26.7-1.2.02-2.44-.03-3.62-.04a38 38 0 00-3.55.12c-2.35.15-4.68.57-6.95 1.23-2.25.64-4.39 1.63-6.35 2.91-1.96 1.3-3.64 3-4.93 4.96-1.3 1.98-1.9 4-2.25 6.38-.07-2.35.52-4.68 1.7-6.71a17.19 17.19 0 014.9-5.46c2-1.44 4.22-2.54 6.57-3.27a32.4 32.4 0 017.21-1.36c1.22-.1 2.44-.12 3.67-.1 1.22.02 2.4.08 3.58.08 2.38 0 4.75-.15 7.1-.47a39.9 39.9 0 006.95-1.58 29.2 29.2 0 003.32-1.3c1.1-.5 2.14-1.09 3.13-1.78z" fill="#006DE8"/>
  <path d="M83.12 40.07c8.27 13.08-8.63 27.9.85 38.72 1.37 0 2.57-.74 4.25-1.8 11.13-7.05 13.67-28.28 6.63-39.42-7.04-11.13-31.73-18.95-47.56-6.86-2.11 1.62-2.86 3.09-2.65 4.5 10.36-3.3 31.77-5.78 38.48 4.86z" fill="#284E79"/>
  <path d="M83.55 39.62c-6.72-10.63-28.55-7.71-38.9-4.4.84 5.57 16.65 10.2 22.27 19.07 5.98 9.46 9.36 24.47 17.07 24.47-9.5-10.8 7.83-26.07-.44-39.14z" fill="#336AA8"/>
  <path d="M89.38 58.99a2.5 2.5 0 11-2.66-4.21 2.5 2.5 0 012.66 4.2zM91.93 50.59a3.37 3.37 0 11-3.6-5.71 3.37 3.37 0 013.6 5.7zM92.56 41.52a2.11 2.11 0 11-2.25-3.57 2.11 2.11 0 012.25 3.57zM96.22 46.36a1.63 1.63 0 11-1.75-2.76 1.63 1.63 0 011.75 2.76zM87.5 42a1.63 1.63 0 11-1.75-2.75A1.63 1.63 0 0187.5 42zM83.22 47.5A2.08 2.08 0 1181 43.99a2.08 2.08 0 012.22 3.5zM51.32 28.15a22.5 22.5 0 00-3.83 2.82c-.55.51-1.05 1.07-1.48 1.69-.42.56-.7 1.22-.81 1.91-.1.64.05 1.3.4 1.85a7 7 0 001.43 1.54c1.17.96 2.4 1.84 3.69 2.64 5.16 3.33 10.72 6.4 15.13 11.18a19 19 0 012.81 4.04 77.41 77.41 0 011.92 4.3c1.18 2.88 2.38 5.71 3.69 8.47a45.28 45.28 0 002.18 4.02c.76 1.29 1.68 2.49 2.73 3.56 1 1.1 2.31 1.86 3.76 2.2 1.45.29 3.07-.15 4.44-.87-.66.48-1.38.87-2.14 1.16-.76.26-1.57.37-2.38.31a8 8 0 01-4.4-2c-2.47-2.12-4.19-4.85-5.71-7.58-1.53-2.74-2.8-5.62-4.09-8.43-.64-1.4-1.26-2.84-1.92-4.17a17.02 17.02 0 00-2.53-3.55 42.02 42.02 0 00-6.86-5.9c-2.48-1.8-5.09-3.48-7.62-5.33a32.61 32.61 0 01-3.69-3 8.16 8.16 0 01-1.55-2 3.88 3.88 0 01-.35-2.66c.21-.83.63-1.6 1.2-2.24.52-.61 1.12-1.16 1.77-1.63 1.3-.94 2.72-1.72 4.21-2.33zM95.96 63.2a6.6 6.6 0 113.84-12.64 6.6 6.6 0 01-3.84 12.65zM89.88 30.17a6.6 6.6 0 11-13.12-1.58 6.6 6.6 0 0113.12 1.58z" fill="#006DE8"/>
  <path d="M90.22 29.08a6.61 6.61 0 11-13.13-1.59 6.61 6.61 0 0113.13 1.59zM96.62 63.8a6.6 6.6 0 113.86-12.64 6.6 6.6 0 01-3.86 12.64z" fill="#284E79"/>
  <path d="M96.6 61.1a4.4 4.4 0 112.56-8.43 4.4 4.4 0 01-2.56 8.43z" fill="#fff"/>
  <path d="M97.13 57.66a1.44 1.44 0 11.85-2.75 1.44 1.44 0 01-.85 2.75z" fill="#000"/>
  <path d="M88.26 29.16a4.56 4.56 0 11-9.05-1.1 4.56 4.56 0 019.05 1.1z" fill="#fff"/>
  <path d="M84.25 28.78a1.5 1.5 0 11-2.96-.35 1.5 1.5 0 012.96.35z" fill="#000"/>
  <path d="M10.41 67.45a9.23 9.23 0 012.47-4.28 12.9 12.9 0 014.2-2.76c.78-.32 1.58-.59 2.4-.79.8-.2 1.6-.38 2.42-.53a85.94 85.94 0 019.78-1.24 190.7 190.7 0 019.8-.53c1.63-.06 3.4-.01 5.04-.11-1.6.38-3.37.52-4.98.76-1.62.24-3.25.4-4.87.6l-4.87.54c-1.62.17-3.23.34-4.84.56-1.61.22-3.23.4-4.83.67-.8.12-1.59.26-2.38.43-.78.16-1.54.37-2.3.63-1.5.5-2.9 1.27-4.13 2.27a9.72 9.72 0 00-2.9 3.78zM72.1 68.24a25.13 25.13 0 01-7.53 4.4 41.3 41.3 0 01-6.42 1.9 26.13 26.13 0 01-5.03.58h-1.66c-2.2.02-4.4.06-6.59.2-2.18.14-4.37.32-6.53.64-2.16.3-4.3.75-6.4 1.35-2.1.59-4.11 1.43-6 2.52a14.7 14.7 0 00-4.77 4.42c1.04-2 2.57-3.7 4.44-4.95a23.75 23.75 0 016.03-2.96c4.26-1.45 8.73-2.05 13.17-2.32 2.22-.12 4.45-.16 6.67-.13l1.65.04c.54 0 1.08 0 1.62-.04 1.08-.06 2.16-.18 3.23-.34 2.16-.36 4.3-.86 6.4-1.5 2.09-.65 5.68-2.98 7.73-3.81z" fill="#1F4753"/>
  <path d="M71.67 45.04a2.65 2.65 0 11-2.84-4.48 2.65 2.65 0 012.84 4.48z" fill="#000"/>
</svg>