<svg width="233" height="215" viewBox="0 0 233 215" fill="none" xmlns="http://www.w3.org/2000/svg">
<path d="M18.7136 172.056C17.7295 174.089 13.4986 174.08 9.25856 172.056C5.01851 170.033 2.38803 166.694 3.37216 164.698C4.35629 162.703 8.58714 162.666 12.8272 164.698C17.0672 166.731 19.6977 170.005 18.7136 172.056Z" fill="#A400A0"/>
<path d="M93.8386 209.84L93.7557 209.784L93.8386 209.84Z" fill="#A10094"/>
<path d="M95.7517 210.143C95.2022 210.192 94.6485 210.129 94.1237 209.959C94.6468 210.137 95.2021 210.2 95.7517 210.143Z" fill="#A10094"/>
<path d="M30.8726 94.255C50.868 114.489 88.0442 101.374 97.6371 74.2688C102.503 60.4726 87.9798 41.5074 93.3971 20.9235C96.9933 7.21921 122.176 6.79612 140.507 8.04698C136.24 6.28435 131.846 4.84548 127.363 3.74256C124.842 3.11601 122.262 2.75231 119.665 2.65726C71.5623 -3.65221 59.3204 31.1235 72.9327 53.9332C87.9982 79.2355 59.5228 95.9749 40.4748 86.7682C20.5347 77.1384 55.945 45.0576 42.6822 40.9924C42.0988 40.8205 41.4964 40.7216 40.8887 40.698C28.3893 58.256 14.7402 77.8926 30.8726 94.255Z" fill="#8A0072"/>
<path d="M73.5213 79.0975C74.4035 77.7922 75.0797 76.3591 75.5264 74.8483C75.9938 73.3557 76.2749 71.8111 76.3633 70.2495C76.5323 67.1722 76.0852 64.0922 75.0481 61.19C74.5522 59.7357 73.9528 58.3187 73.2546 56.95L71.1208 52.7191C69.5883 49.8933 68.2187 46.9821 67.0187 43.9999C66.4161 42.3866 66.0265 40.7015 65.8598 38.9873C65.7313 37.2911 65.7837 35.5861 66.0162 33.9011C66.2185 32.2547 66.522 30.6544 66.8439 29.0816C67.1658 27.5088 67.543 25.9085 68.012 24.3173C68.9174 21.066 70.3531 17.9864 72.2613 15.2026C74.2412 12.4298 76.7021 10.0343 79.5273 8.12975C82.2824 6.29843 85.2199 4.7573 88.2925 3.53101C89.8117 2.89278 91.3618 2.33103 92.9372 1.84787C94.5263 1.39067 96.142 1.03129 97.7751 0.771767C104.216 -0.231971 110.771 -0.256778 117.219 0.698187C123.593 1.57807 129.847 3.17634 135.862 5.46248C141.849 7.7014 147.507 10.7362 152.684 14.4852C147.135 11.4626 141.276 9.04804 135.209 7.28358C129.209 5.49598 123.047 4.30375 116.814 3.72416C110.68 3.09895 104.49 3.32801 98.4189 4.40477C96.9289 4.71749 95.4481 5.05779 94.0133 5.50847C92.5613 5.96156 91.1338 6.48959 89.7364 7.09043C86.926 8.24269 84.239 9.67556 81.7163 11.3673C79.2553 12.9843 77.1056 15.0312 75.37 17.41C73.6776 19.855 72.3831 22.5526 71.5347 25.4026C71.0656 26.8466 70.6701 28.3366 70.3114 29.8358C69.9527 31.335 69.6216 32.8618 69.3917 34.361C68.8489 37.2432 69.0194 40.2145 69.8883 43.0158C70.808 45.867 72.1785 48.7366 73.4109 51.6522L75.2504 56.0486C75.8929 57.5404 76.4247 59.0775 76.8416 60.6474C77.6868 63.8196 77.8714 67.1317 77.3842 70.3783C76.9355 73.5882 75.5974 76.6086 73.5213 79.0975Z" fill="#74005D"/>
<path d="M140.074 177.887C156.759 159.106 135.347 128.598 131.364 124.064C129.396 121.82 127.796 121.212 126.683 121.167C127.291 121.337 127.818 121.723 128.164 122.252C152.224 157.294 135.328 174.677 121.633 185.255C107.938 195.832 119.794 200.568 121.118 199.676C117.007 196.558 125.285 194.562 140.074 177.887Z" fill="#8A0072"/>
<path d="M19.2102 169.205C30.4404 171.542 52.8914 134.844 61.1048 127.173C65.906 122.818 69.6172 117.396 71.9394 111.344C71.9394 111.344 45.8001 131.505 36.0692 144.363C26.3383 157.221 20.2495 160.137 14.4919 152.641C10.8129 147.84 6.00264 150.277 2.96747 154.765C6.19579 161.084 10.7485 167.449 19.2102 169.205Z" fill="#8A0072"/>
<path d="M81.5967 130.824C84.8802 123.145 81.238 122.988 80.6769 123.016C81.0264 123.42 80.7505 124.616 79.6928 126.796C71.8933 142.937 66.5772 168.479 65.8966 184.519C65.3079 197.515 78.0557 203.181 81.7347 190.599C59.3664 187.334 77.9453 139.341 81.5967 130.824Z" fill="#8A0072"/>
<path d="M93.8386 209.84L93.7558 209.785C87.3175 206.501 100.985 181.272 106.448 169.518C112.491 156.522 106.283 130.236 105.529 124.892C104.995 121.066 103.689 120.633 102.972 120.689C103.12 121.027 103.19 121.395 103.174 121.765C103.303 131.192 109.06 150.507 101.454 170.097C93.066 191.702 82.1393 212.884 88.9363 214.245C90.5366 214.576 92.928 213.022 95.7332 210.097C95.1837 210.154 94.6284 210.091 94.1053 209.913C94.0151 209.893 93.9261 209.869 93.8386 209.84Z" fill="#8A0072"/>
<path d="M230.955 101.456C228.812 95.3033 225.629 95.1562 222.677 96.5082C220.525 97.4923 219.173 99.8377 218.998 104.602C221.343 99.8653 224.728 104.206 225.868 104.758C227.331 105.457 229.207 114.793 217.039 133.445C204.871 152.098 150.467 131.072 151.304 132.148C151.692 132.647 152.144 133.092 152.647 133.473C158.902 138.173 162.967 139.175 178.915 143.756C238.129 160.753 233.107 107.61 230.955 101.456Z" fill="#8A0072"/>
<path d="M152.316 133.216C163.132 156.43 158.957 187.287 121.118 199.649C117.035 196.531 124.255 193.606 139.063 176.931C155.747 158.15 135.384 128.571 131.364 124.036C129.396 121.792 127.796 121.185 126.683 121.139C124.623 120.311 121.1 120.964 123.684 137.492C127.198 159.962 107.736 197.598 95.7516 210.152C95.2021 210.201 94.6484 210.139 94.1237 209.968L93.8385 209.849L93.7557 209.794C87.3175 206.51 100.102 180.849 105.565 169.095C111.608 156.099 106.283 130.245 105.565 124.901C105.032 121.075 103.726 120.643 103.008 120.698C100.783 116.412 80.3642 153.146 82.498 178.642C82.9522 182.643 82.6811 186.693 81.6979 190.599C58.4282 192.88 76.6485 139.488 80.2907 130.971C83.5834 123.291 81.2564 122.988 80.6862 123.016C78.4696 120.431 50.5276 150.608 34.0365 167.973C14.9794 188.032 -0.343642 171.265 0.00586224 163.245C0.220874 160.215 1.24001 157.298 2.95825 154.793C6.19576 161.084 11.7326 165.83 21.6935 164.193C32.9972 162.289 51.9992 134.411 60.2218 126.74C65.0253 122.358 68.9952 117.142 71.9393 111.344C71.9393 111.344 36.9889 117.148 21.6015 95.6622C6.88556 75.115 27.4787 40.1646 40.9162 40.6981C28.4169 58.2561 17.9226 74.5724 34.0641 90.9255C54.0595 111.16 81.1644 101.043 90.7574 73.901C95.6229 60.1048 85.2389 41.4523 90.647 20.8499C94.2525 7.14567 122.204 6.77777 140.534 8.06541C169.663 20.1601 187.653 46.2809 165.763 74.6184C158.598 83.8986 151.534 86.7866 148.38 93.326C144.13 107.876 152.794 116.964 183.542 126.437C215.53 136.315 220.377 120.505 219.311 111.151C219.042 108.973 218.934 106.778 218.989 104.584C221.334 99.8471 224.912 101.631 225.951 102.349C228.628 104.188 232.307 116.219 220.138 134.871C207.97 153.524 151.773 132.434 151.773 132.434L152.316 133.216Z" fill="#A10094"/>
<path d="M86.4162 19.5805C89.1242 20.6487 91.4546 22.4961 93.1125 24.889C94.7704 27.2818 95.6813 30.1126 95.7301 33.0233C95.7789 35.934 94.9633 38.7937 93.3865 41.2408C91.8098 43.6879 89.5426 45.6123 86.872 46.7707C84.2013 47.929 81.247 48.2693 78.3829 47.7484C75.5188 47.2275 72.8736 45.8688 70.7818 43.8442C68.69 41.8197 67.2457 39.2202 66.6315 36.3747C66.0173 33.5291 66.2609 30.5653 67.3314 27.8582C68.7659 24.2308 71.5818 21.3214 75.1605 19.7692C78.7391 18.217 82.7876 18.1491 86.4162 19.5805Z" fill="#8A0072"/>
<path d="M81.5231 17.1708C84.2292 18.2376 86.5585 20.0824 88.2166 22.4722C89.8748 24.862 90.7876 27.6896 90.8396 30.5979C90.8917 33.5062 90.0808 36.3646 88.5092 38.8123C86.9377 41.2599 84.6759 43.1869 82.0098 44.3499C79.3437 45.5129 76.3927 45.8597 73.5296 45.3465C70.6665 44.8333 68.0197 43.4831 65.9235 41.4665C63.8273 39.4498 62.3758 36.8573 61.7522 34.0161C61.1286 31.175 61.361 28.2128 62.42 25.5037C63.1248 23.7005 64.1786 22.0541 65.5209 20.6588C66.8632 19.2636 68.4676 18.1469 70.2422 17.3728C72.0169 16.5987 73.9268 16.1824 75.8626 16.1477C77.7984 16.1131 79.7219 16.4607 81.5231 17.1708Z" fill="#A51888"/>
<path d="M80.6034 21.4662C82.4605 22.2031 84.0578 23.4733 85.194 25.1167C86.3302 26.7602 86.9543 28.7032 86.9878 30.7009C87.0212 32.6986 86.4624 34.6614 85.3818 36.3419C84.3012 38.0225 82.7473 39.3454 80.9159 40.144C79.0845 40.9426 77.0576 41.1811 75.0909 40.8294C73.1242 40.4777 71.3056 39.5515 69.8645 38.1677C68.4234 36.7838 67.4242 35.0043 66.9931 33.0534C66.5619 31.1025 66.718 29.0677 67.4418 27.2054C67.9252 25.9614 68.65 24.8253 69.5744 23.8627C70.4988 22.9 71.6046 22.1297 72.828 21.5963C74.0514 21.0628 75.3682 20.7767 76.7027 20.7543C78.0371 20.732 79.3628 20.9739 80.6034 21.4662Z" fill="white"/>
<path d="M77.5314 29.891C78.1447 30.131 78.6729 30.5476 79.0494 31.0879C79.4259 31.6282 79.6337 32.2681 79.6466 32.9265C79.6594 33.585 79.4767 34.2324 79.1215 34.787C78.7663 35.3416 78.2547 35.7784 77.6512 36.0421C77.0478 36.3059 76.3797 36.3848 75.7314 36.2688C75.0831 36.1528 74.4838 35.8472 74.0092 35.3906C73.5347 34.934 73.2062 34.3469 73.0653 33.7036C72.9244 33.0603 72.9775 32.3896 73.2178 31.7764C73.5399 30.9545 74.1753 30.2941 74.9842 29.9406C75.7931 29.587 76.7094 29.5692 77.5314 29.891Z" fill="black"/>
<path d="M176.009 59.1761C174.863 61.8522 172.948 64.1281 170.508 65.716C168.068 67.3039 165.212 68.1323 162.301 68.0965C159.389 68.0606 156.554 67.1622 154.154 65.5147C151.754 63.8673 149.896 61.5449 148.816 58.8414C147.736 56.1379 147.482 53.1747 148.086 50.3269C148.691 47.479 150.126 44.8744 152.211 42.8425C154.296 40.8106 156.937 39.4428 159.799 38.9122C162.662 38.3815 165.617 38.7118 168.292 39.8613C171.875 41.4012 174.7 44.3003 176.147 47.9219C177.594 51.5434 177.544 55.5912 176.009 59.1761Z" fill="#8A0072"/>
<path d="M181.113 56.7107C179.968 59.3869 178.054 61.6632 175.615 63.2517C173.175 64.8401 170.319 65.6694 167.409 65.6345C164.498 65.5996 161.663 64.7022 159.262 63.0558C156.861 61.4093 155.003 59.0878 153.921 56.385C152.84 53.6821 152.585 50.7193 153.188 47.8713C153.791 45.0234 155.225 42.4183 157.309 40.3855C159.393 38.3528 162.033 36.9837 164.895 36.4516C167.757 35.9194 170.712 36.2481 173.388 37.396C176.972 38.9341 179.8 41.8325 181.248 45.4542C182.697 49.0759 182.648 53.1247 181.113 56.7107Z" fill="#A51888"/>
<path d="M176.846 55.6531C176.052 57.4871 174.732 59.0448 173.053 60.1296C171.375 61.2145 169.413 61.7779 167.414 61.7488C165.416 61.7197 163.471 61.0994 161.825 59.9661C160.179 58.8329 158.905 57.2374 158.165 55.3811C157.424 53.5248 157.25 51.4907 157.664 49.5356C158.078 47.5804 159.063 45.7917 160.492 44.3952C161.922 42.9987 163.733 42.0569 165.697 41.6886C167.662 41.3204 169.691 41.5421 171.53 42.326C172.756 42.8489 173.867 43.6092 174.799 44.5631C175.731 45.5169 176.465 46.6456 176.959 47.8841C177.453 49.1226 177.697 50.4466 177.678 51.7799C177.658 53.1132 177.376 54.4295 176.846 55.6531Z" fill="white"/>
<path d="M168.513 52.3236C168.254 52.9292 167.821 53.4444 167.269 53.8039C166.717 54.1635 166.071 54.3512 165.412 54.3434C164.754 54.3356 164.112 54.1326 163.569 53.7601C163.026 53.3876 162.605 52.8623 162.36 52.2507C162.116 51.6391 162.058 50.9687 162.194 50.3243C162.331 49.6799 162.656 49.0904 163.127 48.6305C163.599 48.1706 164.196 47.861 164.844 47.7407C165.491 47.6204 166.16 47.6949 166.765 47.9548C167.576 48.3029 168.215 48.9585 168.543 49.7776C168.871 50.5968 168.86 51.5125 168.513 52.3236Z" fill="black"/>
<path d="M137.941 79.8703C137.513 80.7549 136.833 81.4928 135.986 81.9908C135.139 82.4888 134.164 82.7245 133.183 82.668C132.202 82.6115 131.26 82.2654 130.476 81.6734C129.692 81.0815 129.101 80.2703 128.778 79.3425C128.455 78.4147 128.414 77.4119 128.661 76.461C128.908 75.5101 129.432 74.6538 130.165 74.0005C130.899 73.3471 131.81 72.926 132.783 72.7904C133.756 72.6549 134.748 72.8109 135.632 73.2389C136.817 73.8124 137.726 74.8332 138.159 76.0767C138.592 77.3202 138.513 78.6847 137.941 79.8703Z" fill="black"/>
<path d="M138.796 12.8208C138.796 12.8208 106.448 10.8341 101.684 16.1779C96.9198 21.5216 122.526 28.4289 137.876 26.0192C153.227 23.6094 150.256 15.0834 138.796 12.8208Z" fill="#A400A0"/>
<path d="M18.686 77.9755C18.686 77.9755 18.8791 92.2316 31.2865 100.877C43.6939 109.523 67.3222 110.553 69.0881 109.155C70.854 107.757 69.502 106.479 66.7336 106.249C63.9651 106.019 46.4163 106.8 30.8634 94.2183C21.9419 87.0259 20.9945 70.4612 18.686 77.9755Z" fill="#A400A0"/>
<path d="M119.674 143.876C120.254 148.962 117.522 169.408 109.778 181.677C102.034 193.947 112.923 165.122 112.399 158.923C111.01 142.229 109.64 126.281 111.479 123.908C113.319 121.535 116.685 117.681 119.674 143.876Z" fill="#A400A0"/>
<path d="M144.25 97.6122C144.25 97.6122 140.065 105.504 152.316 115.455C164.567 125.407 194.358 131.376 194.358 131.376C194.358 131.376 176.726 133.685 163.647 128.47C150.569 123.255 133.562 116.301 144.25 97.6122Z" fill="#A400A0"/>
<path d="M71.9394 111.344C67.1751 115.842 62.3648 120.238 57.5821 124.662C55.2184 126.897 52.8086 129.086 50.4817 131.349C48.1547 133.611 45.8001 135.837 43.5651 138.164C41.299 140.435 39.1502 142.82 37.1269 145.31C36.621 145.917 36.1244 146.543 35.6645 147.15C35.2046 147.757 34.6804 148.493 34.1561 149.146C33.1048 150.461 31.9516 151.691 30.7071 152.825C29.4577 154.003 28.0675 155.022 26.5682 155.86C25.0342 156.73 23.3244 157.246 21.5648 157.368C19.779 157.463 18.02 156.904 16.6165 155.795C15.158 154.636 14.0343 153.109 13.3606 151.371C16.9292 155.372 19.9644 156.173 21.4268 155.924C22.9201 155.666 24.3371 155.079 25.5749 154.204C26.8588 153.331 28.0404 152.316 29.0975 151.178C30.1724 150.013 31.1768 148.784 32.1051 147.499C32.5649 146.865 33.0248 146.221 33.4571 145.531C33.8894 144.841 34.4228 144.151 34.9287 143.48C36.9713 140.871 39.1575 138.378 41.4773 136.012C46.1065 131.35 50.9918 126.95 56.1105 122.832C61.1739 118.717 66.4581 114.882 71.9394 111.344Z" fill="#74005D"/>
<path d="M25.3082 80.3579C24.9345 81.1312 24.3399 81.7764 23.5995 82.2117C22.859 82.647 22.0061 82.8529 21.1486 82.8034C20.2912 82.7538 19.4677 82.451 18.7823 81.9332C18.097 81.4155 17.5807 80.7061 17.2987 79.8948C17.0166 79.0835 16.9816 78.2068 17.198 77.3756C17.4144 76.5444 17.8725 75.7961 18.5144 75.2253C19.1562 74.6546 19.9529 74.287 20.8037 74.1692C21.6545 74.0514 22.5211 74.1886 23.2939 74.5635C23.8071 74.8111 24.2665 75.1575 24.6457 75.583C25.0248 76.0084 25.3163 76.5045 25.5034 77.0427C25.6905 77.581 25.7696 78.1509 25.7361 78.7197C25.7026 79.2886 25.5571 79.8453 25.3082 80.3579Z" fill="#74005D"/>
<path d="M29.5113 93.4456C29.1372 94.2159 28.5432 94.8579 27.8043 95.2908C27.0655 95.7236 26.2149 95.9277 25.3601 95.8774C24.5053 95.827 23.6845 95.5245 23.0016 95.008C22.3186 94.4914 21.804 93.7841 21.5229 92.9753C21.2417 92.1664 21.2066 91.2924 21.4219 90.4636C21.6372 89.6348 22.0933 88.8884 22.7326 88.3187C23.3719 87.749 24.1656 87.3815 25.0137 87.2627C25.8617 87.1439 26.7259 87.2791 27.4971 87.6512C28.5319 88.1532 29.3253 89.0453 29.7029 90.1317C30.0806 91.2181 30.0117 92.41 29.5113 93.4456Z" fill="#74005D"/>
<path d="M40.0608 103.361C39.6867 104.131 39.0927 104.773 38.3538 105.206C37.615 105.638 36.7644 105.843 35.9096 105.792C35.0548 105.742 34.234 105.439 33.5511 104.923C32.8681 104.406 32.3535 103.699 32.0724 102.89C31.7912 102.081 31.7561 101.207 31.9714 100.379C32.1867 99.5497 32.6428 98.8034 33.2821 98.2336C33.9214 97.6639 34.7151 97.2965 35.5632 97.1776C36.4112 97.0588 37.2754 97.194 38.0466 97.5661C39.0814 98.0681 39.8748 98.9602 40.2524 100.047C40.6301 101.133 40.5612 102.325 40.0608 103.361Z" fill="#74005D"/>
<path d="M57.1682 108.953C56.794 109.723 56.2 110.365 55.4611 110.798C54.7223 111.231 53.8717 111.435 53.0169 111.384C52.1621 111.334 51.3413 111.031 50.6584 110.515C49.9754 109.998 49.4608 109.291 49.1797 108.482C48.8985 107.673 48.8634 106.799 49.0787 105.971C49.294 105.142 49.7501 104.395 50.3894 103.826C51.0287 103.256 51.8224 102.888 52.6704 102.77C53.5185 102.651 54.3827 102.786 55.1539 103.158C55.6672 103.406 56.1265 103.752 56.5056 104.178C56.8848 104.603 57.1762 105.099 57.3633 105.637C57.5505 106.176 57.6295 106.746 57.596 107.314C57.5625 107.883 57.4171 108.44 57.1682 108.953Z" fill="#74005D"/>
<path d="M36.2807 102.34C36.1103 102.644 35.8303 102.872 35.4976 102.977C35.165 103.082 34.8049 103.056 34.4906 102.905C34.1763 102.754 33.9315 102.488 33.8061 102.163C33.6808 101.837 33.6842 101.476 33.8158 101.153C33.9862 100.849 34.2662 100.621 34.5989 100.516C34.9315 100.411 35.2916 100.437 35.6059 100.588C35.9202 100.739 36.165 101.005 36.2903 101.33C36.4157 101.656 36.4123 102.017 36.2807 102.34Z" fill="#A400A0"/>
<path d="M26.4302 91.3302C26.3103 91.5699 26.1223 91.7688 25.8898 91.902C25.6573 92.0352 25.3907 92.0969 25.1233 92.0792C24.8559 92.0616 24.5997 91.9654 24.3867 91.8028C24.1738 91.6401 24.0136 91.4182 23.9262 91.1649C23.8388 90.9116 23.8281 90.6381 23.8955 90.3788C23.9628 90.1194 24.1052 89.8857 24.3049 89.7069C24.5045 89.5282 24.7524 89.4123 25.0176 89.3738C25.2828 89.3354 25.5534 89.376 25.7956 89.4907C25.9594 89.5683 26.1061 89.6778 26.227 89.8128C26.3479 89.9479 26.4407 90.1057 26.4998 90.277C26.5589 90.4484 26.5832 90.6298 26.5712 90.8106C26.5593 90.9915 26.5114 91.1681 26.4302 91.3302Z" fill="#A400A0"/>
<path d="M22.5213 78.7388C22.4014 78.9784 22.2134 79.1773 21.9809 79.3106C21.7484 79.4438 21.4817 79.5055 21.2144 79.4878C20.947 79.4702 20.6908 79.374 20.4778 79.2113C20.2648 79.0487 20.1046 78.8268 20.0173 78.5735C19.9299 78.3202 19.9192 78.0467 19.9865 77.7873C20.0539 77.528 20.1963 77.2943 20.3959 77.1155C20.5955 76.9367 20.8435 76.8209 21.1087 76.7824C21.3739 76.7439 21.6445 76.7846 21.8867 76.8993C22.0513 76.9759 22.1989 77.0849 22.3205 77.2197C22.4422 77.3546 22.5354 77.5126 22.5946 77.6843C22.6538 77.856 22.6779 78.0378 22.6653 78.219C22.6527 78.4002 22.6037 78.577 22.5213 78.7388Z" fill="#A400A0"/>
<path d="M54.5929 107.269C54.473 107.509 54.285 107.708 54.0525 107.841C53.82 107.974 53.5533 108.036 53.286 108.018C53.0186 108.001 52.7623 107.904 52.5494 107.742C52.3364 107.579 52.1762 107.357 52.0888 107.104C52.0014 106.851 51.9908 106.577 52.0581 106.318C52.1255 106.059 52.2679 105.825 52.4675 105.646C52.6671 105.467 52.9151 105.351 53.1803 105.313C53.4454 105.274 53.7161 105.315 53.9583 105.43C54.1212 105.508 54.267 105.618 54.3873 105.754C54.5075 105.889 54.5997 106.046 54.6587 106.217C54.7177 106.388 54.7423 106.569 54.731 106.75C54.7197 106.93 54.6728 107.107 54.5929 107.269Z" fill="#A400A0"/>
<path d="M178.106 138.08C177.732 138.851 177.138 139.493 176.399 139.926C175.66 140.358 174.809 140.563 173.955 140.512C173.1 140.462 172.279 140.159 171.596 139.643C170.913 139.126 170.399 138.419 170.117 137.61C169.836 136.801 169.801 135.927 170.016 135.098C170.232 134.27 170.688 133.523 171.327 132.954C171.966 132.384 172.76 132.016 173.608 131.898C174.456 131.779 175.32 131.914 176.092 132.286C177.126 132.788 177.92 133.68 178.297 134.767C178.675 135.853 178.606 137.045 178.106 138.08Z" fill="#74005D"/>
<path d="M175.531 136.398C175.411 136.637 175.223 136.836 174.99 136.969C174.758 137.103 174.491 137.164 174.224 137.147C173.956 137.129 173.7 137.033 173.487 136.87C173.274 136.708 173.114 136.486 173.026 136.232C172.939 135.979 172.928 135.706 172.996 135.446C173.063 135.187 173.206 134.953 173.405 134.774C173.605 134.596 173.853 134.48 174.118 134.441C174.383 134.403 174.654 134.444 174.896 134.558C175.06 134.636 175.206 134.745 175.327 134.88C175.448 135.015 175.541 135.173 175.6 135.345C175.659 135.516 175.684 135.697 175.672 135.878C175.66 136.059 175.612 136.236 175.531 136.398Z" fill="#A400A0"/>
<path d="M190.633 141.834C190.26 142.607 189.666 143.253 188.926 143.689C188.187 144.125 187.334 144.331 186.477 144.283C185.619 144.234 184.796 143.933 184.11 143.416C183.424 142.899 182.907 142.191 182.624 141.38C182.341 140.569 182.304 139.693 182.519 138.861C182.734 138.03 183.191 137.281 183.832 136.709C184.473 136.138 185.269 135.769 186.119 135.65C186.969 135.53 187.836 135.666 188.609 136.039C189.646 136.539 190.441 137.431 190.821 138.517C191.2 139.604 191.133 140.797 190.633 141.834Z" fill="#74005D"/>
<path d="M188.058 140.151C187.938 140.39 187.75 140.589 187.517 140.722C187.285 140.856 187.018 140.917 186.751 140.9C186.483 140.882 186.227 140.786 186.014 140.623C185.801 140.461 185.641 140.239 185.553 139.985C185.466 139.732 185.455 139.459 185.523 139.199C185.59 138.94 185.733 138.706 185.932 138.527C186.132 138.349 186.38 138.233 186.645 138.194C186.91 138.156 187.181 138.196 187.423 138.311C187.587 138.389 187.733 138.498 187.854 138.633C187.975 138.768 188.068 138.926 188.127 139.097C188.186 139.269 188.21 139.45 188.199 139.631C188.187 139.812 188.139 139.989 188.058 140.151Z" fill="#A400A0"/>
<path d="M203.307 143.618C202.933 144.388 202.339 145.03 201.6 145.463C200.861 145.896 200.011 146.1 199.156 146.049C198.301 145.999 197.48 145.696 196.797 145.18C196.114 144.663 195.6 143.956 195.318 143.147C195.037 142.338 195.002 141.464 195.217 140.636C195.433 139.807 195.889 139.06 196.528 138.491C197.167 137.921 197.961 137.554 198.809 137.435C199.657 137.316 200.522 137.451 201.293 137.823C202.328 138.325 203.121 139.217 203.499 140.304C203.876 141.39 203.807 142.582 203.307 143.618Z" fill="#74005D"/>
<path d="M200.704 141.935C200.584 142.174 200.396 142.373 200.164 142.507C199.931 142.64 199.664 142.702 199.397 142.684C199.13 142.666 198.873 142.57 198.661 142.407C198.448 142.245 198.287 142.023 198.2 141.77C198.113 141.516 198.102 141.243 198.169 140.983C198.237 140.724 198.379 140.49 198.579 140.312C198.778 140.133 199.026 140.017 199.291 139.978C199.557 139.94 199.827 139.981 200.069 140.095C200.233 140.173 200.38 140.282 200.501 140.417C200.622 140.552 200.714 140.71 200.774 140.882C200.833 141.053 200.857 141.234 200.845 141.415C200.833 141.596 200.785 141.773 200.704 141.935Z" fill="#A400A0"/>
<path d="M215.926 141.291C215.552 142.064 214.958 142.71 214.217 143.145C213.477 143.58 212.624 143.786 211.766 143.736C210.909 143.687 210.085 143.384 209.4 142.866C208.715 142.349 208.198 141.639 207.916 140.828C207.634 140.017 207.599 139.14 207.816 138.309C208.032 137.478 208.49 136.729 209.132 136.158C209.774 135.588 210.571 135.22 211.421 135.102C212.272 134.985 213.139 135.122 213.912 135.497C214.425 135.744 214.884 136.091 215.263 136.516C215.643 136.941 215.934 137.438 216.121 137.976C216.308 138.514 216.387 139.084 216.354 139.653C216.32 140.222 216.175 140.778 215.926 141.291Z" fill="#74005D"/>
<path d="M213.36 139.599C213.24 139.842 213.052 140.043 212.818 140.179C212.584 140.315 212.315 140.378 212.044 140.361C211.774 140.345 211.515 140.248 211.3 140.084C211.085 139.92 210.923 139.696 210.835 139.441C210.746 139.185 210.736 138.909 210.804 138.647C210.873 138.385 211.017 138.15 211.219 137.97C211.422 137.79 211.672 137.674 211.94 137.636C212.208 137.599 212.481 137.642 212.725 137.759C212.888 137.838 213.034 137.948 213.154 138.083C213.274 138.218 213.367 138.376 213.426 138.547C213.485 138.718 213.509 138.899 213.498 139.079C213.487 139.26 213.44 139.436 213.36 139.599Z" fill="#A400A0"/>
</svg>
