<svg width="233" height="215" fill="none" xmlns="http://www.w3.org/2000/svg">
  <path d="M18.71 172.06c-.98 2.03-5.21 2.02-9.45 0-4.24-2.03-6.87-5.37-5.89-7.36.99-2 5.22-2.03 9.46 0 4.24 2.03 6.87 5.3 5.88 7.36z" fill="#A400A0"/>
  <path d="M93.84 209.84l-.08-.06.08.06zM95.75 210.14z" fill="#A10094"/>
  <path d="M30.87 94.25c20 20.24 57.17 7.12 66.77-19.98 4.86-13.8-9.66-32.76-4.24-53.35C97 7.22 122.18 6.8 140.5 8.05a91.93 91.93 0 00-13.14-4.3c-2.52-.63-5.1-1-7.7-1.1-48.1-6.3-60.34 28.47-46.73 51.28C88 79.23 59.53 95.97 40.47 86.77c-19.94-9.63 15.47-41.71 2.21-45.78a7.36 7.36 0 00-1.8-.3c-12.5 17.57-26.14 37.2-10 53.56z" fill="#8A0072"/>
  <path d="M73.52 79.1c.88-1.3 1.56-2.74 2-4.25.47-1.5.75-3.04.84-4.6.17-3.08-.27-6.16-1.31-9.06-.5-1.45-1.1-2.87-1.8-4.24l-2.13-4.23a84.34 84.34 0 01-4.1-8.72c-.6-1.61-1-3.3-1.16-5.01-.13-1.7-.08-3.4.16-5.09.2-1.65.5-3.25.82-4.82.33-1.57.7-3.17 1.17-4.76.9-3.25 2.34-6.33 4.25-9.12a28.51 28.51 0 017.27-7.07 47.93 47.93 0 018.76-4.6c1.52-.64 3.07-1.2 4.65-1.68 1.59-.46 3.2-.82 4.84-1.08 6.44-1 13-1.03 19.44-.07a85.3 85.3 0 0118.64 4.76 71.2 71.2 0 0116.82 9.03 87.77 87.77 0 00-17.47-7.2 95.34 95.34 0 00-18.4-3.57 66.64 66.64 0 00-18.4.68c-1.48.32-2.96.66-4.4 1.1-1.45.46-2.88.99-4.27 1.59a45.16 45.16 0 00-8.02 4.28 24.53 24.53 0 00-6.35 6.04 28.16 28.16 0 00-3.84 8 58.23 58.23 0 00-1.22 4.43c-.36 1.5-.69 3.02-.92 4.52-.54 2.88-.37 5.85.5 8.66.92 2.85 2.29 5.72 3.52 8.63l1.84 4.4c.64 1.49 1.17 3.03 1.6 4.6.84 3.17 1.02 6.48.53 9.73a17.37 17.37 0 01-3.86 8.72z" fill="#74005D"/>
  <path d="M140.07 177.89c16.69-18.78-4.72-49.3-8.7-53.83-1.97-2.24-3.57-2.85-4.69-2.9.61.18 1.14.56 1.48 1.1 24.06 35.03 7.17 52.42-6.53 63-13.7 10.57-1.84 15.3-.51 14.42-4.11-3.12 4.16-5.12 18.95-21.8zM19.21 169.2c11.23 2.34 33.68-34.36 41.9-42.03a41.39 41.39 0 0010.83-15.83S45.8 131.5 36.07 144.36c-9.73 12.86-15.82 15.78-21.58 8.28-3.68-4.8-8.49-2.36-11.52 2.13 3.23 6.31 7.78 12.68 16.24 14.44zM81.6 130.82c3.28-7.67-.36-7.83-.92-7.8.35.4.07 1.6-.99 3.78-7.8 16.14-13.11 41.68-13.8 57.72-.58 13 12.17 18.66 15.84 6.08-22.36-3.27-3.78-51.26-.13-59.78zM93.84 209.84l-.08-.06c-6.44-3.28 7.22-28.5 12.69-40.26 6.04-13-.17-39.28-.92-44.63-.53-3.82-1.84-4.26-2.56-4.2.15.34.22.7.2 1.08.13 9.42 5.9 28.74-1.72 48.33-8.38 21.6-19.31 42.78-12.51 44.15 1.6.33 3.99-1.23 6.8-4.15-.56.05-1.11 0-1.63-.19a2.72 2.72 0 01-.27-.07zM230.96 101.46c-2.15-6.16-5.33-6.3-8.28-4.95-2.16.98-3.5 3.33-3.68 8.1 2.34-4.74 5.73-.4 6.87.15 1.46.7 3.34 10.03-8.83 28.68-12.17 18.66-66.57-2.37-65.74-1.3.4.5.84.95 1.35 1.33 6.25 4.7 10.32 5.7 26.26 10.29 59.22 17 54.2-36.15 52.05-42.3z" fill="#8A0072"/>
  <path d="M152.32 133.22c10.81 23.21 6.64 54.07-31.2 66.43-4.09-3.12 3.13-6.04 17.94-22.72 16.69-18.78-3.68-48.36-7.7-52.9-1.96-2.24-3.56-2.84-4.68-2.9-2.06-.82-5.58-.17-3 16.36 3.52 22.47-15.94 60.1-27.93 72.66-.55.05-1.1-.01-1.63-.18l-.28-.12-.08-.06c-6.44-3.28 6.34-28.94 11.8-40.7 6.05-13 .72-38.84 0-44.19-.53-3.83-1.83-4.26-2.55-4.2-2.23-4.29-22.65 32.45-20.51 57.94.45 4 .18 8.05-.8 11.96-23.27 2.28-5.05-51.11-1.4-59.63 3.28-7.68.96-7.98.39-7.95-2.22-2.59-30.16 27.59-46.65 44.95-19.06 20.06-34.38 3.3-34.03-4.72a17.08 17.08 0 012.95-8.46c3.24 6.3 8.77 11.04 18.73 9.4 11.3-1.9 30.3-29.78 38.53-37.45 4.8-4.38 8.78-9.6 11.72-15.4 0 0-34.95 5.8-50.34-15.68C6.9 75.11 27.48 40.16 40.92 40.7c-12.5 17.56-23 33.87-6.86 50.23 20 20.23 47.1 10.11 56.7-17.03 4.86-13.8-5.52-32.45-.11-53.05 3.6-13.7 31.55-14.07 49.88-12.78 29.13 12.09 47.12 38.21 25.23 66.55-7.16 9.28-14.23 12.17-17.38 18.7-4.25 14.56 4.41 23.64 35.16 33.12 31.99 9.88 36.84-5.94 35.77-15.29a44.48 44.48 0 01-.32-6.57c2.34-4.73 5.92-2.95 6.96-2.23 2.68 1.84 6.36 13.87-5.81 32.52-12.17 18.65-68.37-2.44-68.37-2.44l.55.79z" fill="#A10094"/>
  <path d="M86.42 19.58a14.72 14.72 0 11-10.8 27.38 14.72 14.72 0 0110.8-27.38z" fill="#8A0072"/>
  <path d="M81.52 17.17a14.72 14.72 0 11-10.8 27.38 14.72 14.72 0 0110.8-27.38z" fill="#A51888"/>
  <path d="M80.6 21.47a10.12 10.12 0 11-7.46 18.8 10.12 10.12 0 017.46-18.8z" fill="#fff"/>
  <path d="M77.53 29.9a3.33 3.33 0 11-2.43 6.2 3.33 3.33 0 012.43-6.2z" fill="#000"/>
  <path d="M176 59.18a14.72 14.72 0 11-27.05-11.6A14.72 14.72 0 01176 59.18z" fill="#8A0072"/>
  <path d="M181.11 56.71a14.71 14.71 0 11-27.05-11.58 14.71 14.71 0 0127.05 11.58z" fill="#A51888"/>
  <path d="M176.85 55.65a10.12 10.12 0 11-18.57-8.04 10.12 10.12 0 0118.57 8.04z" fill="#fff"/>
  <path d="M168.51 52.32a3.33 3.33 0 11-6.12-2.61 3.33 3.33 0 016.12 2.61z" fill="#000"/>
  <path d="M139 73c-3.69-.96-4.85 8.14-10.75 1.97-2.61-3.37-8.8-7.95-2.53 2.46 5.06 8.42 13.28 0 13.28-4.43z" fill="#000" stroke="#000"/>
  <path d="M138.8 12.82s-32.35-1.99-37.12 3.36c-4.76 5.34 20.85 12.25 36.2 9.84 15.35-2.41 12.38-10.94.92-13.2zM18.69 77.98s.19 14.25 12.6 22.9c12.4 8.64 36.03 9.67 37.8 8.28 1.76-1.4.41-2.68-2.36-2.91-2.76-.23-20.31.55-35.87-12.03-8.92-7.2-9.87-23.76-12.17-16.24zM119.67 143.88c.58 5.08-2.15 25.53-9.9 37.8-7.74 12.27 3.15-16.56 2.63-22.76-1.39-16.7-2.76-32.64-.92-35.01 1.84-2.38 5.2-6.23 8.2 19.97zM144.25 97.61s-4.19 7.9 8.07 17.84c12.25 9.96 42.04 15.93 42.04 15.93s-17.63 2.3-30.71-2.91c-13.08-5.22-30.09-12.17-19.4-30.86z" fill="#A400A0"/>
  <path d="M71.94 111.34c-4.76 4.5-9.58 8.9-14.36 13.32-2.36 2.24-4.77 4.43-7.1 6.69-2.33 2.26-4.68 4.49-6.91 6.81a94.38 94.38 0 00-7.9 8.99c-.47.6-.99 1.34-1.51 2a32.07 32.07 0 01-3.45 3.67 20.89 20.89 0 01-4.14 3.04 11.8 11.8 0 01-5 1.5 7.35 7.35 0 01-4.95-1.57 10.5 10.5 0 01-3.26-4.42c3.57 4 6.6 4.8 8.07 4.55a10.2 10.2 0 004.14-1.72 20.67 20.67 0 003.53-3.02 39.77 39.77 0 004.36-5.65c.43-.69.96-1.38 1.47-2.05 2.04-2.6 4.23-5.1 6.55-7.47a176.8 176.8 0 0114.63-13.18 179.11 179.11 0 0115.83-11.49zM25.3 80.36a4.34 4.34 0 11-7.8-3.78 4.34 4.34 0 017.8 3.78zM29.51 93.45a4.33 4.33 0 11-7.8-3.79 4.33 4.33 0 017.8 3.79zM40.06 103.36a4.33 4.33 0 11-7.8-3.79 4.33 4.33 0 017.8 3.8zM57.17 108.95a4.33 4.33 0 11-7.8-3.79 4.33 4.33 0 017.8 3.8z" fill="#74005D"/>
  <path d="M36.28 102.34a1.37 1.37 0 01-2.46-1.19 1.37 1.37 0 012.46 1.19zM26.43 91.33A1.36 1.36 0 1124 90.11a1.36 1.36 0 012.43 1.22zM22.52 78.74a1.36 1.36 0 11-2.43-1.22 1.36 1.36 0 012.43 1.22zM54.6 107.27a1.36 1.36 0 11-2.44-1.21 1.36 1.36 0 012.43 1.2z" fill="#A400A0"/>
  <path d="M178.1 138.08a4.33 4.33 0 11-7.78-3.78 4.33 4.33 0 017.79 3.78z" fill="#74005D"/>
  <path d="M175.53 136.4a1.36 1.36 0 11-2.43-1.22 1.36 1.36 0 012.43 1.22z" fill="#A400A0"/>
  <path d="M190.63 141.83a4.34 4.34 0 11-7.82-3.77 4.34 4.34 0 017.82 3.77z" fill="#74005D"/>
  <path d="M188.06 140.15a1.35 1.35 0 01-1.3.75 1.36 1.36 0 111.3-.75z" fill="#A400A0"/>
  <path d="M203.3 143.62a4.33 4.33 0 11-7.79-3.79 4.33 4.33 0 017.8 3.79z" fill="#74005D"/>
  <path d="M200.7 141.94a1.37 1.37 0 01-1.3.74 1.36 1.36 0 111.3-.75z" fill="#A400A0"/>
  <path d="M215.93 141.3a4.34 4.34 0 11-7.82-3.79 4.34 4.34 0 017.82 3.78z" fill="#74005D"/>
  <path d="M213.36 139.6a1.37 1.37 0 11-2.46-1.22 1.37 1.37 0 012.46 1.22z" fill="#A400A0"/>
</svg>