<svg width="447" height="143" viewBox="0 0 447 143" fill="none" xmlns="http://www.w3.org/2000/svg">
<g filter="url(#filter0_dii)">
<rect width="439" height="134.376" rx="25" fill="#A10094"/>
</g>
<g filter="url(#filter1_d)">
<path d="M93.5653 79.5941H69.1333C68.5253 79.5941 68.0773 79.4661 67.7893 79.2101C67.5333 78.9221 67.4053 78.4741 67.4053 77.8661V46.7621C67.4053 46.1541 67.5333 45.7221 67.7893 45.4661C68.0773 45.1781 68.5253 45.0341 69.1333 45.0341H76.5733C77.1813 45.0341 77.6133 45.1781 77.8693 45.4661C78.1573 45.7221 78.3013 46.1541 78.3013 46.7621V70.5221H84.8773V62.7461C84.8773 62.1381 85.0053 61.7061 85.2613 61.4501C85.5493 61.1621 85.9973 61.0181 86.6053 61.0181H93.5653C94.1733 61.0181 94.6053 61.1621 94.8613 61.4501C95.1493 61.7061 95.2933 62.1381 95.2933 62.7461V77.8661C95.2933 78.4741 95.1493 78.9221 94.8613 79.2101C94.6053 79.4661 94.1733 79.5941 93.5653 79.5941ZM124.78 79.5941H102.508C101.9 79.5941 101.452 79.4661 101.164 79.2101C100.908 78.9221 100.78 78.4741 100.78 77.8661V46.7621C100.78 46.1541 100.908 45.7221 101.164 45.4661C101.452 45.1781 101.9 45.0341 102.508 45.0341H124.78C125.388 45.0341 125.82 45.1781 126.076 45.4661C126.364 45.7221 126.508 46.1541 126.508 46.7621V52.3781C126.508 52.9861 126.364 53.4341 126.076 53.7221C125.82 53.9781 125.388 54.1061 124.78 54.1061H111.532V57.8021H120.892C121.5 57.8021 121.932 57.9461 122.188 58.2341C122.476 58.4901 122.62 58.9221 122.62 59.5301V64.6661C122.62 65.2741 122.476 65.7221 122.188 66.0101C121.932 66.2661 121.5 66.3941 120.892 66.3941H111.532V70.5221H124.78C125.388 70.5221 125.82 70.6661 126.076 70.9541C126.364 71.2101 126.508 71.6421 126.508 72.2501V77.8661C126.508 78.4741 126.364 78.9221 126.076 79.2101C125.82 79.4661 125.388 79.5941 124.78 79.5941ZM148.507 79.5941H140.731C140.123 79.5941 139.675 79.4661 139.387 79.2101C139.131 78.9221 139.003 78.4741 139.003 77.8661V54.2981H131.947C131.339 54.2981 130.891 54.1701 130.603 53.9141C130.347 53.6261 130.219 53.1781 130.219 52.5701V46.7621C130.219 46.1541 130.347 45.7221 130.603 45.4661C130.891 45.1781 131.339 45.0341 131.947 45.0341H157.291C157.899 45.0341 158.331 45.1781 158.587 45.4661C158.875 45.7221 159.019 46.1541 159.019 46.7621V52.5701C159.019 53.1781 158.875 53.6261 158.587 53.9141C158.331 54.1701 157.899 54.2981 157.291 54.2981H150.235V77.8661C150.235 78.4741 150.091 78.9221 149.803 79.2101C149.547 79.4661 149.115 79.5941 148.507 79.5941ZM169.063 63.0341H165.367C164.759 63.0341 164.311 62.9061 164.023 62.6501C163.767 62.3621 163.639 61.9141 163.639 61.3061V59.3861C163.639 58.7781 163.767 58.3461 164.023 58.0901C164.311 57.8021 164.759 57.6581 165.367 57.6581H168.679C169.095 57.6581 169.415 57.5461 169.639 57.3221C169.863 57.0661 169.975 56.7301 169.975 56.3141V55.5941H164.743C164.135 55.5941 163.687 55.4661 163.399 55.2101C163.143 54.9221 163.015 54.4741 163.015 53.8661V46.7621C163.015 46.1541 163.143 45.7221 163.399 45.4661C163.687 45.1781 164.135 45.0341 164.743 45.0341H174.439C175.047 45.0341 175.479 45.1781 175.735 45.4661C176.023 45.7221 176.167 46.1541 176.167 46.7621V55.7861C176.167 58.2181 175.511 60.0421 174.199 61.2581C172.919 62.4421 171.207 63.0341 169.063 63.0341ZM197.672 79.5941H182.504C181.896 79.5941 181.448 79.4661 181.16 79.2101C180.904 78.9221 180.776 78.4741 180.776 77.8661V72.2501C180.776 71.6421 180.904 71.2101 181.16 70.9541C181.448 70.6661 181.896 70.5221 182.504 70.5221H195.416C195.832 70.5221 196.136 70.3941 196.328 70.1381C196.552 69.8501 196.664 69.5141 196.664 69.1301C196.664 68.5861 196.552 68.1861 196.328 67.9301C196.136 67.6741 195.832 67.5301 195.416 67.4981L188.216 66.4901C185.976 66.1701 184.168 65.4341 182.792 64.2821C181.448 63.1301 180.776 61.2101 180.776 58.5221V53.4821C180.776 50.7621 181.656 48.6821 183.416 47.2421C185.176 45.7701 187.608 45.0341 190.712 45.0341H204.152C204.76 45.0341 205.192 45.1781 205.448 45.4661C205.736 45.7221 205.88 46.1541 205.88 46.7621V52.4741C205.88 53.0821 205.736 53.5301 205.448 53.8181C205.192 54.0741 204.76 54.2021 204.152 54.2021H192.968C192.552 54.2021 192.232 54.3461 192.008 54.6341C191.784 54.8901 191.672 55.2261 191.672 55.6421C191.672 56.0581 191.784 56.4101 192.008 56.6981C192.232 56.9861 192.552 57.1461 192.968 57.1781L200.12 58.1381C202.36 58.4581 204.168 59.1941 205.544 60.3461C206.92 61.4981 207.608 63.4181 207.608 66.1061V71.1461C207.608 73.8661 206.712 75.9621 204.92 77.4341C203.16 78.8741 200.744 79.5941 197.672 79.5941ZM232.808 79.5941H225.368C224.76 79.5941 224.312 79.4661 224.024 79.2101C223.768 78.9221 223.64 78.4741 223.64 77.8661V46.7621C223.64 46.1541 223.768 45.7221 224.024 45.4661C224.312 45.1781 224.76 45.0341 225.368 45.0341H240.056C244.408 45.0341 247.384 45.8981 248.984 47.6261C250.584 49.3541 251.384 51.6101 251.384 54.3941V60.5381C251.384 63.3221 250.584 65.5781 248.984 67.3061C247.384 69.0341 244.408 69.8981 240.056 69.8981H234.536V77.8661C234.536 78.4741 234.392 78.9221 234.104 79.2101C233.848 79.4661 233.416 79.5941 232.808 79.5941ZM234.44 54.0101V61.2581H238.76C239.688 61.2581 240.296 61.0181 240.584 60.5381C240.872 60.0581 241.016 59.5141 241.016 58.9061V56.3621C241.016 55.7541 240.872 55.2101 240.584 54.7301C240.296 54.2501 239.688 54.0101 238.76 54.0101H234.44ZM282.518 79.5941H258.086C257.478 79.5941 257.03 79.4661 256.742 79.2101C256.486 78.9221 256.358 78.4741 256.358 77.8661V46.7621C256.358 46.1541 256.486 45.7221 256.742 45.4661C257.03 45.1781 257.478 45.0341 258.086 45.0341H265.526C266.134 45.0341 266.566 45.1781 266.822 45.4661C267.11 45.7221 267.254 46.1541 267.254 46.7621V70.5221H273.83V62.7461C273.83 62.1381 273.958 61.7061 274.214 61.4501C274.502 61.1621 274.95 61.0181 275.558 61.0181H282.518C283.126 61.0181 283.558 61.1621 283.814 61.4501C284.102 61.7061 284.246 62.1381 284.246 62.7461V77.8661C284.246 78.4741 284.102 78.9221 283.814 79.2101C283.558 79.4661 283.126 79.5941 282.518 79.5941ZM302.261 55.1141L300.005 62.4101H307.541L305.285 55.1141C305.157 54.8261 305.013 54.6181 304.853 54.4901C304.725 54.3621 304.565 54.2981 304.373 54.2981H303.173C302.981 54.2981 302.805 54.3621 302.645 54.4901C302.517 54.6181 302.389 54.8261 302.261 55.1141ZM299.525 77.8661C299.525 78.4741 299.381 78.9221 299.093 79.2101C298.837 79.4661 298.405 79.5941 297.797 79.5941H290.741C290.133 79.5941 289.685 79.4661 289.397 79.2101C289.141 78.9221 289.013 78.4741 289.013 77.8661V65.1941C289.013 64.2341 289.157 63.1301 289.445 61.8821C289.765 60.6341 290.245 59.1781 290.885 57.5141L295.061 46.6181C295.253 46.0741 295.541 45.6741 295.925 45.4181C296.341 45.1621 296.869 45.0341 297.509 45.0341H310.421C311.029 45.0341 311.525 45.1621 311.909 45.4181C312.325 45.6741 312.629 46.0741 312.821 46.6181L316.997 57.5141C317.637 59.1781 318.101 60.6341 318.389 61.8821C318.709 63.1301 318.869 64.2341 318.869 65.1941V77.8661C318.869 78.4741 318.725 78.9221 318.437 79.2101C318.181 79.4661 317.749 79.5941 317.141 79.5941H309.893C309.253 79.5941 308.773 79.4661 308.453 79.2101C308.165 78.9221 308.021 78.4741 308.021 77.8661V71.1461H299.525V77.8661ZM341.097 79.5941H333.321C332.713 79.5941 332.265 79.4661 331.977 79.2101C331.721 78.9221 331.593 78.4741 331.593 77.8661V71.7221L324.249 61.8821C323.513 60.8901 323.017 60.0261 322.761 59.2901C322.537 58.5541 322.425 57.4501 322.425 55.9781V46.7621C322.425 46.1541 322.553 45.7221 322.809 45.4661C323.097 45.1781 323.545 45.0341 324.153 45.0341H331.545C332.153 45.0341 332.585 45.1781 332.841 45.4661C333.129 45.7221 333.273 46.1541 333.273 46.7621V54.6341C333.273 54.9541 333.289 55.2901 333.321 55.6421C333.353 55.9941 333.481 56.3301 333.705 56.6501L335.913 60.1061C336.073 60.3941 336.233 60.6021 336.393 60.7301C336.585 60.8581 336.809 60.9221 337.065 60.9221H337.545C337.801 60.9221 338.009 60.8581 338.169 60.7301C338.361 60.6021 338.537 60.3941 338.697 60.1061L340.905 56.6501C341.129 56.3301 341.257 55.9941 341.289 55.6421C341.321 55.2901 341.337 54.9541 341.337 54.6341V46.7621C341.337 46.1541 341.465 45.7221 341.721 45.4661C342.009 45.1781 342.457 45.0341 343.065 45.0341H350.217C350.825 45.0341 351.257 45.1781 351.513 45.4661C351.801 45.7221 351.945 46.1541 351.945 46.7621V55.9781C351.945 57.4501 351.817 58.5541 351.561 59.2901C351.305 60.0261 350.825 60.8901 350.121 61.8821L342.825 71.7701V77.8661C342.825 78.4741 342.681 78.9221 342.393 79.2101C342.137 79.4661 341.705 79.5941 341.097 79.5941ZM368.029 67.0181H360.589C359.981 67.0181 359.533 66.8901 359.245 66.6341C358.989 66.3461 358.845 65.8981 358.813 65.2901L358.093 46.7621C358.061 46.1541 358.173 45.7221 358.429 45.4661C358.685 45.1781 359.117 45.0341 359.725 45.0341H368.893C369.501 45.0341 369.933 45.1781 370.189 45.4661C370.445 45.7221 370.557 46.1541 370.525 46.7621L369.853 65.2901C369.821 65.8981 369.661 66.3461 369.373 66.6341C369.085 66.8901 368.637 67.0181 368.029 67.0181ZM368.749 79.5941H359.917C359.309 79.5941 358.861 79.4661 358.573 79.2101C358.317 78.9221 358.189 78.4741 358.189 77.8661V71.5781C358.189 70.9701 358.317 70.5381 358.573 70.2821C358.861 69.9941 359.309 69.8501 359.917 69.8501H368.749C369.357 69.8501 369.789 69.9941 370.045 70.2821C370.333 70.5381 370.477 70.9701 370.477 71.5781V77.8661C370.477 78.4741 370.333 78.9221 370.045 79.2101C369.789 79.4661 369.357 79.5941 368.749 79.5941Z" fill="white"/>
</g>
<defs>
<filter id="filter0_dii" x="-4" y="-4" width="451" height="146.376" filterUnits="userSpaceOnUse" color-interpolation-filters="sRGB">
<feFlood flood-opacity="0" result="BackgroundImageFix"/>
<feColorMatrix in="SourceAlpha" type="matrix" values="0 0 0 0 0 0 0 0 0 0 0 0 0 0 0 0 0 0 127 0"/>
<feOffset dx="4" dy="4"/>
<feGaussianBlur stdDeviation="2"/>
<feColorMatrix type="matrix" values="0 0 0 0 0 0 0 0 0 0 0 0 0 0 0 0 0 0 0.25 0"/>
<feBlend mode="normal" in2="BackgroundImageFix" result="effect1_dropShadow"/>
<feBlend mode="normal" in="SourceGraphic" in2="effect1_dropShadow" result="shape"/>
<feColorMatrix in="SourceAlpha" type="matrix" values="0 0 0 0 0 0 0 0 0 0 0 0 0 0 0 0 0 0 127 0" result="hardAlpha"/>
<feOffset dx="20" dy="20"/>
<feGaussianBlur stdDeviation="2"/>
<feComposite in2="hardAlpha" operator="arithmetic" k2="-1" k3="1"/>
<feColorMatrix type="matrix" values="0 0 0 0 0.541176 0 0 0 0 0 0 0 0 0 0.447059 0 0 0 1 0"/>
<feBlend mode="normal" in2="shape" result="effect2_innerShadow"/>
<feColorMatrix in="SourceAlpha" type="matrix" values="0 0 0 0 0 0 0 0 0 0 0 0 0 0 0 0 0 0 127 0" result="hardAlpha"/>
<feOffset dx="-20" dy="-20"/>
<feGaussianBlur stdDeviation="2"/>
<feComposite in2="hardAlpha" operator="arithmetic" k2="-1" k3="1"/>
<feColorMatrix type="matrix" values="0 0 0 0 0.760278 0 0 0 0 0.0063889 0 0 0 0 0.699405 0 0 0 1 0"/>
<feBlend mode="normal" in2="effect2_innerShadow" result="effect3_innerShadow"/>
</filter>
<filter id="filter1_d" x="67.4053" y="45.0341" width="311.125" height="42.56" filterUnits="userSpaceOnUse" color-interpolation-filters="sRGB">
<feFlood flood-opacity="0" result="BackgroundImageFix"/>
<feColorMatrix in="SourceAlpha" type="matrix" values="0 0 0 0 0 0 0 0 0 0 0 0 0 0 0 0 0 0 127 0"/>
<feOffset dx="4" dy="4"/>
<feGaussianBlur stdDeviation="2"/>
<feColorMatrix type="matrix" values="0 0 0 0 0 0 0 0 0 0 0 0 0 0 0 0 0 0 0.25 0"/>
<feBlend mode="normal" in2="BackgroundImageFix" result="effect1_dropShadow"/>
<feBlend mode="normal" in="SourceGraphic" in2="effect1_dropShadow" result="shape"/>
</filter>
</defs>
</svg>
