<svg width="84" height="71" viewBox="0 0 84 71" fill="none" xmlns="http://www.w3.org/2000/svg">
<path d="M10.8133 34.4302C10.7001 33.2663 10.8521 32.0919 11.2581 30.9953C11.664 29.8987 12.3133 28.9083 13.157 28.0987C14.0008 27.2891 15.0171 26.6813 16.1296 26.3209C17.242 25.9606 18.4217 25.8572 19.5799 26.0184C19.6786 24.6247 20.1519 23.2837 20.9499 22.1369C21.748 20.9901 22.841 20.0803 24.1136 19.5036C25.3861 18.9269 26.7908 18.7047 28.1792 18.8606C29.5676 19.0165 30.8881 19.5446 32.001 20.3891C32.443 19.0517 33.2405 17.8597 34.3082 16.9409C35.3759 16.0221 36.6734 15.4111 38.0618 15.1735C39.4502 14.9359 40.8771 15.0805 42.1896 15.592C43.502 16.1034 44.6506 16.9623 45.5121 18.0767C46.256 16.7999 47.3495 15.7624 48.6635 15.0865C49.9776 14.4107 51.4575 14.1246 52.9288 14.2621C54.4001 14.3995 55.8014 14.9548 56.9676 15.8624C58.1337 16.77 59.016 17.9921 59.5105 19.3846C60.2893 18.0125 61.4679 16.9105 62.8892 16.2255C64.3105 15.5405 65.9068 15.3051 67.4653 15.5508C69.0238 15.7964 70.4703 16.5115 71.612 17.6004C72.7536 18.6894 73.5361 20.1006 73.855 21.6458C73.855 21.7227 73.8551 21.8039 73.8892 21.8851C75.7816 21.7123 77.6709 22.246 79.1933 23.3832C80.7156 24.5204 81.7633 26.1808 82.1344 28.0444C83.2885 25.4071 83.8227 23.1161 83.5064 21.4235C83.1081 19.4107 81.978 17.6169 80.3345 16.3886C78.6909 15.1603 76.6505 14.5846 74.6073 14.7727C74.6073 14.6872 74.586 14.6017 74.5689 14.5162C74.2244 12.8488 73.3798 11.326 72.1477 10.1509C70.9155 8.97576 69.3545 8.20419 67.6726 7.93905C65.9907 7.6739 64.268 7.92778 62.7341 8.66684C61.2002 9.40589 59.9281 10.595 59.0873 12.0756C58.5534 10.5727 57.6008 9.25377 56.3421 8.27431C55.0833 7.29486 53.5708 6.69569 51.9827 6.54745C50.3947 6.3992 48.7974 6.70805 47.3791 7.4376C45.9607 8.16714 44.7806 9.28697 43.9777 10.6651C43.0445 9.4639 41.8022 8.53928 40.3837 7.99029C38.9652 7.4413 37.4241 7.28863 35.9255 7.54865C34.4268 7.80867 33.0272 8.47157 31.8766 9.46632C30.7259 10.4611 29.8677 11.7502 29.3937 13.1955C28.1942 12.286 26.7717 11.7168 25.2759 11.5476C23.7801 11.3785 22.2664 11.6157 20.8941 12.2342C19.5217 12.8528 18.3415 13.8299 17.4777 15.0627C16.6138 16.2954 16.0982 17.7383 15.9852 19.2393C14.7338 19.0643 13.459 19.1756 12.2569 19.5649C11.0548 19.9542 9.95678 20.6113 9.04557 21.4867C8.13437 22.3621 7.43378 23.433 6.99662 24.6185C6.55947 25.8041 6.39715 27.0734 6.52191 28.3308C2.2476 29.4378 -1.23168 33.8874 0.418201 38.0078C1.00378 39.4653 2.68786 41.2648 5.09429 43.2225C3.72651 39.4568 6.92369 35.4432 10.8133 34.4302Z" fill="#EEBB00"/>
<path d="M65.8792 46.1378C65.8792 46.1378 54.7661 54.4257 54.7661 54.8916C54.7661 55.3575 50.9192 66.2655 52.7144 64.6626C56.4159 61.38 60.0064 59.9865 63.2548 59.4009C67.8967 59.0077 73.184 57.2638 73.7739 56.7552C74.4321 56.1952 72.5728 53.8614 73.1071 47.1038C72.4018 46.0779 71.8846 45.394 71.8846 45.394L65.8792 46.1378Z" fill="#EEA700"/>
<path d="M63.2419 59.4009C70.162 58.1528 75.5092 60.5678 76.9753 56.1909C77.6464 54.1692 74.8082 49.6 73.0942 47.1038C72.2906 51.8696 69.5337 57.9562 63.2419 59.4009Z" fill="#EEC000"/>
<path d="M41.6053 57.5117C41.4044 57.0842 27.9745 53.6947 27.9745 53.6947L22.1572 55.3147C22.1572 55.3147 21.9349 56.0798 21.6357 57.2595C23.7216 63.3589 32.048 62.9101 37.8183 65.5473C40.9363 64.903 44.1596 64.9717 47.2474 65.7482C49.594 66.3295 41.8062 57.9305 41.6053 57.5117Z" fill="#EEA700"/>
<path d="M20.7125 69.2833C24.0593 73.1301 29.3979 67.2401 37.8097 65.5475C32.0394 62.9103 25.3202 62.0768 21.6272 57.2596C20.7766 60.6834 19.2464 67.5992 20.7125 69.2833Z" fill="#EEC000"/>
<path d="M11.5228 36.029C11.3257 34.1307 11.8412 32.2269 12.9692 30.6874C14.0971 29.1479 15.757 28.0826 17.6265 27.6984C18.4615 27.5331 19.3184 27.5099 20.1611 27.63C20.242 26.2475 20.6985 24.9133 21.4813 23.771C22.2642 22.6287 23.3439 21.7216 24.604 21.1473C25.8642 20.5731 27.2571 20.3535 28.6328 20.5121C30.0085 20.6708 31.3149 21.2017 32.4113 22.0477C32.8349 20.7174 33.6162 19.5291 34.6698 18.613C35.7234 17.6968 37.0087 17.0881 38.385 16.8533C39.7613 16.6186 41.1757 16.7668 42.4734 17.2819C43.7711 17.797 44.9022 18.6591 45.7428 19.7738C46.4707 18.4997 47.5513 17.463 48.8545 16.7887C50.1577 16.1143 51.6281 15.831 53.0886 15.9728C54.5491 16.1146 55.9375 16.6755 57.0867 17.588C58.2359 18.5004 59.0968 19.7256 59.566 21.1159C60.3293 19.7459 61.4961 18.6442 62.9077 17.9607C64.3193 17.2771 65.9072 17.045 67.4554 17.2958C69.0035 17.5466 70.4369 18.2681 71.5605 19.3623C72.6842 20.4565 73.4435 21.8702 73.7353 23.4112C73.7353 23.4882 73.7353 23.5694 73.7695 23.6463C75.6519 23.4888 77.5261 24.0329 79.0316 25.1738C80.5371 26.3148 81.5676 27.9721 81.9248 29.827C83.0575 27.194 83.5833 24.9072 83.2627 23.2103C82.8773 21.2079 81.7646 19.4188 80.139 18.1877C78.5133 16.9566 76.4896 16.3706 74.4576 16.5424C74.4576 16.4569 74.4576 16.3715 74.4234 16.286C74.1081 14.6231 73.2884 13.0976 72.0757 11.9169C70.863 10.7362 69.3162 9.95754 67.6455 9.68671C65.9748 9.41589 64.2612 9.66605 62.7377 10.4032C61.2141 11.1404 59.9545 12.3288 59.13 13.8069C58.4803 11.9207 57.1707 10.3329 55.4427 9.33618C53.7146 8.33941 51.6845 8.00081 49.7265 8.38278C47.3072 8.86578 45.6873 10.7037 44.5418 12.6956C42.6824 10.2592 39.2331 8.61359 36.0444 9.25046C34.6061 9.53824 33.2709 10.2051 32.1767 11.182C31.0826 12.1589 30.2693 13.4104 29.8211 14.8071C28.6381 13.8923 27.2279 13.318 25.7425 13.146C24.2571 12.974 22.7529 13.211 21.3923 13.8312C20.0317 14.4515 18.8663 15.4315 18.0218 16.6656C17.1774 17.8997 16.686 19.3409 16.6006 20.8338C15.69 20.7004 14.7631 20.725 13.8608 20.9065C11.8439 21.3162 10.052 22.4627 8.83488 24.1224C7.61778 25.7821 7.06284 27.8357 7.27837 29.8825C3.07672 30.9768 -0.364093 35.4135 1.29434 39.5339C1.87564 40.9957 3.54262 42.7995 5.92769 44.7614C4.53426 41.0385 7.6887 37.0292 11.5228 36.029Z" fill="#EED000"/>
<path d="M10.8347 48.4289C23.0336 56.6141 43.0331 65.5945 49.1624 64.372C57.2836 62.7521 76.518 42.3807 81.925 29.8442C81.925 29.8442 51.945 23.2147 41.6268 29.0705C36.8952 31.7591 20.3023 51.7543 10.8347 48.4289Z" fill="#EEB100"/>
<path d="M73.7782 23.6463C73.7782 23.5694 73.7782 23.4882 73.744 23.4112C73.4522 21.8702 72.6929 20.4565 71.5693 19.3623C70.4457 18.2681 69.0123 17.5466 67.4641 17.2958C65.9159 17.045 64.3281 17.2771 62.9165 17.9606C61.5049 18.6441 60.3381 19.7458 59.5747 21.1159C59.1056 19.7255 58.2446 18.5004 57.0954 17.5879C55.9463 16.6755 54.5579 16.1146 53.0974 15.9728C51.6369 15.831 50.1665 16.1143 48.8632 16.7886C47.56 17.463 46.4794 18.4996 45.7516 19.7738C44.9109 18.659 43.7799 17.797 42.4821 17.2819C41.1844 16.7668 39.7701 16.6185 38.3937 16.8533C37.0174 17.088 35.7322 17.6968 34.6786 18.6129C33.625 19.5291 32.8437 20.7173 32.42 22.0477C31.3237 21.1993 30.0165 20.6664 28.6395 20.5065C27.2625 20.3466 25.868 20.5657 24.6064 21.1402C23.3448 21.7146 22.264 22.6227 21.4807 23.7664C20.6973 24.9101 20.2411 26.246 20.1613 27.63C19.3186 27.5099 18.4617 27.533 17.6267 27.6983C15.7572 28.0826 14.0973 29.1479 12.9694 30.6874C11.8414 32.2269 11.3259 34.1307 11.523 36.029C7.67608 37.0291 4.54301 41.0384 5.90652 44.8041C7.31704 45.971 8.98829 47.1892 10.8348 48.4287C20.3024 51.7541 34.0443 54.712 37.25 50.4035C55.9629 25.2492 81.925 29.8654 81.925 29.8654C81.5762 28.005 80.5505 26.3398 79.046 25.1913C77.5415 24.0428 75.6648 23.4923 73.7782 23.6463Z" fill="#EEC000"/>
<path d="M7.63745 31.759C10.0387 36.1569 12.8205 40.3361 15.951 44.2486C17.9257 46.7504 20.0059 49.1426 22.1915 51.4251C23.8499 51.6645 25.7092 51.9423 27.3206 52.1945C23.9781 49.0913 20.7382 45.8258 17.5453 42.4704C14.2242 38.9698 10.9458 35.3879 7.63745 31.759Z" fill="#EED000"/>
<path d="M25.9571 55.1266C27.607 56.6511 29.3167 58.0944 31.0862 59.4565C31.4239 59.3539 34.7921 61.2474 40.4897 63.0127C40.0409 62.7135 39.0493 61.8287 38.609 61.521C34.7938 58.7813 31.1601 55.7973 27.7309 52.5877L27.3035 52.1944C25.6835 51.9422 23.8242 51.6644 22.1743 51.425C23.4082 52.6988 24.6691 53.9326 25.9571 55.1266Z" fill="#EEC300"/>
<path d="M70.1577 30.0492C71.051 29.9253 71.8674 29.827 72.5428 29.7543C73.5859 25.9321 74.3333 22.0352 74.7782 18.0983C73.248 22.1289 71.7264 26.104 70.1577 30.0492Z" fill="#EED000"/>
<path d="M69.5038 31.7333C67.6957 36.217 65.798 40.6367 63.7292 44.9281C61.7063 49.2063 59.4046 53.347 56.839 57.3235C55.551 59.3203 54.1226 61.2229 52.5647 63.0169C54.1013 62.155 55.5601 61.161 56.9245 60.0463C57.7794 59.2812 64.2678 51.0018 66.4006 46.5737C68.531 42.1127 70.306 37.4907 71.7093 32.7506C71.9943 31.7589 72.2707 30.7616 72.5385 29.7585C71.8675 29.8312 71.0468 29.9295 70.1535 30.0535C69.9312 30.6049 69.7218 31.1733 69.5038 31.7333Z" fill="#EEC300"/>
<path d="M32.0481 52.8099C33.5419 54.8481 35.1427 56.8056 36.8439 58.6742C38.2308 60.2635 39.7033 61.776 41.255 63.205C42.2627 63.5699 43.2974 63.8557 44.3495 64.0598C42.2594 61.7603 40.3488 59.4607 38.4809 56.9688C37.2328 55.3018 36.0232 53.5963 34.8435 51.8695C33.9836 52.3659 33.0332 52.6856 32.0481 52.8099Z" fill="#EEC300"/>
<path d="M23.6406 33.6695L16.7119 21.4449C17.9874 26.0566 19.64 30.5555 21.653 34.8962C23.6143 39.2208 25.8634 43.409 28.385 47.4327C29.5448 49.2707 30.7658 51.063 32.0481 52.8098C33.0354 52.6763 33.9859 52.3464 34.8435 51.8395C33.4416 49.7879 32.078 47.7049 30.753 45.5905C28.3038 41.6923 25.9487 37.7087 23.6406 33.6695Z" fill="#EED000"/>
<path d="M55.7917 41.513C55.0266 46.0481 54.1333 50.5404 53.0049 54.9514C52.2099 58.0717 51.2695 61.0509 50.1753 64.0728L50.2608 64.0514C50.7542 63.8985 51.2322 63.6996 51.6884 63.4573C53.0821 61.0631 54.2539 58.5465 55.1891 55.9388C56.7551 51.509 57.9252 46.9489 58.6854 42.3123C59.2155 39.1835 59.5916 36.0163 59.8352 32.8319C58.7709 33.3064 57.8477 33.6868 56.9415 34.0843C56.5868 36.5634 56.2106 39.0467 55.7917 41.513Z" fill="#EEC300"/>
<path d="M59.4977 13.8282L57.788 27.7753C57.523 29.884 57.238 31.9841 56.9331 34.0756C57.8393 33.6824 58.7625 33.2977 59.8268 32.8233C59.9422 31.2674 60.032 29.7073 60.0875 28.1215C60.2803 23.349 60.083 18.5687 59.4977 13.8282Z" fill="#EED000"/>
<path d="M38.2073 48.7962C38.1175 48.933 38.0192 49.074 37.9124 49.2236C38.8655 51.5873 39.9042 53.9254 41.0497 56.1865C42.4526 59.0298 44.0866 61.7531 45.9352 64.3291C46.3317 64.4205 46.7381 64.4622 47.1449 64.453C45.6788 61.3242 44.358 58.2937 43.1014 55.0965C42.0029 52.3054 40.9642 49.4844 39.9768 46.6462C39.3317 47.3156 38.74 48.0344 38.2073 48.7962Z" fill="#EEC300"/>
<path d="M34.0527 28.4335C32.655 23.9198 31.2873 19.3891 29.8169 14.8326C30.143 19.6132 30.8202 24.3634 31.8429 29.0447C32.8301 33.7354 34.0831 38.3663 35.5958 42.9148C36.3053 45.0406 37.0775 47.1407 37.9124 49.2152C38.0193 49.0741 38.1176 48.9331 38.2074 48.7877C38.7407 48.0304 39.3323 47.3158 39.9769 46.6506C39.407 45.0691 38.8613 43.4819 38.3399 41.889C36.8567 37.4309 35.4419 32.9429 34.0527 28.4335Z" fill="#EED000"/>
<path d="M46.3071 25.5912C45.8412 21.0263 45.3326 16.4656 44.5974 11.875C44.1366 16.4377 43.9339 21.0228 43.9904 25.6083C44.0161 30.199 44.217 34.791 44.5931 39.3844C44.6615 40.2137 44.7427 41.0429 44.8197 41.8721C45.7173 41.0771 46.6362 40.2949 47.5467 39.5768L47.521 39.2519C47.1663 34.7126 46.7645 30.1605 46.3071 25.5912Z" fill="#EED000"/>
<path d="M46.3114 53.139C46.9371 56.9376 47.7935 60.6946 48.876 64.389C49.0641 64.3634 49.2479 64.3334 49.436 64.2992C49.1667 60.478 48.876 56.6952 48.5811 52.9125C48.2434 48.4672 47.91 44.0305 47.5424 39.5895C46.632 40.3076 45.713 41.0898 44.8154 41.8848C45.1958 45.6462 45.6746 49.4033 46.3114 53.139Z" fill="#EEC300"/>
<path d="M10.8347 48.4288L19.6996 52.7031L24.1364 54.8018L28.5859 56.8406C30.0734 57.5117 31.5779 58.1571 33.0739 58.7811C34.5699 59.4052 36.0659 60.025 37.5876 60.5934C39.1093 61.1619 40.6309 61.6663 42.1568 62.1365C43.6451 62.6039 45.171 62.9414 46.7175 63.1452H46.756H46.8201C46.7603 63.1452 46.8201 63.1452 46.8543 63.1452H46.9654C47.0466 63.1452 47.1364 63.1452 47.2262 63.1452C47.41 63.1452 47.6023 63.1452 47.7989 63.1067C48.2056 63.0561 48.6083 62.9775 49.0043 62.8716C49.8361 62.6598 50.6472 62.3737 51.4278 62.0168C53.0475 61.2391 54.5769 60.2859 55.9885 59.1744C58.8608 56.9346 61.5451 54.2247 64.1738 51.5405C65.4988 50.1955 66.8039 48.8291 68.089 47.4414C69.3742 46.0537 70.6565 44.6645 71.9359 43.274C73.2182 41.8805 74.5005 40.4743 75.7486 39.0552C76.3812 38.3457 77.0095 37.6362 77.6208 36.9181C78.232 36.2 78.8518 35.4776 79.416 34.7125C78.5365 36.3968 77.55 38.0229 76.4624 39.581C75.391 41.1511 74.2882 42.6998 73.1541 44.2271C72.02 45.7545 70.8545 47.2619 69.6577 48.7493C68.4552 50.2283 67.2313 51.6915 65.9861 53.1391C64.7423 54.5923 63.4215 55.9943 62.0879 57.3834C60.7461 58.8043 59.3186 60.1418 57.8136 61.3885C56.2416 62.6819 54.5195 63.7812 52.6844 64.6626C51.7253 65.121 50.7231 65.4833 49.6924 65.744C49.1584 65.8775 48.6157 65.9732 48.0682 66.0304C47.7843 66.0624 47.499 66.0796 47.2133 66.0816C47.0637 66.0816 46.9141 66.0816 46.756 66.0816H46.5124C46.4098 66.0816 46.367 66.0816 46.1875 66.0346H46.2901C44.5694 65.7864 42.8734 65.3903 41.2208 64.8507C39.5965 64.3506 38.0364 63.7351 36.519 63.0939C35.0016 62.4528 33.4714 61.7561 31.9754 61.0679C30.4794 60.3797 29.0176 59.589 27.5601 58.8153C26.1025 58.0417 24.6578 57.221 23.2388 56.4089C21.8197 55.5968 20.4006 54.759 19.0115 53.8828C16.2246 52.1474 13.4762 50.3821 10.8347 48.4288Z" fill="#EBA000"/>
<path d="M34.9076 7.21167C36.5717 8.09245 37.9371 9.44719 38.831 11.1044C39.7248 12.7616 40.1068 14.6467 39.9287 16.5211C39.7506 18.3956 39.0203 20.175 37.8304 21.6342C36.6404 23.0934 35.0443 24.1667 33.244 24.7183C31.4437 25.2698 29.5203 25.2749 27.7172 24.7327C25.914 24.1906 24.3123 23.1256 23.1147 21.6727C21.9172 20.2198 21.1776 18.4442 20.9897 16.5707C20.8017 14.6973 21.1739 12.8102 22.059 11.1483C23.2432 8.92488 25.2609 7.26184 27.6695 6.52387C30.0781 5.78591 32.6811 6.03325 34.9076 7.21167Z" fill="#EEA700"/>
<path d="M33.8049 5.0745C35.4698 5.95572 36.8359 7.31088 37.7305 8.96857C38.6251 10.6263 39.008 12.512 38.8307 14.3873C38.6535 16.2627 37.9241 18.0433 36.7348 19.5041C35.5454 20.9648 33.9496 22.04 32.1492 22.5937C30.3487 23.1474 28.4245 23.1548 26.6199 22.6148C24.8152 22.0748 23.2113 21.0118 22.0109 19.5601C20.8105 18.1085 20.0675 16.3334 19.876 14.4595C19.6845 12.5856 20.053 10.697 20.935 9.03251C22.1172 6.8014 24.1371 5.13111 26.5505 4.38889C28.9639 3.64666 31.5733 3.89328 33.8049 5.0745Z" fill="#EEC81F"/>
<path d="M59.0061 3.22359C60.6692 4.10408 62.0338 5.45794 62.9274 7.11397C63.8211 8.76999 64.2036 10.6538 64.0266 12.5272C63.8496 14.4006 63.1211 16.1795 61.9332 17.6389C60.7452 19.0983 59.1512 20.1726 57.3527 20.7261C55.5542 21.2796 53.6319 21.2873 51.829 20.7484C50.0261 20.2094 48.4235 19.1479 47.2238 17.6982C46.0242 16.2484 45.2813 14.4755 45.0893 12.6035C44.8972 10.7316 45.2645 8.84478 46.1447 7.1816C47.3261 4.95192 49.3444 3.28253 51.7561 2.54034C54.1678 1.79816 56.7756 2.04391 59.0061 3.22359Z" fill="#EEA700"/>
<path d="M57.9034 1.10355C59.5686 1.98361 60.9354 3.33768 61.8311 4.99455C62.7267 6.65142 63.1109 8.53666 62.9352 10.4119C62.7594 12.2871 62.0315 14.0681 60.8436 15.5297C59.6556 16.9913 58.061 18.0677 56.2612 18.623C54.4615 19.1783 52.5375 19.1875 50.7326 18.6493C48.9276 18.1111 47.3228 17.0499 46.121 15.5997C44.9192 14.1494 44.1744 12.3754 43.9809 10.502C43.7873 8.62849 44.1536 6.73968 45.0334 5.07438C45.6177 3.96854 46.4141 2.98863 47.3771 2.19059C48.3401 1.39255 49.4508 0.792015 50.646 0.423283C51.8411 0.0545514 53.0971 -0.0751583 54.3423 0.0415618C55.5876 0.158282 56.7976 0.519145 57.9034 1.10355Z" fill="#EEC81F"/>
<path d="M32.8987 7.76291C34.0443 8.37034 34.9842 9.30385 35.5993 10.4454C36.2145 11.587 36.4774 12.8853 36.3547 14.1762C36.232 15.4672 35.7292 16.6927 34.91 17.698C34.0909 18.7032 32.992 19.4429 31.7524 19.8237C30.5128 20.2044 29.1881 20.209 27.9459 19.8369C26.7037 19.4648 25.5997 18.7327 24.7735 17.7332C23.9473 16.7337 23.4361 15.5117 23.3044 14.2216C23.1727 12.9316 23.4265 11.6314 24.0337 10.4856C24.4366 9.72432 24.9855 9.04989 25.6492 8.50092C26.3129 7.95195 27.0783 7.53922 27.9017 7.28634C28.7251 7.03346 29.5902 6.94538 30.4476 7.02716C31.3051 7.10893 32.1379 7.35895 32.8987 7.76291Z" fill="white"/>
<path d="M30.3171 12.9437C30.6885 13.1429 30.9928 13.4476 31.1915 13.8193C31.3902 14.191 31.4746 14.6132 31.4341 15.0327C31.3935 15.4523 31.2297 15.8504 30.9634 16.1772C30.6972 16.5039 30.3402 16.7446 29.9374 16.869C29.5347 16.9933 29.1042 16.9958 28.7 16.8762C28.2959 16.7565 27.9361 16.52 27.666 16.1964C27.396 15.8728 27.2276 15.4765 27.1821 15.0575C27.1367 14.6384 27.2162 14.2153 27.4106 13.8413C27.5411 13.5902 27.7202 13.3675 27.9374 13.1862C28.1547 13.0049 28.4058 12.8685 28.6762 12.785C28.9466 12.7015 29.2309 12.6725 29.5126 12.6997C29.7942 12.727 30.0677 12.8099 30.3171 12.9437Z" fill="black"/>
<path d="M56.9972 3.79237C58.143 4.39941 59.0831 5.33257 59.6986 6.47385C60.3141 7.61513 60.5774 8.91328 60.4552 10.2042C60.333 11.4951 59.8308 12.7208 59.0121 13.7263C58.1933 14.7318 57.0948 15.472 55.8555 15.8532C54.6161 16.2345 53.2915 16.2397 52.0492 15.8682C50.8069 15.4967 49.7026 14.7652 48.876 13.7662C48.0493 12.7672 47.5375 11.5455 47.4051 10.2556C47.2727 8.96566 47.5258 7.66547 48.1323 6.51938C48.5348 5.75769 49.0835 5.08284 49.747 4.53344C50.4105 3.98404 51.1759 3.57087 51.9993 3.31758C52.8227 3.06429 53.6879 2.97585 54.5455 3.05732C55.4031 3.13879 56.2363 3.38857 56.9972 3.79237Z" fill="white"/>
<path d="M54.4155 8.98123C54.7868 9.18086 55.0908 9.48586 55.2892 9.85784C55.4876 10.2298 55.5716 10.6522 55.5305 11.0717C55.4894 11.4913 55.3252 11.8894 55.0585 12.2158C54.7917 12.5423 54.4344 12.7826 54.0314 12.9064C53.6284 13.0303 53.1978 13.0322 52.7937 12.9119C52.3897 12.7916 52.0302 12.5545 51.7606 12.2304C51.491 11.9063 51.3232 11.5098 51.2784 11.0906C51.2337 10.6714 51.3139 10.2483 51.509 9.87456C51.6399 9.62383 51.8192 9.40157 52.0367 9.22068C52.2541 9.03978 52.5053 8.90385 52.7756 8.82075C53.046 8.73766 53.3302 8.70905 53.6117 8.7366C53.8932 8.76415 54.1664 8.8473 54.4155 8.98123Z" fill="black"/>
</svg>
