<svg width="84" height="71" fill="none" xmlns="http://www.w3.org/2000/svg">
  <path d="M10.81 34.43a7.74 7.74 0 018.77-8.41A7.75 7.75 0 0132 20.39a7.76 7.76 0 0113.51-2.31 7.75 7.75 0 0114 1.3 7.76 7.76 0 0114.38 2.5 7.7 7.7 0 018.24 6.16c1.16-2.63 1.7-4.92 1.38-6.62a8.3 8.3 0 00-8.9-6.65 8.37 8.37 0 00-15.52-2.7 8.36 8.36 0 00-15.11-1.4 8.38 8.38 0 00-14.59 2.53A8.37 8.37 0 0016 19.24a8.35 8.35 0 00-9.47 9.1C2.25 29.43-1.23 33.88.42 38c.58 1.46 2.27 3.25 4.67 5.21-1.36-3.76 1.83-7.78 5.72-8.79z" fill="#EB0"/>
  <path d="M65.88 46.14s-11.11 8.29-11.11 8.75c0 .47-3.85 11.38-2.06 9.77 3.7-3.28 7.3-4.67 10.54-5.26 4.65-.4 9.93-2.14 10.52-2.64.66-.56-1.2-2.9-.66-9.66-.7-1.02-1.23-1.7-1.23-1.7l-6 .74z" fill="#EEA700"/>
  <path d="M63.24 59.4c6.92-1.25 12.27 1.17 13.74-3.2.67-2.03-2.17-6.6-3.89-9.1-.8 4.77-3.56 10.86-9.85 12.3z" fill="#EEC000"/>
  <path d="M41.6 57.51c-.2-.43-13.63-3.82-13.63-3.82l-5.81 1.62s-.23.77-.52 1.95c2.08 6.1 10.4 5.65 16.18 8.29 3.12-.65 6.34-.58 9.43.2 2.34.58-5.44-7.82-5.64-8.24z" fill="#EEA700"/>
  <path d="M20.71 69.28c3.35 3.85 8.69-2.04 17.1-3.73-5.77-2.64-12.49-3.47-16.18-8.29-.85 3.42-2.38 10.34-.92 12.02z" fill="#EEC000"/>
  <path d="M11.52 36.03a7.7 7.7 0 016.1-8.33c.84-.17 1.7-.19 2.54-.07a7.61 7.61 0 0112.25-5.58 7.61 7.61 0 0113.33-2.28 7.61 7.61 0 0113.83 1.35 7.63 7.63 0 0114.2 2.53 7.66 7.66 0 018.15 6.18c1.14-2.64 1.66-4.92 1.34-6.62a8.26 8.26 0 00-8.8-6.67c0-.08 0-.17-.04-.25a8.24 8.24 0 00-15.29-2.48 8.27 8.27 0 00-9.4-5.43c-2.42.49-4.04 2.32-5.19 4.32-1.86-2.44-5.3-4.09-8.5-3.45a8.23 8.23 0 00-6.22 5.56 8.21 8.21 0 00-13.22 6.02 8.28 8.28 0 00-9.32 9.05c-4.2 1.1-7.64 5.53-5.99 9.65.59 1.47 2.25 3.27 4.64 5.23-1.4-3.72 1.76-7.73 5.6-8.73z" fill="#EED000"/>
  <path d="M10.83 48.43c12.2 8.18 32.2 17.16 38.33 15.94 8.12-1.62 27.36-21.99 32.77-34.53 0 0-29.99-6.63-40.3-.77-4.73 2.69-21.33 22.68-30.8 19.36z" fill="#EEB100"/>
  <path d="M73.78 23.65c0-.08 0-.16-.04-.24a7.63 7.63 0 00-14.17-2.3 7.61 7.61 0 00-13.82-1.34 7.61 7.61 0 00-13.33 2.28 7.61 7.61 0 00-12.26 5.58 7.56 7.56 0 00-7.2 3.06 7.7 7.7 0 00-1.44 5.34c-3.84 1-6.98 5-5.61 8.77a62.32 62.32 0 004.92 3.63c9.47 3.32 23.21 6.28 26.42 1.97 18.71-25.15 44.67-20.53 44.67-20.53a7.66 7.66 0 00-8.14-6.22z" fill="#EEC000"/>
  <path d="M7.64 31.76c2.4 4.4 5.18 8.58 8.31 12.49 1.98 2.5 4.06 4.9 6.24 7.18 1.66.23 3.52.51 5.13.76-3.34-3.1-6.58-6.36-9.77-9.72-3.33-3.5-6.6-7.08-9.91-10.71z" fill="#EED000"/>
  <path d="M25.96 55.13a74.67 74.67 0 005.13 4.33c.33-.1 3.7 1.79 9.4 3.55-.45-.3-1.44-1.18-1.88-1.49a108.72 108.72 0 01-10.88-8.93l-.43-.4-5.13-.77c1.24 1.28 2.5 2.51 3.79 3.7z" fill="#EEC300"/>
  <path d="M70.16 30.05l2.38-.3a77.2 77.2 0 002.24-11.65c-1.53 4.03-3.05 8-4.62 11.95z" fill="#EED000"/>
  <path d="M69.5 31.73c-1.8 4.49-3.7 8.9-5.77 13.2a108.09 108.09 0 01-6.9 12.4 50.1 50.1 0 01-4.27 5.69c1.54-.87 3-1.86 4.36-2.97.86-.77 7.35-9.05 9.48-13.48a93.99 93.99 0 006.14-16.81c-.67.07-1.5.17-2.39.3l-.65 1.67zM32.05 52.81c1.5 2.04 3.1 4 4.8 5.86a58.02 58.02 0 004.4 4.53c1.01.37 2.05.66 3.1.86-2.1-2.3-4-4.6-5.87-7.1a144.66 144.66 0 01-3.64-5.09c-.86.5-1.8.82-2.8.94z" fill="#EEC300"/>
  <path d="M23.64 33.67l-6.93-12.23a87.27 87.27 0 004.94 13.46c1.96 4.32 4.21 8.5 6.74 12.53a92.5 92.5 0 003.66 5.38 7.46 7.46 0 002.8-.97c-1.4-2.05-2.77-4.14-4.1-6.25-2.45-3.9-4.8-7.88-7.1-11.92z" fill="#EED000"/>
  <path d="M55.8 41.51A164.9 164.9 0 0153 54.95a96.6 96.6 0 01-2.82 9.12l.08-.02c.5-.15.97-.35 1.43-.6 1.4-2.39 2.56-4.9 3.5-7.51a79.45 79.45 0 003.5-13.63c.53-3.13.9-6.3 1.15-9.48-1.07.48-2 .86-2.9 1.25-.35 2.48-.73 4.97-1.15 7.43z" fill="#EEC300"/>
  <path d="M59.5 13.83l-1.71 13.95c-.27 2.1-.55 4.2-.86 6.3.9-.4 1.83-.78 2.9-1.26.11-1.55.2-3.11.26-4.7.19-4.77 0-9.55-.6-14.3z" fill="#EED000"/>
  <path d="M38.2 48.8l-.29.42c.96 2.37 2 4.7 3.14 6.97a57.93 57.93 0 004.89 8.14c.4.1.8.13 1.2.12a157.85 157.85 0 01-4.04-9.35c-1.1-2.8-2.14-5.62-3.12-8.45-.65.67-1.24 1.38-1.77 2.15z" fill="#EEC300"/>
  <path d="M34.05 28.43c-1.4-4.51-2.76-9.04-4.23-13.6.32 4.78 1 9.53 2.02 14.21.99 4.7 2.24 9.33 3.76 13.87.7 2.13 1.48 4.23 2.31 6.3l.3-.42c.53-.76 1.12-1.47 1.77-2.14-.57-1.58-1.12-3.17-1.64-4.76a632.3 632.3 0 01-4.29-13.46zM46.3 25.6c-.46-4.57-.97-9.13-1.7-13.73-.46 4.57-.67 9.15-.61 13.74.03 4.59.23 9.18.6 13.77l.23 2.5c.9-.8 1.82-1.59 2.73-2.3l-.03-.33c-.35-4.54-.76-9.09-1.21-13.66z" fill="#EED000"/>
  <path d="M46.31 53.14a94.8 94.8 0 002.57 11.25l.56-.1c-.27-3.81-.56-7.6-.86-11.38-.34-4.44-.67-8.88-1.04-13.32-.9.72-1.83 1.5-2.72 2.3.38 3.76.85 7.51 1.5 11.25z" fill="#EEC300"/>
  <path d="M10.83 48.43l8.87 4.27 4.44 2.1 4.45 2.04a171 171 0 009 3.75c1.52.57 3.04 1.08 4.57 1.55a27 27 0 004.56 1h.1H47.23c.18 0 .37 0 .57-.03a14.34 14.34 0 003.63-1.09 24.55 24.55 0 004.56-2.85 85.11 85.11 0 008.18-7.63c1.33-1.34 2.63-2.71 3.92-4.1l3.85-4.17a253.39 253.39 0 005.68-6.35c.61-.72 1.23-1.44 1.8-2.2a44.46 44.46 0 01-2.96 4.86 142.88 142.88 0 01-14.37 17.8 47.96 47.96 0 01-4.28 4c-1.57 1.3-3.3 2.4-5.13 3.28-.95.46-1.96.82-2.99 1.08a11.72 11.72 0 01-2.48.34h-.7c-.1 0-.14 0-.32-.05h.1a30.24 30.24 0 01-5.07-1.18 49.55 49.55 0 01-4.7-1.76c-1.52-.64-3.05-1.33-4.54-2.02-1.5-.69-2.96-1.48-4.42-2.25a155.59 155.59 0 01-16.73-10.4z" fill="#EBA000"/>
  <path d="M34.9 7.21A9.52 9.52 0 1126 24.03a9.52 9.52 0 018.9-16.82z" fill="#EEA700"/>
  <path d="M33.8 5.07a9.52 9.52 0 11-8.9 16.84 9.52 9.52 0 018.9-16.84z" fill="#EEC81F"/>
  <path d="M59 3.22a9.51 9.51 0 11-8.9 16.82A9.51 9.51 0 0159 3.22z" fill="#EEA700"/>
  <path d="M57.9 1.1A9.52 9.52 0 1149 17.94 9.52 9.52 0 0157.9 1.1z" fill="#EEC81F"/>
  <path d="M32.9 7.76a6.56 6.56 0 11-6.14 11.59A6.56 6.56 0 0132.9 7.76z" fill="#fff"/>
  <path d="M30.32 12.94a2.14 2.14 0 11-2.02 3.77 2.14 2.14 0 012.02-3.77z" fill="#000"/>
  <path d="M57 3.8a6.56 6.56 0 11-6.14 11.58A6.56 6.56 0 0157 3.79z" fill="#fff"/>
  <path d="M54.42 8.98a2.14 2.14 0 11-2.03 3.77 2.14 2.14 0 012.03-3.77z" fill="#000"/>
</svg>