<svg width="1366" height="295" viewBox="0 0 1366 295" fill="none" xmlns="http://www.w3.org/2000/svg">
<path d="M1365.9 52.2532C1360.15 52.8387 1354.1 53.1314 1347.85 53.1314C1263.76 53.1314 1257.61 6.58536 1190.79 6.58536C1123.96 6.58536 1055.77 53.1314 1002.7 53.1314C990.306 53.1314 911.48 0.828125 846.994 0.828125C714.121 0.828125 687.195 51.0823 613.929 49.8137C577.833 34.9814 547.005 0.828125 477.544 0.828125C388.669 0.828125 352.865 53.1314 268.771 53.1314C184.676 53.1314 178.53 6.58536 111.703 6.58536C73.8509 6.48778 35.7059 21.3201 0.0974121 34.2983L0.0974121 269.273C206.139 278.543 436.862 288.106 604.271 294.839H847.579C852.945 286.935 860.945 274.64 870.408 259.613C1014.11 266.541 1194.88 274.542 1365.8 281.763V52.2532H1365.9Z" fill="#2C9999"/>
<path d="M1106.79 24.3431C1122.59 21.0254 1138.11 17.2198 1153.62 14.6827C1169.13 12.048 1184.74 10.6818 1200.15 11.8528L1205.91 12.3407C1207.76 12.6334 1209.71 12.9262 1211.57 13.2189L1213.03 13.4141C1213.52 13.5116 1214.01 13.6093 1214.4 13.7068L1217.23 14.2923C1218.2 14.4875 1219.08 14.6826 1220.05 14.8778L1222.79 15.6585C1230.2 17.7077 1237.32 20.5375 1244.44 23.8552C1251.57 27.173 1258.69 30.8811 1266 34.2964C1269.71 35.9553 1273.42 37.6141 1277.22 38.9803C1279.17 39.6633 1281.03 40.3464 1282.98 41.0295C1284.93 41.615 1286.88 42.2004 1288.83 42.6883C1254.49 28.9294 1237.32 6.48584 1190.98 6.48584C1162.59 6.48584 1134.2 14.7802 1106.79 24.3431Z" fill="#69BCB8"/>
<path d="M922.602 21.9046C931.772 25.1247 940.942 28.5401 950.113 32.053L963.868 37.4199C968.454 39.1764 973.039 40.9328 977.722 42.6893C946.503 27.4666 893.042 0.729492 846.995 0.729492C806.508 0.729492 775.875 5.4134 750.705 11.8537C770.217 8.92631 789.533 6.97467 809.045 6.09644C818.8 5.70612 828.459 5.41342 838.214 5.41342L845.531 5.41342C846.799 5.41342 847.97 5.4134 849.141 5.51098L852.653 5.70615C853.824 5.80373 854.994 5.70616 856.165 5.90133L859.677 6.29161L863.189 6.68196C864.36 6.77954 865.53 7.07228 866.701 7.16987C876.164 8.43842 885.53 10.6828 894.798 13.2199C904.163 15.757 913.431 18.6844 922.602 21.9046Z" fill="#69BCB8"/>
<path d="M14.0486 29.2222C31.5114 25.0262 48.6815 20.1472 65.9492 16.6343C74.5342 14.8778 83.2169 13.4141 91.8995 12.4383C96.192 11.9503 100.582 11.6576 104.875 11.4624C107.021 11.3649 109.167 11.3649 111.313 11.3649C113.46 11.3649 115.606 11.5601 117.752 11.5601C126.337 11.9504 134.825 13.1213 143.02 15.3657C145.068 15.9512 147.117 16.5367 149.166 17.2197C151.214 18.0004 153.166 18.6834 155.214 19.4641C157.165 20.3423 159.214 21.123 161.165 22.0012C163.116 22.8795 165.165 23.7577 167.116 24.7335C175.018 28.5391 182.921 32.8327 191.115 36.5408C199.31 40.2488 207.895 43.3715 216.676 45.2255C177.457 31.9545 161.165 6.48584 111.704 6.48584C78.7292 6.48584 45.5597 17.7076 14.0486 29.2222Z" fill="#69BCB8"/>
<path d="M385.743 20.8312C394.816 18.2941 403.791 15.5618 412.864 13.3174C421.937 11.0731 431.009 9.21905 440.082 7.9505C449.253 6.68195 458.423 5.90128 467.593 5.60854L471.008 5.51098H474.422C475.593 5.51098 476.764 5.51098 477.837 5.51098L481.251 5.60854L488.08 5.80371L494.909 6.38923C513.153 7.95052 530.908 12.3416 548.078 19.1723C556.663 22.5876 565.053 26.5884 573.443 30.6868C577.638 32.736 581.833 34.8828 586.126 36.8344L592.564 39.8595C594.711 40.8353 596.857 41.7135 599.101 42.6893C568.468 26.1981 537.347 0.729492 477.349 0.729492C439.985 0.729492 411.888 10.0973 385.743 20.8312Z" fill="#69BCB8"/>
</svg>
