<svg width="1194" height="163" viewBox="0 0 1194 163" fill="none" xmlns="http://www.w3.org/2000/svg">
<path d="M1194.09 39.7028C1180.52 43.4563 1165.77 45.9302 1148.8 45.9302C1075.28 45.9302 1069.91 5.23914 1011.49 5.23914C953.068 5.23914 893.453 45.9302 847.058 45.9302C836.226 45.9302 767.316 0.206055 710.942 0.206055C594.783 0.206055 571.244 44.1387 507.194 43.0297C475.638 30.0632 448.688 0.206055 387.965 0.206055C310.269 0.206055 278.97 45.9302 205.453 45.9302C131.937 45.9302 126.564 5.23914 68.1434 5.23914C45.3721 5.23914 22.4302 11.3812 0.170654 18.9734L0.170654 162.629L1194.17 162.629V39.7028H1194.09Z" fill="#239FAF"/>
<path d="M29.2529 10.2717C43.3251 8.73618 57.2266 7.54189 70.8724 8.56556C77.6952 9.0774 84.4328 10.0157 90.9145 11.7218C97.3962 13.3427 103.707 15.8166 109.848 18.717C115.989 21.6174 121.959 25.0296 128.184 28.4419C134.41 31.8541 140.807 35.0957 147.459 37.7402C154.111 40.3847 161.105 42.4321 168.183 43.6264C175.262 44.9059 182.341 45.4178 189.42 45.1618C130.828 39.7023 122.044 5.15332 68.1432 5.15332C55.0945 5.15332 42.1311 7.20067 29.2529 10.2717Z" fill="#69BCB8"/>
<path d="M310.866 16.4139C312.743 15.9021 314.619 15.3902 316.581 14.8784C318.457 14.3666 320.333 13.8547 322.295 13.3429C326.047 12.3192 329.885 11.3809 333.638 10.5278C341.228 8.73637 348.819 7.28617 356.409 6.2625C371.675 4.21515 387.112 3.8739 402.293 5.06819C417.474 6.26248 432.399 9.67475 446.812 14.9637C454.061 17.6082 461.055 20.7645 468.133 24.0915L478.709 29.1245L484.082 31.5984C485.873 32.3662 487.664 33.2192 489.455 33.987C464.21 19.6556 437.175 0.0351563 387.965 0.0351563C356.665 0.120462 332.87 7.54206 310.866 16.4139Z" fill="#69BCB8"/>
<path d="M948.889 17.0962C950.595 16.8402 952.215 16.499 953.921 16.1578C955.627 15.8165 957.247 15.4753 958.953 15.2194L968.931 13.3427C975.583 12.1484 982.236 11.1247 988.888 10.4423C995.54 9.7598 1002.11 9.248 1008.76 9.248H1011.23C1012.09 9.248 1012.85 9.33328 1013.71 9.33328L1018.65 9.58919C1020.27 9.6745 1021.89 9.93045 1023.51 10.1011L1025.9 10.357L1028.29 10.7835C1041.17 12.6602 1053.19 17.8639 1065.22 24.0059C1071.27 26.9916 1077.33 30.2333 1083.73 32.8778C1085.26 33.5602 1086.97 34.1573 1088.5 34.7545C1089.27 35.0957 1090.12 35.3516 1090.89 35.6929L1093.36 36.4606C1094.98 36.9724 1096.6 37.5696 1098.31 37.9108C1100.02 38.3373 1101.64 38.6786 1103.34 39.1051C1069.06 27.5035 1054.81 5.15332 1011.57 5.15332C990.594 5.15332 969.443 10.4423 948.889 17.0962Z" fill="#69BCB8"/>
<path d="M704.631 4.47144C707.019 4.47144 709.407 4.38616 711.709 4.38616L715.121 4.47144C716.23 4.47144 717.424 4.55676 718.532 4.64207C723.138 4.89798 727.743 5.49512 732.349 6.17757C741.559 7.62777 750.685 9.84577 759.725 12.405C777.806 17.6086 795.631 24.4331 813.541 31.087C785.737 17.6939 745.909 0.12085 710.942 0.12085C654.994 0.12085 620.624 10.2723 592.736 20.765C602.032 18.2911 611.158 15.8172 620.454 13.7698C629.665 11.7225 638.961 9.93106 648.342 8.65147C657.638 7.28657 667.02 6.3482 676.486 5.66575C685.783 4.9833 695.249 4.55675 704.631 4.47144Z" fill="#69BCB8"/>
</svg>
