<svg width="1366" height="187" viewBox="0 0 1366 187" fill="none" xmlns="http://www.w3.org/2000/svg">
<path d="M1365.9 46.3108C1350.39 50.6044 1333.51 53.4342 1314.1 53.4342C1230.01 53.4342 1223.86 6.88815 1157.03 6.88815C1090.21 6.88815 1022.01 53.4342 968.941 53.4342C956.551 53.4342 877.725 1.13086 813.24 1.13086C680.366 1.13086 653.44 51.385 580.175 50.1164C544.078 35.2842 513.25 1.13086 443.789 1.13086C354.914 1.13086 319.111 53.4342 235.016 53.4342C150.922 53.4342 144.776 6.88815 77.9486 6.88815C51.9008 6.88815 25.6578 13.9139 0.195312 22.5986L0.195312 186.925L1366 186.925V46.3108H1365.9Z" fill="#239FAF"/>
<path d="M33.4622 12.6449C49.5591 10.8884 65.461 9.5223 81.0702 10.6933C88.8748 11.2788 96.5819 12.3521 103.996 14.3037C111.411 16.1578 118.63 18.9876 125.654 22.3054C132.678 25.6231 139.507 29.5264 146.629 33.4296C153.751 37.3328 161.067 41.0409 168.677 44.0659C176.286 47.0909 184.286 49.4328 192.383 50.799C200.481 52.2627 208.578 52.8482 216.675 52.5554C149.653 46.3102 139.605 6.79004 77.9484 6.79004C63.0221 6.79004 48.1933 9.13198 33.4622 12.6449Z" fill="#69BCB8"/>
<path d="M355.597 19.671C357.743 19.0855 359.89 18.5001 362.134 17.9146C364.28 17.3291 366.426 16.7436 368.67 16.1581C372.962 14.9872 377.353 13.9138 381.645 12.938C390.328 10.8888 399.01 9.22991 407.693 8.05894C425.156 5.717 442.814 5.32665 460.179 6.69278C477.544 8.05892 494.617 11.9622 511.104 18.0122C519.396 21.0372 527.396 24.6477 535.493 28.4533L547.59 34.2106L553.736 37.0405C555.785 37.9187 557.834 38.8945 559.883 39.7727C531.006 23.3791 500.08 0.935547 443.789 0.935547C407.986 1.03313 380.767 9.52262 355.597 19.671Z" fill="#69BCB8"/>
<path d="M1085.42 20.4513C1087.38 20.1586 1089.23 19.7682 1091.18 19.3779C1093.13 18.9876 1094.99 18.5973 1096.94 18.3046L1108.35 16.1578C1115.96 14.7916 1123.57 13.6206 1131.18 12.84C1138.79 12.0594 1146.3 11.4739 1153.91 11.4739H1156.74C1157.71 11.4739 1158.59 11.5715 1159.57 11.5715L1165.23 11.8642C1167.08 11.9618 1168.93 12.2545 1170.79 12.4497L1173.52 12.7424L1176.25 13.2303C1190.98 15.3771 1204.74 21.3295 1218.49 28.3554C1225.42 31.7707 1232.35 35.4788 1239.66 38.5038C1241.42 39.2844 1243.37 39.9674 1245.13 40.6505C1246 41.0408 1246.98 41.3336 1247.86 41.7239L1250.69 42.6021C1252.54 43.1876 1254.39 43.8707 1256.35 44.261C1258.3 44.7489 1260.15 45.1393 1262.1 45.6272C1222.88 32.3562 1206.59 6.79004 1157.13 6.79004C1133.13 6.79004 1108.94 12.84 1085.42 20.4513Z" fill="#69BCB8"/>
<path d="M806.02 6.01029C808.752 6.01029 811.484 5.91274 814.118 5.91274L818.02 6.01029C819.288 6.01029 820.654 6.10789 821.922 6.20547C827.19 6.49821 832.458 7.18126 837.726 7.96191C848.263 9.62079 858.701 12.1579 869.042 15.0854C889.725 21.0378 910.114 28.8442 930.601 36.4555C898.798 21.1353 853.238 1.03369 813.24 1.03369C749.242 1.03369 709.926 12.6458 678.025 24.6483C688.659 21.8184 699.097 18.9886 709.731 16.6466C720.267 14.3047 730.901 12.2555 741.632 10.7918C752.266 9.23049 762.997 8.1571 773.826 7.37645C784.46 6.5958 795.289 6.10787 806.02 6.01029Z" fill="#69BCB8"/>
</svg>
