<svg width="1194" height="258" viewBox="0 0 1194 258" fill="none" xmlns="http://www.w3.org/2000/svg">
<path d="M1194.09 45.5579C1189.05 46.0697 1183.77 46.3256 1178.31 46.3256C1104.79 46.3256 1099.42 5.63459 1041 5.63459C982.577 5.63459 922.962 46.3256 876.566 46.3256C865.735 46.3256 796.824 0.601563 740.451 0.601563C624.291 0.601563 600.753 44.5342 536.703 43.4252C505.147 30.4587 478.197 0.601563 417.474 0.601563C339.778 0.601563 308.478 46.3256 234.962 46.3256C161.446 46.3256 156.073 5.63459 97.6521 5.63459C64.5612 5.54929 31.2145 18.5158 0.0852051 29.8616L0.0852051 235.279C180.209 243.383 381.909 251.743 528.26 257.629H740.962C745.653 250.719 752.646 239.971 760.919 226.833C886.545 232.89 1044.58 239.885 1194 246.198V45.5579H1194.09Z" fill="#2C9999"/>
<path d="M967.566 21.1589C981.383 18.2585 994.943 14.9315 1008.5 12.7136C1022.06 10.4103 1035.71 9.21602 1049.18 10.2397L1054.22 10.6662C1055.84 10.9221 1057.54 11.1781 1059.16 11.434L1060.44 11.6046C1060.87 11.6899 1061.3 11.7752 1061.64 11.8605L1064.11 12.3723C1064.96 12.543 1065.73 12.7135 1066.58 12.8842L1068.97 13.5666C1075.45 15.3581 1081.68 17.8319 1087.9 20.7323C1094.13 23.6327 1100.36 26.8744 1106.75 29.8601C1109.99 31.3103 1113.23 32.7605 1116.56 33.9548C1118.27 34.5519 1119.89 35.1491 1121.59 35.7462C1123.3 36.2581 1125 36.7699 1126.71 37.1964C1096.69 25.1682 1081.68 5.54785 1041.17 5.54785C1016.35 5.54785 991.532 12.7989 967.566 21.1589Z" fill="#69BCB8"/>
<path d="M806.547 19.0269C814.564 21.842 822.581 24.8278 830.598 27.8988L842.623 32.5906C846.631 34.1262 850.64 35.6616 854.734 37.1971C827.442 23.8894 780.706 0.515503 740.451 0.515503C705.057 0.515503 678.277 4.61022 656.274 10.2404C673.331 7.68124 690.217 5.9751 707.275 5.20734C715.803 4.86612 724.246 4.61024 732.775 4.61024L739.171 4.61024C740.28 4.61024 741.304 4.61022 742.327 4.69552L745.397 4.86615C746.421 4.95145 747.444 4.86616 748.468 5.03677L751.538 5.37796L754.608 5.71921C755.632 5.80451 756.655 6.06043 757.678 6.14574C765.951 7.25472 774.139 9.21677 782.241 11.4347C790.428 13.6527 798.53 16.2118 806.547 19.0269Z" fill="#69BCB8"/>
<path d="M12.2812 25.4242C27.5474 21.756 42.5577 17.4907 57.6533 14.4197C65.1584 12.8842 72.7488 11.6046 80.3393 10.7515C84.0918 10.325 87.9297 10.0691 91.6823 9.89845C93.5585 9.81314 95.4348 9.81316 97.3111 9.81316C99.1874 9.81316 101.064 9.98379 102.94 9.98379C110.445 10.325 117.865 11.3487 125.029 13.3107C126.82 13.8225 128.611 14.3344 130.402 14.9315C132.193 15.614 133.899 16.2111 135.69 16.8936C137.395 17.6613 139.186 18.3438 140.892 19.1116C142.598 19.8793 144.389 20.6471 146.095 21.5001C153.003 24.8271 159.911 28.5805 167.075 31.8222C174.239 35.0638 181.744 37.7936 189.42 39.4144C155.135 27.8128 140.892 5.54785 97.6523 5.54785C68.8257 5.54785 39.8285 15.3581 12.2812 25.4242Z" fill="#69BCB8"/>
<path d="M337.22 18.0886C345.151 15.8706 352.998 13.4821 360.929 11.52C368.861 9.55797 376.792 7.93716 384.724 6.82818C392.741 5.7192 400.758 5.03673 408.774 4.78081L411.759 4.69552H414.744C415.768 4.69552 416.791 4.69552 417.729 4.69552L420.714 4.78081L426.684 4.95143L432.654 5.4633C448.603 6.8282 464.125 10.667 479.135 16.6384C486.64 19.6241 493.975 23.1216 501.309 26.7045C504.977 28.4959 508.644 30.3727 512.397 32.0788L518.025 34.7233C519.902 35.5764 521.778 36.3441 523.74 37.1971C496.96 22.7804 469.754 0.515503 417.303 0.515503C384.639 0.515503 360.076 8.70492 337.22 18.0886Z" fill="#69BCB8"/>
</svg>
