<svg width="1905" height="187" fill="none" xmlns="http://www.w3.org/2000/svg">
  <path d="M1905 46c-22 5-45 7-72 7-118 0-126-46-219-46-94 0-189 46-263 46-17 0-127-52-217-52-185 0-223 50-325 49-50-15-93-49-190-49-124 0-174 52-291 52C210 53 202 7 109 7 72 7 36 14 0 23v164h1905V46z" fill="#239FAF"/>
  <path d="M47 13a507 507 0 0198 1l30 8 29 11a336 336 0 0064 18l34 2C209 46 195 7 109 7c-21 0-42 2-62 6zM496 20a1116 1116 0 0173-12 483 483 0 01144 10l34 10 17 6 8 3 9 3C741 23 697 1 619 1c-50 0-88 9-123 19zM1514 20l8-1 8-1 16-2a586 586 0 0163-5h4l4 1h16l4 1h3c21 2 40 8 59 15l30 11 7 2 4 1 4 1 8 1 8 2c-55-14-77-39-146-39-34 0-67 6-100 13zM1124 6h22a335 335 0 0166 9c29 6 57 14 86 21a540 540 0 00-352-11l44-8a740 740 0 01134-11z" fill="#69BCB8"/>
</svg>