<svg width="1194" height="213" viewBox="0 0 1194 213" fill="none" xmlns="http://www.w3.org/2000/svg">
<path d="M1194.09 13.5248C1152.81 25.3824 1112.98 46.1118 1079.89 46.1118C1069.06 46.1118 1000.15 0.387695 943.772 0.387695C827.613 0.387695 804.074 44.3204 740.024 43.2114C708.468 30.2449 681.518 0.387695 620.795 0.387695C543.099 0.387695 511.8 46.1118 438.283 46.1118C364.767 46.1118 359.394 5.42073 300.973 5.42073C242.553 5.42073 182.938 46.1118 136.542 46.1118C90.1471 46.1118 26.2681 0.387695 0.426511 0.387695C0.341226 0.387695 0.25594 0.387695 0.170654 0.387695L0.170654 212.629L1194.17 212.629V13.5248H1194.09Z" fill="#3CA7AA"/>
<path d="M27.2061 11.6472C30.2764 13.6945 33.5173 15.4006 36.8434 16.9361C40.1696 18.4716 43.581 19.7512 47.2483 20.6896C50.8303 21.6279 54.5829 22.3957 58.6766 22.3104C43.7516 15.4859 29.85 8.66145 18.3364 4.56677C21.0656 7.38186 24.0506 9.59985 27.2061 11.6472Z" fill="#62BCB3"/>
<path d="M270.612 8.57642C282.978 7.97928 295.089 7.55274 306.943 8.83233C312.828 9.42947 318.627 10.4532 324.342 11.9887C327.156 12.8417 329.97 13.6095 332.7 14.6332C335.429 15.5716 338.158 16.7658 340.802 17.9601C351.548 22.8226 361.953 29.3912 373.381 34.5095C384.809 39.6279 397.09 43.0401 409.457 43.4667C362.038 34.6801 350.61 5.24951 300.973 5.24951C290.824 5.33482 280.675 6.52907 270.612 8.57642Z" fill="#62BCB3"/>
<path d="M566.126 8.57644C580.028 6.18788 593.759 4.48175 607.575 4.14052C610.987 4.05522 614.483 4.05522 617.895 4.14052C621.306 4.14052 624.718 4.48175 628.129 4.56705C629.835 4.65236 631.541 4.82297 633.246 4.99358L638.363 5.50545L643.395 6.18789C645.101 6.44381 646.807 6.61444 648.427 6.95566L653.459 7.89401C655.165 8.23523 656.785 8.66175 658.406 9.00297C661.732 9.68542 664.973 10.7944 668.299 11.6475C674.78 13.6948 681.177 16.0834 687.573 18.7279C693.884 21.4577 700.195 24.4434 706.507 27.4291C709.662 28.9646 712.818 30.5001 716.059 31.9503L720.92 34.0829C722.54 34.7654 724.161 35.4478 725.781 36.1302C699.513 21.7135 672.307 0.301758 620.88 0.301758C599.729 0.301758 582.075 3.71401 566.126 8.57644Z" fill="#62BCB3"/>
<path d="M946.245 4.65289C947.098 4.65289 947.951 4.65287 948.889 4.73818L951.533 4.9088C953.324 4.99411 955.03 5.16472 956.821 5.33533C958.612 5.50594 960.317 5.76187 962.108 5.93249C969.102 6.87086 976.095 8.23576 983.089 9.77127C997.075 13.0129 1010.89 17.2782 1024.88 21.4583C1000.06 10.6243 970.551 0.387573 943.857 0.387573C905.734 0.387573 877.59 5.07939 854.733 11.3921C869.232 9.2594 883.56 7.38269 897.888 6.35902C912.216 5.25003 926.629 4.7382 940.957 4.65289H943.687H946.245Z" fill="#62BCB3"/>
</svg>
