<svg width="1366" height="229" viewBox="0 0 1366 229" fill="none" xmlns="http://www.w3.org/2000/svg">
<path d="M1365.71 58.9025C1350.2 64.1101 1333.32 67.5424 1313.9 67.5424C1229.81 67.5424 1223.66 11.0874 1156.84 11.0874C1090.01 11.0874 1021.82 67.5424 968.746 67.5424C956.356 67.5424 877.53 4.10449 813.044 4.10449C680.171 4.10449 653.245 65.0569 579.979 63.5183C543.883 45.5285 513.055 4.10449 443.594 4.10449C354.719 4.10449 318.915 67.5424 234.821 67.5424C150.726 67.5424 144.58 11.0874 77.7533 11.0874C51.7055 11.0874 25.4625 19.6089 0 30.1424L0 229.451L1365.81 229.451V58.9025H1365.71Z" fill="#25A8C1"/>
<path d="M717.219 18.8831C719.262 18.314 721.305 17.745 723.441 17.1759C725.484 16.6068 727.527 16.0378 729.663 15.4687C733.749 14.3305 737.928 13.2873 742.014 12.3388C750.28 10.3471 758.545 8.73468 766.81 7.59654C783.433 5.32026 800.241 4.94085 816.772 6.26868C833.302 7.59652 849.553 11.3904 865.248 17.2708C873.141 20.211 880.756 23.7202 888.464 27.4192L899.98 33.015L905.83 35.7656C907.78 36.6192 909.73 37.5676 911.681 38.4212C884.192 22.4872 854.754 0.672852 801.17 0.672852C767.088 0.767697 741.179 9.01918 717.219 18.8831Z" fill="#69BCB8"/>
<path d="M362.613 23.4588C364.572 22.8897 366.531 22.3206 368.579 21.7516C370.538 21.1825 372.497 20.6134 374.545 20.0444C378.463 18.9062 382.47 17.8629 386.388 16.9145C394.312 14.9227 402.237 13.3104 410.162 12.1722C426.1 9.89594 442.217 9.51653 458.066 10.8444C473.916 12.1722 489.498 15.966 504.546 21.8464C512.115 24.7866 519.416 28.2959 526.807 31.9948L537.848 37.5907L543.458 40.3413C545.328 41.1949 547.198 42.1433 549.067 42.9969C522.711 27.0629 494.485 5.24854 443.107 5.24854C410.429 5.34338 385.586 13.5949 362.613 23.4588Z" fill="#69BCB8"/>
</svg>
