<svg width="1366" height="244" viewBox="0 0 1366 244" fill="none" xmlns="http://www.w3.org/2000/svg">
<path d="M1365.9 15.9058C1318.68 29.4696 1273.13 53.1817 1235.27 53.1817C1222.88 53.1817 1144.06 0.878418 1079.57 0.878418C946.698 0.878418 919.772 51.1326 846.507 49.864C810.41 35.0317 779.582 0.878418 710.121 0.878418C621.246 0.878418 585.443 53.1817 501.348 53.1817C417.254 53.1817 411.107 6.63565 344.281 6.63565C277.454 6.63565 209.261 53.1817 156.19 53.1817C103.118 53.1817 30.0479 0.878418 0.487985 0.878418C0.390428 0.878418 0.29287 0.878418 0.195312 0.878418L0.195312 243.66L1366 243.66V15.9058H1365.9Z" fill="#3CA7AA"/>
<path d="M31.1208 13.7579C34.6329 16.0998 38.3401 18.0514 42.1448 19.8079C45.9496 21.5643 49.8519 23.028 54.0469 24.1014C58.1443 25.1748 62.4368 26.053 67.1196 25.9555C50.047 18.149 34.1451 10.3426 20.9749 5.65869C24.0967 8.87885 27.5112 11.416 31.1208 13.7579Z" fill="#62BCB3"/>
<path d="M309.55 10.2451C323.696 9.56201 337.549 9.07409 351.11 10.5378C357.841 11.2209 364.475 12.3919 371.011 14.1483C374.231 15.1241 377.45 16.0024 380.572 17.1734C383.694 18.2467 386.816 19.6128 389.84 20.979C402.132 26.5411 414.034 34.0548 427.107 39.9097C440.18 45.7646 454.228 49.6678 468.374 50.1557C414.132 40.1049 401.059 6.43945 344.28 6.43945C332.671 6.53703 321.062 7.90313 309.55 10.2451Z" fill="#62BCB3"/>
<path d="M647.587 10.2451C663.489 7.51286 679.195 5.56124 695 5.17091C698.902 5.07333 702.902 5.07333 706.804 5.17091C710.706 5.17091 714.609 5.56124 718.511 5.65882C720.462 5.7564 722.413 5.95156 724.364 6.14672L730.218 6.73224L735.974 7.51287C737.925 7.80561 739.876 8.0008 741.73 8.39112L747.485 9.46449C749.437 9.85481 751.29 10.3427 753.144 10.733C756.949 11.5137 760.656 12.7823 764.46 13.7581C771.875 16.1 779.192 18.8322 786.508 21.8572C793.728 24.9798 800.947 28.3952 808.166 31.8105C811.776 33.5669 815.385 35.3234 819.093 36.9822L824.653 39.4218C826.507 40.2024 828.361 40.983 830.214 41.7636C800.166 25.2725 769.046 0.779785 710.219 0.779785C686.024 0.779785 665.83 4.68302 647.587 10.2451Z" fill="#62BCB3"/>
<path d="M1082.4 5.75699C1083.38 5.75699 1084.35 5.75696 1085.42 5.85454L1088.45 6.04972C1090.5 6.1473 1092.45 6.34246 1094.5 6.53762C1096.55 6.73278 1098.5 7.02554 1100.55 7.2207C1108.55 8.29409 1116.55 9.85539 1124.55 11.6119C1140.54 15.3199 1156.35 20.199 1172.35 24.9805C1143.96 12.5877 1110.2 0.87793 1079.67 0.87793C1036.06 0.87793 1003.87 6.24486 977.721 13.4659C994.306 11.0263 1010.7 8.87958 1027.09 7.70861C1043.47 6.44005 1059.96 5.85457 1076.35 5.75699H1079.47H1082.4Z" fill="#62BCB3"/>
</svg>
