<svg width="1194" height="200" viewBox="0 0 1194 200" fill="none" xmlns="http://www.w3.org/2000/svg">
<path d="M1193.91 50.905C1180.35 55.4575 1165.6 58.458 1148.63 58.458C1075.11 58.458 1069.74 9.10454 1011.32 9.10454C952.897 9.10454 893.283 58.458 846.887 58.458C836.056 58.458 767.145 3 710.771 3C594.612 3 571.073 56.2852 507.024 54.9401C475.468 39.2132 448.518 3 387.794 3C310.099 3 278.799 58.458 205.283 58.458C131.766 58.458 126.393 9.10454 67.9727 9.10454C45.2014 9.10454 22.2596 16.5541 0 25.7626L0 200L1194 200V50.905H1193.91Z" fill="#25A8C1"/>
<path d="M627 15.9196C628.786 15.4221 630.572 14.9246 632.439 14.4271C634.225 13.9296 636.011 13.4321 637.879 12.9347C641.451 11.9397 645.104 11.0276 648.676 10.1985C655.902 8.45728 663.127 7.04773 670.352 6.05276C684.884 4.06281 699.579 3.73113 714.03 4.89193C728.48 6.05274 742.688 9.36935 756.408 14.5101C763.309 17.0804 769.966 20.1482 776.704 23.3819L786.771 28.2739L791.885 30.6784C793.59 31.4246 795.295 32.2538 797 33C772.969 19.0703 747.234 0 700.391 0C670.596 0.0829146 647.946 7.29644 627 15.9196Z" fill="#69BCB8"/>
<path d="M317 19.9196C318.713 19.4221 320.425 18.9246 322.215 18.4271C323.928 17.9296 325.64 17.4321 327.431 16.9347C330.856 15.9397 334.359 15.0276 337.784 14.1985C344.712 12.4573 351.639 11.0477 358.567 10.0528C372.501 8.06281 386.59 7.73113 400.446 8.89193C414.302 10.0527 427.924 13.3693 441.079 18.5101C447.696 21.0804 454.079 24.1482 460.54 27.3819L470.192 32.2739L475.096 34.6784C476.731 35.4246 478.365 36.2538 480 37C456.959 23.0703 432.283 4 387.369 4C358.801 4.08291 337.083 11.2964 317 19.9196Z" fill="#69BCB8"/>
</svg>
