<svg width="1905" height="230" fill="none" xmlns="http://www.w3.org/2000/svg">
  <path d="M1905 59c-22 5-46 9-73 9-117 0-125-57-219-57-93 0-188 57-262 57-17 0-127-64-217-64-185 0-223 61-325 60-51-18-94-60-190-60-124 0-174 64-292 64-117 0-125-57-219-57-36 0-72 9-108 19v199h1905V59z" fill="#25A8C1"/>
  <path d="M1000 19a1040 1040 0 0169-11 450 450 0 01138 9l32 10 16 6 8 3 8 2c-38-16-79-37-154-37-47 0-83 8-117 18zM506 23l8-1 8-2a505 505 0 01117-9 309 309 0 0196 21l15 6 8 2 8 3C729 27 690 5 618 5c-46 0-80 9-112 18z" fill="#69BCB8"/>
</svg>