<svg width="104" height="125" fill="none" xmlns="http://www.w3.org/2000/svg">
  <path d="M60.85 39.77s-.09 1.42 9.73-4.1c0 0 3.81-2.86 3.61 2.68-.1 2.73-4.27 6.16-.37 8.46 0 0 3.94 1.57 2.4 5.72-1.56 4.14-4.6 5.83-1.84 9.56 3.7 5.03 4.53 8.2 1.94 8.48-2.59.28-13.82-2.62-13.5 2.23.67 10.31-1.97-33.03-1.97-33.03z" fill="#814700"/>
  <path d="M65.96 65.76c3.6.01 5.5-1.44 4.93-8.84-.5-6.44-9.65-11.22-9.86-17.26 0 0-.06.73-.08.73-1.03-.32-1.03-.9-1.06-1.78.16-.76.3-1.52.42-2.28.12-.35.26-.69.42-1.02l-.35.62C62.1 24.9 63.08 16.85 56.39 10a15.57 15.57 0 00-12.95-4.74c5.42 1.52 11.46 4.07 12.74 13.43C57.85 30.76 42.8 34 37.8 34.05c0 0-5.16 19.34 7.1 36.37 11.52 16.01 40.64 30.16 24.27 39.8a7.35 7.35 0 01-3.04 1.57l-.37.09c-4.78 1.06-9.49-2.2-7.41-5.97 2.12-3.86 4.2-.02 5.35-1.4 1.15-1.37-.6-4.79-3.78-5.63-3.18-.84-9.27 3-8.98 11.35.28 8.35 14.94 17.32 25.06 6.3 9.64-10.46.46-21.2-8.77-33.7-4.32-5.9-5.2-8.73-4.4-10.74-.07-1.04-.1-6.35 3.12-6.33z" fill="#935300"/>
  <path d="M17.33 38.54s.07 3.68 2.35 5.62c2.67 2.29 6.01 1.32 6.01 1.32.65-1.66-.03-5.4-.03-5.4s-6.1-2.78-8.33-1.54z" fill="#4C1E00"/>
  <path d="M47.38 70.44c-12.26-17.02-9.56-36.4-9.56-36.4-3.64 5.22-6.68 13.9-4.8 28 3.9 29.17 29.1 30.63 34.66 37.12 4.17 4.9 3.58 9.64 1.48 11.05 16.4-9.64-10.25-23.76-21.78-39.77z" fill="#814700"/>
  <path d="M43.44 5.26c-.46.05-.92.12-1.38.23 0 0-14.16 2.9-15.45 12.92-1.3 10.02 2 10.14-1.2 13.26-3.18 3.13-5.64 4.82-8.08 6.88 0 0 4.32-1.7 7.93 5.53.2.45.33.93.42 1.4l.45-.83c-.13.25 1.8-4.38 2.41-4.65 1.25-2.69 2.6-5.48 3.84-5.8 1.35-.36 3.41-.12 5.74-.57l-.3.43c4.99-.05 22.83-2.43 21.15-14.5-1.29-9.36-7.6-13.5-15.53-14.3z" fill="#814700"/>
  <path d="M38.23 16.42A6.47 6.47 0 1126 20.66a6.47 6.47 0 0112.22-4.24z" fill="#653200"/>
  <path d="M37.52 14.6a6.47 6.47 0 11-12.23 4.24 6.47 6.47 0 0112.23-4.24z" fill="#935300"/>
  <path d="M50.85 25.15a6.47 6.47 0 11-12.59-2.97 6.47 6.47 0 0112.6 2.97z" fill="#653200"/>
  <path d="M51.6 22.84A6.47 6.47 0 1139 19.87a6.47 6.47 0 0112.6 2.97z" fill="#935300"/>
  <path d="M35.81 15.54a4.46 4.46 0 11-8.42 2.9 4.46 4.46 0 018.42-2.9z" fill="#fff"/>
  <path d="M31.71 18.67a1.46 1.46 0 11-2.76.95 1.46 1.46 0 012.76-.95z" fill="#000"/>
  <path d="M49.67 22.71A4.46 4.46 0 1141 20.66a4.46 4.46 0 018.67 2.05z" fill="#fff"/>
  <path d="M44.52 23.81a1.46 1.46 0 11-2.86-.67 1.46 1.46 0 012.86.67z" fill="#000"/>
  <path d="M34.27 41.62a54.39 54.39 0 00-.94 10.28c-.03 3.4.26 6.81.84 10.17a49.32 49.32 0 002.7 9.72 35.25 35.25 0 0012.3 15.4c1.35.99 2.77 1.89 4.25 2.7l1.12.61.58.31.52.28 2.33 1.1c3.16 1.5 6.31 3.28 8.91 5.78a14.36 14.36 0 013.12 4.36c.34.82.58 1.67.72 2.55.13.87.12 1.75-.02 2.62a10 10 0 00-1.4-4.84c-.88-1.43-2.01-2.68-3.34-3.7a24.76 24.76 0 00-4.24-2.7 52.74 52.74 0 00-4.63-2.11l-2.43-.98-.31-.13-.33-.16-.58-.3-1.18-.58a36.75 36.75 0 01-12.53-9.92 35.04 35.04 0 01-6.8-14.47 49.13 49.13 0 01-.96-15.8c.33-3.48 1.1-6.9 2.3-10.19z" fill="#4C1E00"/>
  <path d="M42.43 34.76c-.5 3.57-.79 7.16-.88 10.76-.11 3.55.08 7.1.58 10.62.55 3.45 1.42 6.85 3.09 9.77.4.72.85 1.42 1.34 2.09.25.33.5.67.78.96l.42.47.45.47c1.2 1.27 2.5 2.5 3.8 3.71 5.21 4.92 10.72 9.73 15.44 15.4 2.33 2.85 4.54 5.95 5.67 9.6.6 1.85.65 3.83.15 5.7-.27.91-.7 1.77-1.26 2.53-.56.74-1.77 2.8-2.73 3.24 1.2-.96 2.87-4.27 3.1-5.97a9.2 9.2 0 00-.8-4.95c-.7-1.58-1.6-3.07-2.67-4.44a49.15 49.15 0 00-3.43-4C60.6 85.55 55 81.01 49.71 76c-1.3-1.27-2.6-2.55-3.88-3.92l-.47-.52-.48-.54a19.86 19.86 0 01-2.44-3.67 26.03 26.03 0 01-2-5.39 32.86 32.86 0 01-.9-5.55c-.27-3.69-.14-7.4.38-11.05.5-3.6 1.34-7.16 2.5-10.61z" fill="#4C1E00"/>
  <path d="M32.43 56.93a21.37 21.37 0 0010.81.23 28.03 28.03 0 005.13-1.79c1.67-.75 3.3-1.65 4.99-2.57a17.48 17.48 0 01-9.68 6.18c-1.93.47-3.94.54-5.9.23a11.35 11.35 0 01-5.35-2.28zM33.88 69.18c1.93.5 3.92.75 5.91.74 1.95 0 3.89-.23 5.78-.68 1.9-.44 3.76-1.06 5.56-1.85 1.83-.77 3.59-1.7 5.42-2.66A20.24 20.24 0 0146 71.07c-2.06.48-4.2.58-6.3.3-2.08-.25-4.08-1-5.8-2.2zM38.78 79.08c1.93.5 3.92.75 5.91.74 1.95 0 3.89-.23 5.78-.68 1.9-.45 3.76-1.07 5.55-1.85 1.84-.77 3.6-1.7 5.43-2.66a20.27 20.27 0 01-10.56 6.34c-2.06.48-4.2.59-6.3.3-2.09-.24-4.08-1-5.81-2.2zM49.74 90c1.65.2 3.3.24 4.95.14 1.6-.1 3.2-.33 4.77-.68 1.58-.35 3.14-.8 4.66-1.34 1.55-.54 3.08-1.16 4.7-1.77a16.57 16.57 0 01-4.08 3.12 18.18 18.18 0 01-4.87 1.82 16.4 16.4 0 01-5.21.32c-1.74-.14-3.43-.7-4.92-1.61zM61.64 95.82c1 .18 2 .26 3.01.24.94-.02 1.86-.14 2.77-.37.92-.24 1.82-.55 2.7-.93.9-.38 1.84-.82 2.84-1.24a7.93 7.93 0 01-5.1 3.97 7.1 7.1 0 01-3.38 0 5.27 5.27 0 01-2.84-1.67zM25.68 45.48a55.26 55.26 0 013.58-9.39 18.82 18.82 0 011.35-2.33c.21-.31.47-.59.76-.82a1.76 1.76 0 01.68-.32l.2-.02h.17c.16 0 .35.03.5.04l.85.11c.52.06 1.08.13 1.62.17 1.09.08 2.17.1 3.26.04 2.18-.12 4.34-.44 6.46-.97 1.07-.26 2.12-.53 3.17-.88 1.04-.3 2.05-.68 3.02-1.14 1.91-.86 3.6-2.15 4.94-3.77a10.67 10.67 0 002.26-5.79c.15-2.2-.22-4.4-1.1-6.43a12 12 0 012.35 6.44 11.46 11.46 0 01-1.91 6.93 14.34 14.34 0 01-5.47 4.78c-1.07.55-2.17 1-3.3 1.37-1.12.37-2.24.7-3.37.97-2.3.57-4.64.87-7 .9a25.33 25.33 0 01-5.28-.52l-.82-.17-.34-.09.05.01.1-.01.1-.03c.04-.02 0-.03 0 0-.16.1-.3.24-.43.39a19.03 19.03 0 00-1.38 1.96c-.6.93-1.17 1.9-1.73 2.88-1.16 1.94-2.14 3.72-3.3 5.69z" fill="#4C1E00"/>
  <path d="M43.44 5.26c4.74-.52 9.67 1.22 13.4 4.35.93.8 1.8 1.67 2.58 2.61.78 1 1.4 2.1 1.87 3.27.87 2.3 1.37 4.74 1.47 7.2.14 2.42.1 4.85-.16 7.25-.22 2.4-.58 4.78-1 7.12-2.15 10.74.7 32.6 1.2 34.84.22 1.1.54 2.16.95 3.2.1.24.21.47.33.7l.21.35.23.37.93 1.5 3.8 5.98c1.27 2 2.54 4 3.78 6.02 1.25 2.02 2.46 4.06 3.61 6.14a92.5 92.5 0 011.65 3.15c.25.54.5 1.09.7 1.64.23.57.38 1.16.47 1.76-.45-1.1-.96-2.16-1.52-3.2-.6-1.01-1.25-2-1.9-2.99a184.7 184.7 0 00-4.05-5.81c-2.72-3.87-5.52-7.68-8.2-11.6l-1.02-1.48-.24-.38-.26-.4a8.89 8.89 0 01-.47-.88c-.5-1.16-.9-2.35-1.18-3.58a62.4 62.4 0 01-1.23-7.13c-.54-4.76-.79-9.52-.91-14.27-.63-5.4 2.48-21.12 2.31-28.24a22.87 22.87 0 00-1.05-6.72 11.65 11.65 0 00-1.47-2.96A19.98 19.98 0 0056 10.5a18.54 18.54 0 00-12.57-5.25z" fill="#4C1E00"/>
</svg>