<svg width="233" height="262" viewBox="0 0 233 262" fill="none" xmlns="http://www.w3.org/2000/svg">
<path d="M18.7138 219.056C17.7296 221.089 13.4988 221.08 9.25874 219.056C5.01869 217.033 2.38821 213.694 3.37234 211.698C4.35648 209.703 8.58733 209.666 12.8274 211.698C17.0674 213.731 19.6979 217.005 18.7138 219.056Z" fill="#A400A0"/>
<path d="M93.8387 256.84L93.7559 256.784L93.8387 256.84Z" fill="#A10094"/>
<path d="M95.7515 257.143C95.202 257.192 94.6483 257.129 94.1235 256.959C94.6467 257.137 95.2019 257.2 95.7515 257.143Z" fill="#A10094"/>
<path d="M30.8725 141.255C50.8678 161.489 88.044 148.374 97.637 121.269C102.502 107.473 87.9797 88.5074 93.397 67.9234C96.9932 54.2192 122.176 53.7961 140.506 55.0469C136.24 53.2843 131.846 51.8454 127.363 50.7425C124.842 50.116 122.262 49.7523 119.665 49.6572C71.5622 43.3478 59.3203 78.1234 72.9326 100.933C87.998 126.235 59.5227 142.975 40.4747 133.768C20.5345 124.138 55.9448 92.0576 42.6821 87.9923C42.0987 87.8205 41.4963 87.7216 40.8886 87.698C28.3892 105.256 14.7401 124.893 30.8725 141.255Z" fill="#8A0072"/>
<path d="M73.5215 126.098C74.4037 124.792 75.0799 123.359 75.5265 121.848C75.994 120.356 76.2751 118.811 76.3635 117.25C76.5325 114.172 76.0854 111.092 75.0483 108.19C74.5524 106.736 73.953 105.319 73.2548 103.95L71.1209 99.7191C69.5885 96.8933 68.2189 93.9821 67.0189 90.9999C66.4162 89.3866 66.0267 87.7015 65.86 85.9873C65.7315 84.2911 65.7839 82.5861 66.0163 80.9011C66.2187 79.2547 66.5222 77.6544 66.8441 76.0816C67.166 74.5088 67.5431 72.9085 68.0122 71.3173C68.9175 68.066 70.3532 64.9864 72.2614 62.2026C74.2414 59.4298 76.7023 57.0343 79.5274 55.1298C82.2826 53.2984 85.2201 51.7573 88.2927 50.531C89.8118 49.8928 91.362 49.331 92.9374 48.8479C94.5265 48.3907 96.1422 48.0313 97.7753 47.7718C104.216 46.768 110.771 46.7432 117.219 47.6982C123.593 48.5781 129.847 50.1763 135.862 52.4625C141.849 54.7014 147.507 57.7362 152.684 61.4852C147.135 58.4626 141.276 56.048 135.209 54.2836C129.209 52.496 123.048 51.3037 116.814 50.7242C110.68 50.0989 104.49 50.328 98.419 51.4048C96.9291 51.7175 95.4483 52.0578 94.0135 52.5085C92.5615 52.9616 91.134 53.4896 89.7366 54.0904C86.9262 55.2427 84.2392 56.6756 81.7165 58.3673C79.2555 59.9843 77.1058 62.0312 75.3702 64.41C73.6778 66.855 72.3833 69.5526 71.5348 72.4026C71.0658 73.8466 70.6703 75.3366 70.3116 76.8358C69.9529 78.335 69.6218 79.8618 69.3918 81.361C68.8491 84.2432 69.0195 87.2145 69.8885 90.0158C70.8082 92.867 72.1787 95.7366 73.4111 98.6522L75.2506 103.049C75.8931 104.54 76.4249 106.077 76.8418 107.647C77.6869 110.82 77.8716 114.132 77.3844 117.378C76.9357 120.588 75.5976 123.609 73.5215 126.098Z" fill="#74005D"/>
<path d="M140.074 224.887C156.759 206.106 135.347 175.598 131.364 171.064C129.396 168.82 127.796 168.213 126.683 168.167C127.291 168.337 127.818 168.723 128.164 169.252C152.224 204.294 135.328 221.678 121.633 232.255C107.938 242.832 119.794 247.568 121.118 246.676C117.007 243.558 125.285 241.562 140.074 224.887Z" fill="#8A0072"/>
<path d="M19.21 216.205C30.4402 218.541 52.8912 181.843 61.1046 174.173C65.9058 169.818 69.617 164.396 71.9392 158.344C71.9392 158.344 45.8 178.505 36.069 191.363C26.3381 204.221 20.2494 207.137 14.4917 199.641C10.8127 194.84 6.00245 197.277 2.96729 201.765C6.1956 208.084 10.7484 214.449 19.21 216.205Z" fill="#8A0072"/>
<path d="M81.5968 177.824C84.8803 170.144 81.2381 169.988 80.6771 170.016C81.0266 170.42 80.7506 171.616 79.6929 173.796C71.8935 189.937 66.5773 215.479 65.8967 231.519C65.308 244.515 78.0558 250.181 81.7348 237.599C59.3665 234.334 77.9454 186.341 81.5968 177.824Z" fill="#8A0072"/>
<path d="M93.8387 256.84L93.7559 256.785C87.3176 253.501 100.985 228.272 106.448 216.518C112.491 203.522 106.283 177.236 105.529 171.892C104.995 168.066 103.689 167.633 102.972 167.689C103.121 168.027 103.19 168.395 103.174 168.765C103.303 178.192 109.061 197.507 101.454 217.098C93.0661 238.702 82.1395 259.884 88.9364 261.245C90.5368 261.577 92.9281 260.022 95.7334 257.097C95.1838 257.154 94.6285 257.091 94.1054 256.913C94.0153 256.894 93.9262 256.869 93.8387 256.84Z" fill="#8A0072"/>
<path d="M230.955 148.456C228.812 142.303 225.629 142.156 222.677 143.508C220.525 144.492 219.173 146.838 218.998 151.602C221.343 146.865 224.728 151.207 225.868 151.758C227.331 152.457 229.207 161.793 217.039 180.445C204.871 199.098 150.468 178.072 151.304 179.148C151.692 179.647 152.144 180.092 152.647 180.473C158.902 185.173 162.967 186.175 178.915 190.756C238.129 207.753 233.107 154.61 230.955 148.456Z" fill="#8A0072"/>
<path d="M152.316 180.216C163.132 203.43 158.957 234.288 121.118 246.649C117.035 243.531 124.255 240.606 139.063 223.931C155.747 205.15 135.384 175.571 131.364 171.036C129.396 168.792 127.796 168.185 126.683 168.139C124.623 167.312 121.1 167.965 123.684 184.492C127.198 206.962 107.736 244.598 95.7516 257.152C95.2021 257.201 94.6484 257.139 94.1237 256.969L93.8385 256.849L93.7557 256.794C87.3175 253.51 100.102 227.849 105.565 216.095C111.608 203.099 106.283 177.245 105.565 171.901C105.032 168.075 103.726 167.643 103.008 167.698C100.783 163.412 80.3642 200.147 82.498 225.642C82.9522 229.643 82.6811 233.694 81.6979 237.599C58.4282 239.88 76.6485 186.488 80.2907 177.971C83.5834 170.291 81.2564 169.988 80.6862 170.016C78.4696 167.431 50.5276 197.608 34.0365 214.973C14.9794 235.033 -0.343642 218.266 0.00586224 210.245C0.220874 207.215 1.24001 204.298 2.95825 201.793C6.19576 208.084 11.7326 212.83 21.6935 211.193C32.9972 209.289 51.9992 181.411 60.2218 173.741C65.0253 169.358 68.9952 164.142 71.9393 158.344C71.9393 158.344 36.9889 164.148 21.6015 142.662C6.88556 122.115 27.4787 87.1647 40.9162 87.6981C28.4169 105.256 17.9226 121.572 34.0641 137.926C54.0595 158.16 81.1644 148.043 90.7574 120.901C95.6229 107.105 85.2389 88.4523 90.647 67.85C94.2525 54.1457 122.204 53.7778 140.534 55.0655C169.663 67.1602 187.653 93.281 165.763 121.618C158.598 130.899 151.534 133.787 148.38 140.326C144.13 154.877 152.794 163.964 183.542 173.437C215.53 183.315 220.377 167.505 219.311 158.151C219.042 155.973 218.934 153.778 218.989 151.584C221.334 146.847 224.912 148.631 225.951 149.349C228.628 151.188 232.307 163.219 220.138 181.871C207.97 200.524 151.773 179.434 151.773 179.434L152.316 180.216Z" fill="#A10094"/>
<path d="M86.4162 66.5805C89.1243 67.6487 91.4546 69.4961 93.1125 71.8889C94.7705 74.2818 95.6814 77.1126 95.7302 80.0233C95.7789 82.934 94.9634 85.7937 93.3866 88.2408C91.8098 90.6878 89.5427 92.6123 86.872 93.7707C84.2013 94.929 81.2471 95.2693 78.383 94.7484C75.5189 94.2275 72.8736 92.8688 70.7818 90.8442C68.6901 88.8197 67.2457 86.2202 66.6315 83.3747C66.0174 80.5291 66.2609 77.5653 67.3315 74.8582C68.7659 71.2308 71.5819 68.3213 75.1605 66.7692C78.7391 65.217 82.7876 65.1491 86.4162 66.5805Z" fill="#8A0072"/>
<path d="M81.5233 64.1708C84.2293 65.2376 86.5586 67.0824 88.2168 69.4722C89.875 71.862 90.7877 74.6896 90.8398 77.5979C90.8918 80.5061 90.0809 83.3646 88.5093 85.8122C86.9378 88.2599 84.676 90.1869 82.0099 91.3499C79.3438 92.5128 76.3928 92.8596 73.5297 92.3464C70.6666 91.8332 68.0198 90.483 65.9236 88.4664C63.8274 86.4498 62.3759 83.8572 61.7523 81.0161C61.1287 78.175 61.3611 75.2128 62.4201 72.5037C63.125 70.7005 64.1787 69.0541 65.521 67.6588C66.8633 66.2635 68.4677 65.1469 70.2424 64.3728C72.017 63.5987 73.9269 63.1824 75.8627 63.1477C77.7985 63.1131 79.7221 63.4607 81.5233 64.1708Z" fill="#A51888"/>
<path d="M80.6035 68.4662C82.4606 69.2031 84.058 70.4733 85.1942 72.1167C86.3304 73.7602 86.9545 75.7032 86.9879 77.7009C87.0214 79.6986 86.4625 81.6614 85.382 83.3419C84.3014 85.0225 82.7475 86.3454 80.9161 87.144C79.0847 87.9426 77.0578 88.1811 75.0911 87.8294C73.1243 87.4777 71.3058 86.5515 69.8646 85.1677C68.4235 83.7838 67.4244 82.0043 66.9933 80.0534C66.5621 78.1025 66.7182 76.0677 67.4419 74.2054C67.9254 72.9614 68.6502 71.8253 69.5746 70.8627C70.499 69.9 71.6048 69.1297 72.8282 68.5963C74.0516 68.0628 75.3684 67.7767 76.7029 67.7543C78.0373 67.732 79.363 67.9739 80.6035 68.4662Z" fill="white"/>
<path d="M77.5315 76.8909C78.1447 77.131 78.673 77.5475 79.0495 78.0878C79.426 78.6282 79.6338 79.268 79.6466 79.9265C79.6594 80.5849 79.4767 81.2324 79.1216 81.7869C78.7664 82.3415 78.2547 82.7783 77.6513 83.0421C77.0479 83.3059 76.3797 83.3847 75.7315 83.2688C75.0832 83.1528 74.4839 82.8472 74.0093 82.3906C73.5347 81.9339 73.2062 81.3468 73.0653 80.7035C72.9245 80.0602 72.9776 79.3896 73.2179 78.7764C73.54 77.9545 74.1754 77.2941 74.9843 76.9405C75.7932 76.5869 76.7094 76.5691 77.5315 76.8909Z" fill="black"/>
<path d="M176.009 106.176C174.862 108.852 172.948 111.128 170.508 112.716C168.068 114.304 165.212 115.132 162.3 115.096C159.389 115.061 156.554 114.162 154.154 112.515C151.754 110.867 149.896 108.545 148.816 105.841C147.736 103.138 147.482 100.175 148.086 97.3269C148.69 94.479 150.126 91.8744 152.211 89.8425C154.296 87.8106 156.937 86.4429 159.799 85.9122C162.662 85.3815 165.617 85.7119 168.292 86.8614C171.875 88.4012 174.7 91.3003 176.147 94.9219C177.594 98.5434 177.544 102.591 176.009 106.176Z" fill="#8A0072"/>
<path d="M181.113 103.711C179.968 106.387 178.054 108.663 175.615 110.252C173.175 111.84 170.319 112.669 167.408 112.635C164.497 112.6 161.662 111.702 159.262 110.056C156.861 108.409 155.002 106.088 153.921 103.385C152.84 100.682 152.585 97.7194 153.188 94.8714C153.791 92.0235 155.225 89.4183 157.309 87.3856C159.393 85.3529 162.032 83.9838 164.895 83.4517C167.757 82.9195 170.712 83.2482 173.387 84.396C176.972 85.9342 179.799 88.8326 181.248 92.4543C182.697 96.076 182.648 100.125 181.113 103.711Z" fill="#A51888"/>
<path d="M176.846 102.653C176.051 104.487 174.732 106.045 173.053 107.13C171.375 108.214 169.413 108.778 167.414 108.749C165.416 108.72 163.471 108.099 161.825 106.966C160.179 105.833 158.905 104.237 158.164 102.381C157.424 100.525 157.25 98.4908 157.664 96.5356C158.078 94.5805 159.062 92.7918 160.492 91.3953C161.922 89.9987 163.733 89.0569 165.697 88.6887C167.662 88.3204 169.691 88.5422 171.529 89.326C172.756 89.849 173.867 90.6092 174.799 91.5631C175.731 92.517 176.465 93.6456 176.959 94.8842C177.453 96.1227 177.697 97.4467 177.678 98.7799C177.658 100.113 177.375 101.43 176.846 102.653Z" fill="white"/>
<path d="M168.513 99.3236C168.254 99.9292 167.821 100.444 167.269 100.804C166.717 101.163 166.071 101.351 165.412 101.343C164.754 101.336 164.112 101.133 163.569 100.76C163.025 100.388 162.605 99.8623 162.36 99.2507C162.116 98.6391 162.058 97.9687 162.194 97.3243C162.331 96.6799 162.655 96.0905 163.127 95.6306C163.599 95.1707 164.196 94.861 164.844 94.7407C165.491 94.6204 166.16 94.6949 166.765 94.9548C167.576 95.3029 168.215 95.9585 168.543 96.7776C168.871 97.5968 168.86 98.5125 168.513 99.3236Z" fill="black"/>
<path d="M137.941 126.87C137.513 127.755 136.833 128.493 135.986 128.991C135.139 129.489 134.164 129.724 133.183 129.668C132.202 129.611 131.26 129.265 130.476 128.673C129.692 128.081 129.101 127.27 128.778 126.342C128.455 125.415 128.414 124.412 128.661 123.461C128.908 122.51 129.432 121.654 130.166 121C130.899 120.347 131.81 119.926 132.783 119.79C133.756 119.655 134.748 119.811 135.632 120.239C136.817 120.812 137.726 121.833 138.159 123.077C138.592 124.32 138.513 125.685 137.941 126.87Z" fill="black"/>
<path d="M138.796 59.8207C138.796 59.8207 106.448 57.834 101.684 63.1778C96.9196 68.5215 122.525 75.4288 137.876 73.0191C153.227 70.6093 150.256 62.0833 138.796 59.8207Z" fill="#A400A0"/>
<path d="M18.686 124.976C18.686 124.976 18.8792 139.232 31.2866 147.877C43.6939 156.523 67.3223 157.553 69.0882 156.155C70.8541 154.757 69.5021 153.479 66.7336 153.249C63.9652 153.019 46.4164 153.8 30.8635 141.218C21.9419 134.026 20.9946 117.461 18.686 124.976Z" fill="#A400A0"/>
<path d="M119.674 190.876C120.254 195.962 117.522 216.408 109.778 228.677C102.034 240.947 112.923 212.122 112.399 205.923C111.01 189.229 109.64 173.281 111.479 170.908C113.319 168.535 116.685 164.681 119.674 190.876Z" fill="#A400A0"/>
<path d="M144.25 144.612C144.25 144.612 140.065 152.504 152.316 162.455C164.567 172.407 194.358 178.376 194.358 178.376C194.358 178.376 176.726 180.685 163.647 175.47C150.568 170.255 133.562 163.301 144.25 144.612Z" fill="#A400A0"/>
<path d="M71.9391 158.344C67.1748 162.841 62.3646 167.238 57.5819 171.662C55.2181 173.897 52.8084 176.086 50.4814 178.348C48.1544 180.611 45.7999 182.837 43.5649 185.164C41.2988 187.435 39.1499 189.82 37.1266 192.31C36.6208 192.917 36.1241 193.543 35.6642 194.15C35.2044 194.757 34.6801 195.493 34.1559 196.146C33.1046 197.461 31.9513 198.691 30.7068 199.825C29.4575 201.003 28.0673 202.022 26.568 202.86C25.034 203.73 23.3242 204.246 21.5645 204.368C19.7788 204.463 18.0198 203.903 16.6163 202.795C15.1578 201.636 14.034 200.109 13.3604 198.371C16.929 202.372 19.9641 203.172 21.4265 202.924C22.9198 202.666 24.3369 202.079 25.5746 201.204C26.8585 200.331 28.0402 199.316 29.0973 198.178C30.1722 197.013 31.1765 195.784 32.1048 194.499C32.5647 193.865 33.0246 193.221 33.4569 192.531C33.8891 191.841 34.4226 191.151 34.9285 190.48C36.9711 187.871 39.1573 185.378 41.4771 183.012C46.1062 178.35 50.9915 173.95 56.1103 169.832C61.1737 165.717 66.4578 161.882 71.9391 158.344Z" fill="#74005D"/>
<path d="M25.3083 127.358C24.9346 128.131 24.34 128.776 23.5996 129.212C22.8592 129.647 22.0062 129.853 21.1488 129.803C20.2913 129.754 19.4678 129.451 18.7825 128.933C18.0971 128.415 17.5808 127.706 17.2988 126.895C17.0168 126.083 16.9818 125.207 17.1982 124.376C17.4146 123.544 17.8727 122.796 18.5145 122.225C19.1563 121.655 19.953 121.287 20.8038 121.169C21.6546 121.051 22.5212 121.189 23.294 121.563C23.8073 121.811 24.2666 122.157 24.6458 122.583C25.0249 123.008 25.3164 123.504 25.5035 124.043C25.6906 124.581 25.7697 125.151 25.7362 125.72C25.7027 126.289 25.5573 126.845 25.3083 127.358Z" fill="#74005D"/>
<path d="M29.5113 140.446C29.1372 141.216 28.5432 141.858 27.8043 142.291C27.0655 142.724 26.2149 142.928 25.3601 142.877C24.5053 142.827 23.6845 142.525 23.0016 142.008C22.3186 141.491 21.804 140.784 21.5229 139.975C21.2417 139.166 21.2066 138.292 21.4219 137.464C21.6372 136.635 22.0933 135.888 22.7326 135.319C23.3719 134.749 24.1656 134.382 25.0137 134.263C25.8617 134.144 26.7259 134.279 27.4971 134.651C28.5319 135.153 29.3253 136.045 29.7029 137.132C30.0806 138.218 30.0117 139.41 29.5113 140.446Z" fill="#74005D"/>
<path d="M40.0607 150.36C39.6865 151.131 39.0925 151.773 38.3537 152.206C37.6148 152.638 36.7642 152.843 35.9094 152.792C35.0546 152.742 34.2339 152.439 33.5509 151.923C32.8679 151.406 32.3534 150.699 32.0722 149.89C31.791 149.081 31.7559 148.207 31.9712 147.378C32.1865 146.55 32.6426 145.803 33.2819 145.234C33.9212 144.664 34.715 144.296 35.563 144.178C36.411 144.059 37.2752 144.194 38.0464 144.566C39.0813 145.068 39.8746 145.96 40.2523 147.047C40.6299 148.133 40.561 149.325 40.0607 150.36Z" fill="#74005D"/>
<path d="M57.1681 155.953C56.794 156.723 56.1999 157.365 55.4611 157.798C54.7222 158.231 53.8716 158.435 53.0168 158.384C52.162 158.334 51.3413 158.031 50.6583 157.515C49.9754 156.998 49.4608 156.291 49.1796 155.482C48.8985 154.673 48.8633 153.799 49.0786 152.971C49.2939 152.142 49.75 151.395 50.3893 150.826C51.0286 150.256 51.8224 149.889 52.6704 149.77C53.5184 149.651 54.3826 149.786 55.1538 150.158C55.6671 150.406 56.1264 150.752 56.5056 151.178C56.8847 151.603 57.1762 152.099 57.3633 152.637C57.5504 153.176 57.6295 153.746 57.596 154.314C57.5625 154.883 57.4171 155.44 57.1681 155.953Z" fill="#74005D"/>
<path d="M36.2805 149.34C36.1101 149.644 35.8301 149.872 35.4975 149.977C35.1648 150.082 34.8047 150.056 34.4904 149.905C34.1761 149.754 33.9313 149.488 33.806 149.163C33.6806 148.837 33.684 148.476 33.8156 148.153C33.986 147.849 34.2661 147.621 34.5987 147.516C34.9313 147.411 35.2914 147.437 35.6057 147.588C35.92 147.739 36.1648 148.005 36.2902 148.33C36.4155 148.656 36.4121 149.017 36.2805 149.34Z" fill="#A400A0"/>
<path d="M26.43 138.33C26.3101 138.57 26.1221 138.769 25.8896 138.902C25.6572 139.035 25.3905 139.097 25.1231 139.079C24.8557 139.062 24.5995 138.965 24.3866 138.803C24.1736 138.64 24.0134 138.418 23.926 138.165C23.8386 137.912 23.8279 137.638 23.8953 137.379C23.9626 137.119 24.1051 136.886 24.3047 136.707C24.5043 136.528 24.7522 136.412 25.0174 136.374C25.2826 136.335 25.5532 136.376 25.7954 136.491C25.9592 136.568 26.1059 136.678 26.2268 136.813C26.3477 136.948 26.4405 137.106 26.4996 137.277C26.5587 137.448 26.583 137.63 26.5711 137.811C26.5591 137.991 26.5112 138.168 26.43 138.33Z" fill="#A400A0"/>
<path d="M22.5213 125.739C22.4014 125.978 22.2134 126.177 21.9809 126.311C21.7485 126.444 21.4818 126.505 21.2144 126.488C20.947 126.47 20.6908 126.374 20.4779 126.211C20.2649 126.049 20.1047 125.827 20.0173 125.573C19.9299 125.32 19.9192 125.047 19.9866 124.787C20.0539 124.528 20.1964 124.294 20.396 124.115C20.5956 123.937 20.8435 123.821 21.1087 123.782C21.3739 123.744 21.6445 123.785 21.8867 123.899C22.0514 123.976 22.199 124.085 22.3206 124.22C22.4422 124.355 22.5354 124.513 22.5947 124.684C22.6539 124.856 22.6779 125.038 22.6653 125.219C22.6527 125.4 22.6038 125.577 22.5213 125.739Z" fill="#A400A0"/>
<path d="M54.5927 154.269C54.4727 154.509 54.2847 154.708 54.0522 154.841C53.8197 154.974 53.5531 155.036 53.2857 155.018C53.0183 155.001 52.7621 154.904 52.5491 154.742C52.3362 154.579 52.176 154.357 52.0886 154.104C52.0012 153.851 51.9905 153.577 52.0579 153.318C52.1252 153.059 52.2676 152.825 52.4673 152.646C52.6669 152.467 52.9148 152.351 53.18 152.313C53.4452 152.274 53.7159 152.315 53.958 152.43C54.121 152.508 54.2668 152.618 54.387 152.754C54.5072 152.889 54.5995 153.046 54.6585 153.217C54.7175 153.388 54.742 153.569 54.7307 153.75C54.7194 153.93 54.6725 154.107 54.5927 154.269Z" fill="#A400A0"/>
<path d="M178.106 185.081C177.731 185.851 177.137 186.493 176.399 186.926C175.66 187.358 174.809 187.563 173.954 187.512C173.1 187.462 172.279 187.159 171.596 186.643C170.913 186.126 170.398 185.419 170.117 184.61C169.836 183.801 169.801 182.927 170.016 182.099C170.231 181.27 170.688 180.523 171.327 179.954C171.966 179.384 172.76 179.016 173.608 178.898C174.456 178.779 175.32 178.914 176.091 179.286C177.126 179.788 177.92 180.68 178.297 181.767C178.675 182.853 178.606 184.045 178.106 185.081Z" fill="#74005D"/>
<path d="M175.531 183.398C175.411 183.637 175.223 183.836 174.99 183.97C174.758 184.103 174.491 184.164 174.224 184.147C173.956 184.129 173.7 184.033 173.487 183.87C173.274 183.708 173.114 183.486 173.027 183.232C172.939 182.979 172.928 182.706 172.996 182.446C173.063 182.187 173.206 181.953 173.405 181.775C173.605 181.596 173.853 181.48 174.118 181.441C174.383 181.403 174.654 181.444 174.896 181.558C175.06 181.636 175.207 181.745 175.327 181.88C175.448 182.015 175.541 182.173 175.6 182.345C175.659 182.516 175.684 182.697 175.672 182.878C175.66 183.059 175.612 183.236 175.531 183.398Z" fill="#A400A0"/>
<path d="M190.633 188.834C190.26 189.607 189.666 190.253 188.926 190.689C188.186 191.125 187.334 191.331 186.477 191.283C185.619 191.234 184.795 190.933 184.11 190.416C183.424 189.899 182.907 189.191 182.624 188.38C182.34 187.569 182.304 186.693 182.519 185.861C182.734 185.03 183.191 184.281 183.832 183.709C184.473 183.138 185.268 182.769 186.119 182.65C186.969 182.53 187.836 182.666 188.609 183.039C189.646 183.539 190.441 184.431 190.821 185.517C191.2 186.604 191.132 187.797 190.633 188.834Z" fill="#74005D"/>
<path d="M188.057 187.151C187.938 187.39 187.75 187.589 187.517 187.722C187.285 187.856 187.018 187.917 186.751 187.9C186.483 187.882 186.227 187.786 186.014 187.623C185.801 187.461 185.641 187.239 185.553 186.985C185.466 186.732 185.455 186.459 185.523 186.199C185.59 185.94 185.732 185.706 185.932 185.527C186.132 185.349 186.38 185.233 186.645 185.194C186.91 185.156 187.181 185.196 187.423 185.311C187.587 185.389 187.733 185.498 187.854 185.633C187.975 185.768 188.068 185.926 188.127 186.097C188.186 186.269 188.21 186.45 188.198 186.631C188.187 186.812 188.139 186.989 188.057 187.151Z" fill="#A400A0"/>
<path d="M203.307 190.618C202.933 191.388 202.339 192.03 201.6 192.463C200.861 192.896 200.01 193.1 199.156 193.049C198.301 192.999 197.48 192.696 196.797 192.18C196.114 191.663 195.599 190.956 195.318 190.147C195.037 189.338 195.002 188.464 195.217 187.636C195.433 186.807 195.889 186.06 196.528 185.491C197.167 184.921 197.961 184.554 198.809 184.435C199.657 184.316 200.521 184.451 201.293 184.823C202.327 185.325 203.121 186.217 203.498 187.304C203.876 188.39 203.807 189.582 203.307 190.618Z" fill="#74005D"/>
<path d="M200.704 188.935C200.584 189.175 200.396 189.373 200.164 189.507C199.931 189.64 199.664 189.702 199.397 189.684C199.13 189.666 198.873 189.57 198.66 189.407C198.448 189.245 198.287 189.023 198.2 188.77C198.113 188.516 198.102 188.243 198.169 187.983C198.237 187.724 198.379 187.49 198.579 187.312C198.778 187.133 199.026 187.017 199.291 186.978C199.557 186.94 199.827 186.981 200.069 187.095C200.233 187.173 200.38 187.282 200.501 187.418C200.622 187.553 200.714 187.71 200.774 187.882C200.833 188.053 200.857 188.234 200.845 188.415C200.833 188.596 200.785 188.773 200.704 188.935Z" fill="#A400A0"/>
<path d="M215.926 188.291C215.552 189.064 214.958 189.709 214.217 190.145C213.477 190.58 212.624 190.786 211.766 190.736C210.909 190.687 210.085 190.384 209.4 189.866C208.715 189.349 208.198 188.639 207.916 187.828C207.634 187.017 207.599 186.14 207.816 185.309C208.032 184.477 208.49 183.729 209.132 183.158C209.774 182.588 210.571 182.22 211.421 182.102C212.272 181.984 213.139 182.122 213.912 182.496C214.425 182.744 214.884 183.091 215.263 183.516C215.643 183.941 215.934 184.437 216.121 184.976C216.308 185.514 216.387 186.084 216.354 186.653C216.32 187.222 216.175 187.778 215.926 188.291Z" fill="#74005D"/>
<path d="M213.36 186.599C213.24 186.841 213.052 187.043 212.818 187.179C212.584 187.315 212.315 187.378 212.045 187.361C211.775 187.345 211.516 187.248 211.3 187.084C211.085 186.92 210.923 186.696 210.835 186.441C210.746 186.185 210.736 185.909 210.804 185.647C210.873 185.385 211.017 185.149 211.219 184.97C211.422 184.79 211.672 184.674 211.94 184.636C212.208 184.599 212.481 184.642 212.725 184.759C212.888 184.838 213.034 184.948 213.154 185.083C213.274 185.218 213.367 185.376 213.426 185.547C213.485 185.718 213.509 185.899 213.498 186.079C213.487 186.26 213.44 186.436 213.36 186.599Z" fill="#A400A0"/>
<path d="M118.469 6.84213C118.42 6.31152 119.124 6.08252 119.396 6.54053L122.989 12.5825C123.166 12.8793 123.583 12.9121 123.804 12.6464L128.296 7.2392C128.636 6.82931 129.296 7.16541 129.165 7.68186L127.433 14.4949C127.348 14.8296 127.62 15.1477 127.964 15.1159L134.964 14.4687C135.494 14.4197 135.723 15.124 135.265 15.3964L129.223 18.9895C128.927 19.166 128.894 19.5832 129.16 19.8038L134.567 24.2958C134.977 24.6363 134.641 25.2962 134.124 25.165L127.311 23.4334C126.976 23.3483 126.658 23.6201 126.69 23.964L127.337 30.9638C127.386 31.4944 126.682 31.7234 126.41 31.2654L122.816 25.2234C122.64 24.9266 122.223 24.8939 122.002 25.1595L117.51 30.5667C117.17 30.9766 116.51 30.6405 116.641 30.1241L118.373 23.311C118.458 22.9763 118.186 22.6582 117.842 22.69L110.842 23.3372C110.312 23.3862 110.083 22.6819 110.541 22.4096L116.582 18.8164C116.879 18.6399 116.912 18.2228 116.646 18.0021L111.239 13.5101C110.829 13.1696 111.165 12.5097 111.682 12.6409L118.495 14.3725C118.83 14.4576 119.148 14.1858 119.116 13.8419L118.469 6.84213Z" fill="#F0D53A"/>
<path d="M186.469 35.8421C186.42 35.3115 187.124 35.0825 187.396 35.5405L190.989 41.5825C191.166 41.8793 191.583 41.9121 191.804 41.6464L196.296 36.2392C196.636 35.8293 197.296 36.1654 197.165 36.6819L195.433 43.4949C195.348 43.8296 195.62 44.1477 195.964 44.1159L202.964 43.4687C203.494 43.4197 203.723 44.124 203.265 44.3964L197.223 47.9895C196.927 48.166 196.894 48.5832 197.16 48.8038L202.567 53.2958C202.977 53.6363 202.641 54.2962 202.124 54.165L195.311 52.4334C194.976 52.3483 194.658 52.6201 194.69 52.964L195.337 59.9638C195.386 60.4944 194.682 60.7234 194.41 60.2654L190.816 54.2234C190.64 53.9266 190.223 53.8939 190.002 54.1595L185.51 59.5667C185.17 59.9766 184.51 59.6405 184.641 59.1241L186.373 52.311C186.458 51.9763 186.186 51.6582 185.842 51.69L178.842 52.3372C178.312 52.3862 178.083 51.6819 178.541 51.4096L184.582 47.8164C184.879 47.6399 184.912 47.2228 184.646 47.0021L179.239 42.5101C178.829 42.1696 179.165 41.5097 179.682 41.6409L186.495 43.3725C186.83 43.4576 187.148 43.1858 187.116 42.8419L186.469 35.8421Z" fill="#F0D53A"/>
<path d="M143.469 55.8421C143.42 55.3115 144.124 55.0825 144.396 55.5405L147.989 61.5825C148.166 61.8793 148.583 61.9121 148.804 61.6464L153.296 56.2392C153.636 55.8293 154.296 56.1654 154.165 56.6819L152.433 63.4949C152.348 63.8296 152.62 64.1477 152.964 64.1159L159.964 63.4687C160.494 63.4197 160.723 64.124 160.265 64.3964L154.223 67.9895C153.927 68.166 153.894 68.5832 154.16 68.8038L159.567 73.2958C159.977 73.6363 159.641 74.2962 159.124 74.165L152.311 72.4334C151.976 72.3483 151.658 72.6201 151.69 72.964L152.337 79.9638C152.386 80.4944 151.682 80.7234 151.41 80.2654L147.816 74.2234C147.64 73.9266 147.223 73.8939 147.002 74.1595L142.51 79.5667C142.17 79.9766 141.51 79.6405 141.641 79.1241L143.373 72.311C143.458 71.9763 143.186 71.6582 142.842 71.69L135.842 72.3372C135.312 72.3862 135.083 71.6819 135.541 71.4096L141.582 67.8164C141.879 67.6399 141.912 67.2228 141.646 67.0021L136.239 62.5101C135.829 62.1696 136.165 61.5097 136.682 61.6409L143.495 63.3725C143.83 63.4576 144.148 63.1858 144.116 62.8419L143.469 55.8421Z" fill="#F0D53A"/>
<path d="M80.4687 29.8421C80.4197 29.3115 81.124 29.0825 81.3964 29.5405L84.9895 35.5825C85.166 35.8793 85.5831 35.9121 85.8038 35.6464L90.2958 30.2392C90.6363 29.8293 91.2962 30.1654 91.165 30.6819L89.4334 37.4949C89.3483 37.8296 89.6201 38.1477 89.964 38.1159L96.9638 37.4687C97.4944 37.4197 97.7234 38.124 97.2654 38.3964L91.2234 41.9895C90.9266 42.166 90.8939 42.5832 91.1595 42.8038L96.5667 47.2958C96.9766 47.6363 96.6405 48.2962 96.1241 48.165L89.311 46.4334C88.9763 46.3483 88.6582 46.6201 88.69 46.964L89.3372 53.9638C89.3862 54.4944 88.6819 54.7234 88.4096 54.2654L84.8164 48.2234C84.6399 47.9266 84.2228 47.8939 84.0021 48.1595L79.5101 53.5667C79.1696 53.9766 78.5097 53.6405 78.6409 53.1241L80.3725 46.311C80.4576 45.9763 80.1858 45.6582 79.8419 45.69L72.8421 46.3372C72.3115 46.3862 72.0825 45.6819 72.5405 45.4096L78.5825 41.8164C78.8793 41.6399 78.9121 41.2228 78.6464 41.0021L73.2392 36.5101C72.8293 36.1696 73.1654 35.5097 73.6819 35.6409L80.4949 37.3725C80.8296 37.4576 81.1477 37.1858 81.1159 36.8419L80.4687 29.8421Z" fill="#F0D53A"/>
<path d="M189.758 49.0119L188.66 47.99L187.621 49.1062C180.716 43.0843 169.556 36.72 155.92 31.2229L156.472 29.8218L155.077 29.272C150.608 27.5115 145.89 25.8463 140.982 24.3163C136.074 22.7864 131.245 21.4758 126.567 20.3852L125.107 20.0447L124.765 21.5112C110.421 18.2868 97.6212 17.1824 88.517 18.2138L88.2964 16.705L86.8122 16.922C83.331 17.4308 80.3367 18.2866 78.0267 19.5456C75.7089 20.8089 73.9739 22.5417 73.2628 24.8228C72.5517 27.104 72.9948 29.5158 74.1843 31.8723C75.3697 34.2209 77.3474 36.6265 79.9228 39.0233L81.0209 40.0452L82.0597 38.929C88.9653 44.9509 100.125 51.3152 113.761 56.8123L113.209 58.2134L114.604 58.7632C119.073 60.5237 123.791 62.189 128.699 63.7189C133.607 65.2488 138.436 66.5594 143.113 67.65L144.574 67.9906L144.916 66.524C159.26 69.7485 172.06 70.8528 181.164 69.8214L181.385 71.3302L182.869 71.1133C186.35 70.6044 189.344 69.7486 191.654 68.4896C193.972 67.2263 195.707 65.4935 196.418 63.2124C197.129 60.9313 196.686 58.5195 195.497 56.1629C194.311 53.8143 192.334 51.4087 189.758 49.0119Z" stroke="#F0D53A" stroke-width="3" stroke-miterlimit="2.3662" stroke-linecap="square" stroke-dasharray="30 40"/>
</svg>
