<svg width="1095" height="810" fill="none" xmlns="http://www.w3.org/2000/svg">
  <path d="M912.5 743.8c0-.5.6-.7.9-.3l3.6 6c.2.4.6.4.8.1l4.5-5.4c.3-.4 1 0 .9.5l-1.8 6.8c0 .3.2.6.6.6l7-.6c.5 0 .7.6.3.9l-6 3.6c-.4.2-.4.6-.1.8l5.4 4.5c.4.3 0 1-.5.9l-6.8-1.8c-.3 0-.6.2-.6.6l.6 7c0 .5-.6.7-.9.3l-3.6-6a.5.5 0 00-.8-.1l-4.5 5.4c-.3.4-1 0-.9-.5l1.8-6.8c0-.3-.2-.6-.6-.6l-7 .6c-.5 0-.7-.6-.3-.9l6-3.6c.4-.2.4-.6.1-.8l-5.4-4.5c-.4-.3 0-1 .5-.9l6.8 1.8c.3 0 .6-.2.6-.6l-.6-7zM1071.5 637.8c0-.5.6-.7.9-.3l3.6 6c.2.4.6.4.8.1l4.5-5.4c.3-.4 1 0 .9.5l-1.8 6.8c0 .3.2.6.6.6l7-.6c.5 0 .7.6.3.9l-6 3.6c-.4.2-.4.6-.1.8l5.4 4.5c.4.3 0 1-.5.9l-6.8-1.8c-.3 0-.6.2-.6.6l.6 7c0 .5-.6.7-.9.3l-3.6-6a.5.5 0 00-.8-.1l-4.5 5.4c-.3.4-1 0-.9-.5l1.8-6.8c0-.3-.2-.6-.6-.6l-7 .6c-.5 0-.7-.6-.3-.9l6-3.6c.4-.2.4-.6.2-.8l-5.5-4.5c-.4-.3 0-1 .5-.9l6.8 1.8c.3 0 .7-.2.6-.6l-.6-7zM996.5 341.8c0-.5.6-.7.9-.3l3.6 6c.2.4.6.4.8.1l4.5-5.4c.3-.4 1 0 .9.5l-1.8 6.8c0 .3.2.6.6.6l7-.6c.5 0 .7.6.3.9l-6 3.6c-.4.2-.4.6-.1.8l5.4 4.5c.4.3 0 1-.5.9l-6.8-1.8c-.3 0-.6.2-.6.6l.6 7c0 .5-.6.7-.9.3l-3.6-6a.5.5 0 00-.8-.1l-4.5 5.4c-.3.4-1 0-.9-.5l1.8-6.8c0-.3-.2-.6-.6-.6l-7 .6c-.5 0-.7-.6-.3-.9l6-3.6c.4-.2.4-.6.1-.8l-5.4-4.5c-.4-.3 0-1 .5-.9l6.8 1.8c.3 0 .6-.2.6-.6l-.6-7zM834.5 469.8c0-.5.6-.7.9-.3l3.6 6c.2.4.6.4.8.1l4.5-5.4c.3-.4 1 0 .9.5l-1.8 6.8c0 .3.2.6.6.6l7-.6c.5 0 .7.6.3.9l-6 3.6c-.4.2-.4.6-.1.8l5.4 4.5c.4.3 0 1-.5.9l-6.8-1.8c-.3 0-.6.2-.6.6l.6 7c0 .5-.6.7-.9.3l-3.6-6a.5.5 0 00-.8-.1l-4.5 5.4c-.3.4-1 0-.9-.5l1.8-6.8c0-.3-.2-.6-.6-.6l-7 .6c-.5 0-.7-.6-.3-.9l6-3.6c.4-.2.4-.6.1-.8l-5.4-4.5c-.4-.3 0-1 .5-.9l6.8 1.8c.3 0 .6-.2.6-.6l-.6-7zM935.5 513.8c0-.5.6-.7.9-.3l3.6 6c.2.4.6.4.8.1l4.5-5.4c.3-.4 1 0 .9.5l-1.8 6.8c0 .3.2.6.6.6l7-.6c.5 0 .7.6.3.9l-6 3.6c-.4.2-.4.6-.1.8l5.4 4.5c.4.3 0 1-.5.9l-6.8-1.8c-.3 0-.6.2-.6.6l.6 7c0 .5-.6.7-.9.3l-3.6-6a.5.5 0 00-.8-.1l-4.5 5.4c-.3.4-1 0-.9-.5l1.8-6.8c0-.3-.2-.6-.6-.6l-7 .6c-.5 0-.7-.6-.3-.9l6-3.6c.4-.2.4-.6.1-.8l-5.4-4.5c-.4-.3 0-1 .5-.9l6.8 1.8c.3 0 .6-.2.6-.6l-.6-7zM732.5 778.8c0-.5.6-.7.9-.3l3.6 6c.2.4.6.4.8.1l4.5-5.4c.3-.4 1 0 .9.5l-1.8 6.8c0 .3.2.6.6.6l7-.6c.5 0 .7.6.3.9l-6 3.6c-.4.2-.4.6-.1.8l5.4 4.5c.4.3 0 1-.5.9l-6.8-1.8c-.3 0-.6.2-.6.6l.6 7c0 .5-.6.7-.9.3l-3.6-6a.5.5 0 00-.8-.1l-4.5 5.4c-.3.4-1 0-.9-.5l1.8-6.8c0-.3-.2-.6-.6-.6l-7 .6c-.5 0-.7-.6-.3-.9l6-3.6c.4-.2.4-.6.1-.8l-5.4-4.5c-.4-.3 0-1 .5-.9l6.8 1.8c.3 0 .6-.2.6-.6l-.6-7zM438.5 778.8c0-.5.6-.7.9-.3l3.6 6c.2.4.6.4.8.1l4.5-5.4c.3-.4 1 0 .9.5l-1.8 6.8c0 .3.2.6.6.6l7-.6c.5 0 .7.6.3.9l-6 3.6c-.4.2-.4.6-.1.8l5.4 4.5c.4.3 0 1-.5.9l-6.8-1.8c-.3 0-.6.2-.6.6l.6 7c0 .5-.6.7-.9.3l-3.6-6a.5.5 0 00-.8-.1l-4.5 5.4c-.3.4-1 0-.9-.5l1.8-6.8c0-.3-.2-.6-.6-.6l-7 .6c-.5 0-.7-.6-.3-.9l6-3.6c.4-.2.4-.6.1-.8l-5.4-4.5c-.4-.3 0-1 .5-.9l6.8 1.8c.3 0 .6-.2.6-.6l-.6-7zM559.5 714.8c0-.5.6-.7.9-.3l3.6 6c.2.4.6.4.8.1l4.5-5.4c.3-.4 1 0 .9.5l-1.8 6.8c0 .3.2.6.6.6l7-.6c.5 0 .7.6.3.9l-6 3.6c-.4.2-.4.6-.1.8l5.4 4.5c.4.3 0 1-.5.9l-6.8-1.8c-.3 0-.6.2-.6.6l.6 7c0 .5-.6.7-.9.3l-3.6-6a.5.5 0 00-.8-.1l-4.5 5.4c-.3.4-1 0-.9-.5l1.8-6.8c0-.3-.2-.6-.6-.6l-7 .6c-.5 0-.7-.6-.3-.9l6-3.6c.4-.2.4-.6.1-.8l-5.4-4.5c-.4-.3 0-1 .5-.9l6.8 1.8c.3 0 .6-.2.6-.6l-.6-7zM492.5 449.8c0-.5.6-.7.9-.3l3.6 6c.2.4.6.4.8.1l4.5-5.4c.3-.4 1 0 .9.5l-1.8 6.8c0 .3.2.6.6.6l7-.6c.5 0 .7.6.3.9l-6 3.6c-.4.2-.4.6-.1.8l5.4 4.5c.4.3 0 1-.5.9l-6.8-1.8c-.3 0-.6.2-.6.6l.6 7c0 .5-.6.7-.9.3l-3.6-6a.5.5 0 00-.8-.1l-4.5 5.4c-.3.4-1 0-.9-.5l1.8-6.8c0-.3-.2-.6-.6-.6l-7 .6c-.5 0-.7-.6-.3-.9l6-3.6c.4-.2.4-.6.1-.8l-5.4-4.5c-.4-.3 0-1 .5-.9l6.8 1.8c.3 0 .6-.2.6-.6l-.6-7zM558.5 199.8c0-.5.6-.7.9-.3l3.6 6c.2.4.6.4.8.1l4.5-5.4c.3-.4 1 0 .9.5l-1.8 6.8c0 .3.2.6.6.6l7-.6c.5 0 .7.6.3.9l-6 3.6c-.4.2-.4.6-.1.8l5.4 4.5c.4.3 0 1-.5.9l-6.8-1.8c-.3 0-.6.2-.6.6l.6 7c0 .5-.6.7-.9.3l-3.6-6a.5.5 0 00-.8-.1l-4.5 5.4c-.3.4-1 0-.9-.5l1.8-6.8c0-.3-.2-.6-.6-.6l-7 .6c-.5 0-.7-.6-.3-.9l6-3.6c.4-.2.4-.6.1-.8l-5.4-4.5c-.4-.3 0-1 .5-.9l6.8 1.8c.3 0 .6-.2.6-.6l-.6-7zM14.5 199.8c0-.5.6-.7.9-.3l3.6 6c.2.4.6.4.8.1l4.5-5.4c.3-.4 1 0 .9.5l-1.8 6.8c0 .3.2.6.6.6l7-.6c.5 0 .7.6.3.9l-6 3.6c-.4.2-.4.6-.1.8l5.4 4.5c.4.3 0 1-.5.9l-6.8-1.8c-.3 0-.6.2-.6.6l.6 7c0 .5-.6.7-.9.3l-3.6-6a.5.5 0 00-.8-.1l-4.5 5.4c-.3.4-1 0-.9-.5l1.8-6.8c0-.3-.2-.6-.6-.6l-7 .6c-.5 0-.7-.6-.3-.9l6-3.6c.4-.2.4-.6.1-.8l-5.4-4.5c-.4-.3 0-1 .5-.9l6.8 1.8c.3 0 .6-.2.6-.6l-.6-7zM67.5 48.8c0-.5.6-.7.9-.3l3.6 6c.2.4.6.4.8.1l4.5-5.4c.3-.4 1 0 .9.5l-1.8 6.8c0 .3.2.6.6.6l7-.6c.5 0 .7.6.3.9l-6 3.6c-.4.2-.4.6-.1.8l5.4 4.5c.4.3 0 1-.5.9l-6.8-1.8c-.3 0-.6.2-.6.6l.6 7c0 .5-.6.7-.9.3l-3.6-6a.5.5 0 00-.8-.1l-4.5 5.4c-.3.4-1 0-.9-.5l1.8-6.8c0-.3-.2-.6-.6-.6l-7 .6c-.5 0-.7-.6-.3-.9l6-3.6c.4-.2.4-.6.1-.8l-5.4-4.5c-.4-.3 0-1 .5-.9l6.8 1.8c.3 0 .6-.2.6-.6l-.6-7zM343.5 6.8c0-.5.6-.7.9-.3l3.6 6c.2.4.6.4.8.1l4.5-5.4c.3-.4 1 0 .9.5l-1.8 6.8c0 .3.2.6.6.6l7-.6c.5 0 .7.6.3.9l-6 3.6c-.4.2-.4.6-.1.8l5.4 4.5c.4.3 0 1-.5.9l-6.8-1.8c-.3 0-.6.2-.6.6l.6 7c0 .5-.6.7-.9.3l-3.6-6a.5.5 0 00-.8-.1l-4.5 5.4c-.3.4-1 0-.9-.5l1.8-6.8c0-.3-.2-.6-.6-.6l-7 .6c-.5 0-.7-.6-.3-.9l6-3.6c.4-.2.4-.6.1-.8l-5.4-4.5c-.4-.3 0-1 .5-.9l6.8 1.8c.3 0 .6-.2.6-.6l-.6-7zM213.5 154.8c0-.5.6-.7.9-.3l3.6 6c.2.4.6.4.8.1l4.5-5.4c.3-.4 1 0 .9.5l-1.8 6.8c0 .3.2.6.6.6l7-.6c.5 0 .7.6.3.9l-6 3.6c-.4.2-.4.6-.1.8l5.4 4.5c.4.3 0 1-.5.9l-6.8-1.8c-.3 0-.6.2-.6.6l.6 7c0 .5-.6.7-.9.3l-3.6-6a.5.5 0 00-.8-.1l-4.5 5.4c-.3.4-1 0-.9-.5l1.8-6.8c0-.3-.2-.6-.6-.6l-7 .6c-.5 0-.7-.6-.3-.9l6-3.6c.4-.2.4-.6.1-.8l-5.4-4.5c-.4-.3 0-1 .5-.9l6.8 1.8c.3 0 .6-.2.6-.6l-.6-7zM587.5 63.8c0-.5.6-.7.9-.3l3.6 6c.2.4.6.4.8.1l4.5-5.4c.3-.4 1 0 .9.5l-1.8 6.8c0 .3.2.6.6.6l7-.6c.5 0 .7.6.3.9l-6 3.6c-.4.2-.4.6-.1.8l5.4 4.5c.4.3 0 1-.5.9l-6.8-1.8c-.3 0-.6.2-.6.6l.6 7c0 .5-.6.7-.9.3l-3.6-6a.5.5 0 00-.8-.1l-4.5 5.4c-.3.4-1 0-.9-.5l1.8-6.8c0-.3-.2-.6-.6-.6l-7 .6c-.5 0-.7-.6-.3-.9l6-3.6c.4-.2.4-.6.1-.8l-5.4-4.5c-.4-.3 0-1 .5-.9l6.8 1.8c.3 0 .6-.2.6-.6l-.6-7zM793.5 44.8c0-.5.6-.7.9-.3l3.6 6c.2.4.6.4.8.1l4.5-5.4c.3-.4 1 0 .9.5l-1.8 6.8c0 .3.2.6.6.6l7-.6c.5 0 .7.6.3.9l-6 3.6c-.4.2-.4.6-.1.8l5.4 4.5c.4.3 0 1-.5.9l-6.8-1.8c-.3 0-.6.2-.6.6l.6 7c0 .5-.6.7-.9.3l-3.6-6a.5.5 0 00-.8-.1l-4.5 5.4c-.3.4-1 0-.9-.5l1.8-6.8c0-.3-.2-.6-.6-.6l-7 .6c-.5 0-.7-.6-.3-.9l6-3.6c.4-.2.4-.6.1-.8l-5.4-4.5c-.4-.3 0-1 .5-.9l6.8 1.8c.3 0 .6-.2.6-.6l-.6-7z" fill="#F0D53A"/>
</svg>