<svg width="89" height="89" viewBox="0 0 89 89" fill="none" xmlns="http://www.w3.org/2000/svg">
<g filter="">
<path d="M36.6515 52.2509C35.1447 49.9679 12.333 73.09 0.484295 64.9398C0.345047 65.6249 0.347763 66.3313 0.492265 67.0153C0.636767 67.6993 0.919985 68.3465 1.32443 68.9167C2.09813 69.9053 3.21397 70.5682 4.45214 70.7751C10.7715 72.0581 23.3964 65.2959 33.1037 58.0497C33.5283 57.7301 33.9621 57.4013 34.3913 57.068C39.5554 65.8073 51.8014 84.2904 60.7142 79.7883C61.6149 79.3393 62.3771 78.6545 62.9195 77.8067C62.6547 77.93 62.3899 78.0487 62.1114 78.1674C51.3859 82.6512 39.4367 56.5018 36.6515 52.2509Z" fill="#EED51F"/>
<path d="M6.53885 22.8137C3.52987 19.7819 5.26492 17.088 6.83562 15.5812C4.66678 15.6771 3.09153 16.4076 2.15094 17.7683C0.288016 20.4622 1.57561 24.5305 5.97721 29.8636C9.23732 33.8086 13.9585 38.1326 19.4469 42.2191C29.0308 37.8815 10.7167 27.0007 6.53885 22.8137Z" fill="#EED51F"/>
<path d="M80.1333 32.6169C79.7771 31.0964 78.6904 29.8773 76.9051 29.0234C76.9325 29.1924 76.9599 29.3613 77.001 29.5394C78.6174 36.1646 67.0746 40.1097 58.6001 42.6438C50.1257 45.1779 56.0614 48.7531 56.0614 48.7531C66.6636 45.5386 81.6812 39.1827 80.1333 32.6169Z" fill="#EED51F"/>
<path d="M60.2485 42.8721C68.6773 40.1782 78.6174 36.1647 77.0011 29.5394C76.96 29.3614 76.9326 29.1924 76.9052 29.0235C75.8029 28.5082 74.64 28.1338 73.4441 27.9094C68.7777 26.9597 60.5681 27.5304 52.6598 28.8226C50.6234 29.5029 49.5686 29.7358 48.6052 30.1924C45.7515 31.6307 46.482 23.8639 49.3038 7.95149C50.4362 1.55911 46.3359 0.0934206 46.3359 0.0934206C39.2997 -1.33573 33.4872 13.9375 30.6654 25.0191C23.2777 20.3299 15.9676 16.9784 10.7121 15.8872C9.43957 15.6085 8.13779 15.4858 6.83558 15.5219C5.26489 17.0287 3.52983 19.7226 6.53881 22.7544C10.7167 26.9597 29.0308 37.8221 19.4468 42.1598L19.634 42.2968C13.5659 46.9541 8.35149 51.9447 4.86308 56.4513C2.28177 59.7784 0.822197 62.5972 0.484314 64.9076C12.2782 75.7746 35.2314 49.8033 36.6515 52.2187C38.2313 54.9035 50.532 83.6235 62.1114 78.1352C62.3853 78.0028 62.6547 77.8978 62.9196 77.7745C66.7048 71.8981 60.8512 58.0266 56.0432 48.6572C56.0432 48.6892 53.7008 44.9633 60.2485 42.8721Z" fill="#EEC81F"/>
<path d="M48.829 7.97906C47.9158 12.4218 45.0119 32.0372 47.8656 30.5989C49.4287 29.9178 51.0294 29.3263 52.6599 28.8273L50.7193 29.1606C52.5868 17.8598 53.3858 1.59582 46.336 0.111877C46.336 0.111877 49.7331 3.5318 48.829 7.97906Z" fill="#EED51F"/>
<path d="M13.3467 23.4941C13.2552 23.9429 13.0329 24.3546 12.7078 24.6772C12.3827 24.9998 11.9694 25.2189 11.5199 25.307C11.0704 25.395 10.6049 25.348 10.1821 25.1719C9.7593 24.9958 9.39809 24.6984 9.14403 24.3173C8.88997 23.9363 8.75444 23.4885 8.75449 23.0305C8.75454 22.5724 8.89017 22.1247 9.14431 21.7437C9.39846 21.3626 9.75974 21.0653 10.1826 20.8893C10.6054 20.7133 11.0709 20.6664 11.5204 20.7545C11.8207 20.8134 12.1064 20.9312 12.3611 21.101C12.6157 21.2709 12.8342 21.4894 13.004 21.7441C13.1737 21.9987 13.2914 22.2845 13.3503 22.5848C13.4091 22.8852 13.4079 23.1942 13.3467 23.4941Z" fill="#EEA700"/>
<path d="M12.3057 23.1471C12.2423 23.4616 12.087 23.7501 11.8596 23.9763C11.6321 24.2024 11.3426 24.356 11.0279 24.4175C10.7131 24.4791 10.3871 24.4459 10.0912 24.3221C9.79529 24.1983 9.54276 23.9895 9.36558 23.7222C9.1884 23.4548 9.09452 23.1409 9.09584 22.8201C9.09716 22.4994 9.19362 22.1862 9.37299 21.9203C9.55237 21.6544 9.8066 21.4477 10.1035 21.3263C10.4004 21.205 10.7267 21.1744 11.0409 21.2386C11.2495 21.2805 11.4477 21.3632 11.6242 21.4819C11.8007 21.6006 11.952 21.753 12.0695 21.9303C12.187 22.1076 12.2684 22.3064 12.3089 22.5152C12.3494 22.724 12.3483 22.9387 12.3057 23.1471Z" fill="#EED51F"/>
<path d="M11.2829 22.4348C11.2528 22.5854 11.1786 22.7237 11.0699 22.8321C10.9611 22.9406 10.8226 23.0143 10.6719 23.044C10.5212 23.0737 10.3651 23.058 10.2234 22.999C10.0816 22.9399 9.96052 22.8402 9.87547 22.7123C9.79043 22.5844 9.74523 22.4342 9.74561 22.2806C9.74598 22.127 9.7919 21.9769 9.87756 21.8495C9.96323 21.722 10.0848 21.6228 10.2269 21.5645C10.3689 21.5061 10.5251 21.4912 10.6757 21.5216C10.8772 21.5624 11.0543 21.6814 11.1681 21.8526C11.282 22.0238 11.3233 22.2332 11.2829 22.4348Z" fill="#F5FF6D"/>
<path d="M36.3136 32.6581C36.2221 33.1069 35.9997 33.5185 35.6746 33.8411C35.3495 34.1637 34.9362 34.3829 34.4867 34.4709C34.0372 34.559 33.5717 34.512 33.1489 34.3359C32.7261 34.1597 32.3649 33.8624 32.1109 33.4813C31.8568 33.1002 31.7213 32.6524 31.7213 32.1944C31.7214 31.7364 31.857 31.2886 32.1112 30.9076C32.3653 30.5266 32.7266 30.2293 33.1494 30.0533C33.5723 29.8772 34.0377 29.8303 34.4872 29.9185C34.7875 29.9774 35.0733 30.0951 35.3279 30.265C35.5825 30.4348 35.801 30.6533 35.9708 30.908C36.1406 31.1627 36.2583 31.4484 36.3171 31.7488C36.3759 32.0491 36.3747 32.3582 36.3136 32.6581Z" fill="#EEA700"/>
<path d="M35.2726 32.311C35.2084 32.6241 35.0528 32.9111 34.8254 33.1357C34.5981 33.3604 34.3093 33.5126 33.9955 33.5732C33.6816 33.6337 33.3569 33.5999 33.0623 33.4759C32.7677 33.352 32.5165 33.1435 32.3404 32.8768C32.1643 32.61 32.0712 32.2971 32.0729 31.9775C32.0746 31.6579 32.171 31.3459 32.35 31.0811C32.5289 30.8163 32.7824 30.6105 33.0783 30.4897C33.3742 30.3689 33.6993 30.3385 34.0124 30.4024C34.2205 30.4449 34.4182 30.5279 34.5942 30.6468C34.7702 30.7658 34.921 30.9182 35.0381 31.0955C35.1551 31.2727 35.2361 31.4713 35.2763 31.6799C35.3166 31.8884 35.3153 32.1029 35.2726 32.311Z" fill="#EED51F"/>
<path d="M34.2498 31.5989C34.2196 31.7495 34.1455 31.8878 34.0367 31.9962C33.928 32.1046 33.7895 32.1784 33.6388 32.2081C33.4881 32.2378 33.332 32.2221 33.1902 32.1631C33.0484 32.104 32.9273 32.0042 32.8423 31.8763C32.7573 31.7485 32.7121 31.5982 32.7124 31.4446C32.7128 31.291 32.7588 31.141 32.8444 31.0135C32.9301 30.8861 33.0516 30.7869 33.1937 30.7285C33.3358 30.6702 33.492 30.6552 33.6425 30.6857C33.7426 30.7053 33.8378 30.7446 33.9226 30.8012C34.0074 30.8578 34.0801 30.9307 34.1366 31.0156C34.1931 31.1005 34.2321 31.1958 34.2516 31.2959C34.271 31.396 34.2704 31.499 34.2498 31.5989Z" fill="#F5FF6D"/>
<path d="M41.706 37.0873C41.6145 37.536 41.3922 37.9477 41.067 38.2703C40.7419 38.5929 40.3286 38.812 39.8791 38.9001C39.4297 38.9881 38.9642 38.9412 38.5414 38.765C38.1186 38.5889 37.7574 38.2916 37.5033 37.9105C37.2493 37.5294 37.1137 37.0816 37.1137 36.6236C37.1138 36.1656 37.2494 35.7178 37.5036 35.3368C37.7577 34.9558 38.119 34.6585 38.5418 34.4825C38.9647 34.3064 39.4301 34.2595 39.8796 34.3477C40.1799 34.4066 40.4657 34.5243 40.7203 34.6942C40.9749 34.864 41.1934 35.0825 41.3632 35.3372C41.533 35.5919 41.6507 35.8776 41.7095 36.178C41.7683 36.4783 41.7671 36.7874 41.706 37.0873Z" fill="#EEA700"/>
<path d="M40.665 36.7399C40.6016 37.0543 40.4464 37.3429 40.2189 37.569C39.9915 37.7952 39.702 37.9488 39.3872 38.0103C39.0724 38.0719 38.7464 38.0387 38.4505 37.9149C38.1546 37.7911 37.9021 37.5823 37.725 37.3149C37.5478 37.0475 37.4539 36.7336 37.4552 36.4129C37.4565 36.0921 37.553 35.779 37.7323 35.5131C37.9117 35.2471 38.1659 35.0404 38.4629 34.9191C38.7598 34.7977 39.086 34.7672 39.4003 34.8313C39.6088 34.8733 39.807 34.956 39.9835 35.0747C40.16 35.1934 40.3114 35.3458 40.4289 35.5231C40.5464 35.7004 40.6277 35.8991 40.6682 36.1079C40.7087 36.3168 40.7077 36.5315 40.665 36.7399Z" fill="#EED51F"/>
<path d="M39.6422 36.0232C39.612 36.1738 39.5379 36.3121 39.4291 36.4205C39.3204 36.5289 39.1819 36.6027 39.0312 36.6324C38.8805 36.6621 38.7244 36.6464 38.5826 36.5874C38.4409 36.5283 38.3198 36.4285 38.2347 36.3007C38.1497 36.1728 38.1045 36.0225 38.1049 35.8689C38.1052 35.7153 38.1512 35.5653 38.2368 35.4378C38.3225 35.3104 38.4441 35.2112 38.5861 35.1528C38.7282 35.0945 38.8844 35.0796 39.0349 35.11C39.2358 35.1518 39.4122 35.2711 39.5259 35.442C39.6395 35.6129 39.6813 35.8217 39.6422 36.0232Z" fill="#F5FF6D"/>
<path d="M48.5505 35.4752C48.459 35.924 48.2366 36.3356 47.9115 36.6583C47.5864 36.9809 47.1731 37.2 46.7236 37.2881C46.2741 37.3761 45.8086 37.3291 45.3858 37.153C44.963 36.9769 44.6018 36.6795 44.3478 36.2985C44.0937 35.9174 43.9581 35.4696 43.9582 35.0115C43.9582 34.5535 44.0939 34.1058 44.348 33.7247C44.6022 33.3437 44.9634 33.0464 45.3863 32.8704C45.8091 32.6944 46.2746 32.6475 46.7241 32.7356C47.0247 32.7939 47.3108 32.9114 47.5657 33.081C47.8206 33.2507 48.0394 33.4693 48.2092 33.7241C48.3791 33.9789 48.4968 34.2649 48.5553 34.5655C48.6139 34.8661 48.6123 35.1753 48.5505 35.4752Z" fill="#EEA700"/>
<path d="M47.5094 35.1417C47.4454 35.4547 47.2901 35.7417 47.063 35.9665C46.836 36.1912 46.5475 36.3436 46.2339 36.4045C45.9202 36.4654 45.5956 36.432 45.301 36.3085C45.0064 36.185 44.7549 35.9769 44.5785 35.7106C44.402 35.4444 44.3084 35.1317 44.3095 34.8123C44.3106 34.4928 44.4063 34.1808 44.5846 33.9158C44.7629 33.6507 45.0157 33.4443 45.3112 33.3228C45.6066 33.2014 45.9315 33.1702 46.2446 33.2332C46.6652 33.319 47.0345 33.5682 47.2717 33.926C47.5088 34.2837 47.5943 34.721 47.5094 35.1417Z" fill="#EED51F"/>
<path d="M46.4867 34.4115C46.4565 34.5621 46.3824 34.7004 46.2736 34.8088C46.1648 34.9172 46.0264 34.991 45.8757 35.0207C45.725 35.0504 45.5689 35.0347 45.4271 34.9757C45.2853 34.9166 45.1642 34.8168 45.0792 34.6889C44.9941 34.5611 44.9489 34.4108 44.9493 34.2572C44.9497 34.1036 44.9956 33.9536 45.0813 33.8262C45.167 33.6987 45.2885 33.5995 45.4306 33.5411C45.5726 33.4828 45.7288 33.4679 45.8794 33.4983C46.0803 33.5402 46.2567 33.6594 46.3703 33.8303C46.484 34.0012 46.5258 34.21 46.4867 34.4115Z" fill="#F5FF6D"/>
<path d="M61.7644 31.608C61.6729 32.0568 61.4505 32.4685 61.1254 32.7911C60.8003 33.1137 60.387 33.3328 59.9375 33.4209C59.488 33.5089 59.0225 33.4619 58.5997 33.2858C58.1769 33.1097 57.8157 32.8123 57.5617 32.4312C57.3076 32.0501 57.172 31.6024 57.1721 31.1444C57.1721 30.6863 57.3078 30.2386 57.5619 29.8575C57.8161 29.4765 58.1773 29.1792 58.6002 29.0032C59.023 28.8272 59.4885 28.7803 59.938 28.8684C60.2386 28.9268 60.5247 29.0442 60.7796 29.2138C61.0345 29.3835 61.2533 29.6021 61.4231 29.8569C61.593 30.1117 61.7106 30.3977 61.7692 30.6983C61.8278 30.9988 61.8261 31.3081 61.7644 31.608Z" fill="#EEA700"/>
<path d="M60.7234 31.2609C60.6591 31.574 60.5035 31.861 60.2762 32.0857C60.0489 32.3104 59.76 32.4626 59.4462 32.5231C59.1324 32.5837 58.8077 32.5498 58.5131 32.4259C58.2185 32.3019 57.9673 32.0934 57.7912 31.8267C57.615 31.56 57.522 31.247 57.5237 30.9274C57.5254 30.6078 57.6218 30.2959 57.8007 30.0311C57.9797 29.7663 58.2331 29.5604 58.529 29.4396C58.8249 29.3188 59.15 29.2884 59.4632 29.3523C59.6713 29.3948 59.869 29.4779 60.045 29.5968C60.221 29.7157 60.3718 29.8682 60.4889 30.0454C60.6059 30.2227 60.6868 30.4213 60.7271 30.6298C60.7673 30.8384 60.7661 31.0528 60.7234 31.2609Z" fill="#EED51F"/>
<path d="M59.7005 30.544C59.6704 30.6946 59.5962 30.8328 59.4875 30.9413C59.3787 31.0497 59.2402 31.1234 59.0896 31.1532C58.9389 31.1829 58.7828 31.1672 58.641 31.1081C58.4992 31.0491 58.3781 30.9493 58.2931 30.8214C58.208 30.6935 58.1628 30.5433 58.1632 30.3897C58.1636 30.2361 58.2095 30.0861 58.2952 29.9586C58.3809 29.8311 58.5024 29.7319 58.6445 29.6736C58.7865 29.6152 58.9427 29.6003 59.0933 29.6308C59.1933 29.6504 59.2885 29.6896 59.3733 29.7463C59.4581 29.8029 59.5309 29.8758 59.5874 29.9607C59.6438 30.0456 59.6829 30.1409 59.7023 30.241C59.7218 30.3411 59.7212 30.4441 59.7005 30.544Z" fill="#F5FF6D"/>
<path d="M68.2892 30.754C68.1977 31.2028 67.9754 31.6144 67.6503 31.9371C67.3252 32.2597 66.9118 32.4788 66.4623 32.5668C66.0128 32.6549 65.5474 32.6079 65.1246 32.4318C64.7018 32.2557 64.3405 31.9583 64.0865 31.5772C63.8324 31.1961 63.6969 30.7484 63.6969 30.2903C63.697 29.8323 63.8326 29.3846 64.0868 29.0035C64.3409 28.6225 64.7022 28.3252 65.125 28.1492C65.5479 27.9732 66.0134 27.9263 66.4628 28.0144C66.7632 28.0733 67.0489 28.1911 67.3035 28.3609C67.5581 28.5307 67.7766 28.7493 67.9464 29.004C68.1162 29.2586 68.2339 29.5444 68.2927 29.8447C68.3516 30.1451 68.3504 30.4541 68.2892 30.754Z" fill="#EEA700"/>
<path d="M67.2481 30.4073C67.1839 30.7204 67.0283 31.0074 66.8009 31.2321C66.5736 31.4567 66.2848 31.609 65.971 31.6695C65.6571 31.7301 65.3324 31.6962 65.0378 31.5723C64.7432 31.4483 64.492 31.2398 64.3159 30.9731C64.1398 30.7063 64.0467 30.3934 64.0484 30.0738C64.0501 29.7542 64.1465 29.4423 64.3255 29.1774C64.5044 28.9126 64.7579 28.7068 65.0538 28.586C65.3497 28.4652 65.6748 28.4348 65.9879 28.4987C66.196 28.5412 66.3937 28.6242 66.5697 28.7432C66.7457 28.8621 66.8965 29.0145 67.0136 29.1918C67.1306 29.3691 67.2116 29.5676 67.2518 29.7762C67.2921 29.9848 67.2908 30.1992 67.2481 30.4073Z" fill="#EED51F"/>
<path d="M66.2254 29.6948C66.1952 29.8454 66.1211 29.9837 66.0123 30.0921C65.9036 30.2006 65.7651 30.2743 65.6144 30.304C65.4637 30.3337 65.3076 30.3181 65.1658 30.259C65.024 30.2 64.903 30.1002 64.8179 29.9723C64.7329 29.8444 64.6877 29.6941 64.6881 29.5405C64.6884 29.387 64.7343 29.2369 64.82 29.1095C64.9057 28.982 65.0273 28.8828 65.1693 28.8245C65.3114 28.7661 65.4676 28.7512 65.6181 28.7816C65.7182 28.8012 65.8134 28.8405 65.8982 28.8971C65.983 28.9538 66.0557 29.0267 66.1122 29.1116C66.1687 29.1965 66.2078 29.2918 66.2272 29.3919C66.2466 29.492 66.246 29.595 66.2254 29.6948Z" fill="#F5FF6D"/>
<path d="M75.2797 31.3522C75.1882 31.8009 74.9658 32.2126 74.6407 32.5352C74.3156 32.8578 73.9023 33.0769 73.4528 33.165C73.0033 33.253 72.5378 33.206 72.115 33.0299C71.6922 32.8538 71.331 32.5565 71.077 32.1754C70.8229 31.7943 70.6874 31.3465 70.6874 30.8885C70.6875 30.4305 70.8231 29.9827 71.0772 29.6017C71.3314 29.2206 71.6926 28.9234 72.1155 28.7473C72.5383 28.5713 73.0038 28.5244 73.4533 28.6126C73.7539 28.6709 74.04 28.7883 74.2949 28.958C74.5498 29.1276 74.7686 29.3462 74.9385 29.601C75.1083 29.8558 75.226 30.1418 75.2845 30.4424C75.3431 30.743 75.3415 31.0522 75.2797 31.3522Z" fill="#EEA700"/>
<path d="M74.2386 31.0052C74.1744 31.3192 74.0185 31.6071 73.7907 31.8325C73.5629 32.058 73.2733 32.2108 72.9586 32.2718C72.6439 32.3327 72.3183 32.2989 72.0228 32.1748C71.7273 32.0506 71.4752 31.8417 71.2984 31.5743C71.1217 31.3069 71.0281 30.9931 71.0297 30.6726C71.0312 30.3521 71.1277 30.0392 71.3071 29.7735C71.4864 29.5079 71.7405 29.3013 72.0371 29.18C72.3338 29.0587 72.6598 29.0281 72.9739 29.092C73.1826 29.1345 73.3809 29.2177 73.5574 29.3368C73.734 29.456 73.8853 29.6088 74.0028 29.7865C74.1202 29.9641 74.2015 30.1632 74.242 30.3723C74.2825 30.5815 74.2813 30.7965 74.2386 31.0052Z" fill="#EED51F"/>
<path d="M73.2158 30.2882C73.1857 30.4388 73.1116 30.5771 73.0028 30.6855C72.894 30.794 72.7555 30.8677 72.6049 30.8974C72.4542 30.9271 72.2981 30.9114 72.1563 30.8524C72.0145 30.7933 71.8934 30.6936 71.8084 30.5657C71.7234 30.4378 71.6782 30.2875 71.6785 30.1339C71.6789 29.9803 71.7248 29.8303 71.8105 29.7029C71.8962 29.5754 72.0177 29.4762 72.1598 29.4178C72.3019 29.3595 72.458 29.3446 72.6086 29.375C72.8095 29.4169 72.9859 29.5361 73.0995 29.707C73.2132 29.8779 73.255 30.0867 73.2158 30.2882Z" fill="#F5FF6D"/>
<path d="M42.6786 30.672C42.5871 31.1208 42.3648 31.5324 42.0397 31.855C41.7146 32.1776 41.3012 32.3968 40.8517 32.4848C40.4023 32.5728 39.9368 32.5259 39.514 32.3498C39.0912 32.1736 38.73 31.8763 38.4759 31.4952C38.2218 31.1141 38.0863 30.6663 38.0863 30.2083C38.0864 29.7503 38.222 29.3025 38.4762 28.9215C38.7303 28.5405 39.0916 28.2432 39.5144 28.0672C39.9373 27.8911 40.4028 27.8443 40.8522 27.9324C41.1528 27.9907 41.4389 28.1081 41.6939 28.2778C41.9488 28.4475 42.1675 28.666 42.3374 28.9208C42.5073 29.1756 42.6249 29.4616 42.6835 29.7622C42.7421 30.0628 42.7404 30.372 42.6786 30.672Z" fill="#EEA700"/>
<path d="M41.6329 30.3249C41.5687 30.638 41.4131 30.925 41.1858 31.1497C40.9584 31.3743 40.6696 31.5266 40.3558 31.5871C40.042 31.6477 39.7172 31.6138 39.4226 31.4898C39.128 31.3659 38.8768 31.1574 38.7007 30.8906C38.5246 30.6239 38.4315 30.311 38.4333 29.9914C38.435 29.6718 38.5314 29.3599 38.7103 29.095C38.8893 28.8302 39.1427 28.6244 39.4386 28.5036C39.7345 28.3828 40.0596 28.3524 40.3727 28.4163C40.7924 28.5032 41.1607 28.7527 41.3968 29.1104C41.633 29.4681 41.7179 29.9048 41.6329 30.3249Z" fill="#EED51F"/>
<path d="M40.6148 29.6081C40.5847 29.7587 40.5105 29.8969 40.4017 30.0054C40.293 30.1138 40.1545 30.1876 40.0038 30.2173C39.8531 30.247 39.697 30.2313 39.5552 30.1722C39.4135 30.1132 39.2924 30.0134 39.2073 29.8855C39.1223 29.7576 39.0771 29.6074 39.0775 29.4538C39.0778 29.3002 39.1238 29.1502 39.2094 29.0227C39.2951 28.8952 39.4167 28.796 39.5587 28.7377C39.7008 28.6793 39.857 28.6644 40.0075 28.6948C40.2085 28.7367 40.3848 28.856 40.4985 29.0269C40.6121 29.1978 40.6539 29.4066 40.6148 29.6081Z" fill="#F5FF6D"/>
<path d="M43.5917 23.727C43.5002 24.1758 43.2779 24.5875 42.9528 24.9101C42.6277 25.2327 42.2143 25.4518 41.7649 25.5399C41.3154 25.6279 40.8499 25.5809 40.4271 25.4048C40.0043 25.2287 39.6431 24.9313 39.3891 24.5502C39.135 24.1692 38.9994 23.7214 38.9995 23.2634C38.9995 22.8053 39.1352 22.3576 39.3893 21.9766C39.6435 21.5955 40.0047 21.2982 40.4276 21.1222C40.8504 20.9462 41.3159 20.8993 41.7653 20.9874C42.0657 21.0463 42.3514 21.1641 42.606 21.3339C42.8607 21.5038 43.0792 21.7223 43.2489 21.977C43.4187 22.2316 43.5364 22.5174 43.5952 22.8177C43.6541 23.1181 43.6529 23.4271 43.5917 23.727Z" fill="#EEA700"/>
<path d="M42.5462 23.3981C42.4828 23.7126 42.3275 24.0011 42.1 24.2272C41.8726 24.4534 41.5831 24.6069 41.2683 24.6685C40.9535 24.7301 40.6276 24.6969 40.3317 24.5731C40.0358 24.4493 39.7832 24.2405 39.6061 23.9731C39.4289 23.7058 39.335 23.3918 39.3363 23.0711C39.3376 22.7503 39.4341 22.4372 39.6134 22.1713C39.7928 21.9053 40.0471 21.6986 40.344 21.5773C40.6409 21.4559 40.9671 21.4254 41.2814 21.4895C41.4899 21.5315 41.6881 21.6142 41.8646 21.7329C42.0411 21.8516 42.1925 22.004 42.31 22.1813C42.4275 22.3586 42.5088 22.5574 42.5493 22.7662C42.5899 22.975 42.5888 23.1898 42.5462 23.3981Z" fill="#EED51F"/>
<path d="M41.5279 22.6859C41.4978 22.8365 41.4237 22.9748 41.3149 23.0832C41.2061 23.1917 41.0676 23.2654 40.917 23.2951C40.7663 23.3248 40.6102 23.3091 40.4684 23.2501C40.3266 23.191 40.2055 23.0913 40.1205 22.9634C40.0354 22.8355 39.9902 22.6852 39.9906 22.5317C39.991 22.3781 40.0369 22.2281 40.1226 22.1006C40.2083 21.9731 40.3298 21.8739 40.4719 21.8156C40.6139 21.7572 40.7701 21.7423 40.9207 21.7727C41.1222 21.8135 41.2993 21.9325 41.4132 22.1037C41.527 22.275 41.5683 22.4843 41.5279 22.6859Z" fill="#F5FF6D"/>
<path d="M45.7423 17.2387C45.6508 17.6875 45.4285 18.0992 45.1034 18.4218C44.7783 18.7444 44.3649 18.9635 43.9154 19.0516C43.466 19.1396 43.0005 19.0926 42.5777 18.9165C42.1549 18.7404 41.7937 18.4431 41.5396 18.062C41.2856 17.6809 41.15 17.2331 41.1501 16.7751C41.1501 16.317 41.2858 15.8693 41.5399 15.4883C41.7941 15.1072 42.1553 14.81 42.5782 14.634C43.001 14.4579 43.4665 14.411 43.9159 14.4992C44.2163 14.5581 44.502 14.6758 44.7566 14.8456C45.0113 15.0155 45.2298 15.234 45.3995 15.4887C45.5693 15.7433 45.687 16.0291 45.7458 16.3294C45.8047 16.6298 45.8035 16.9388 45.7423 17.2387Z" fill="#EEA700"/>
<path d="M44.7013 16.8781C44.6379 17.1925 44.4826 17.4811 44.2552 17.7072C44.0277 17.9333 43.7382 18.0869 43.4235 18.1485C43.1087 18.21 42.7827 18.1768 42.4868 18.053C42.1909 17.9292 41.9384 17.7204 41.7612 17.4531C41.584 17.1857 41.4901 16.8718 41.4914 16.551C41.4928 16.2303 41.5892 15.9171 41.7686 15.6512C41.948 15.3853 42.2022 15.1786 42.4991 15.0572C42.796 14.9359 43.1223 14.9054 43.4365 14.9695C43.6451 15.0115 43.8433 15.0942 44.0198 15.2129C44.1963 15.3316 44.3476 15.4839 44.4651 15.6612C44.5826 15.8385 44.664 16.0373 44.7045 16.2461C44.745 16.4549 44.7439 16.6697 44.7013 16.8781Z" fill="#EED51F"/>
<path d="M43.6785 16.1795C43.6484 16.3301 43.5742 16.4683 43.4654 16.5768C43.3567 16.6852 43.2182 16.759 43.0675 16.7887C42.9168 16.8184 42.7607 16.8027 42.6189 16.7436C42.4772 16.6846 42.3561 16.5848 42.271 16.4569C42.186 16.329 42.1408 16.1788 42.1412 16.0252C42.1416 15.8716 42.1875 15.7216 42.2731 15.5941C42.3588 15.4667 42.4804 15.3674 42.6224 15.3091C42.7645 15.2507 42.9207 15.2358 43.0712 15.2662C43.2728 15.307 43.4499 15.4261 43.5637 15.5973C43.6776 15.7685 43.7189 15.9778 43.6785 16.1795Z" fill="#F5FF6D"/>
<path d="M45.7104 10.6592C45.6189 11.108 45.3966 11.5196 45.0715 11.8422C44.7463 12.1648 44.333 12.384 43.8835 12.472C43.434 12.5601 42.9686 12.5131 42.5458 12.3369C42.123 12.1608 41.7617 11.8635 41.5077 11.4824C41.2536 11.1013 41.1181 10.6535 41.1181 10.1955C41.1182 9.73748 41.2538 9.28973 41.508 8.90869C41.7621 8.52765 42.1234 8.23038 42.5462 8.05436C42.9691 7.87834 43.4345 7.83143 43.884 7.91957C44.1846 7.97791 44.4707 8.0953 44.7257 8.26498C44.9806 8.43465 45.1993 8.65322 45.3692 8.90803C45.5391 9.16284 45.6567 9.44883 45.7153 9.74942C45.7738 10.05 45.7722 10.3592 45.7104 10.6592Z" fill="#EEA700"/>
<path d="M44.6694 10.3121C44.6062 10.6255 44.4515 10.9131 44.2248 11.1385C43.9981 11.3639 43.7097 11.5171 43.396 11.5787C43.0823 11.6402 42.7574 11.6073 42.4623 11.4842C42.1673 11.361 41.9154 11.1532 41.7385 10.8869C41.5616 10.6206 41.4677 10.3078 41.4686 9.98812C41.4694 9.66843 41.5651 9.35618 41.7434 9.09085C41.9217 8.82552 42.1748 8.61905 42.4704 8.49752C42.7661 8.37598 43.0912 8.34486 43.4046 8.40809C43.8248 8.49287 44.1941 8.74108 44.4313 9.09815C44.6685 9.45522 44.7541 9.89188 44.6694 10.3121Z" fill="#EED51F"/>
<path d="M43.6465 9.59981C43.6285 9.70198 43.5903 9.7995 43.534 9.88663C43.4777 9.97375 43.4046 10.0487 43.3188 10.1071C43.2331 10.1655 43.1365 10.2061 43.0348 10.2265C42.9331 10.2469 42.8284 10.2467 42.7267 10.226C42.6251 10.2052 42.5287 10.1643 42.4431 10.1056C42.3576 10.047 42.2846 9.97178 42.2286 9.88447C42.1726 9.79715 42.1347 9.6995 42.1171 9.59728C42.0995 9.49506 42.1025 9.39035 42.1261 9.28933C42.1719 9.09242 42.2928 8.92118 42.463 8.81203C42.6332 8.70289 42.8392 8.66446 43.0373 8.70491C43.2354 8.74536 43.4099 8.8615 43.5237 9.02863C43.6374 9.19576 43.6815 9.40069 43.6465 9.59981Z" fill="#F5FF6D"/>
<path d="M40.7883 14.0471C40.6968 14.4959 40.4745 14.9075 40.1494 15.2301C39.8242 15.5528 39.4109 15.7719 38.9614 15.86C38.512 15.948 38.0465 15.901 37.6237 15.7249C37.2009 15.5488 36.8397 15.2514 36.5856 14.8703C36.3316 14.4892 36.196 14.0414 36.196 13.5834C36.1961 13.1254 36.3318 12.6777 36.5859 12.2966C36.84 11.9156 37.2013 11.6183 37.6241 11.4423C38.047 11.2663 38.5125 11.2194 38.9619 11.3075C39.2623 11.3664 39.548 11.4842 39.8026 11.654C40.0572 11.8238 40.2757 12.0424 40.4455 12.297C40.6153 12.5517 40.733 12.8374 40.7918 13.1378C40.8507 13.4382 40.8495 13.7472 40.7883 14.0471Z" fill="#EEA700"/>
<path d="M39.7472 13.6818C39.6838 13.9962 39.5286 14.2848 39.3011 14.5109C39.0736 14.737 38.7842 14.8906 38.4694 14.9522C38.1546 15.0137 37.8286 14.9805 37.5327 14.8567C37.2368 14.7329 36.9843 14.5241 36.8071 14.2568C36.63 13.9894 36.5361 13.6755 36.5374 13.3547C36.5387 13.034 36.6351 12.7208 36.8145 12.4549C36.9939 12.189 37.2481 11.9823 37.545 11.861C37.8419 11.7396 38.1682 11.7091 38.4824 11.7732C38.691 11.8152 38.8892 11.8979 39.0657 12.0166C39.2422 12.1353 39.3935 12.2876 39.511 12.4649C39.6285 12.6423 39.7099 12.841 39.7504 13.0498C39.7909 13.2586 39.7899 13.4734 39.7472 13.6818Z" fill="#EED51F"/>
<path d="M38.7245 12.9879C38.6944 13.1385 38.6202 13.2768 38.5115 13.3852C38.4027 13.4937 38.2642 13.5674 38.1135 13.5971C37.9628 13.6268 37.8067 13.6111 37.6649 13.5521C37.5232 13.493 37.4021 13.3933 37.317 13.2654C37.232 13.1375 37.1868 12.9872 37.1872 12.8337C37.1875 12.6801 37.2335 12.53 37.3192 12.4026C37.4048 12.2751 37.5264 12.1759 37.6684 12.1176C37.8105 12.0592 37.9667 12.0443 38.1172 12.0747C38.3188 12.1155 38.4959 12.2345 38.6097 12.4057C38.7236 12.5769 38.7649 12.7863 38.7245 12.9879Z" fill="#F5FF6D"/>
<path d="M46.6556 5.5178C46.5641 5.96658 46.3418 6.37823 46.0166 6.70085C45.6915 7.02346 45.2782 7.24259 44.8287 7.33063C44.3792 7.41868 43.9137 7.37168 43.4909 7.19557C43.0681 7.01945 42.7069 6.72212 42.4529 6.34102C42.1988 5.95993 42.0633 5.51214 42.0633 5.05413C42.0634 4.59611 42.199 4.14836 42.4531 3.76733C42.7073 3.38629 43.0686 3.08902 43.4914 2.913C43.9143 2.73698 44.3797 2.69008 44.8292 2.77822C45.1295 2.83711 45.4152 2.95487 45.6699 3.12471C45.9245 3.29454 46.143 3.51308 46.3128 3.76774C46.4826 4.02241 46.6003 4.30815 46.6591 4.60851C46.7179 4.90887 46.7167 5.21791 46.6556 5.5178Z" fill="#EEA700"/>
<path d="M45.5962 5.17072C45.532 5.48381 45.3763 5.77084 45.149 5.99551C44.9217 6.22018 44.6329 6.37241 44.319 6.43297C44.0052 6.49352 43.6805 6.45967 43.3859 6.3357C43.0913 6.21174 42.8401 6.00322 42.664 5.7365C42.4879 5.46978 42.3948 5.15684 42.3965 4.83723C42.3982 4.51762 42.4946 4.20569 42.6736 3.94087C42.8525 3.67605 43.106 3.47022 43.4019 3.34941C43.6978 3.2286 44.0228 3.19823 44.336 3.26213C44.5441 3.3046 44.7418 3.38767 44.9178 3.50659C45.0938 3.62552 45.2446 3.77798 45.3617 3.95524C45.4787 4.13249 45.5597 4.33107 45.5999 4.53963C45.6401 4.7482 45.6389 4.96264 45.5962 5.17072Z" fill="#EED51F"/>
<path d="M44.5735 4.45379C44.5434 4.60439 44.4692 4.74265 44.3605 4.85108C44.2517 4.95952 44.1132 5.03326 43.9625 5.06297C43.8118 5.09267 43.6557 5.07701 43.5139 5.01796C43.3722 4.95891 43.2511 4.85912 43.166 4.73124C43.081 4.60335 43.0358 4.4531 43.0362 4.29952C43.0365 4.14593 43.0825 3.99592 43.1682 3.86845C43.2538 3.74098 43.3754 3.64178 43.5175 3.58343C43.6595 3.52507 43.8157 3.51017 43.9662 3.54061C44.1678 3.58135 44.3449 3.70039 44.4587 3.8716C44.5726 4.0428 44.6139 4.25219 44.5735 4.45379Z" fill="#F5FF6D"/>
<path d="M19.488 21.9964C19.3965 22.4452 19.1742 22.8569 18.849 23.1795C18.5239 23.5021 18.1106 23.7212 17.6611 23.8093C17.2116 23.8973 16.7461 23.8503 16.3233 23.6742C15.9005 23.4981 15.5393 23.2007 15.2853 22.8197C15.0312 22.4386 14.8957 21.9908 14.8957 21.5328C14.8958 21.0748 15.0314 20.627 15.2855 20.246C15.5397 19.8649 15.901 19.5677 16.3238 19.3916C16.7467 19.2156 17.2121 19.1687 17.6616 19.2569C17.9622 19.3152 18.2483 19.4326 18.5032 19.6023C18.7582 19.7719 18.9769 19.9905 19.1468 20.2453C19.3167 20.5001 19.4343 20.7861 19.4929 21.0867C19.5514 21.3873 19.5498 21.6965 19.488 21.9964Z" fill="#EEA700"/>
<path d="M18.4469 21.6493C18.3826 21.9624 18.2271 22.2494 17.9997 22.4741C17.7724 22.6988 17.4836 22.851 17.1697 22.9116C16.8559 22.9721 16.5312 22.9383 16.2366 22.8143C15.942 22.6903 15.6908 22.4818 15.5147 22.2151C15.3386 21.9484 15.2455 21.6354 15.2472 21.3158C15.2489 20.9962 15.3453 20.6843 15.5243 20.4195C15.7032 20.1547 15.9566 19.9489 16.2525 19.828C16.5484 19.7072 16.8735 19.6769 17.1867 19.7408C17.6064 19.8276 17.9746 20.0772 18.2108 20.4349C18.447 20.7926 18.5318 21.2292 18.4469 21.6493Z" fill="#EED51F"/>
<path d="M17.4332 20.9327C17.417 21.0362 17.3801 21.1354 17.3246 21.2243C17.269 21.3132 17.1961 21.3899 17.1101 21.4499C17.0242 21.5098 16.9269 21.5517 16.8243 21.573C16.7217 21.5944 16.6159 21.5947 16.5131 21.574C16.4104 21.5534 16.3129 21.5121 16.2265 21.4528C16.1402 21.3934 16.0668 21.3172 16.0107 21.2286C15.9545 21.1401 15.917 21.0412 15.9001 20.9377C15.8833 20.8343 15.8876 20.7285 15.9127 20.6268C15.9607 20.4327 16.0818 20.2645 16.2507 20.1575C16.4196 20.0504 16.6233 20.0127 16.8194 20.0521C17.0154 20.0916 17.1887 20.2052 17.303 20.3692C17.4174 20.5333 17.464 20.7351 17.4332 20.9327Z" fill="#F5FF6D"/>
<path d="M20.7298 28.7495C20.6383 29.1983 20.416 29.6099 20.0909 29.9325C19.7658 30.2552 19.3524 30.4743 18.903 30.5623C18.4535 30.6504 17.988 30.6034 17.5652 30.4273C17.1424 30.2512 16.7812 29.9538 16.5271 29.5727C16.2731 29.1916 16.1375 28.7438 16.1376 28.2858C16.1376 27.8278 16.2733 27.3801 16.5274 26.999C16.7816 26.618 17.1428 26.3207 17.5657 26.1447C17.9885 25.9687 18.454 25.9218 18.9034 26.0099C19.2038 26.0688 19.4895 26.1866 19.7442 26.3564C19.9988 26.5262 20.2173 26.7448 20.3871 26.9994C20.5568 27.2541 20.6745 27.5398 20.7333 27.8402C20.7922 28.1406 20.791 28.4496 20.7298 28.7495Z" fill="#EEA700"/>
<path d="M19.6889 28.3843C19.6249 28.6973 19.4695 28.9843 19.2425 29.209C19.0155 29.4338 18.7269 29.5862 18.4133 29.6471C18.0997 29.708 17.7751 29.6745 17.4805 29.551C17.1859 29.4275 16.9345 29.2195 16.758 28.9532C16.5815 28.6869 16.4879 28.3743 16.489 28.0548C16.4901 27.7354 16.5858 27.4234 16.7641 27.1583C16.9424 26.8932 17.1952 26.6869 17.4907 26.5654C17.7861 26.4439 18.1109 26.4127 18.4241 26.4757C18.6327 26.5177 18.8309 26.6004 19.0074 26.7191C19.1839 26.8378 19.3352 26.9901 19.4527 27.1674C19.5702 27.3448 19.6516 27.5435 19.6921 27.7523C19.7326 27.9611 19.7315 28.1759 19.6889 28.3843Z" fill="#EED51F"/>
<path d="M18.6661 27.6674C18.636 27.818 18.5619 27.9562 18.4531 28.0647C18.3443 28.1731 18.2058 28.2468 18.0552 28.2765C17.9045 28.3063 17.7484 28.2906 17.6066 28.2315C17.4648 28.1725 17.3437 28.0727 17.2587 27.9448C17.1736 27.8169 17.1284 27.6667 17.1288 27.5131C17.1292 27.3595 17.1751 27.2095 17.2608 27.082C17.3465 26.9545 17.468 26.8554 17.6101 26.797C17.7521 26.7386 17.9083 26.7237 18.0589 26.7542C18.2598 26.796 18.4362 26.9153 18.5498 27.0862C18.6635 27.2571 18.7053 27.4659 18.6661 27.6674Z" fill="#F5FF6D"/>
<path d="M26.0538 32.626C25.9623 33.0747 25.74 33.4864 25.4149 33.809C25.0898 34.1316 24.6764 34.3508 24.2269 34.4388C23.7775 34.5269 23.312 34.4798 22.8892 34.3037C22.4664 34.1276 22.1052 33.8303 21.8511 33.4492C21.5971 33.0681 21.4615 32.6203 21.4616 32.1623C21.4616 31.7043 21.5973 31.2565 21.8514 30.8755C22.1055 30.4944 22.4668 30.1972 22.8896 30.0211C23.3125 29.8451 23.778 29.7982 24.2274 29.8864C24.5275 29.9458 24.8129 30.0639 25.0672 30.2339C25.3215 30.4039 25.5398 30.6224 25.7094 30.877C25.8791 31.1315 25.9969 31.417 26.056 31.7171C26.1151 32.0173 26.1144 32.3261 26.0538 32.626Z" fill="#EEA700"/>
<path d="M25.0127 32.2792C24.9485 32.5923 24.7929 32.8794 24.5656 33.104C24.3383 33.3287 24.0494 33.4809 23.7356 33.5415C23.4218 33.602 23.0971 33.5682 22.8025 33.4442C22.5079 33.3203 22.2566 33.1117 22.0805 32.845C21.9044 32.5783 21.8113 32.2654 21.813 31.9458C21.8147 31.6261 21.9112 31.3142 22.0901 31.0494C22.2691 30.7846 22.5225 30.5787 22.8184 30.4579C23.1143 30.3371 23.4394 30.3067 23.7526 30.3706C24.1723 30.4575 24.5405 30.7071 24.7766 31.0648C25.0128 31.4225 25.0977 31.8591 25.0127 32.2792Z" fill="#EED51F"/>
<path d="M23.99 31.5623C23.9599 31.7128 23.8857 31.8511 23.777 31.9596C23.6682 32.068 23.5297 32.1417 23.379 32.1715C23.2283 32.2012 23.0722 32.1855 22.9305 32.1264C22.7887 32.0674 22.6676 31.9676 22.5826 31.8397C22.4975 31.7118 22.4523 31.5616 22.4527 31.408C22.4531 31.2544 22.499 31.1044 22.5847 30.9769C22.6703 30.8495 22.7919 30.7503 22.934 30.6919C23.076 30.6335 23.2322 30.6186 23.3828 30.6491C23.4831 30.6681 23.5787 30.707 23.6638 30.7635C23.7489 30.82 23.8219 30.8929 23.8785 30.9779C23.935 31.063 23.974 31.1585 23.9932 31.2588C24.0124 31.3592 24.0113 31.4623 23.99 31.5623Z" fill="#F5FF6D"/>
<path d="M31.5878 36.3928C31.4963 36.8416 31.2739 37.2532 30.9488 37.5759C30.6237 37.8985 30.2104 38.1176 29.7609 38.2057C29.3114 38.2937 28.8459 38.2467 28.4231 38.0706C28.0003 37.8945 27.6391 37.5971 27.3851 37.216C27.131 36.8349 26.9955 36.3871 26.9955 35.9291C26.9956 35.4711 27.1312 35.0234 27.3853 34.6423C27.6395 34.2613 28.0008 33.964 28.4236 33.788C28.8464 33.612 29.3119 33.5651 29.7614 33.6532C30.0614 33.7127 30.3468 33.8308 30.6011 34.0008C30.8555 34.1708 31.0737 34.3893 31.2434 34.6438C31.4131 34.8983 31.5308 35.1839 31.5899 35.484C31.649 35.7841 31.6483 36.093 31.5878 36.3928Z" fill="#EEA700"/>
<path d="M30.5285 36.0552C30.4642 36.3683 30.3086 36.6553 30.0813 36.88C29.854 37.1047 29.5651 37.2569 29.2513 37.3175C28.9375 37.378 28.6128 37.3442 28.3182 37.2202C28.0236 37.0962 27.7724 36.8877 27.5963 36.621C27.4202 36.3543 27.3271 36.0413 27.3288 35.7217C27.3305 35.4021 27.4269 35.0902 27.6059 34.8254C27.7848 34.5606 28.0382 34.3547 28.3341 34.2339C28.63 34.1131 28.9551 34.0827 29.2683 34.1466C29.4767 34.1886 29.6747 34.2713 29.851 34.3901C30.0274 34.5088 30.1784 34.6613 30.2956 34.8387C30.4127 35.0161 30.4936 35.2149 30.5335 35.4237C30.5735 35.6325 30.5718 35.8471 30.5285 36.0552Z" fill="#EED51F"/>
<path d="M29.5057 35.3291C29.4753 35.4798 29.4009 35.6182 29.2919 35.7265C29.1828 35.8349 29.044 35.9084 28.8931 35.9378C28.7422 35.9672 28.586 35.9511 28.4442 35.8916C28.3025 35.832 28.1816 35.7318 28.0969 35.6034C28.0122 35.4751 27.9676 35.3246 27.9686 35.1708C27.9696 35.0171 28.0162 34.8671 28.1025 34.74C28.1889 34.6128 28.311 34.514 28.4535 34.4564C28.5961 34.3987 28.7525 34.3846 28.903 34.416C29.0026 34.4361 29.0973 34.4758 29.1816 34.5326C29.2659 34.5895 29.3381 34.6624 29.3942 34.7473C29.4502 34.8321 29.4889 34.9272 29.508 35.0271C29.5271 35.1269 29.5263 35.2296 29.5057 35.3291Z" fill="#F5FF6D"/>
<path d="M36.962 40.7947C36.8705 41.2435 36.6482 41.6551 36.3231 41.9777C35.9979 42.3003 35.5846 42.5195 35.1351 42.6075C34.6857 42.6956 34.2202 42.6486 33.7974 42.4724C33.3746 42.2963 33.0134 41.999 32.7593 41.6179C32.5053 41.2368 32.3697 40.789 32.3698 40.331C32.3698 39.873 32.5055 39.4252 32.7596 39.0442C33.0137 38.6631 33.375 38.3659 33.7978 38.1898C34.2207 38.0138 34.6862 37.9669 35.1356 38.0551C35.4357 38.1145 35.7211 38.2326 35.9754 38.4026C36.2297 38.5726 36.4479 38.7911 36.6176 39.0457C36.7873 39.3002 36.9051 39.5857 36.9642 39.8858C37.0233 40.186 37.0225 40.4948 36.962 40.7947Z" fill="#EEA700"/>
<path d="M35.9164 40.4476C35.8521 40.7607 35.6965 41.0477 35.4692 41.2723C35.2419 41.497 34.9531 41.6492 34.6392 41.7098C34.3254 41.7703 34.0007 41.7365 33.7061 41.6125C33.4115 41.4886 33.1603 41.28 32.9842 41.0133C32.808 40.7466 32.715 40.4337 32.7167 40.1141C32.7184 39.7945 32.8148 39.4825 32.9937 39.2177C33.1727 38.9529 33.4261 38.7471 33.722 38.6263C34.0179 38.5055 34.343 38.4751 34.6562 38.539C34.8643 38.5815 35.062 38.6645 35.238 38.7834C35.414 38.9024 35.5648 39.0548 35.6819 39.2321C35.7989 39.4093 35.8798 39.6079 35.9201 39.8165C35.9603 40.025 35.9591 40.2395 35.9164 40.4476Z" fill="#EED51F"/>
<path d="M34.8936 39.7308C34.8456 39.925 34.7245 40.0931 34.5556 40.2001C34.3867 40.3072 34.183 40.345 33.987 40.3055C33.7909 40.2661 33.6177 40.1525 33.5033 39.9884C33.389 39.8244 33.3423 39.6225 33.3731 39.4249C33.3893 39.3214 33.4262 39.2222 33.4818 39.1333C33.5373 39.0444 33.6102 38.9677 33.6962 38.9078C33.7822 38.8478 33.8794 38.8059 33.982 38.7846C34.0846 38.7632 34.1904 38.7629 34.2932 38.7836C34.3959 38.8042 34.4934 38.8455 34.5798 38.9049C34.6661 38.9642 34.7396 39.0405 34.7957 39.129C34.8518 39.2175 34.8894 39.3165 34.9062 39.4199C34.9231 39.5233 34.9188 39.6291 34.8936 39.7308Z" fill="#F5FF6D"/>
<path d="M29.7615 42.8036C29.6699 43.2524 29.4476 43.664 29.1225 43.9866C28.7974 44.3092 28.384 44.5283 27.9346 44.6164C27.4851 44.7044 27.0196 44.6574 26.5968 44.4813C26.174 44.3052 25.8128 44.0079 25.5587 43.6268C25.3047 43.2457 25.1691 42.7979 25.1692 42.3399C25.1692 41.8819 25.3049 41.4341 25.559 41.0531C25.8132 40.6721 26.1744 40.3748 26.5973 40.1988C27.0201 40.0227 27.4856 39.9758 27.9351 40.064C28.2354 40.1229 28.5211 40.2406 28.7757 40.4104C29.0304 40.5803 29.2489 40.7988 29.4187 41.0535C29.5884 41.3082 29.7061 41.5939 29.765 41.8943C29.8238 42.1946 29.8226 42.5037 29.7615 42.8036Z" fill="#EEA700"/>
<path d="M28.7294 42.4476C28.6652 42.7607 28.5096 43.0477 28.2823 43.2723C28.0549 43.497 27.7661 43.6492 27.4523 43.7098C27.1385 43.7703 26.8138 43.7365 26.5192 43.6125C26.2246 43.4886 25.9733 43.28 25.7972 43.0133C25.6211 42.7466 25.528 42.4337 25.5297 42.1141C25.5315 41.7945 25.6279 41.4825 25.8068 41.2177C25.9858 40.9529 26.2392 40.7471 26.5351 40.6263C26.831 40.5055 27.1561 40.4751 27.4692 40.539C27.6773 40.5815 27.8751 40.6645 28.0511 40.7834C28.2271 40.9024 28.3779 41.0548 28.4949 41.2321C28.612 41.4093 28.6929 41.6079 28.7331 41.8165C28.7734 42.025 28.7721 42.2395 28.7294 42.4476Z" fill="#EED51F"/>
<path d="M27.7068 41.7443C27.6766 41.8949 27.6025 42.0331 27.4937 42.1416C27.3849 42.25 27.2464 42.3238 27.0958 42.3535C26.9451 42.3832 26.789 42.3675 26.6472 42.3085C26.5054 42.2494 26.3843 42.1496 26.2993 42.0217C26.2142 41.8938 26.169 41.7436 26.1694 41.59C26.1698 41.4364 26.2157 41.2864 26.3014 41.1589C26.3871 41.0315 26.5086 40.9322 26.6507 40.8739C26.7928 40.8155 26.9489 40.8006 27.0995 40.8311C27.1995 40.8507 27.2947 40.89 27.3795 40.9466C27.4644 41.0032 27.5371 41.0761 27.5936 41.161C27.6501 41.2459 27.6891 41.3412 27.7085 41.4413C27.728 41.5414 27.7274 41.6444 27.7068 41.7443Z" fill="#F5FF6D"/>
<path d="M24.1407 45.9268C24.0492 46.3755 23.8269 46.7872 23.5018 47.1098C23.1766 47.4324 22.7633 47.6516 22.3138 47.7396C21.8643 47.8276 21.3989 47.7806 20.9761 47.6045C20.5532 47.4284 20.192 47.1311 19.938 46.75C19.6839 46.3689 19.5484 45.9211 19.5484 45.4631C19.5485 45.0051 19.6841 44.5573 19.9383 44.1763C20.1924 43.7952 20.5537 43.498 20.9765 43.3219C21.3993 43.1459 21.8648 43.099 22.3143 43.1872C22.6149 43.2455 22.901 43.3629 23.1559 43.5326C23.4109 43.7022 23.6296 43.9208 23.7995 44.1756C23.9694 44.4304 24.087 44.7164 24.1456 45.017C24.2041 45.3176 24.2025 45.6268 24.1407 45.9268Z" fill="#EEA700"/>
<path d="M23.0996 45.5753C23.0362 45.8888 22.8812 46.1764 22.6542 46.4018C22.4273 46.6271 22.1386 46.7801 21.8246 46.8413C21.5107 46.9025 21.1857 46.8692 20.8907 46.7456C20.5957 46.622 20.344 46.4136 20.1675 46.1469C19.9909 45.8802 19.8975 45.5671 19.899 45.2473C19.9005 44.9274 19.9968 44.6152 20.1758 44.3502C20.3549 44.0851 20.6085 43.8791 20.9046 43.7583C21.2007 43.6374 21.5261 43.6071 21.8394 43.6712C22.2588 43.7571 22.627 44.0057 22.8632 44.3627C23.0995 44.7196 23.1845 45.1557 23.0996 45.5753Z" fill="#EED51F"/>
<path d="M22.0769 44.8628C22.0467 45.0134 21.9726 45.1517 21.8638 45.2601C21.755 45.3685 21.6166 45.4423 21.4659 45.472C21.3152 45.5017 21.1591 45.486 21.0173 45.427C20.8755 45.3679 20.7545 45.2681 20.6694 45.1402C20.5844 45.0124 20.5392 44.8621 20.5396 44.7085C20.5399 44.555 20.5858 44.4049 20.6715 44.2774C20.7572 44.15 20.8787 44.0508 21.0208 43.9924C21.1629 43.9341 21.3191 43.9192 21.4696 43.9496C21.6711 43.9903 21.8482 44.1094 21.9621 44.2806C22.076 44.4518 22.1172 44.6612 22.0769 44.8628Z" fill="#F5FF6D"/>
<path d="M19.2139 50.2098C19.1654 50.6658 18.9827 51.0972 18.689 51.4495C18.3953 51.8018 18.0038 52.0591 17.5639 52.1889C17.124 52.3187 16.6555 52.3152 16.2177 52.1788C15.7798 52.0424 15.3922 51.7792 15.1038 51.4226C14.8154 51.066 14.6393 50.6318 14.5976 50.1751C14.5559 49.7184 14.6505 49.2596 14.8695 48.8566C15.0885 48.4536 15.422 48.1246 15.828 47.9112C16.2339 47.6977 16.694 47.6094 17.1501 47.6574C17.4533 47.6893 17.7472 47.7806 18.0151 47.9262C18.2829 48.0718 18.5194 48.2687 18.7111 48.5058C18.9028 48.7428 19.0459 49.0153 19.1321 49.3077C19.2184 49.6001 19.2462 49.9066 19.2139 50.2098Z" fill="#EEA700"/>
<path d="M18.141 49.9584C18.1076 50.2764 17.9807 50.5773 17.7763 50.8231C17.5719 51.0689 17.2992 51.2486 16.9927 51.3395C16.6861 51.4303 16.3595 51.4282 16.0542 51.3334C15.7489 51.2386 15.4785 51.0554 15.2773 50.8069C15.0761 50.5584 14.9531 50.2559 14.9239 49.9375C14.8947 49.6192 14.9605 49.2993 15.1131 49.0183C15.2656 48.7374 15.4981 48.508 15.7811 48.3591C16.064 48.2103 16.3848 48.1488 16.7027 48.1822C17.1285 48.2283 17.5187 48.4409 17.7882 48.7737C18.0576 49.1065 18.1845 49.5324 18.141 49.9584Z" fill="#EED51F"/>
<path d="M17.0543 49.3469C17.0381 49.4995 16.9769 49.644 16.8786 49.7619C16.7803 49.8798 16.6492 49.966 16.5019 50.0094C16.3547 50.0528 16.1979 50.0516 16.0513 50.0059C15.9047 49.9601 15.775 49.872 15.6785 49.7525C15.5821 49.6331 15.5232 49.4877 15.5094 49.3348C15.4956 49.1819 15.5274 49.0283 15.6008 48.8934C15.6743 48.7586 15.7861 48.6486 15.9221 48.5774C16.0581 48.5061 16.2122 48.4767 16.3648 48.493C16.4664 48.5033 16.5649 48.5336 16.6547 48.5821C16.7445 48.6307 16.8237 48.6966 16.8878 48.776C16.952 48.8554 16.9997 48.9468 17.0283 49.0448C17.0568 49.1428 17.0657 49.2454 17.0543 49.3469Z" fill="#F5FF6D"/>
<path d="M14.8672 54.7301C14.7757 55.1789 14.5534 55.5905 14.2283 55.9131C13.9031 56.2357 13.4898 56.4549 13.0403 56.5429C12.5908 56.6309 12.1254 56.584 11.7026 56.4078C11.2798 56.2317 10.9185 55.9344 10.6645 55.5533C10.4104 55.1722 10.2749 54.7244 10.2749 54.2664C10.275 53.8084 10.4106 53.3606 10.6648 52.9796C10.9189 52.5986 11.2802 52.3013 11.703 52.1253C12.1258 51.9492 12.5914 51.9024 13.0408 51.9905C13.3409 52.05 13.6263 52.1681 13.8806 52.338C14.1349 52.508 14.3531 52.7266 14.5228 52.9811C14.6925 53.2356 14.8103 53.5211 14.8694 53.8212C14.9284 54.1214 14.9277 54.4302 14.8672 54.7301Z" fill="#EEA700"/>
<path d="M13.8216 54.383C13.7573 54.6961 13.6017 54.9831 13.3744 55.2078C13.1471 55.4324 12.8582 55.5847 12.5444 55.6452C12.2306 55.7058 11.9059 55.6719 11.6113 55.548C11.3167 55.424 11.0654 55.2155 10.8893 54.9488C10.7132 54.682 10.6201 54.3691 10.6218 54.0495C10.6236 53.7299 10.72 53.418 10.8989 53.1532C11.0779 52.8883 11.3313 52.6825 11.6272 52.5617C11.9231 52.4409 12.2482 52.4105 12.5614 52.4744C12.7701 52.5158 12.9684 52.5981 13.1451 52.7167C13.3217 52.8353 13.473 52.9878 13.5902 53.1654C13.7075 53.3429 13.7883 53.542 13.828 53.751C13.8677 53.96 13.8655 54.1748 13.8216 54.383Z" fill="#EED51F"/>
<path d="M12.7987 53.6706C12.7684 53.8213 12.6939 53.9596 12.5849 54.0679C12.4758 54.1763 12.337 54.2498 12.1861 54.2792C12.0352 54.3086 11.879 54.2925 11.7373 54.233C11.5955 54.1735 11.4747 54.0732 11.39 53.9449C11.3053 53.8166 11.2606 53.666 11.2616 53.5123C11.2626 53.3585 11.3092 53.2086 11.3956 53.0814C11.4819 52.9542 11.6041 52.8555 11.7466 52.7978C11.8891 52.7401 12.0455 52.7261 12.196 52.7574C12.2957 52.7775 12.3904 52.8172 12.4747 52.874C12.559 52.9309 12.6312 53.0038 12.6872 53.0887C12.7432 53.1736 12.7819 53.2686 12.801 53.3685C12.8202 53.4684 12.8194 53.571 12.7987 53.6706Z" fill="#F5FF6D"/>
<path d="M9.82182 60.5926C9.73031 61.0414 9.50799 61.4531 9.18288 61.7757C8.85776 62.0983 8.4444 62.3175 7.99492 62.4055C7.54545 62.4935 7.07998 62.4465 6.65717 62.2704C6.23437 62.0943 5.87316 61.797 5.6191 61.4159C5.36504 61.0348 5.22947 60.587 5.22952 60.129C5.22957 59.671 5.36523 59.2232 5.61938 58.8422C5.87352 58.4611 6.23478 58.1638 6.65762 57.9878C7.08046 57.8118 7.54597 57.7649 7.99542 57.853C8.29577 57.9119 8.58148 58.0297 8.83611 58.1995C9.09074 58.3694 9.30923 58.5879 9.47901 58.8426C9.64878 59.0972 9.7665 59.383 9.82533 59.6833C9.88417 59.9837 9.88297 60.2927 9.82182 60.5926Z" fill="#EEA700"/>
<path d="M8.75794 60.2547C8.69371 60.5678 8.53809 60.8548 8.31076 61.0795C8.08344 61.3041 7.79461 61.4564 7.48079 61.5169C7.16696 61.5775 6.84223 61.5436 6.54764 61.4197C6.25305 61.2957 6.00184 61.0872 5.82573 60.8205C5.64962 60.5537 5.55654 60.2408 5.55825 59.9212C5.55996 59.6016 5.65637 59.2897 5.83532 59.0249C6.01427 58.76 6.26771 58.5542 6.56361 58.4334C6.8595 58.3126 7.18457 58.2822 7.49773 58.3461C7.70585 58.3886 7.90357 58.4716 8.07957 58.5906C8.25556 58.7095 8.40639 58.862 8.52343 59.0392C8.64047 59.2165 8.72141 59.4151 8.76165 59.6236C8.80189 59.8322 8.80063 60.0466 8.75794 60.2547Z" fill="#EED51F"/>
<path d="M7.7534 59.5289C7.72326 59.6795 7.64911 59.8178 7.54035 59.9263C7.43159 60.0347 7.2931 60.1085 7.14242 60.1382C6.99173 60.1679 6.83562 60.1522 6.69385 60.0931C6.55207 60.0341 6.43101 59.9343 6.34596 59.8064C6.26092 59.6785 6.21572 59.5283 6.2161 59.3747C6.21647 59.2211 6.26239 59.0711 6.34805 58.9436C6.43372 58.8161 6.55529 58.7169 6.69736 58.6586C6.83942 58.6002 6.99559 58.5853 7.14612 58.6157C7.34765 58.6565 7.52479 58.7756 7.63864 58.9468C7.7525 59.118 7.79377 59.3273 7.7534 59.5289Z" fill="#F5FF6D"/>
<path d="M15.931 59.6339C15.8974 60.0911 15.7291 60.5281 15.4472 60.8897C15.1654 61.2513 14.7828 61.5212 14.3476 61.6655C13.9125 61.8098 13.4443 61.8218 13.0023 61.7002C12.5603 61.5786 12.1643 61.3287 11.8642 60.9821C11.5641 60.6355 11.3734 60.2077 11.3163 59.7529C11.2592 59.298 11.3381 58.8364 11.5432 58.4264C11.7482 58.0164 12.0701 57.6763 12.4683 57.4491C12.8665 57.2219 13.3231 57.1178 13.7804 57.15C14.0849 57.1714 14.3822 57.2527 14.6552 57.3892C14.9282 57.5257 15.1715 57.7148 15.3713 57.9455C15.5711 58.1763 15.7234 58.4442 15.8195 58.7339C15.9155 59.0237 15.9534 59.3295 15.931 59.6339Z" fill="#EEA700"/>
<path d="M14.8535 59.4239C14.8292 59.7424 14.711 60.0467 14.5139 60.2981C14.3168 60.5495 14.0496 60.7369 13.746 60.8365C13.4424 60.9362 13.1161 60.9436 12.8084 60.8579C12.5006 60.7723 12.2251 60.5973 12.0167 60.3551C11.8083 60.1129 11.6763 59.8144 11.6375 59.4973C11.5986 59.1802 11.6547 58.8587 11.7984 58.5734C11.9422 58.288 12.1674 58.0517 12.4454 57.8943C12.7234 57.7369 13.0418 57.6654 13.3605 57.6888C13.5725 57.7044 13.7794 57.7617 13.9693 57.8574C14.1592 57.9531 14.3283 58.0853 14.467 58.2465C14.6057 58.4077 14.7113 58.5947 14.7776 58.7967C14.8439 58.9987 14.8697 59.2119 14.8535 59.4239Z" fill="#EED51F"/>
<path d="M13.7485 58.844C13.7373 58.9971 13.6808 59.1434 13.5864 59.2645C13.492 59.3856 13.3638 59.4759 13.218 59.5241C13.0722 59.5722 12.9154 59.5761 12.7674 59.5352C12.6195 59.4942 12.4869 59.4104 12.3866 59.2941C12.2863 59.1778 12.2228 59.0344 12.204 58.8821C12.1852 58.7297 12.2121 58.5751 12.2811 58.438C12.3501 58.3009 12.4583 58.1873 12.5919 58.1116C12.7255 58.036 12.8785 58.0017 13.0316 58.013C13.2369 58.0282 13.4277 58.1242 13.5621 58.28C13.6966 58.4359 13.7636 58.6387 13.7485 58.844Z" fill="#F5FF6D"/>
<path d="M20.8897 55.3692C20.7982 55.818 20.5759 56.2297 20.2508 56.5523C19.9257 56.8749 19.5123 57.0941 19.0629 57.1821C18.6134 57.2701 18.1479 57.2231 17.7251 57.047C17.3023 56.8709 16.9411 56.5735 16.687 56.1925C16.433 55.8114 16.2974 55.3636 16.2975 54.9056C16.2975 54.4476 16.4332 53.9998 16.6873 53.6188C16.9415 53.2377 17.3027 52.9405 17.7256 52.7645C18.1484 52.5884 18.6139 52.5415 19.0634 52.6297C19.3637 52.6886 19.6494 52.8063 19.904 52.9761C20.1587 53.146 20.3772 53.3645 20.5469 53.6192C20.7167 53.8738 20.8344 54.1596 20.8933 54.4599C20.9521 54.7603 20.9509 55.0693 20.8897 55.3692Z" fill="#EEA700"/>
<path d="M19.8487 55.0221C19.7845 55.3361 19.6286 55.6241 19.4008 55.8495C19.1729 56.075 18.8834 56.2278 18.5687 56.2887C18.254 56.3496 17.9283 56.3159 17.6328 56.1917C17.3373 56.0676 17.0853 55.8586 16.9085 55.5913C16.7318 55.3239 16.6382 55.0101 16.6398 54.6896C16.6413 54.369 16.7378 54.0562 16.9171 53.7905C17.0964 53.5249 17.3505 53.3183 17.6472 53.197C17.9439 53.0757 18.2699 53.045 18.5839 53.109C19.0049 53.1959 19.3742 53.446 19.6112 53.8045C19.8482 54.163 19.9336 54.6008 19.8487 55.0221Z" fill="#EED51F"/>
<path d="M18.8031 54.3189C18.773 54.4695 18.6988 54.6077 18.5901 54.7162C18.4813 54.8246 18.3428 54.8983 18.1921 54.928C18.0415 54.9577 17.8853 54.9421 17.7436 54.883C17.6018 54.824 17.4807 54.7242 17.3956 54.5963C17.3106 54.4684 17.2654 54.3182 17.2658 54.1646C17.2662 54.011 17.3121 53.861 17.3978 53.7335C17.4834 53.606 17.605 53.5068 17.7471 53.4485C17.8891 53.3901 18.0453 53.3752 18.1958 53.4057C18.3974 53.4464 18.5745 53.5654 18.6884 53.7367C18.8022 53.9079 18.8435 54.1172 18.8031 54.3189Z" fill="#F5FF6D"/>
<path d="M26.7479 51.7667C26.6563 52.2155 26.434 52.6272 26.1089 52.9498C25.7838 53.2724 25.3704 53.4915 24.921 53.5796C24.4715 53.6676 24.006 53.6206 23.5832 53.4445C23.1604 53.2684 22.7992 52.9711 22.5452 52.59C22.2911 52.2089 22.1555 51.7611 22.1556 51.3031C22.1556 50.845 22.2913 50.3973 22.5454 50.0162C22.7996 49.6352 23.1608 49.3379 23.5837 49.1619C24.0065 48.9859 24.472 48.939 24.9215 49.0271C25.2221 49.0854 25.5082 49.2029 25.7631 49.3725C26.018 49.5422 26.2368 49.7608 26.4066 50.0156C26.5765 50.2704 26.6941 50.5564 26.7527 50.857C26.8113 51.1576 26.8096 51.4668 26.7479 51.7667Z" fill="#EEA700"/>
<path d="M25.7068 51.4151C25.6442 51.7299 25.4896 52.0191 25.2625 52.2459C25.0354 52.4728 24.7461 52.6271 24.4312 52.6893C24.1163 52.7515 23.79 52.7188 23.4937 52.5954C23.1974 52.472 22.9444 52.2634 22.7668 51.996C22.5892 51.7286 22.495 51.4145 22.4961 51.0935C22.4972 50.7726 22.5935 50.4591 22.773 50.193C22.9524 49.9268 23.2068 49.72 23.5039 49.5986C23.8011 49.4772 24.1276 49.4467 24.442 49.5111C24.8616 49.597 25.2302 49.8455 25.4672 50.2022C25.7041 50.559 25.7903 50.995 25.7068 51.4151Z" fill="#EED51F"/>
<path d="M24.684 50.7028C24.6539 50.8534 24.5798 50.9916 24.471 51.1001C24.3622 51.2085 24.2237 51.2822 24.0731 51.3119C23.9224 51.3417 23.7663 51.326 23.6245 51.2669C23.4827 51.2079 23.3616 51.1081 23.2766 50.9802C23.1915 50.8523 23.1463 50.7021 23.1467 50.5485C23.1471 50.3949 23.193 50.2449 23.2787 50.1174C23.3644 49.9899 23.4859 49.8907 23.628 49.8324C23.77 49.774 23.9262 49.7591 24.0768 49.7896C24.2777 49.8314 24.4541 49.9507 24.5677 50.1216C24.6814 50.2925 24.7232 50.5013 24.684 50.7028Z" fill="#F5FF6D"/>
<path d="M33.0352 47.7349C32.9437 48.1836 32.7214 48.5953 32.3963 48.9179C32.0712 49.2405 31.6579 49.4596 31.2084 49.5477C30.7589 49.6357 30.2934 49.5888 29.8706 49.4126C29.4478 49.2365 29.0866 48.9392 28.8326 48.5581C28.5785 48.177 28.4429 47.7292 28.443 47.2712C28.443 46.8132 28.5787 46.3654 28.8328 45.9844C29.087 45.6033 29.4482 45.3061 29.8711 45.13C30.2939 44.954 30.7594 44.9071 31.2089 44.9953C31.5095 45.0536 31.7956 45.171 32.0505 45.3407C32.3054 45.5103 32.5242 45.7289 32.694 45.9837C32.8639 46.2385 32.9815 46.5245 33.0401 46.8251C33.0987 47.1257 33.097 47.4349 33.0352 47.7349Z" fill="#EEA700"/>
<path d="M31.9896 47.3881C31.9254 47.7012 31.7697 47.9882 31.5424 48.2129C31.3151 48.4376 31.0263 48.5898 30.7124 48.6503C30.3986 48.7109 30.0739 48.677 29.7793 48.5531C29.4847 48.4291 29.2335 48.2206 29.0574 47.9539C28.8813 47.6872 28.7882 47.3742 28.7899 47.0546C28.7916 46.735 28.888 46.4231 29.067 46.1583C29.2459 45.8935 29.4994 45.6876 29.7953 45.5668C30.0912 45.446 30.4162 45.4156 30.7294 45.4795C30.9375 45.522 31.1352 45.6051 31.3112 45.724C31.4872 45.8429 31.638 45.9954 31.7551 46.1726C31.8721 46.3499 31.9531 46.5485 31.9933 46.757C32.0335 46.9656 32.0323 47.18 31.9896 47.3881Z" fill="#EED51F"/>
<path d="M30.9668 46.671C30.9364 46.8217 30.862 46.96 30.7529 47.0683C30.6439 47.1767 30.5051 47.2502 30.3542 47.2796C30.2033 47.309 30.0471 47.2929 29.9054 47.2334C29.7636 47.1738 29.6427 47.0736 29.558 46.9453C29.4734 46.817 29.4287 46.6664 29.4297 46.5126C29.4307 46.3589 29.4773 46.2089 29.5636 46.0817C29.65 45.9545 29.7722 45.8558 29.9147 45.7982C30.0572 45.7405 30.2136 45.7264 30.3641 45.7578C30.5648 45.7995 30.7408 45.919 30.8537 46.0901C30.9666 46.2612 31.0073 46.47 30.9668 46.671Z" fill="#F5FF6D"/>
<path d="M52.4498 47.3834C52.3583 47.8322 52.136 48.2438 51.8109 48.5665C51.4858 48.8891 51.0724 49.1082 50.6229 49.1963C50.1734 49.2843 49.708 49.2373 49.2852 49.0612C48.8624 48.8851 48.5012 48.5877 48.2471 48.2066C47.993 47.8255 47.8575 47.3777 47.8575 46.9197C47.8576 46.4617 47.9932 46.014 48.2474 45.6329C48.5015 45.2519 48.8628 44.9546 49.2856 44.7786C49.7085 44.6026 50.174 44.5557 50.6234 44.6438C50.9238 44.7027 51.2095 44.8205 51.4641 44.9903C51.7187 45.1601 51.9372 45.3787 52.107 45.6333C52.2768 45.888 52.3945 46.1738 52.4533 46.4741C52.5122 46.7745 52.511 47.0835 52.4498 47.3834Z" fill="#EEA700"/>
<path d="M51.4088 47.0364C51.3454 47.3509 51.1901 47.6394 50.9626 47.8655C50.7352 48.0917 50.4457 48.2453 50.1309 48.3068C49.8161 48.3684 49.4902 48.3352 49.1943 48.2114C48.8984 48.0876 48.6458 47.8788 48.4687 47.6114C48.2915 47.344 48.1976 47.0301 48.1989 46.7094C48.2002 46.3886 48.2967 46.0755 48.4761 45.8096C48.6555 45.5437 48.9097 45.3369 49.2066 45.2156C49.5035 45.0942 49.8297 45.0637 50.144 45.1278C50.3525 45.1698 50.5507 45.2525 50.7272 45.3712C50.9037 45.4899 51.0551 45.6423 51.1726 45.8196C51.2901 45.9969 51.3714 46.1957 51.412 46.4045C51.4525 46.6133 51.4514 46.828 51.4088 47.0364Z" fill="#EED51F"/>
<path d="M50.386 46.3241C50.3558 46.4747 50.2817 46.613 50.1729 46.7214C50.0642 46.8299 49.9257 46.9036 49.775 46.9333C49.6243 46.963 49.4682 46.9473 49.3264 46.8883C49.1846 46.8292 49.0636 46.7295 48.9785 46.6016C48.8935 46.4737 48.8483 46.3234 48.8487 46.1698C48.849 46.0162 48.895 45.8662 48.9806 45.7387C49.0663 45.6113 49.1879 45.5121 49.3299 45.4537C49.472 45.3954 49.6282 45.3805 49.7787 45.4109C49.9802 45.4517 50.1574 45.5707 50.2712 45.7419C50.3851 45.9131 50.4263 46.1225 50.386 46.3241Z" fill="#F5FF6D"/>
<path d="M55.3537 52.6071C55.2622 53.0558 55.0399 53.4675 54.7148 53.7901C54.3897 54.1127 53.9763 54.3319 53.5269 54.4199C53.0774 54.5079 52.6119 54.4609 52.1891 54.2848C51.7663 54.1087 51.4051 53.8114 51.151 53.4303C50.897 53.0492 50.7614 52.6014 50.7615 52.1434C50.7615 51.6854 50.8972 51.2376 51.1513 50.8566C51.4054 50.4755 51.7667 50.1782 52.1896 50.0022C52.6124 49.8262 53.0779 49.7793 53.5273 49.8675C53.828 49.9258 54.1141 50.0432 54.369 50.2129C54.6239 50.3825 54.8427 50.6011 55.0125 50.8559C55.1824 51.1107 55.3 51.3967 55.3586 51.6973C55.4172 51.9979 55.4155 52.3071 55.3537 52.6071Z" fill="#EEA700"/>
<path d="M54.3127 52.2598C54.2479 52.5723 54.0919 52.8587 53.8645 53.0828C53.6371 53.3068 53.3485 53.4585 53.035 53.5188C52.7215 53.579 52.3972 53.545 52.1029 53.4212C51.8087 53.2973 51.5578 53.0891 51.3817 52.8228C51.2057 52.5565 51.1124 52.244 51.1137 51.9248C51.115 51.6056 51.2108 51.2939 51.389 51.029C51.5673 50.7642 51.8199 50.5581 52.1151 50.4366C52.4104 50.3152 52.7349 50.2838 53.0479 50.3466C53.2566 50.3891 53.4549 50.4723 53.6315 50.5915C53.808 50.7106 53.9594 50.8634 54.0768 51.0411C54.1943 51.2188 54.2756 51.4178 54.316 51.627C54.3565 51.8361 54.3554 52.0511 54.3127 52.2598Z" fill="#EED51F"/>
<path d="M53.2899 51.5428C53.2595 51.6935 53.1851 51.8318 53.076 51.9401C52.9669 52.0485 52.8282 52.122 52.6773 52.1514C52.5264 52.1808 52.3701 52.1647 52.2284 52.1052C52.0866 52.0457 51.9658 51.9454 51.8811 51.8171C51.7964 51.6888 51.7517 51.5382 51.7527 51.3845C51.7537 51.2307 51.8004 51.0807 51.8867 50.9535C51.973 50.8263 52.0952 50.7277 52.2377 50.67C52.3802 50.6123 52.5367 50.5982 52.6872 50.6296C52.8878 50.6714 53.0638 50.7908 53.1767 50.9619C53.2897 51.133 53.3303 51.3418 53.2899 51.5428Z" fill="#F5FF6D"/>
<path d="M58.5272 58.0494C58.4356 58.4982 58.2133 58.9098 57.8882 59.2325C57.5631 59.5551 57.1497 59.7742 56.7003 59.8623C56.2508 59.9503 55.7853 59.9033 55.3625 59.7272C54.9397 59.5511 54.5785 59.2537 54.3245 58.8726C54.0704 58.4915 53.9349 58.0437 53.9349 57.5857C53.935 57.1277 54.0706 56.68 54.3247 56.2989C54.5789 55.9179 54.9402 55.6207 55.363 55.4446C55.7858 55.2686 56.2513 55.2217 56.7008 55.3098C57.0011 55.3687 57.2868 55.4865 57.5414 55.6563C57.7961 55.8261 58.0146 56.0447 58.1844 56.2994C58.3541 56.554 58.4718 56.8398 58.5307 57.1401C58.5895 57.4405 58.5883 57.7495 58.5272 58.0494Z" fill="#EEA700"/>
<path d="M57.5043 57.7023C57.44 58.0154 57.2844 58.3025 57.0571 58.5271C56.8298 58.7518 56.5409 58.904 56.2271 58.9646C55.9133 59.0252 55.5886 58.9913 55.294 58.8673C54.9994 58.7434 54.7482 58.5348 54.5721 58.2681C54.396 58.0014 54.3029 57.6885 54.3046 57.3689C54.3063 57.0493 54.4027 56.7373 54.5817 56.4725C54.7606 56.2077 55.014 56.0018 55.3099 55.881C55.6058 55.7602 55.9309 55.7298 56.2441 55.7937C56.4522 55.8362 56.6499 55.9193 56.8259 56.0382C57.0019 56.1571 57.1527 56.3096 57.2697 56.4868C57.3868 56.6641 57.4677 56.8627 57.508 57.0712C57.5482 57.2798 57.547 57.4943 57.5043 57.7023Z" fill="#EED51F"/>
<path d="M56.4816 56.9857C56.4514 57.1363 56.3773 57.2746 56.2685 57.383C56.1597 57.4915 56.0213 57.5652 55.8706 57.5949C55.7199 57.6246 55.5638 57.609 55.422 57.5499C55.2802 57.4908 55.1591 57.391 55.0741 57.2632C54.989 57.1353 54.9438 56.985 54.9442 56.8314C54.9446 56.6779 54.9905 56.5278 55.0762 56.4004C55.1619 56.2729 55.2834 56.1737 55.4255 56.1153C55.5675 56.057 55.7237 56.0421 55.8743 56.0725C56.0758 56.1133 56.2529 56.2323 56.3668 56.4035C56.4806 56.5747 56.5219 56.7841 56.4816 56.9857Z" fill="#F5FF6D"/>
<path d="M61.0658 64.3643C60.9743 64.813 60.7519 65.2247 60.4268 65.5473C60.1017 65.8699 59.6884 66.0891 59.2389 66.1771C58.7894 66.2651 58.3239 66.2181 57.9011 66.042C57.4783 65.8659 57.1171 65.5686 56.8631 65.1875C56.609 64.8064 56.4735 64.3586 56.4735 63.9006C56.4736 63.4426 56.6092 62.9948 56.8633 62.6138C57.1175 62.2327 57.4788 61.9355 57.9016 61.7594C58.3244 61.5834 58.7899 61.5365 59.2394 61.6247C59.54 61.683 59.8261 61.8004 60.081 61.9701C60.336 62.1397 60.5547 62.3583 60.7246 62.6131C60.8945 62.8679 61.0121 63.1539 61.0707 63.4545C61.1292 63.7551 61.1276 64.0643 61.0658 64.3643Z" fill="#EEA700"/>
<path d="M60.0247 64.0035C59.9605 64.3166 59.8048 64.6036 59.5775 64.8283C59.3502 65.0529 59.0614 65.2052 58.7475 65.2657C58.4337 65.3263 58.109 65.2924 57.8144 65.1685C57.5198 65.0445 57.2686 64.836 57.0925 64.5692C56.9163 64.3025 56.8233 63.9896 56.825 63.67C56.8267 63.3504 56.9231 63.0384 57.102 62.7736C57.281 62.5088 57.5344 62.303 57.8303 62.1822C58.1262 62.0613 58.4513 62.031 58.7645 62.0949C58.9726 62.1374 59.1703 62.2204 59.3463 62.3394C59.5223 62.4583 59.6731 62.6107 59.7902 62.788C59.9072 62.9652 59.9882 63.1638 60.0284 63.3724C60.0686 63.581 60.0674 63.7954 60.0247 64.0035Z" fill="#EED51F"/>
<path d="M58.9837 63.2868C58.9536 63.4374 58.8794 63.5756 58.7706 63.6841C58.6619 63.7925 58.5234 63.8662 58.3727 63.8959C58.222 63.9257 58.0659 63.91 57.9241 63.8509C57.7824 63.7919 57.6613 63.6921 57.5762 63.5642C57.4912 63.4363 57.446 63.2861 57.4464 63.1325C57.4467 62.9789 57.4927 62.8289 57.5783 62.7014C57.664 62.5739 57.7856 62.4747 57.9276 62.4164C58.0697 62.358 58.2259 62.3431 58.3764 62.3736C58.4765 62.3932 58.5717 62.4324 58.6565 62.4891C58.7413 62.5457 58.8141 62.6186 58.8705 62.7035C58.927 62.7884 58.9661 62.8837 58.9855 62.9838C59.0049 63.0839 59.0043 63.1869 58.9837 63.2868Z" fill="#F5FF6D"/>
<path d="M54.1849 61.958C54.0933 62.4068 53.871 62.8184 53.5459 63.1411C53.2208 63.4637 52.8074 63.6828 52.358 63.7709C51.9085 63.8589 51.443 63.8119 51.0202 63.6358C50.5974 63.4597 50.2362 63.1623 49.9821 62.7812C49.7281 62.4001 49.5925 61.9523 49.5926 61.4943C49.5926 61.0363 49.7283 60.5886 49.9824 60.2075C50.2366 59.8265 50.5978 59.5292 51.0207 59.3532C51.4435 59.1772 51.909 59.1303 52.3585 59.2184C52.6591 59.2767 52.9452 59.3942 53.2001 59.5638C53.4551 59.7335 53.6738 59.9521 53.8437 60.2069C54.0135 60.4617 54.1312 60.7477 54.1897 61.0483C54.2483 61.3488 54.2466 61.6581 54.1849 61.958Z" fill="#EEA700"/>
<path d="M53.1438 61.6247C53.0812 61.9395 52.9265 62.2287 52.6994 62.4555C52.4724 62.6823 52.183 62.8367 51.8681 62.8989C51.5532 62.9611 51.227 62.9284 50.9307 62.805C50.6344 62.6816 50.3814 62.4729 50.2038 62.2056C50.0262 61.9382 49.932 61.6241 49.9331 61.3031C49.9342 60.9822 50.0305 60.6687 50.2099 60.4026C50.3894 60.1364 50.6438 59.9295 50.9409 59.8081C51.2381 59.6868 51.5645 59.6563 51.879 59.7207C52.2986 59.8066 52.6672 60.055 52.9041 60.4118C53.1411 60.7685 53.2273 61.2046 53.1438 61.6247Z" fill="#EED51F"/>
<path d="M52.1347 60.8941C52.1044 61.0448 52.03 61.1831 51.9209 61.2915C51.8118 61.3998 51.6731 61.4733 51.5221 61.5027C51.3712 61.5321 51.215 61.516 51.0733 61.4565C50.9315 61.397 50.8106 61.2967 50.7259 61.1684C50.6413 61.0401 50.5966 60.8895 50.5976 60.7358C50.5986 60.582 50.6452 60.4321 50.7315 60.3049C50.8179 60.1777 50.9401 60.079 51.0826 60.0213C51.2251 59.9636 51.3815 59.9496 51.532 59.9809C51.7327 60.0227 51.9087 60.1421 52.0216 60.3132C52.1346 60.4843 52.1752 60.6931 52.1347 60.8941Z" fill="#F5FF6D"/>
<path d="M51.8471 57.0174C51.7556 57.4662 51.5333 57.8779 51.2081 58.2005C50.883 58.5231 50.4697 58.7423 50.0202 58.8303C49.5707 58.9183 49.1052 58.8713 48.6824 58.6952C48.2596 58.5191 47.8984 58.2218 47.6444 57.8407C47.3903 57.4596 47.2548 57.0118 47.2548 56.5538C47.2549 56.0958 47.3905 55.648 47.6446 55.267C47.8988 54.8859 48.2601 54.5887 48.6829 54.4126C49.1058 54.2366 49.5712 54.1897 50.0207 54.2778C50.3213 54.3362 50.6074 54.4536 50.8623 54.6233C51.1173 54.793 51.336 55.0115 51.5059 55.2663C51.6758 55.5211 51.7934 55.8071 51.852 56.1077C51.9105 56.4083 51.9089 56.7175 51.8471 57.0174Z" fill="#EEA700"/>
<path d="M50.8061 56.6705C50.7427 56.9849 50.5874 57.2734 50.3599 57.4996C50.1324 57.7257 49.843 57.8793 49.5282 57.9409C49.2134 58.0024 48.8874 57.9692 48.5915 57.8454C48.2956 57.7216 48.0431 57.5128 47.8659 57.2455C47.6887 56.9781 47.5949 56.6642 47.5962 56.3434C47.5975 56.0227 47.694 55.7095 47.8733 55.4436C48.0527 55.1777 48.3069 54.971 48.6038 54.8496C48.9008 54.7283 49.227 54.6977 49.5413 54.7619C49.9618 54.8477 50.3312 55.0969 50.5683 55.4547C50.8054 55.8125 50.8909 56.2497 50.8061 56.6705Z" fill="#EED51F"/>
<path d="M49.7833 55.9537C49.7531 56.1043 49.679 56.2426 49.5702 56.351C49.4614 56.4595 49.3229 56.5332 49.1723 56.5629C49.0216 56.5926 48.8655 56.577 48.7237 56.5179C48.5819 56.4589 48.4609 56.3591 48.3758 56.2312C48.2908 56.1033 48.2456 55.953 48.2459 55.7995C48.2463 55.6459 48.2922 55.4959 48.3779 55.3684C48.4636 55.2409 48.5851 55.1417 48.7272 55.0834C48.8693 55.025 49.0255 55.0101 49.176 55.0405C49.3769 55.0824 49.5533 55.2017 49.667 55.3726C49.7806 55.5435 49.8224 55.7523 49.7833 55.9537Z" fill="#F5FF6D"/>
<path d="M48.9979 53.1318C48.9064 53.5806 48.6841 53.9922 48.359 54.3148C48.0339 54.6375 47.6205 54.8566 47.171 54.9446C46.7216 55.0327 46.2561 54.9857 45.8333 54.8096C45.4105 54.6335 45.0493 54.3361 44.7952 53.955C44.5412 53.5739 44.4056 53.1262 44.4057 52.6681C44.4057 52.2101 44.5414 51.7624 44.7955 51.3813C45.0496 51.0003 45.4109 50.703 45.8337 50.527C46.2566 50.351 46.7221 50.3041 47.1715 50.3922C47.4725 50.45 47.7589 50.567 48.0141 50.7365C48.2694 50.9061 48.4884 51.1247 48.6584 51.3796C48.8283 51.6346 48.9459 51.9208 49.0042 52.2216C49.0625 52.5224 49.0603 52.8318 48.9979 53.1318Z" fill="#EEA700"/>
<path d="M47.9569 52.785C47.8926 53.0981 47.737 53.3851 47.5097 53.6098C47.2824 53.8344 46.9935 53.9867 46.6797 54.0472C46.3659 54.1078 46.0411 54.0739 45.7466 53.9499C45.452 53.826 45.2007 53.6175 45.0246 53.3507C44.8485 53.084 44.7554 52.7711 44.7571 52.4515C44.7588 52.1319 44.8553 51.8199 45.0342 51.5551C45.2132 51.2903 45.4666 51.0845 45.7625 50.9637C46.0584 50.8429 46.3835 50.8125 46.6967 50.8764C47.1164 50.9633 47.4846 51.2128 47.7207 51.5705C47.9569 51.9282 48.0418 52.3649 47.9569 52.785Z" fill="#EED51F"/>
<path d="M46.9341 52.0681C46.9039 52.2187 46.8298 52.357 46.721 52.4654C46.6123 52.5739 46.4738 52.6476 46.3231 52.6773C46.1724 52.707 46.0163 52.6914 45.8745 52.6323C45.7328 52.5733 45.6117 52.4735 45.5267 52.3456C45.4416 52.2177 45.3964 52.0674 45.3968 51.9138C45.3972 51.7603 45.4431 51.6102 45.5287 51.4828C45.6144 51.3553 45.736 51.2561 45.8781 51.1978C46.0201 51.1394 46.1763 51.1245 46.3268 51.1549C46.5284 51.1957 46.7055 51.3147 46.8193 51.4859C46.9332 51.6571 46.9745 51.8665 46.9341 52.0681Z" fill="#F5FF6D"/>
<path d="M47.0162 48.2644C46.9247 48.7132 46.7024 49.1248 46.3773 49.4475C46.0522 49.7701 45.6388 49.9892 45.1894 50.0773C44.7399 50.1653 44.2744 50.1183 43.8516 49.9422C43.4288 49.7661 43.0676 49.4687 42.8136 49.0876C42.5595 48.7065 42.4239 48.2587 42.424 47.8007C42.424 47.3427 42.5597 46.895 42.8138 46.5139C43.068 46.1329 43.4292 45.8356 43.8521 45.6596C44.2749 45.4836 44.7404 45.4367 45.1898 45.5248C45.4899 45.5843 45.7753 45.7024 46.0296 45.8724C46.2839 46.0423 46.5022 46.2609 46.6719 46.5154C46.8415 46.7699 46.9593 47.0554 47.0184 47.3556C47.0775 47.6557 47.0768 47.9645 47.0162 48.2644Z" fill="#EEA700"/>
<path d="M45.9706 47.9264C45.9064 48.2395 45.7507 48.5265 45.5234 48.7512C45.2961 48.9759 45.0073 49.1281 44.6934 49.1887C44.3796 49.2492 44.0549 49.2154 43.7603 49.0914C43.4657 48.9674 43.2145 48.7589 43.0384 48.4922C42.8623 48.2255 42.7692 47.9125 42.7709 47.5929C42.7726 47.2733 42.869 46.9614 43.048 46.6966C43.2269 46.4318 43.4804 46.226 43.7763 46.1051C44.0722 45.9843 44.3972 45.954 44.7104 46.0179C44.9185 46.0603 45.1162 46.1434 45.2922 46.2623C45.4682 46.3813 45.619 46.5337 45.7361 46.711C45.8531 46.8882 45.9341 47.0868 45.9743 47.2954C46.0145 47.5039 46.0133 47.7184 45.9706 47.9264Z" fill="#EED51F"/>
<path d="M44.9479 47.2007C44.9177 47.3513 44.8436 47.4896 44.7348 47.598C44.6261 47.7064 44.4876 47.7802 44.3369 47.8099C44.1862 47.8396 44.0301 47.8239 43.8883 47.7648C43.7466 47.7058 43.6255 47.606 43.5404 47.4781C43.4554 47.3502 43.4102 47.2 43.4106 47.0464C43.4109 46.8928 43.4569 46.7428 43.5425 46.6154C43.6282 46.4879 43.7498 46.3887 43.8918 46.3303C44.0339 46.272 44.1901 46.2571 44.3406 46.2875C44.4407 46.3071 44.5359 46.3464 44.6207 46.403C44.7055 46.4596 44.7782 46.5325 44.8347 46.6175C44.8912 46.7024 44.9302 46.7976 44.9497 46.8977C44.9691 46.9979 44.9685 47.1008 44.9479 47.2007Z" fill="#F5FF6D"/>
<path d="M62.6365 70.4552C62.545 70.904 62.3226 71.3156 61.9975 71.6382C61.6724 71.9608 61.2591 72.18 60.8096 72.268C60.3601 72.3561 59.8946 72.3091 59.4718 72.1329C59.049 71.9568 58.6878 71.6595 58.4338 71.2784C58.1797 70.8973 58.0442 70.4495 58.0442 69.9915C58.0443 69.5335 58.1799 69.0857 58.434 68.7047C58.6882 68.3237 59.0495 68.0264 59.4723 67.8504C59.8952 67.6743 60.3606 67.6275 60.8101 67.7156C61.1104 67.7745 61.3961 67.8923 61.6508 68.0621C61.9054 68.2319 62.1239 68.4505 62.2937 68.7051C62.4635 68.9598 62.5811 69.2455 62.64 69.5459C62.6988 69.8463 62.6976 70.1553 62.6365 70.4552Z" fill="#EEA700"/>
<path d="M61.5955 70.1084C61.531 70.4234 61.3743 70.7121 61.1454 70.9378C60.9164 71.1634 60.6255 71.316 60.3096 71.3759C59.9937 71.4358 59.6672 71.4005 59.3715 71.2743C59.0758 71.1482 58.8242 70.9369 58.6489 70.6675C58.4735 70.398 58.3823 70.0825 58.3867 69.761C58.3912 69.4395 58.4911 69.1266 58.6739 68.8621C58.8566 68.5976 59.1139 68.3934 59.4129 68.2754C59.712 68.1575 60.0394 68.1312 60.3535 68.1999C60.7705 68.2898 61.135 68.5408 61.3676 68.8983C61.6003 69.2558 61.6822 69.6908 61.5955 70.1084Z" fill="#EED51F"/>
<path d="M60.5726 69.3867C60.5425 69.5373 60.4683 69.6756 60.3596 69.784C60.2508 69.8925 60.1123 69.9662 59.9617 69.9959C59.811 70.0256 59.6549 70.01 59.5131 69.9509C59.3713 69.8918 59.2503 69.792 59.1652 69.6642C59.0802 69.5363 59.035 69.386 59.0353 69.2324C59.0357 69.0789 59.0816 68.9288 59.1673 68.8014C59.253 68.6739 59.3745 68.5747 59.5166 68.5164C59.6587 68.458 59.8149 68.4431 59.9654 68.4735C60.1663 68.5154 60.3427 68.6346 60.4563 68.8056C60.57 68.9765 60.6118 69.1852 60.5726 69.3867Z" fill="#F5FF6D"/>
<path d="M62.1114 76.2996C62.0199 76.7484 61.7976 77.1601 61.4725 77.4827C61.1473 77.8053 60.734 78.0244 60.2845 78.1125C59.835 78.2005 59.3695 78.1535 58.9467 77.9774C58.5239 77.8013 58.1627 77.5039 57.9087 77.1229C57.6546 76.7418 57.5191 76.294 57.5191 75.836C57.5192 75.378 57.6548 74.9302 57.909 74.5492C58.1631 74.1681 58.5244 73.8709 58.9472 73.6949C59.3701 73.5188 59.8355 73.4719 60.285 73.5601C60.5851 73.6195 60.8704 73.7376 61.1248 73.9076C61.3791 74.0776 61.5973 74.2961 61.767 74.5507C61.9367 74.8052 62.0545 75.0907 62.1136 75.3908C62.1727 75.6909 62.1719 75.9998 62.1114 76.2996Z" fill="#EEA700"/>
<path d="M61.0658 75.9528C61.0016 76.2659 60.8459 76.5529 60.6186 76.7776C60.3913 77.0023 60.1025 77.1545 59.7886 77.215C59.4748 77.2756 59.1501 77.2417 58.8555 77.1178C58.5609 76.9938 58.3097 76.7853 58.1336 76.5186C57.9575 76.2519 57.8644 75.9389 57.8661 75.6193C57.8678 75.2997 57.9642 74.9878 58.1432 74.723C58.3221 74.4582 58.5756 74.2523 58.8715 74.1315C59.1674 74.0107 59.4924 73.9803 59.8056 74.0442C60.0137 74.0867 60.2114 74.1698 60.3874 74.2887C60.5634 74.4076 60.7143 74.5601 60.8313 74.7373C60.9483 74.9146 61.0293 75.1132 61.0695 75.3217C61.1098 75.5303 61.1085 75.7447 61.0658 75.9528Z" fill="#EED51F"/>
<path d="M60.0431 75.2358C60.0269 75.3394 59.99 75.4386 59.9345 75.5275C59.8789 75.6163 59.806 75.693 59.72 75.753C59.6341 75.8129 59.5368 75.8548 59.4342 75.8762C59.3316 75.8975 59.2258 75.8979 59.123 75.8772C59.0203 75.8565 58.9228 75.8152 58.8364 75.7559C58.7501 75.6965 58.6766 75.6203 58.6205 75.5318C58.5644 75.4432 58.5268 75.3443 58.51 75.2408C58.4932 75.1374 58.4974 75.0316 58.5226 74.9299C58.5388 74.8264 58.5757 74.7272 58.6312 74.6383C58.6868 74.5494 58.7597 74.4727 58.8457 74.4128C58.9316 74.3528 59.0288 74.3109 59.1315 74.2896C59.2341 74.2682 59.3399 74.2679 59.4427 74.2886C59.5454 74.3092 59.6429 74.3505 59.7293 74.4099C59.8156 74.4692 59.8891 74.5455 59.9452 74.634C60.0013 74.7225 60.0389 74.8214 60.0557 74.9249C60.0725 75.0283 60.0682 75.1341 60.0431 75.2358Z" fill="#F5FF6D"/>
<path d="M57.5454 72.7245C57.4538 73.1732 57.2315 73.5849 56.9064 73.9075C56.5813 74.2301 56.168 74.4493 55.7185 74.5373C55.269 74.6253 54.8035 74.5783 54.3807 74.4022C53.9579 74.2261 53.5967 73.9288 53.3427 73.5477C53.0886 73.1666 52.953 72.7188 52.9531 72.2608C52.9531 71.8028 53.0888 71.355 53.3429 70.974C53.5971 70.593 53.9583 70.2957 54.3812 70.1197C54.804 69.9436 55.2695 69.8967 55.719 69.9849C56.0196 70.0432 56.3057 70.1606 56.5606 70.3303C56.8156 70.5 57.0343 70.7185 57.2042 70.9733C57.374 71.2282 57.4917 71.5141 57.5502 71.8147C57.6088 72.1153 57.6071 72.4245 57.5454 72.7245Z" fill="#EEA700"/>
<path d="M56.5044 72.3775C56.441 72.6919 56.2857 72.9805 56.0583 73.2066C55.8308 73.4328 55.5414 73.5863 55.2266 73.6479C54.9118 73.7095 54.5858 73.6763 54.2899 73.5525C53.994 73.4287 53.7415 73.2199 53.5643 72.9525C53.3871 72.6851 53.2933 72.3712 53.2946 72.0504C53.2959 71.7297 53.3923 71.4165 53.5717 71.1506C53.7511 70.8847 54.0053 70.678 54.3022 70.5566C54.5991 70.4353 54.9254 70.4048 55.2396 70.4689C55.4482 70.5109 55.6464 70.5936 55.8229 70.7123C55.9994 70.831 56.1507 70.9834 56.2682 71.1607C56.3857 71.338 56.4671 71.5367 56.5076 71.7455C56.5481 71.9544 56.547 72.1691 56.5044 72.3775Z" fill="#EED51F"/>
<path d="M55.4816 71.6697C55.4514 71.8203 55.3773 71.9585 55.2685 72.067C55.1597 72.1754 55.0213 72.2492 54.8706 72.2789C54.7199 72.3086 54.5638 72.2929 54.422 72.2339C54.2802 72.1748 54.1591 72.075 54.0741 71.9471C53.989 71.8192 53.9438 71.669 53.9442 71.5154C53.9446 71.3618 53.9905 71.2118 54.0762 71.0843C54.1619 70.9569 54.2834 70.8577 54.4255 70.7993C54.5675 70.741 54.7237 70.726 54.8743 70.7565C55.0758 70.7972 55.2529 70.9163 55.3668 71.0875C55.4806 71.2587 55.5219 71.4681 55.4816 71.6697Z" fill="#F5FF6D"/>
<path d="M56.3583 67.1951C56.2668 67.6438 56.0445 68.0555 55.7193 68.3781C55.3942 68.7007 54.9809 68.9198 54.5314 69.0079C54.0819 69.0959 53.6164 69.0489 53.1936 68.8728C52.7708 68.6967 52.4096 68.3994 52.1556 68.0183C51.9015 67.6372 51.766 67.1894 51.766 66.7314C51.7661 66.2734 51.9017 65.8256 52.1558 65.4446C52.41 65.0635 52.7713 64.7663 53.1941 64.5902C53.617 64.4142 54.0824 64.3673 54.5319 64.4555C54.8322 64.5144 55.1179 64.6321 55.3726 64.802C55.6272 64.9718 55.8457 65.1903 56.0155 65.445C56.1853 65.6997 56.303 65.9854 56.3618 66.2858C56.4206 66.5861 56.4194 66.8952 56.3583 67.1951Z" fill="#EEA700"/>
<path d="M55.331 66.8436C55.2676 67.1571 55.1126 67.4447 54.8856 67.6701C54.6587 67.8954 54.3699 68.0484 54.056 68.1096C53.7421 68.1708 53.4171 68.1375 53.1221 68.0139C52.8271 67.8903 52.5754 67.6819 52.3988 67.4152C52.2223 67.1485 52.1289 66.8354 52.1304 66.5156C52.1318 66.1957 52.2282 65.8835 52.4072 65.6185C52.5862 65.3534 52.8398 65.1474 53.136 65.0266C53.4321 64.9057 53.7574 64.8754 54.0708 64.9396C54.4901 65.0254 54.8583 65.274 55.0946 65.631C55.3308 65.9879 55.4158 66.424 55.331 66.8436Z" fill="#EED51F"/>
<path d="M54.2898 66.1312C54.2595 66.2819 54.185 66.4202 54.076 66.5285C53.9669 66.6369 53.8281 66.7104 53.6772 66.7398C53.5263 66.7692 53.3701 66.7531 53.2284 66.6936C53.0866 66.6341 52.9657 66.5338 52.8811 66.4055C52.7964 66.2772 52.7517 66.1266 52.7527 65.9728C52.7537 65.8191 52.8003 65.6691 52.8867 65.5419C52.973 65.4147 53.0952 65.316 53.2377 65.2584C53.3802 65.2007 53.5366 65.1866 53.6871 65.218C53.8878 65.2597 54.0638 65.3792 54.1767 65.5503C54.2896 65.7214 54.3303 65.9302 54.2898 66.1312Z" fill="#F5FF6D"/>
<path d="M44.1168 43.3242C44.0253 43.773 43.803 44.1846 43.4779 44.5073C43.1528 44.8299 42.7394 45.049 42.29 45.1371C41.8405 45.2251 41.375 45.1781 40.9522 45.002C40.5294 44.8259 40.1682 44.5285 39.9141 44.1474C39.6601 43.7663 39.5245 43.3186 39.5246 42.8605C39.5246 42.4025 39.6603 41.9548 39.9144 41.5737C40.1686 41.1927 40.5298 40.8954 40.9527 40.7194C41.3755 40.5434 41.841 40.4965 42.2905 40.5846C42.5908 40.6435 42.8765 40.7613 43.1311 40.9311C43.3858 41.1009 43.6043 41.3195 43.774 41.5741C43.9438 41.8288 44.0615 42.1146 44.1204 42.4149C44.1792 42.7153 44.178 43.0243 44.1168 43.3242Z" fill="#EEA700"/>
<path d="M43.0758 42.9772C43.0124 43.2916 42.8572 43.5802 42.6297 43.8063C42.4022 44.0325 42.1128 44.186 41.798 44.2476C41.4832 44.3092 41.1572 44.276 40.8613 44.1522C40.5654 44.0284 40.3129 43.8196 40.1357 43.5522C39.9585 43.2848 39.8647 42.9709 39.866 42.6502C39.8673 42.3294 39.9638 42.0163 40.1431 41.7504C40.3225 41.4844 40.5767 41.2777 40.8736 41.1564C41.1706 41.035 41.4968 41.0045 41.8111 41.0686C42.0199 41.11 42.2184 41.1924 42.3952 41.3109C42.5721 41.4295 42.7236 41.5819 42.8412 41.7593C42.9588 41.9368 43.0401 42.1358 43.0804 42.3448C43.1206 42.5539 43.1191 42.7688 43.0758 42.9772Z" fill="#EED51F"/>
<path d="M42.0531 42.2605C42.0229 42.4111 41.9488 42.5494 41.84 42.6578C41.7312 42.7663 41.5927 42.84 41.4421 42.8697C41.2914 42.8994 41.1353 42.8837 40.9935 42.8247C40.8517 42.7656 40.7306 42.6658 40.6456 42.538C40.5605 42.4101 40.5153 42.2598 40.5157 42.1062C40.5161 41.9527 40.562 41.8026 40.6477 41.6752C40.7333 41.5477 40.8549 41.4485 40.997 41.3901C41.1391 41.3318 41.2952 41.3169 41.4458 41.3473C41.6467 41.3892 41.8231 41.5084 41.9367 41.6793C42.0504 41.8502 42.0922 42.059 42.0531 42.2605Z" fill="#F5FF6D"/>
<path d="M50.3996 41.3791C50.3081 41.8279 50.0858 42.2396 49.7607 42.5622C49.4356 42.8848 49.0222 43.1039 48.5727 43.192C48.1233 43.28 47.6578 43.233 47.235 43.0569C46.8122 42.8808 46.451 42.5835 46.1969 42.2024C45.9429 41.8213 45.8073 41.3735 45.8073 40.9155C45.8074 40.4575 45.9431 40.0097 46.1972 39.6287C46.4513 39.2476 46.8126 38.9504 47.2354 38.7743C47.6583 38.5983 48.1238 38.5514 48.5732 38.6395C48.8736 38.6984 49.1593 38.8162 49.4139 38.986C49.6685 39.1559 49.887 39.3744 50.0568 39.6291C50.2266 39.8837 50.3443 40.1695 50.4031 40.4699C50.462 40.7702 50.4608 41.0792 50.3996 41.3791Z" fill="#EEA700"/>
<path d="M49.3587 41.0322C49.2953 41.3466 49.14 41.6351 48.9125 41.8613C48.6851 42.0874 48.3956 42.241 48.0808 42.3026C47.766 42.3641 47.4401 42.3309 47.1442 42.2071C46.8483 42.0833 46.5957 41.8745 46.4186 41.6071C46.2414 41.3398 46.1475 41.0258 46.1488 40.7051C46.1501 40.3844 46.2466 40.0712 46.426 39.8053C46.6053 39.5394 46.8596 39.3327 47.1565 39.2113C47.4534 39.09 47.7796 39.0594 48.0939 39.1236C48.5145 39.2094 48.8838 39.4586 49.1209 39.8164C49.358 40.1742 49.4435 40.6114 49.3587 41.0322Z" fill="#EED51F"/>
<path d="M48.3313 40.3199C48.2854 40.5168 48.1646 40.688 47.9944 40.7972C47.8242 40.9063 47.6181 40.9447 47.42 40.9043C47.2219 40.8638 47.0474 40.7477 46.9337 40.5806C46.8199 40.4134 46.7759 40.2085 46.8109 40.0094C46.8288 39.9072 46.8671 39.8097 46.9233 39.7226C46.9796 39.6355 47.0528 39.5605 47.1385 39.5021C47.2243 39.4437 47.3209 39.4031 47.4226 39.3827C47.5243 39.3623 47.629 39.3625 47.7306 39.3833C47.8323 39.404 47.9287 39.4449 48.0142 39.5036C48.0998 39.5622 48.1727 39.6374 48.2287 39.7247C48.2847 39.812 48.3227 39.9097 48.3403 40.0119C48.3579 40.1141 48.3548 40.2189 48.3313 40.3199Z" fill="#F5FF6D"/>
<path d="M56.6459 38.2012C56.5543 38.6499 56.332 39.0616 56.0069 39.3842C55.6818 39.7068 55.2684 39.9259 54.819 40.014C54.3695 40.102 53.904 40.055 53.4812 39.8789C53.0584 39.7028 52.6972 39.4055 52.4431 39.0244C52.1891 38.6433 52.0535 38.1955 52.0536 37.7375C52.0536 37.2795 52.1893 36.8317 52.4434 36.4507C52.6976 36.0696 53.0588 35.7724 53.4817 35.5963C53.9045 35.4203 54.37 35.3734 54.8195 35.4616C55.1201 35.5199 55.4061 35.6373 55.6611 35.807C55.916 35.9766 56.1348 36.1952 56.3047 36.45C56.4745 36.7048 56.5922 36.9908 56.6507 37.2914C56.7093 37.592 56.7076 37.9012 56.6459 38.2012Z" fill="#EEA700"/>
<path d="M55.6049 37.8495C55.5415 38.164 55.3862 38.4525 55.1588 38.6787C54.9313 38.9048 54.6419 39.0584 54.3271 39.1199C54.0123 39.1815 53.6863 39.1483 53.3904 39.0245C53.0945 38.9007 52.842 38.6919 52.6648 38.4245C52.4876 38.1572 52.3937 37.8432 52.3951 37.5225C52.3964 37.2017 52.4928 36.8886 52.6722 36.6227C52.8516 36.3568 53.1058 36.15 53.4027 36.0287C53.6996 35.9073 54.0259 35.8768 54.3401 35.941C54.5487 35.9829 54.7469 36.0656 54.9234 36.1843C55.0999 36.303 55.2512 36.4554 55.3687 36.6327C55.4862 36.81 55.5676 37.0088 55.6081 37.2176C55.6486 37.4264 55.6475 37.6411 55.6049 37.8495Z" fill="#EED51F"/>
<path d="M54.5821 37.1372C54.552 37.2878 54.4778 37.4261 54.3691 37.5345C54.2603 37.6429 54.1218 37.7167 53.9711 37.7464C53.8204 37.7761 53.6643 37.7604 53.5226 37.7014C53.3808 37.6423 53.2597 37.5426 53.1747 37.4147C53.0896 37.2868 53.0444 37.1365 53.0448 36.9829C53.0452 36.8293 53.0911 36.6793 53.1768 36.5519C53.2624 36.4244 53.384 36.3252 53.5261 36.2668C53.6681 36.2085 53.8243 36.1936 53.9749 36.224C54.1758 36.2659 54.3522 36.3851 54.4658 36.556C54.5795 36.7269 54.6213 36.9357 54.5821 37.1372Z" fill="#F5FF6D"/>
<path d="M64.0519 37.0141C63.9604 37.4629 63.7381 37.8746 63.4129 38.1972C63.0878 38.5198 62.6745 38.7389 62.225 38.827C61.7755 38.915 61.3101 38.868 60.8872 38.6919C60.4644 38.5158 60.1033 38.2185 59.8492 37.8374C59.5951 37.4563 59.4596 37.0085 59.4596 36.5505C59.4597 36.0924 59.5953 35.6447 59.8495 35.2637C60.1036 34.8826 60.4649 34.5854 60.8877 34.4094C61.3106 34.2333 61.776 34.1864 62.2255 34.2746C62.5261 34.3329 62.8122 34.4503 63.0672 34.62C63.3221 34.7897 63.5408 35.0082 63.7107 35.263C63.8806 35.5178 63.9982 35.8038 64.0568 36.1044C64.1153 36.405 64.1137 36.7142 64.0519 37.0141Z" fill="#EEA700"/>
<path d="M63.0109 36.667C62.9469 36.98 62.7915 37.267 62.5645 37.4917C62.3375 37.7165 62.0489 37.8689 61.7353 37.9298C61.4217 37.9907 61.0971 37.9572 60.8025 37.8337C60.5079 37.7102 60.2564 37.5022 60.08 37.2359C59.9035 36.9696 59.8099 36.657 59.811 36.3375C59.8121 36.0181 59.9078 35.7061 60.0861 35.441C60.2643 35.176 60.5172 34.9696 60.8127 34.8481C61.1081 34.7266 61.4329 34.6954 61.7461 34.7584C62.1667 34.8443 62.536 35.0934 62.7731 35.4512C63.0102 35.809 63.0957 36.2463 63.0109 36.667Z" fill="#EED51F"/>
<path d="M61.9881 35.9501C61.9702 36.0522 61.9319 36.1497 61.8756 36.2368C61.8193 36.324 61.7462 36.3989 61.6604 36.4573C61.5747 36.5157 61.4781 36.5563 61.3764 36.5767C61.2747 36.5971 61.17 36.5969 61.0683 36.5762C60.9667 36.5554 60.8703 36.5145 60.7847 36.4559C60.6992 36.3972 60.6262 36.322 60.5702 36.2347C60.5143 36.1474 60.4763 36.0497 60.4587 35.9475C60.4411 35.8453 60.4441 35.7406 60.4677 35.6396C60.4872 35.5396 60.5265 35.4445 60.5832 35.3599C60.6399 35.2753 60.7129 35.2029 60.7979 35.1468C60.8829 35.0907 60.9782 35.052 61.0783 35.0332C61.1784 35.0143 61.2813 35.0156 61.3809 35.0369C61.5824 35.0776 61.7595 35.1966 61.8734 35.3679C61.9872 35.5391 62.0285 35.7484 61.9881 35.9501Z" fill="#F5FF6D"/>
<path d="M71.2297 36.0277C71.1382 36.4765 70.9159 36.8881 70.5908 37.2107C70.2657 37.5334 69.8523 37.7525 69.4028 37.8405C68.9533 37.9286 68.4879 37.8816 68.0651 37.7055C67.6423 37.5293 67.2811 37.232 67.027 36.8509C66.7729 36.4698 66.6374 36.022 66.6375 35.564C66.6375 35.106 66.7731 34.6583 67.0273 34.2772C67.2814 33.8962 67.6427 33.5989 68.0655 33.4229C68.4884 33.2469 68.9539 33.2 69.4033 33.2881C69.7037 33.347 69.9894 33.4648 70.244 33.6346C70.4986 33.8044 70.7171 34.023 70.8869 34.2776C71.0567 34.5323 71.1744 34.818 71.2332 35.1184C71.2921 35.4188 71.2909 35.7278 71.2297 36.0277Z" fill="#EEA700"/>
<path d="M70.1886 35.6808C70.1244 35.9939 69.9688 36.281 69.7415 36.5056C69.5141 36.7303 69.2253 36.8825 68.9115 36.9431C68.5977 37.0036 68.2729 36.9698 67.9783 36.8458C67.6837 36.7219 67.4325 36.5133 67.2564 36.2466C67.0803 35.9799 66.9872 35.667 66.9889 35.3473C66.9906 35.0277 67.087 34.7158 67.266 34.451C67.4449 34.1862 67.6984 33.9804 67.9943 33.8595C68.2902 33.7387 68.6153 33.7084 68.9284 33.7723C69.3482 33.8591 69.7164 34.1087 69.9525 34.4664C70.1887 34.8241 70.2736 35.2607 70.1886 35.6808Z" fill="#EED51F"/>
<path d="M69.1659 34.9639C69.1357 35.1145 69.0616 35.2528 68.9528 35.3612C68.8441 35.4697 68.7056 35.5434 68.5549 35.5731C68.4042 35.6028 68.2481 35.5871 68.1063 35.5281C67.9645 35.469 67.8435 35.3692 67.7584 35.2413C67.6734 35.1135 67.6282 34.9632 67.6286 34.8096C67.6289 34.656 67.6749 34.506 67.7605 34.3785C67.8462 34.2511 67.9678 34.1519 68.1098 34.0935C68.2519 34.0351 68.4081 34.0202 68.5586 34.0507C68.6587 34.0703 68.7539 34.1096 68.8387 34.1662C68.9235 34.2228 68.9962 34.2957 69.0527 34.3806C69.1092 34.4656 69.1483 34.5608 69.1677 34.6609C69.1871 34.761 69.1865 34.864 69.1659 34.9639Z" fill="#F5FF6D"/>
<path d="M35.3136 19.1977C36.2268 20.3118 36.7891 21.6717 36.9293 23.1054C37.0696 24.5391 36.7815 25.9822 36.1015 27.2522C35.4215 28.5222 34.3801 29.5619 33.1091 30.24C31.8381 30.918 30.3945 31.2039 28.961 31.0614C27.5275 30.919 26.1685 30.3546 25.0558 29.4397C23.9431 28.5247 23.1267 27.3004 22.7099 25.9214C22.2931 24.5424 22.2947 23.0709 22.7144 21.6928C23.134 20.3147 23.9529 19.092 25.0675 18.1794C25.807 17.5732 26.6587 17.1187 27.574 16.8417C28.4892 16.5648 29.4501 16.4709 30.4016 16.5655C31.3531 16.66 32.2767 16.9411 33.1195 17.3928C33.9624 17.8444 34.7079 18.4578 35.3136 19.1977Z" fill="#EEA700"/>
<path d="M35.1629 17.3712C36.0831 18.4876 36.6511 19.852 36.7949 21.2916C36.9387 22.7312 36.6518 24.1811 35.9706 25.4574C35.2895 26.7338 34.2447 27.7792 32.9687 28.461C31.6927 29.1429 30.243 29.4306 28.8034 29.2876C27.3637 29.1446 25.9989 28.5773 24.882 27.6577C23.7651 26.7382 22.9464 25.5077 22.5296 24.1223C22.1128 22.7369 22.1168 21.2589 22.541 19.8758C22.9652 18.4926 23.7905 17.2665 24.9123 16.353C26.4089 15.1342 28.327 14.5572 30.2476 14.748C32.1682 14.9387 33.9353 15.8818 35.1629 17.3712Z" fill="#EEC81F"/>
<path d="M33.7292 19.006C34.3593 19.7743 34.7473 20.7123 34.8441 21.7012C34.9409 22.6901 34.7422 23.6855 34.2732 24.5615C33.8042 25.4375 33.0859 26.1547 32.2091 26.6223C31.3324 27.0899 30.3366 27.287 29.3479 27.1885C28.3591 27.0901 27.4218 26.7006 26.6545 26.0693C25.8871 25.438 25.3243 24.5933 25.0371 23.6421C24.75 22.6908 24.7515 21.6758 25.0413 20.7254C25.3312 19.7749 25.8965 18.9319 26.6657 18.3028C27.6959 17.4602 29.0185 17.061 30.343 17.1928C31.6674 17.3247 32.8853 17.9768 33.7292 19.006Z" fill="white"/>
<path d="M30.3688 21.9007C30.5747 22.1521 30.7016 22.4589 30.7332 22.7824C30.7649 23.1058 30.6999 23.4314 30.5466 23.718C30.3932 24.0046 30.1584 24.2392 29.8717 24.3924C29.585 24.5455 29.2594 24.6102 28.9359 24.5783C28.6125 24.5464 28.3058 24.4193 28.0545 24.2131C27.8033 24.007 27.6188 23.7309 27.5244 23.4199C27.43 23.109 27.4299 22.7769 27.5241 22.4659C27.6183 22.1548 27.8027 21.8787 28.0538 21.6724C28.2207 21.5352 28.413 21.4324 28.6198 21.3696C28.8265 21.3068 29.0436 21.2854 29.2586 21.3066C29.4736 21.3278 29.6823 21.3912 29.8728 21.4932C30.0633 21.5951 30.2318 21.7336 30.3688 21.9007Z" fill="black"/>
<path d="M58.244 30.1193C57.8276 31.4982 57.0117 32.7226 55.8995 33.6378C54.7873 34.553 53.4286 35.1179 51.9954 35.2609C50.5621 35.404 49.1187 35.1188 47.8475 34.4415C46.5763 33.7642 45.5345 32.7251 44.8538 31.4557C44.1732 30.1864 43.8842 28.7436 44.0235 27.31C44.1627 25.8764 44.724 24.5163 45.6363 23.4017C46.5485 22.287 47.7708 21.4679 49.1486 21.0479C50.5263 20.6279 51.9977 20.6259 53.3766 21.0421C55.2223 21.6056 56.7701 22.8763 57.682 24.577C58.594 26.2777 58.796 28.2702 58.244 30.1193Z" fill="#EEA700"/>
<path d="M59.6732 28.9871C59.2586 30.3729 58.4418 31.6045 57.3264 32.5257C56.2111 33.4469 54.8474 34.0162 53.4081 34.1616C51.9689 34.3069 50.5189 34.0217 49.2419 33.342C47.9649 32.6624 46.9184 31.619 46.2351 30.344C45.5518 29.069 45.2623 27.6198 45.4035 26.1801C45.5446 24.7405 46.11 23.3751 47.028 22.2571C47.9459 21.1391 49.1751 20.3188 50.5598 19.9001C51.9444 19.4814 53.4222 19.4832 54.8059 19.9053C56.6526 20.4687 58.2012 21.7402 59.1133 23.4419C60.0253 25.1437 60.2266 27.1373 59.6732 28.9871Z" fill="#EEC81F"/>
<path d="M57.5226 28.7038C57.2369 29.6557 56.6753 30.5015 55.9087 31.1341C55.1422 31.7666 54.2052 32.1576 53.2163 32.2574C52.2275 32.3572 51.2313 32.1614 50.3538 31.6948C49.4762 31.2282 48.7569 30.5117 48.2868 29.636C47.8166 28.7604 47.6169 27.7649 47.7128 26.7757C47.8086 25.7865 48.1958 24.8479 48.8254 24.0789C49.4549 23.3098 50.2984 22.7448 51.2492 22.4554C52.2 22.1659 53.2153 22.1651 54.1666 22.4529C55.4396 22.8382 56.5079 23.7126 57.1371 24.8844C57.7662 26.0563 57.9049 27.4298 57.5226 28.7038Z" fill="white"/>
<path d="M53.2443 27.5303C53.1499 27.8414 52.9654 28.1175 52.7141 28.3238C52.4628 28.53 52.156 28.6571 51.8324 28.689C51.5089 28.7209 51.1832 28.656 50.8965 28.5028C50.6098 28.3496 50.3749 28.1147 50.2217 27.828C50.0684 27.5413 50.0036 27.2156 50.0355 26.8921C50.0673 26.5685 50.1944 26.2617 50.4007 26.0104C50.6069 25.7591 50.883 25.5746 51.1941 25.4802C51.5052 25.3858 51.8374 25.3858 52.1485 25.4802C52.355 25.5429 52.5472 25.6456 52.7141 25.7825C52.881 25.9195 53.0192 26.0879 53.121 26.2783C53.2227 26.4687 53.286 26.6772 53.3072 26.892C53.3283 27.1069 53.3069 27.3237 53.2443 27.5303Z" fill="black"/>
<path d="M0.612183 67.5012C0.612183 67.5012 1.27424 74.583 11.5705 72.0672C21.8668 69.5513 34.1904 59.698 34.1904 59.698C34.1904 59.698 46.4135 83.6328 57.9335 80.7608L59.696 80.2129C59.696 80.2129 53.1164 79.9663 49.2673 75.309C45.4181 70.6517 35.1127 54.4882 35.1127 54.4882C35.1127 54.4882 33.0763 57.0725 27.7113 60.7755C22.3463 64.4785 7.35614 75.1447 0.612183 67.5012Z" fill="#EEBB00"/>
<path d="M1.70804 18.4899C1.70804 18.4899 -1.78951 22.0285 3.66684 28.8912C9.1232 35.7538 18.4515 43.3608 18.4515 43.3608L20.2779 41.991C17.299 38.1441 13.8939 34.6471 10.1277 31.5668C6.88131 28.882 0.685263 22.686 1.70804 18.4899Z" fill="#EEBB00"/>
<path d="M80.0922 34.5986C80.0922 34.5986 80.9369 38.9729 76.2659 41.8586C71.5949 44.7443 56.8377 50.3376 56.8377 50.3376L55.7875 48.1642C55.7875 48.1642 57.4997 45.9588 63.0931 44.5114C68.6864 43.064 77.6038 40.1646 80.0922 34.5986Z" fill="#EEBB00"/>
<path d="M18.4743 43.2558C16.3283 41.2103 13.8581 38.9227 11.7988 36.7904C9.13687 34.0508 6.51144 31.229 4.07776 28.2885C3.47505 27.5489 2.87234 26.8092 2.31986 26.0467C2.0459 25.6631 1.78108 25.275 1.54365 24.8823C1.42493 24.686 1.31534 24.4851 1.21945 24.2887C1.1304 24.1214 1.0629 23.9434 1.01855 23.7591C-0.0453297 21.6085 1.53451 18.7685 2.15092 17.7502C1.69432 18.595 -0.479094 20.7958 0.096221 23.8458C0.129807 24.1357 0.206767 24.4189 0.32452 24.686C0.420638 24.9242 0.528836 25.1574 0.648702 25.3846C0.886133 25.8412 1.14183 26.2521 1.41123 26.6676C1.94545 27.4941 2.5025 28.2885 3.09608 29.0648C5.47572 32.126 8.03569 35.0428 10.7624 37.7995C12.8216 39.8907 15.1594 42.2011 17.3648 44.1371C17.4744 44.0732 18.3465 43.3609 18.4743 43.2558Z" fill="#D79800"/>
<path d="M29.6326 43.7627C33.1274 45.2807 35.6773 36.4625 40.5592 43.4643C42.6219 47.1991 48.0346 52.6743 43.439 41.4243C39.722 32.3249 30.3118 39.3867 29.6326 43.7627Z" fill="black" stroke="black"/>
</g>
<defs>
<filter id="filter0_d" x="0" y="0" width="88.244" height="89" filterUnits="userSpaceOnUse" color-interpolation-filters="sRGB">
<feFlood flood-opacity="0" result="BackgroundImageFix"/>
<feColorMatrix in="SourceAlpha" type="matrix" values="0 0 0 0 0 0 0 0 0 0 0 0 0 0 0 0 0 0 127 0"/>
<feOffset dx="4" dy="4"/>
<feGaussianBlur stdDeviation="2"/>
<feColorMatrix type="matrix" values="0 0 0 0 0 0 0 0 0 0 0 0 0 0 0 0 0 0 0.25 0"/>
<feBlend mode="normal" in2="BackgroundImageFix" result="effect1_dropShadow"/>
<feBlend mode="normal" in="SourceGraphic" in2="effect1_dropShadow" result="shape"/>
</filter>
</defs>
</svg>
