<svg width="89" height="89" viewBox="0 0 89 89" fill="none" xmlns="http://www.w3.org/2000/svg">
<g filter="">
<path d="M36.6515 52.2508C35.1447 49.9678 12.333 73.09 0.484295 64.9397C0.345047 65.6248 0.347763 66.3312 0.492265 67.0152C0.636767 67.6993 0.919985 68.3464 1.32443 68.9167C2.09813 69.9052 3.21397 70.5682 4.45214 70.775C10.7715 72.0581 23.3964 65.2958 33.1037 58.0496C33.5283 57.73 33.9621 57.4013 34.3913 57.0679C39.5554 65.8072 51.8014 84.2903 60.7142 79.7883C61.6149 79.3393 62.3771 78.6544 62.9195 77.8066C62.6547 77.9299 62.3899 78.0486 62.1114 78.1673C51.3859 82.6511 39.4367 56.5017 36.6515 52.2508Z" fill="#EED51F"/>
<path d="M6.53876 22.8137C3.52978 19.7819 5.26483 17.088 6.83553 15.5812C4.66669 15.6771 3.09144 16.4077 2.15084 17.7683C0.287924 20.4622 1.57552 24.5305 5.97712 29.8636C9.23723 33.8086 13.9585 38.1326 19.4468 42.2192C29.0308 37.8815 10.7166 27.0007 6.53876 22.8137Z" fill="#EED51F"/>
<path d="M80.1332 32.6168C79.7771 31.0964 78.6904 29.8772 76.9051 29.0234C76.9325 29.1923 76.9599 29.3613 77.001 29.5394C78.6173 36.1646 67.0745 40.1096 58.6001 42.6437C50.1256 45.1779 56.0614 48.753 56.0614 48.753C66.6636 45.5386 81.6811 39.1827 80.1332 32.6168Z" fill="#EED51F"/>
<path d="M60.2485 42.8721C68.6773 40.1782 78.6175 36.1647 77.0011 29.5394C76.96 29.3614 76.9326 29.1924 76.9052 29.0235C75.8029 28.5082 74.6401 28.1338 73.4442 27.9094C68.7778 26.9597 60.5681 27.5304 52.6599 28.8226C50.6234 29.5029 49.5687 29.7358 48.6053 30.1924C45.7515 31.6307 46.4821 23.8639 49.3039 7.95149C50.4362 1.55911 46.336 0.0934206 46.336 0.0934206C39.2998 -1.33573 33.4873 13.9375 30.6655 25.0191C23.2777 20.3299 15.9676 16.9784 10.7122 15.8872C9.43963 15.6085 8.13785 15.4858 6.83564 15.5219C5.26495 17.0287 3.52989 19.7226 6.53887 22.7544C10.7167 26.9597 29.0309 37.8221 19.4469 42.1598L19.6341 42.2968C13.5659 46.9541 8.35155 51.9447 4.86314 56.4513C2.28183 59.7784 0.822258 62.5972 0.484375 64.9076C12.2783 75.7746 35.2315 49.8033 36.6515 52.2187C38.2314 54.9035 50.5321 83.6235 62.1114 78.1352C62.3854 78.0028 62.6548 77.8978 62.9196 77.7745C66.7048 71.8981 60.8512 58.0266 56.0432 48.6572C56.0432 48.6892 53.7009 44.9633 60.2485 42.8721Z" fill="#EEC81F"/>
<path d="M48.829 7.97906C47.9158 12.4218 45.0118 32.0372 47.8656 30.5989C49.4287 29.9178 51.0294 29.3263 52.6598 28.8273L50.7193 29.1606C52.5868 17.8598 53.3858 1.59582 46.3359 0.111877C46.3359 0.111877 49.733 3.5318 48.829 7.97906Z" fill="#EED51F"/>
<path d="M13.3467 23.4941C13.2551 23.9429 13.0328 24.3545 12.7077 24.6771C12.3826 24.9997 11.9693 25.2189 11.5198 25.3069C11.0703 25.395 10.6048 25.348 10.182 25.1718C9.75921 24.9957 9.398 24.6984 9.14394 24.3173C8.88988 23.9362 8.75434 23.4884 8.75439 23.0304C8.75444 22.5724 8.89008 22.1246 9.14422 21.7436C9.39836 21.3626 9.75965 21.0653 10.1825 20.8893C10.6053 20.7132 11.0708 20.6663 11.5203 20.7545C11.8206 20.8134 12.1063 20.9311 12.361 21.101C12.6156 21.2708 12.8341 21.4893 13.0039 21.744C13.1736 21.9987 13.2913 22.2844 13.3502 22.5848C13.409 22.8851 13.4078 23.1942 13.3467 23.4941Z" fill="#EEA700"/>
<path d="M12.3058 23.1471C12.2424 23.4615 12.0872 23.7501 11.8597 23.9762C11.6322 24.2023 11.3428 24.3559 11.028 24.4175C10.7132 24.479 10.3872 24.4458 10.0913 24.3221C9.79541 24.1983 9.54288 23.9895 9.3657 23.7221C9.18852 23.4547 9.09464 23.1408 9.09596 22.82C9.09728 22.4993 9.19374 22.1861 9.37311 21.9202C9.55249 21.6543 9.80672 21.4476 10.1036 21.3262C10.4005 21.2049 10.7268 21.1743 11.041 21.2385C11.2496 21.2804 11.4478 21.3631 11.6243 21.4818C11.8008 21.6005 11.9521 21.7529 12.0696 21.9302C12.1871 22.1076 12.2685 22.3063 12.309 22.5151C12.3495 22.7239 12.3485 22.9387 12.3058 23.1471Z" fill="#EED51F"/>
<path d="M11.2829 22.4348C11.2528 22.5854 11.1786 22.7237 11.0699 22.8321C10.9611 22.9406 10.8226 23.0143 10.6719 23.044C10.5212 23.0737 10.3651 23.058 10.2234 22.999C10.0816 22.9399 9.96052 22.8402 9.87547 22.7123C9.79043 22.5844 9.74523 22.4342 9.74561 22.2806C9.74598 22.127 9.7919 21.9769 9.87756 21.8495C9.96323 21.722 10.0848 21.6228 10.2269 21.5645C10.3689 21.5061 10.5251 21.4912 10.6757 21.5216C10.8772 21.5624 11.0543 21.6814 11.1681 21.8526C11.282 22.0238 11.3233 22.2332 11.2829 22.4348Z" fill="#F5FF6D"/>
<path d="M36.3135 32.6581C36.2219 33.1069 35.9996 33.5185 35.6745 33.8412C35.3494 34.1638 34.9361 34.3829 34.4866 34.471C34.0371 34.559 33.5716 34.512 33.1488 34.3359C32.726 34.1598 32.3648 33.8624 32.1108 33.4813C31.8567 33.1002 31.7211 32.6524 31.7212 32.1944C31.7212 31.7364 31.8569 31.2887 32.111 30.9076C32.3652 30.5266 32.7264 30.2293 33.1493 30.0533C33.5721 29.8773 34.0376 29.8304 34.4871 29.9185C34.7874 29.9774 35.0731 30.0952 35.3278 30.265C35.5824 30.4348 35.8009 30.6534 35.9707 30.908C36.1404 31.1627 36.2581 31.4484 36.317 31.7488C36.3758 32.0492 36.3746 32.3582 36.3135 32.6581Z" fill="#EEA700"/>
<path d="M35.2725 32.311C35.2083 32.6241 35.0526 32.9111 34.8253 33.1358C34.598 33.3604 34.3092 33.5127 33.9953 33.5732C33.6815 33.6338 33.3568 33.5999 33.0622 33.476C32.7676 33.352 32.5164 33.1435 32.3403 32.8768C32.1642 32.6101 32.0711 32.2971 32.0728 31.9775C32.0745 31.6579 32.1709 31.346 32.3499 31.0812C32.5288 30.8163 32.7823 30.6105 33.0782 30.4897C33.3741 30.3689 33.6991 30.3385 34.0123 30.4024C34.2204 30.4449 34.4181 30.528 34.5941 30.6469C34.7701 30.7658 34.9209 30.9183 35.038 31.0955C35.155 31.2728 35.236 31.4714 35.2762 31.6799C35.3165 31.8885 35.3152 32.1029 35.2725 32.311Z" fill="#EED51F"/>
<path d="M34.2498 31.5989C34.2196 31.7495 34.1455 31.8877 34.0367 31.9962C33.9279 32.1046 33.7894 32.1783 33.6388 32.208C33.4881 32.2377 33.332 32.2221 33.1902 32.163C33.0484 32.104 32.9273 32.0042 32.8423 31.8763C32.7572 31.7484 32.712 31.5982 32.7124 31.4446C32.7128 31.291 32.7587 31.141 32.8444 31.0135C32.9301 30.886 33.0516 30.7868 33.1937 30.7285C33.3357 30.6701 33.4919 30.6552 33.6425 30.6857C33.7425 30.7053 33.8377 30.7445 33.9225 30.8012C34.0074 30.8578 34.0801 30.9307 34.1366 31.0156C34.193 31.1005 34.2321 31.1958 34.2515 31.2959C34.271 31.396 34.2704 31.499 34.2498 31.5989Z" fill="#F5FF6D"/>
<path d="M41.706 37.0872C41.6145 37.536 41.3922 37.9477 41.0671 38.2703C40.742 38.5929 40.3286 38.812 39.8792 38.9C39.4297 38.9881 38.9642 38.9411 38.5414 38.765C38.1186 38.5889 37.7574 38.2915 37.5033 37.9104C37.2493 37.5293 37.1137 37.0816 37.1138 36.6235C37.1138 36.1655 37.2495 35.7178 37.5036 35.3367C37.7578 34.9557 38.119 34.6584 38.5419 34.4824C38.9647 34.3064 39.4302 34.2595 39.8796 34.3476C40.18 34.4065 40.4657 34.5243 40.7203 34.6941C40.975 34.864 41.1935 35.0825 41.3632 35.3372C41.533 35.5918 41.6507 35.8776 41.7095 36.1779C41.7684 36.4783 41.7672 36.7873 41.706 37.0872Z" fill="#EEA700"/>
<path d="M40.6649 36.74C40.6015 37.0544 40.4463 37.3429 40.2188 37.5691C39.9913 37.7952 39.7019 37.9488 39.3871 38.0104C39.0723 38.0719 38.7463 38.0387 38.4504 37.9149C38.1545 37.7911 37.902 37.5823 37.7248 37.315C37.5476 37.0476 37.4538 36.7337 37.4551 36.4129C37.4564 36.0921 37.5528 35.779 37.7322 35.5131C37.9116 35.2472 38.1658 35.0405 38.4627 34.9191C38.7596 34.7978 39.0859 34.7672 39.4001 34.8314C39.6087 34.8733 39.8069 34.956 39.9834 35.0747C40.1599 35.1934 40.3112 35.3458 40.4287 35.5231C40.5462 35.7004 40.6276 35.8992 40.6681 36.108C40.7086 36.3168 40.7075 36.5316 40.6649 36.74Z" fill="#EED51F"/>
<path d="M39.6421 36.0232C39.6119 36.1738 39.5378 36.3121 39.429 36.4205C39.3203 36.529 39.1818 36.6027 39.0311 36.6324C38.8804 36.6621 38.7243 36.6464 38.5825 36.5874C38.4407 36.5283 38.3197 36.4286 38.2346 36.3007C38.1496 36.1728 38.1044 36.0225 38.1047 35.8689C38.1051 35.7154 38.1511 35.5653 38.2367 35.4379C38.3224 35.3104 38.4439 35.2112 38.586 35.1529C38.7281 35.0945 38.8843 35.0796 39.0348 35.11C39.2357 35.1519 39.4121 35.2711 39.5257 35.442C39.6394 35.613 39.6812 35.8217 39.6421 36.0232Z" fill="#F5FF6D"/>
<path d="M48.5505 35.4753C48.459 35.924 48.2367 36.3357 47.9116 36.6583C47.5864 36.9809 47.1731 37.2001 46.7236 37.2881C46.2742 37.3762 45.8087 37.3292 45.3859 37.153C44.9631 36.9769 44.6019 36.6796 44.3478 36.2985C44.0938 35.9174 43.9582 35.4696 43.9583 35.0116C43.9583 34.5536 44.094 34.1058 44.3481 33.7248C44.6022 33.3437 44.9635 33.0465 45.3863 32.8705C45.8092 32.6944 46.2747 32.6475 46.7241 32.7357C47.0248 32.794 47.3108 32.9114 47.5658 33.0811C47.8207 33.2508 48.0394 33.4693 48.2093 33.7241C48.3792 33.9789 48.4968 34.2649 48.5554 34.5655C48.6139 34.8661 48.6123 35.1753 48.5505 35.4753Z" fill="#EEA700"/>
<path d="M47.5095 35.1418C47.4455 35.4548 47.2901 35.7417 47.0631 35.9665C46.8361 36.1912 46.5475 36.3437 46.2339 36.4046C45.9203 36.4654 45.5957 36.432 45.3011 36.3085C45.0064 36.185 44.755 35.977 44.5785 35.7107C44.4021 35.4444 44.3085 35.1318 44.3096 34.8123C44.3107 34.4929 44.4064 34.1809 44.5847 33.9158C44.7629 33.6507 45.0158 33.4444 45.3112 33.3229C45.6067 33.2014 45.9315 33.1702 46.2447 33.2332C46.6653 33.3191 47.0346 33.5682 47.2717 33.926C47.5088 34.2838 47.5943 34.721 47.5095 35.1418Z" fill="#EED51F"/>
<path d="M46.4866 34.4116C46.4564 34.5622 46.3823 34.7004 46.2735 34.8088C46.1648 34.9173 46.0263 34.991 45.8756 35.0207C45.7249 35.0504 45.5688 35.0348 45.427 34.9757C45.2852 34.9167 45.1641 34.8169 45.0791 34.689C44.994 34.5611 44.9488 34.4109 44.9492 34.2573C44.9496 34.1037 44.9955 33.9537 45.0812 33.8262C45.1669 33.6987 45.2884 33.5995 45.4305 33.5412C45.5726 33.4828 45.7287 33.4679 45.8793 33.4984C46.0802 33.5402 46.2566 33.6595 46.3702 33.8304C46.4839 34.0013 46.5257 34.2101 46.4866 34.4116Z" fill="#F5FF6D"/>
<path d="M61.7644 31.608C61.6729 32.0568 61.4505 32.4684 61.1254 32.7911C60.8003 33.1137 60.387 33.3328 59.9375 33.4208C59.488 33.5089 59.0225 33.4619 58.5997 33.2858C58.1769 33.1097 57.8158 32.8123 57.5617 32.4312C57.3076 32.0501 57.1721 31.6023 57.1721 31.1443C57.1722 30.6863 57.3078 30.2386 57.562 29.8575C57.8161 29.4765 58.1774 29.1792 58.6002 29.0032C59.0231 28.8271 59.4886 28.7803 59.938 28.8684C60.2386 28.9267 60.5247 29.0441 60.7796 29.2138C61.0346 29.3835 61.2533 29.6021 61.4232 29.8569C61.593 30.1117 61.7107 30.3976 61.7692 30.6982C61.8278 30.9988 61.8262 31.3081 61.7644 31.608Z" fill="#EEA700"/>
<path d="M60.7234 31.2609C60.6592 31.574 60.5036 31.861 60.2762 32.0857C60.0489 32.3103 59.7601 32.4626 59.4462 32.5231C59.1324 32.5837 58.8077 32.5498 58.5131 32.4259C58.2185 32.3019 57.9673 32.0934 57.7912 31.8267C57.6151 31.5599 57.522 31.247 57.5237 30.9274C57.5254 30.6078 57.6218 30.2959 57.8008 30.0311C57.9797 29.7662 58.2332 29.5604 58.5291 29.4396C58.825 29.3188 59.15 29.2884 59.4632 29.3523C59.6713 29.3948 59.869 29.4779 60.045 29.5968C60.221 29.7157 60.3719 29.8682 60.4889 30.0454C60.6059 30.2227 60.6869 30.4213 60.7271 30.6298C60.7674 30.8384 60.7661 31.0528 60.7234 31.2609Z" fill="#EED51F"/>
<path d="M59.7004 30.544C59.6703 30.6946 59.5961 30.8329 59.4874 30.9413C59.3786 31.0497 59.2401 31.1235 59.0894 31.1532C58.9387 31.1829 58.7826 31.1672 58.6409 31.1082C58.4991 31.0491 58.378 30.9494 58.293 30.8215C58.2079 30.6936 58.1627 30.5433 58.1631 30.3897C58.1635 30.2361 58.2094 30.0861 58.2951 29.9586C58.3807 29.8312 58.5023 29.732 58.6443 29.6736C58.7864 29.6153 58.9426 29.6004 59.0931 29.6308C59.1932 29.6504 59.2884 29.6897 59.3732 29.7463C59.458 29.8029 59.5308 29.8758 59.5872 29.9607C59.6437 30.0457 59.6828 30.1409 59.7022 30.241C59.7216 30.3412 59.721 30.4441 59.7004 30.544Z" fill="#F5FF6D"/>
<path d="M68.2893 30.754C68.1978 31.2028 67.9755 31.6145 67.6504 31.9371C67.3253 32.2597 66.9119 32.4788 66.4624 32.5669C66.0129 32.6549 65.5475 32.6079 65.1247 32.4318C64.7018 32.2557 64.3406 31.9583 64.0866 31.5772C63.8325 31.1961 63.697 30.7484 63.697 30.2904C63.6971 29.8323 63.8327 29.3846 64.0868 29.0036C64.341 28.6225 64.7023 28.3252 65.1251 28.1492C65.5479 27.9732 66.0135 27.9263 66.4629 28.0144C66.7633 28.0733 67.049 28.1911 67.3036 28.3609C67.5582 28.5308 67.7767 28.7493 67.9465 29.004C68.1163 29.2586 68.234 29.5444 68.2928 29.8447C68.3517 30.1451 68.3505 30.4541 68.2893 30.754Z" fill="#EEA700"/>
<path d="M67.2481 30.4072C67.1838 30.7203 67.0282 31.0073 66.8009 31.232C66.5736 31.4567 66.2848 31.6089 65.9709 31.6695C65.6571 31.73 65.3324 31.6962 65.0378 31.5722C64.7432 31.4482 64.492 31.2397 64.3158 30.973C64.1397 30.7063 64.0467 30.3933 64.0484 30.0737C64.0501 29.7541 64.1465 29.4422 64.3254 29.1774C64.5044 28.9126 64.7578 28.7067 65.0537 28.5859C65.3496 28.4651 65.6747 28.4347 65.9879 28.4986C66.196 28.5411 66.3937 28.6242 66.5697 28.7431C66.7457 28.862 66.8965 29.0145 67.0136 29.1917C67.1306 29.369 67.2115 29.5676 67.2518 29.7761C67.292 29.9847 67.2908 30.1992 67.2481 30.4072Z" fill="#EED51F"/>
<path d="M66.2253 29.6948C66.1952 29.8454 66.121 29.9836 66.0123 30.0921C65.9035 30.2005 65.765 30.2743 65.6143 30.304C65.4636 30.3337 65.3075 30.318 65.1657 30.259C65.024 30.1999 64.9029 30.1001 64.8179 29.9722C64.7328 29.8443 64.6876 29.6941 64.688 29.5405C64.6884 29.3869 64.7343 29.2369 64.82 29.1094C64.9056 28.982 65.0272 28.8828 65.1693 28.8244C65.3113 28.7661 65.4675 28.7511 65.6181 28.7816C65.7181 28.8012 65.8133 28.8405 65.8981 28.8971C65.9829 28.9537 66.0557 29.0266 66.1121 29.1115C66.1686 29.1964 66.2077 29.2917 66.2271 29.3918C66.2466 29.4919 66.2459 29.5949 66.2253 29.6948Z" fill="#F5FF6D"/>
<path d="M75.2798 31.3522C75.1883 31.801 74.9659 32.2126 74.6408 32.5352C74.3157 32.8578 73.9023 33.077 73.4529 33.165C73.0034 33.253 72.5379 33.2061 72.1151 33.0299C71.6923 32.8538 71.3311 32.5565 71.077 32.1754C70.823 31.7943 70.6875 31.3465 70.6875 30.8885C70.6875 30.4305 70.8232 29.9827 71.0773 29.6017C71.3315 29.2207 71.6927 28.9234 72.1156 28.7474C72.5384 28.5713 73.0039 28.5244 73.4534 28.6126C73.754 28.6709 74.0401 28.7883 74.295 28.958C74.5499 29.1277 74.7687 29.3462 74.9386 29.6011C75.1084 29.8559 75.2261 30.1418 75.2846 30.4424C75.3432 30.743 75.3415 31.0522 75.2798 31.3522Z" fill="#EEA700"/>
<path d="M74.2385 31.0051C74.1743 31.3191 74.0184 31.607 73.7906 31.8325C73.5627 32.0579 73.2732 32.2108 72.9585 32.2717C72.6438 32.3326 72.3182 32.2989 72.0227 32.1747C71.7272 32.0506 71.4751 31.8416 71.2983 31.5742C71.1216 31.3069 71.028 30.9931 71.0296 30.6725C71.0311 30.352 71.1276 30.0391 71.3069 29.7735C71.4863 29.5078 71.7403 29.3013 72.037 29.18C72.3337 29.0587 72.6597 29.028 72.9738 29.092C73.1825 29.1344 73.3808 29.2176 73.5573 29.3368C73.7338 29.4559 73.8852 29.6087 74.0026 29.7864C74.1201 29.9641 74.2014 30.1632 74.2419 30.3723C74.2823 30.5814 74.2812 30.7964 74.2385 31.0051Z" fill="#EED51F"/>
<path d="M73.2158 30.2882C73.1856 30.4388 73.1115 30.577 73.0027 30.6855C72.894 30.7939 72.7555 30.8677 72.6048 30.8974C72.4541 30.9271 72.298 30.9114 72.1562 30.8524C72.0144 30.7933 71.8934 30.6935 71.8083 30.5656C71.7233 30.4378 71.6781 30.2875 71.6785 30.1339C71.6788 29.9803 71.7248 29.8303 71.8104 29.7028C71.8961 29.5754 72.0177 29.4762 72.1597 29.4178C72.3018 29.3595 72.458 29.3445 72.6085 29.375C72.8095 29.4168 72.9858 29.5361 73.0995 29.707C73.2131 29.8779 73.2549 30.0867 73.2158 30.2882Z" fill="#F5FF6D"/>
<path d="M42.6787 30.672C42.5872 31.1208 42.3649 31.5324 42.0398 31.855C41.7146 32.1776 41.3013 32.3968 40.8518 32.4848C40.4024 32.5729 39.9369 32.5259 39.5141 32.3498C39.0912 32.1737 38.7301 31.8763 38.476 31.4952C38.2219 31.1141 38.0864 30.6664 38.0864 30.2083C38.0865 29.7503 38.2221 29.3026 38.4763 28.9215C38.7304 28.5405 39.0917 28.2432 39.5145 28.0672C39.9374 27.8912 40.4028 27.8443 40.8523 27.9324C41.1529 27.9908 41.439 28.1082 41.694 28.2778C41.9489 28.4475 42.1676 28.6661 42.3375 28.9209C42.5074 29.1757 42.625 29.4617 42.6836 29.7622C42.7422 30.0628 42.7405 30.3721 42.6787 30.672Z" fill="#EEA700"/>
<path d="M41.6331 30.3249C41.5688 30.638 41.4132 30.925 41.1859 31.1497C40.9586 31.3744 40.6697 31.5266 40.3559 31.5871C40.0421 31.6477 39.7173 31.6138 39.4228 31.4899C39.1282 31.3659 38.877 31.1574 38.7009 30.8907C38.5247 30.624 38.4317 30.311 38.4334 29.9914C38.4351 29.6718 38.5315 29.3599 38.7104 29.0951C38.8894 28.8303 39.1428 28.6244 39.4387 28.5036C39.7346 28.3828 40.0597 28.3524 40.3728 28.4163C40.7926 28.5032 41.1608 28.7528 41.397 29.1105C41.6331 29.4681 41.718 29.9048 41.6331 30.3249Z" fill="#EED51F"/>
<path d="M40.6147 29.608C40.5846 29.7586 40.5104 29.8969 40.4017 30.0053C40.2929 30.1138 40.1544 30.1875 40.0038 30.2172C39.8531 30.2469 39.697 30.2313 39.5552 30.1722C39.4134 30.1132 39.2923 30.0134 39.2073 29.8855C39.1222 29.7576 39.077 29.6073 39.0774 29.4538C39.0778 29.3002 39.1237 29.1502 39.2094 29.0227C39.2951 28.8952 39.4166 28.796 39.5587 28.7377C39.7007 28.6793 39.8569 28.6644 40.0075 28.6948C40.2084 28.7367 40.3848 28.856 40.4984 29.0269C40.6121 29.1978 40.6539 29.4066 40.6147 29.608Z" fill="#F5FF6D"/>
<path d="M43.5918 23.727C43.5002 24.1758 43.2779 24.5875 42.9528 24.9101C42.6277 25.2327 42.2144 25.4518 41.7649 25.5399C41.3154 25.6279 40.8499 25.5809 40.4271 25.4048C40.0043 25.2287 39.6431 24.9313 39.3891 24.5502C39.135 24.1691 38.9995 23.7214 38.9995 23.2633C38.9996 22.8053 39.1352 22.3576 39.3894 21.9765C39.6435 21.5955 40.0048 21.2982 40.4276 21.1222C40.8504 20.9462 41.3159 20.8993 41.7654 20.9874C42.0657 21.0463 42.3515 21.1641 42.6061 21.3339C42.8607 21.5038 43.0792 21.7223 43.249 21.977C43.4188 22.2316 43.5364 22.5174 43.5953 22.8177C43.6541 23.1181 43.6529 23.4271 43.5918 23.727Z" fill="#EEA700"/>
<path d="M42.546 23.3982C42.4826 23.7126 42.3274 24.0011 42.0999 24.2273C41.8724 24.4534 41.583 24.607 41.2682 24.6686C40.9534 24.7301 40.6275 24.6969 40.3315 24.5731C40.0356 24.4493 39.7831 24.2406 39.6059 23.9732C39.4288 23.7058 39.3349 23.3919 39.3362 23.0711C39.3375 22.7504 39.4339 22.4372 39.6133 22.1713C39.7927 21.9054 40.0469 21.6987 40.3438 21.5773C40.6407 21.456 40.967 21.4254 41.2813 21.4896C41.4898 21.5315 41.688 21.6142 41.8645 21.733C42.041 21.8517 42.1924 22.004 42.3099 22.1813C42.4274 22.3586 42.5087 22.5574 42.5492 22.7662C42.5897 22.975 42.5887 23.1898 42.546 23.3982Z" fill="#EED51F"/>
<path d="M41.5281 22.6859C41.4979 22.8365 41.4238 22.9748 41.315 23.0832C41.2063 23.1917 41.0678 23.2654 40.9171 23.2951C40.7664 23.3248 40.6103 23.3091 40.4685 23.2501C40.3267 23.191 40.2056 23.0913 40.1206 22.9634C40.0355 22.8355 39.9904 22.6852 39.9907 22.5316C39.9911 22.3781 40.037 22.2281 40.1227 22.1006C40.2084 21.9731 40.3299 21.8739 40.472 21.8155C40.6141 21.7572 40.7702 21.7423 40.9208 21.7727C41.1223 21.8135 41.2995 21.9325 41.4133 22.1037C41.5272 22.2749 41.5684 22.4843 41.5281 22.6859Z" fill="#F5FF6D"/>
<path d="M45.7424 17.2387C45.6509 17.6875 45.4286 18.0991 45.1035 18.4217C44.7783 18.7443 44.365 18.9635 43.9155 19.0515C43.466 19.1396 43.0006 19.0926 42.5778 18.9164C42.155 18.7403 41.7938 18.443 41.5397 18.0619C41.2856 17.6808 41.1501 17.233 41.1501 16.775C41.1502 16.317 41.2858 15.8693 41.54 15.4882C41.7941 15.1072 42.1554 14.8099 42.5782 14.6339C43.0011 14.4579 43.4666 14.411 43.916 14.4991C44.2164 14.558 44.5021 14.6758 44.7567 14.8456C45.0113 15.0154 45.2298 15.234 45.3996 15.4886C45.5694 15.7433 45.6871 16.029 45.7459 16.3294C45.8047 16.6298 45.8035 16.9388 45.7424 17.2387Z" fill="#EEA700"/>
<path d="M44.7013 16.8781C44.6379 17.1925 44.4827 17.481 44.2552 17.7072C44.0277 17.9333 43.7383 18.0869 43.4235 18.1484C43.1087 18.21 42.7827 18.1768 42.4868 18.053C42.1909 17.9292 41.9384 17.7204 41.7612 17.453C41.584 17.1857 41.4902 16.8717 41.4915 16.551C41.4928 16.2302 41.5892 15.9171 41.7686 15.6512C41.948 15.3853 42.2022 15.1786 42.4991 15.0572C42.796 14.9359 43.1223 14.9053 43.4366 14.9695C43.6451 15.0114 43.8433 15.0941 44.0198 15.2128C44.1963 15.3315 44.3476 15.4839 44.4651 15.6612C44.5826 15.8385 44.664 16.0373 44.7045 16.2461C44.745 16.4549 44.7439 16.6697 44.7013 16.8781Z" fill="#EED51F"/>
<path d="M43.6784 16.1795C43.6483 16.3301 43.5741 16.4684 43.4654 16.5768C43.3566 16.6852 43.2181 16.759 43.0674 16.7887C42.9168 16.8184 42.7606 16.8027 42.6189 16.7437C42.4771 16.6846 42.356 16.5848 42.271 16.4569C42.1859 16.329 42.1407 16.1788 42.1411 16.0252C42.1415 15.8716 42.1874 15.7216 42.2731 15.5941C42.3587 15.4667 42.4803 15.3675 42.6224 15.3091C42.7644 15.2507 42.9206 15.2358 43.0712 15.2663C43.2727 15.307 43.4498 15.4261 43.5637 15.5973C43.6775 15.7685 43.7188 15.9779 43.6784 16.1795Z" fill="#F5FF6D"/>
<path d="M45.7104 10.6592C45.6189 11.108 45.3966 11.5196 45.0715 11.8422C44.7464 12.1649 44.333 12.384 43.8835 12.472C43.4341 12.5601 42.9686 12.5131 42.5458 12.337C42.123 12.1608 41.7618 11.8635 41.5077 11.4824C41.2536 11.1013 41.1181 10.6535 41.1182 10.1955C41.1182 9.73749 41.2538 9.28974 41.508 8.9087C41.7621 8.52766 42.1234 8.2304 42.5463 8.05438C42.9691 7.87835 43.4346 7.83145 43.884 7.91959C44.1847 7.97792 44.4708 8.09532 44.7257 8.26499C44.9806 8.43467 45.1994 8.65324 45.3692 8.90805C45.5391 9.16286 45.6567 9.44884 45.7153 9.74943C45.7739 10.05 45.7722 10.3592 45.7104 10.6592Z" fill="#EEA700"/>
<path d="M44.6693 10.3121C44.6061 10.6255 44.4514 10.9131 44.2247 11.1385C43.9981 11.364 43.7096 11.5171 43.3959 11.5787C43.0822 11.6402 42.7573 11.6073 42.4623 11.4842C42.1673 11.361 41.9154 11.1532 41.7385 10.8869C41.5616 10.6206 41.4676 10.3078 41.4685 9.98813C41.4694 9.66845 41.565 9.35619 41.7434 9.09087C41.9217 8.82554 42.1747 8.61906 42.4704 8.49753C42.7661 8.376 43.0912 8.34488 43.4045 8.4081C43.8247 8.49288 44.1941 8.7411 44.4312 9.09817C44.6684 9.45524 44.7541 9.8919 44.6693 10.3121Z" fill="#EED51F"/>
<path d="M43.6464 9.5998C43.6284 9.70196 43.5902 9.79948 43.5339 9.88661C43.4776 9.97374 43.4045 10.0487 43.3187 10.1071C43.233 10.1655 43.1364 10.206 43.0347 10.2265C42.933 10.2469 42.8283 10.2467 42.7266 10.226C42.625 10.2052 42.5286 10.1643 42.443 10.1056C42.3575 10.047 42.2845 9.97177 42.2285 9.88445C42.1725 9.79714 42.1346 9.69948 42.117 9.59726C42.0994 9.49504 42.1024 9.39034 42.126 9.28931C42.1718 9.09241 42.2927 8.92116 42.4629 8.81202C42.6331 8.70287 42.8391 8.66444 43.0372 8.70489C43.2353 8.74534 43.4098 8.86148 43.5236 9.02861C43.6374 9.19575 43.6814 9.40067 43.6464 9.5998Z" fill="#F5FF6D"/>
<path d="M40.7883 14.0471C40.6968 14.4959 40.4745 14.9076 40.1494 15.2302C39.8242 15.5528 39.4109 15.772 38.9614 15.86C38.512 15.948 38.0465 15.901 37.6237 15.7249C37.2009 15.5488 36.8397 15.2514 36.5856 14.8704C36.3316 14.4893 36.196 14.0415 36.196 13.5835C36.1961 13.1255 36.3318 12.6777 36.5859 12.2967C36.84 11.9156 37.2013 11.6184 37.6241 11.4424C38.047 11.2663 38.5125 11.2194 38.9619 11.3076C39.2623 11.3665 39.548 11.4842 39.8026 11.654C40.0572 11.8239 40.2757 12.0424 40.4455 12.2971C40.6153 12.5517 40.733 12.8375 40.7918 13.1379C40.8507 13.4382 40.8495 13.7472 40.7883 14.0471Z" fill="#EEA700"/>
<path d="M39.7472 13.6817C39.6838 13.9961 39.5285 14.2847 39.3011 14.5108C39.0736 14.737 38.7842 14.8905 38.4694 14.9521C38.1546 15.0137 37.8286 14.9804 37.5327 14.8566C37.2368 14.7329 36.9843 14.5241 36.8071 14.2567C36.6299 13.9893 36.536 13.6754 36.5374 13.3547C36.5387 13.0339 36.6351 12.7208 36.8145 12.4549C36.9939 12.189 37.2481 11.9822 37.545 11.8609C37.8419 11.7395 38.1681 11.709 38.4824 11.7732C38.6909 11.8151 38.8892 11.8978 39.0657 12.0165C39.2422 12.1352 39.3935 12.2876 39.511 12.4649C39.6285 12.6422 39.7098 12.8409 39.7504 13.0498C39.7909 13.2586 39.7898 13.4733 39.7472 13.6817Z" fill="#EED51F"/>
<path d="M38.7246 12.9879C38.6945 13.1385 38.6203 13.2768 38.5115 13.3852C38.4028 13.4937 38.2643 13.5674 38.1136 13.5971C37.9629 13.6268 37.8068 13.6111 37.665 13.5521C37.5233 13.493 37.4022 13.3932 37.3171 13.2654C37.2321 13.1375 37.1869 12.9872 37.1873 12.8336C37.1876 12.6801 37.2336 12.53 37.3192 12.4025C37.4049 12.2751 37.5265 12.1759 37.6685 12.1175C37.8106 12.0592 37.9668 12.0443 38.1173 12.0747C38.3188 12.1155 38.496 12.2345 38.6098 12.4057C38.7237 12.5769 38.765 12.7863 38.7246 12.9879Z" fill="#F5FF6D"/>
<path d="M46.6555 5.5178C46.564 5.96658 46.3417 6.37823 46.0166 6.70085C45.6914 7.02346 45.2781 7.24259 44.8286 7.33063C44.3791 7.41868 43.9137 7.37168 43.4909 7.19557C43.0681 7.01945 42.7068 6.72212 42.4528 6.34102C42.1987 5.95993 42.0632 5.51214 42.0632 5.05413C42.0633 4.59611 42.1989 4.14836 42.4531 3.76733C42.7072 3.38629 43.0685 3.08902 43.4913 2.913C43.9142 2.73698 44.3796 2.69008 44.8291 2.77822C45.1294 2.83711 45.4152 2.95487 45.6698 3.12471C45.9244 3.29454 46.1429 3.51308 46.3127 3.76774C46.4825 4.02241 46.6002 4.30815 46.659 4.60851C46.7178 4.90887 46.7166 5.21791 46.6555 5.5178Z" fill="#EEA700"/>
<path d="M45.5962 5.17074C45.532 5.48383 45.3763 5.77086 45.149 5.99553C44.9217 6.22019 44.6329 6.37243 44.319 6.43298C44.0052 6.49353 43.6805 6.45968 43.3859 6.33572C43.0913 6.21175 42.8401 6.00323 42.664 5.73651C42.4879 5.4698 42.3948 5.15685 42.3965 4.83724C42.3982 4.51763 42.4946 4.20571 42.6736 3.94089C42.8525 3.67607 43.106 3.47024 43.4019 3.34943C43.6978 3.22862 44.0228 3.19824 44.336 3.26214C44.5441 3.30461 44.7418 3.38768 44.9178 3.50661C45.0938 3.62554 45.2446 3.778 45.3617 3.95525C45.4787 4.13251 45.5597 4.33108 45.5999 4.53965C45.6401 4.74821 45.6389 4.96266 45.5962 5.17074Z" fill="#EED51F"/>
<path d="M44.5735 4.45381C44.5433 4.6044 44.4692 4.74266 44.3604 4.8511C44.2517 4.95954 44.1132 5.03328 43.9625 5.06298C43.8118 5.09269 43.6557 5.07703 43.5139 5.01797C43.3721 4.95892 43.251 4.85914 43.166 4.73125C43.081 4.60336 43.0358 4.45311 43.0361 4.29953C43.0365 4.14595 43.0825 3.99593 43.1681 3.86846C43.2538 3.74099 43.3754 3.6418 43.5174 3.58344C43.6595 3.52508 43.8157 3.51018 43.9662 3.54062C44.1677 3.58137 44.3449 3.70041 44.4587 3.87161C44.5726 4.04282 44.6138 4.2522 44.5735 4.45381Z" fill="#F5FF6D"/>
<path d="M19.488 21.9965C19.3965 22.4453 19.1742 22.8569 18.8491 23.1795C18.524 23.5021 18.1106 23.7213 17.6611 23.8093C17.2116 23.8973 16.7462 23.8504 16.3234 23.6742C15.9006 23.4981 15.5394 23.2008 15.2853 22.8197C15.0312 22.4386 14.8957 21.9908 14.8958 21.5328C14.8958 21.0748 15.0314 20.627 15.2856 20.246C15.5397 19.865 15.901 19.5677 16.3238 19.3917C16.7467 19.2156 17.2122 19.1687 17.6616 19.2569C17.9623 19.3152 18.2483 19.4326 18.5033 19.6023C18.7582 19.772 18.9769 19.9905 19.1468 20.2453C19.3167 20.5001 19.4343 20.7861 19.4929 21.0867C19.5515 21.3873 19.5498 21.6965 19.488 21.9965Z" fill="#EEA700"/>
<path d="M18.4468 21.6494C18.3826 21.9625 18.227 22.2495 17.9996 22.4742C17.7723 22.6988 17.4835 22.8511 17.1697 22.9116C16.8558 22.9722 16.5311 22.9383 16.2365 22.8144C15.9419 22.6904 15.6907 22.4819 15.5146 22.2152C15.3385 21.9484 15.2454 21.6355 15.2471 21.3159C15.2488 20.9963 15.3452 20.6844 15.5242 20.4196C15.7031 20.1547 15.9566 19.9489 16.2524 19.8281C16.5483 19.7073 16.8734 19.6769 17.1866 19.7408C17.6063 19.8277 17.9745 20.0773 18.2107 20.4349C18.4469 20.7926 18.5317 21.2293 18.4468 21.6494Z" fill="#EED51F"/>
<path d="M17.4333 20.9327C17.4171 21.0362 17.3802 21.1354 17.3246 21.2243C17.2691 21.3132 17.1962 21.3899 17.1102 21.4498C17.0243 21.5097 16.927 21.5516 16.8244 21.573C16.7218 21.5943 16.616 21.5947 16.5132 21.574C16.4105 21.5533 16.313 21.5121 16.2266 21.4527C16.1403 21.3933 16.0668 21.3171 16.0107 21.2286C15.9546 21.1401 15.917 21.0411 15.9002 20.9377C15.8834 20.8342 15.8877 20.7285 15.9128 20.6267C15.9608 20.4326 16.0819 20.2645 16.2508 20.1574C16.4197 20.0504 16.6234 20.0126 16.8195 20.0521C17.0155 20.0915 17.1888 20.2051 17.3031 20.3692C17.4175 20.5332 17.4641 20.7351 17.4333 20.9327Z" fill="#F5FF6D"/>
<path d="M20.73 28.7495C20.6384 29.1983 20.4161 29.61 20.091 29.9326C19.7659 30.2552 19.3526 30.4743 18.9031 30.5624C18.4536 30.6504 17.9881 30.6034 17.5653 30.4273C17.1425 30.2512 16.7813 29.9538 16.5273 29.5728C16.2732 29.1917 16.1376 28.7439 16.1377 28.2859C16.1377 27.8278 16.2734 27.3801 16.5275 26.9991C16.7817 26.618 17.1429 26.3208 17.5658 26.1447C17.9886 25.9687 18.4541 25.9218 18.9036 26.01C19.2039 26.0689 19.4896 26.1866 19.7443 26.3564C19.9989 26.5263 20.2174 26.7448 20.3872 26.9995C20.557 27.2541 20.6746 27.5399 20.7335 27.8402C20.7923 28.1406 20.7911 28.4496 20.73 28.7495Z" fill="#EEA700"/>
<path d="M19.6889 28.3843C19.6249 28.6973 19.4695 28.9842 19.2425 29.209C19.0155 29.4337 18.7269 29.5862 18.4133 29.6471C18.0997 29.7079 17.7751 29.6745 17.4805 29.551C17.1859 29.4275 16.9345 29.2195 16.758 28.9532C16.5815 28.6869 16.4879 28.3743 16.489 28.0548C16.4901 27.7354 16.5858 27.4234 16.7641 27.1583C16.9424 26.8932 17.1952 26.6869 17.4907 26.5654C17.7861 26.4439 18.1109 26.4127 18.4241 26.4757C18.6327 26.5176 18.8309 26.6003 19.0074 26.719C19.1839 26.8377 19.3352 26.9901 19.4527 27.1674C19.5702 27.3447 19.6516 27.5435 19.6921 27.7523C19.7326 27.9611 19.7315 28.1759 19.6889 28.3843Z" fill="#EED51F"/>
<path d="M18.6662 27.6674C18.6361 27.818 18.5619 27.9563 18.4532 28.0647C18.3444 28.1731 18.2059 28.2469 18.0553 28.2766C17.9046 28.3063 17.7485 28.2906 17.6067 28.2316C17.4649 28.1725 17.3438 28.0727 17.2588 27.9448C17.1737 27.817 17.1285 27.6667 17.1289 27.5131C17.1293 27.3595 17.1752 27.2095 17.2609 27.0821C17.3466 26.9546 17.4681 26.8554 17.6102 26.797C17.7522 26.7387 17.9084 26.7238 18.059 26.7542C18.2599 26.7961 18.4363 26.9153 18.5499 27.0862C18.6636 27.2571 18.7054 27.4659 18.6662 27.6674Z" fill="#F5FF6D"/>
<path d="M26.0539 32.626C25.9624 33.0748 25.7401 33.4864 25.415 33.8091C25.0899 34.1317 24.6765 34.3508 24.227 34.4389C23.7776 34.5269 23.3121 34.4799 22.8893 34.3038C22.4665 34.1277 22.1053 33.8303 21.8512 33.4492C21.5972 33.0681 21.4616 32.6203 21.4617 32.1623C21.4617 31.7043 21.5974 31.2566 21.8515 30.8755C22.1056 30.4945 22.4669 30.1972 22.8897 30.0212C23.3126 29.8452 23.7781 29.7983 24.2275 29.8864C24.5276 29.9459 24.813 30.064 25.0673 30.234C25.3216 30.404 25.5398 30.6225 25.7095 30.877C25.8792 31.1315 25.997 31.4171 26.0561 31.7172C26.1152 32.0173 26.1144 32.3262 26.0539 32.626Z" fill="#EEA700"/>
<path d="M25.0127 32.2792C24.9485 32.5923 24.7929 32.8793 24.5656 33.104C24.3382 33.3287 24.0494 33.4809 23.7356 33.5414C23.4218 33.602 23.097 33.5682 22.8024 33.4442C22.5078 33.3202 22.2566 33.1117 22.0805 32.845C21.9044 32.5783 21.8113 32.2653 21.813 31.9457C21.8147 31.6261 21.9111 31.3142 22.0901 31.0494C22.269 30.7845 22.5225 30.5787 22.8184 30.4579C23.1143 30.3371 23.4394 30.3067 23.7525 30.3706C24.1722 30.4575 24.5404 30.7071 24.7766 31.0648C25.0128 31.4225 25.0977 31.8591 25.0127 32.2792Z" fill="#EED51F"/>
<path d="M23.99 31.5623C23.9598 31.7129 23.8857 31.8512 23.7769 31.9596C23.6681 32.068 23.5297 32.1418 23.379 32.1715C23.2283 32.2012 23.0722 32.1855 22.9304 32.1264C22.7886 32.0674 22.6676 31.9676 22.5825 31.8397C22.4975 31.7118 22.4523 31.5616 22.4526 31.408C22.453 31.2544 22.4989 31.1044 22.5846 30.977C22.6703 30.8495 22.7918 30.7503 22.9339 30.6919C23.076 30.6336 23.2322 30.6187 23.3827 30.6491C23.4831 30.6681 23.5786 30.707 23.6637 30.7635C23.7489 30.82 23.8218 30.8929 23.8784 30.978C23.935 31.063 23.974 31.1585 23.9931 31.2589C24.0123 31.3592 24.0112 31.4624 23.99 31.5623Z" fill="#F5FF6D"/>
<path d="M31.5879 36.3928C31.4964 36.8416 31.274 37.2533 30.9489 37.5759C30.6238 37.8985 30.2104 38.1176 29.761 38.2057C29.3115 38.2937 28.846 38.2467 28.4232 38.0706C28.0004 37.8945 27.6392 37.5971 27.3852 37.216C27.1311 36.8349 26.9956 36.3872 26.9956 35.9291C26.9957 35.4711 27.1313 35.0234 27.3854 34.6423C27.6396 34.2613 28.0009 33.964 28.4237 33.788C28.8465 33.612 29.312 33.5651 29.7615 33.6532C30.0615 33.7127 30.3469 33.8308 30.6012 34.0008C30.8555 34.1708 31.0738 34.3893 31.2435 34.6438C31.4132 34.8983 31.5309 35.1839 31.59 35.484C31.6491 35.7841 31.6484 36.093 31.5879 36.3928Z" fill="#EEA700"/>
<path d="M30.5286 36.0552C30.4643 36.3683 30.3087 36.6553 30.0814 36.88C29.8541 37.1047 29.5652 37.2569 29.2514 37.3174C28.9376 37.378 28.6129 37.3441 28.3183 37.2202C28.0237 37.0962 27.7725 36.8877 27.5964 36.621C27.4203 36.3543 27.3272 36.0413 27.3289 35.7217C27.3306 35.4021 27.427 35.0902 27.6059 34.8254C27.7849 34.5606 28.0383 34.3547 28.3342 34.2339C28.6301 34.1131 28.9552 34.0827 29.2684 34.1466C29.4768 34.1885 29.6748 34.2713 29.8511 34.39C30.0274 34.5088 30.1785 34.6613 30.2956 34.8387C30.4128 35.0161 30.4937 35.2149 30.5336 35.4237C30.5736 35.6325 30.5719 35.8471 30.5286 36.0552Z" fill="#EED51F"/>
<path d="M29.5057 35.3292C29.4753 35.4799 29.4009 35.6182 29.2918 35.7265C29.1828 35.8349 29.044 35.9084 28.8931 35.9378C28.7422 35.9672 28.586 35.9511 28.4442 35.8916C28.3025 35.8321 28.1816 35.7318 28.0969 35.6035C28.0122 35.4752 27.9675 35.3246 27.9685 35.1709C27.9695 35.0171 28.0161 34.8672 28.1025 34.74C28.1888 34.6128 28.311 34.5141 28.4535 34.4564C28.596 34.3987 28.7524 34.3846 28.9029 34.416C29.0026 34.4361 29.0973 34.4758 29.1816 34.5326C29.2659 34.5895 29.3381 34.6624 29.3941 34.7473C29.4501 34.8322 29.4888 34.9272 29.508 35.0271C29.5271 35.127 29.5263 35.2296 29.5057 35.3292Z" fill="#F5FF6D"/>
<path d="M36.9619 40.7946C36.8704 41.2434 36.648 41.6551 36.3229 41.9777C35.9978 42.3003 35.5845 42.5194 35.135 42.6075C34.6855 42.6955 34.2201 42.6485 33.7973 42.4724C33.3745 42.2963 33.0133 41.9989 32.7592 41.6178C32.5051 41.2367 32.3696 40.789 32.3696 40.3309C32.3697 39.8729 32.5053 39.4252 32.7595 39.0441C33.0136 38.6631 33.3749 38.3658 33.7977 38.1898C34.2206 38.0138 34.6861 37.9669 35.1355 38.055C35.4356 38.1145 35.7209 38.2326 35.9752 38.4026C36.2296 38.5726 36.4478 38.7911 36.6175 39.0456C36.7872 39.3001 36.905 39.5857 36.964 39.8858C37.0231 40.1859 37.0224 40.4948 36.9619 40.7946Z" fill="#EEA700"/>
<path d="M35.9163 40.4475C35.852 40.7606 35.6964 41.0476 35.4691 41.2723C35.2418 41.497 34.953 41.6492 34.6391 41.7098C34.3253 41.7703 34.0006 41.7365 33.706 41.6125C33.4114 41.4885 33.1602 41.28 32.9841 41.0133C32.8079 40.7466 32.7149 40.4336 32.7166 40.114C32.7183 39.7944 32.8147 39.4825 32.9936 39.2177C33.1726 38.9529 33.426 38.747 33.7219 38.6262C34.0178 38.5054 34.3429 38.4751 34.6561 38.539C34.8642 38.5814 35.0619 38.6645 35.2379 38.7834C35.4139 38.9023 35.5647 39.0548 35.6818 39.232C35.7988 39.4093 35.8797 39.6079 35.92 39.8164C35.9602 40.025 35.959 40.2395 35.9163 40.4475Z" fill="#EED51F"/>
<path d="M34.8935 39.7308C34.8455 39.9249 34.7245 40.0931 34.5556 40.2001C34.3866 40.3072 34.1829 40.3449 33.9869 40.3055C33.7909 40.266 33.6176 40.1524 33.5032 39.9884C33.3889 39.8243 33.3422 39.6225 33.373 39.4249C33.3892 39.3213 33.4262 39.2221 33.4817 39.1332C33.5372 39.0444 33.6101 38.9677 33.6961 38.9077C33.7821 38.8478 33.8793 38.8059 33.9819 38.7846C34.0845 38.7632 34.1903 38.7629 34.2931 38.7835C34.3958 38.8042 34.4933 38.8455 34.5797 38.9048C34.666 38.9642 34.7395 39.0404 34.7956 39.129C34.8517 39.2175 34.8893 39.3164 34.9061 39.4199C34.923 39.5233 34.9187 39.6291 34.8935 39.7308Z" fill="#F5FF6D"/>
<path d="M29.7615 42.8036C29.6699 43.2524 29.4476 43.664 29.1225 43.9866C28.7974 44.3092 28.384 44.5283 27.9346 44.6164C27.4851 44.7044 27.0196 44.6574 26.5968 44.4813C26.174 44.3052 25.8128 44.0079 25.5587 43.6268C25.3047 43.2457 25.1691 42.7979 25.1692 42.3399C25.1692 41.8819 25.3049 41.4341 25.559 41.0531C25.8132 40.6721 26.1744 40.3748 26.5973 40.1988C27.0201 40.0227 27.4856 39.9758 27.9351 40.064C28.2354 40.1229 28.5211 40.2406 28.7757 40.4104C29.0304 40.5803 29.2489 40.7988 29.4187 41.0535C29.5884 41.3082 29.7061 41.5939 29.765 41.8943C29.8238 42.1946 29.8226 42.5037 29.7615 42.8036Z" fill="#EEA700"/>
<path d="M28.7295 42.4475C28.6653 42.7606 28.5096 43.0477 28.2823 43.2723C28.055 43.497 27.7662 43.6492 27.4524 43.7098C27.1385 43.7703 26.8138 43.7365 26.5192 43.6125C26.2246 43.4885 25.9734 43.28 25.7973 43.0133C25.6212 42.7466 25.5281 42.4337 25.5298 42.114C25.5315 41.7944 25.6279 41.4825 25.8069 41.2177C25.9858 40.9529 26.2393 40.7471 26.5352 40.6263C26.8311 40.5054 27.1561 40.4751 27.4693 40.539C27.6774 40.5814 27.8751 40.6645 28.0511 40.7834C28.2271 40.9024 28.3779 41.0548 28.495 41.2321C28.612 41.4093 28.693 41.6079 28.7332 41.8165C28.7734 42.025 28.7722 42.2395 28.7295 42.4475Z" fill="#EED51F"/>
<path d="M27.7068 41.7443C27.6766 41.8949 27.6025 42.0332 27.4937 42.1416C27.385 42.2501 27.2465 42.3238 27.0958 42.3535C26.9451 42.3832 26.789 42.3676 26.6472 42.3085C26.5054 42.2495 26.3844 42.1497 26.2993 42.0218C26.2143 41.8939 26.1691 41.7436 26.1694 41.5901C26.1698 41.4365 26.2158 41.2865 26.3014 41.159C26.3871 41.0315 26.5087 40.9323 26.6507 40.8739C26.7928 40.8156 26.949 40.8007 27.0995 40.8311C27.1996 40.8508 27.2948 40.89 27.3796 40.9467C27.4644 41.0033 27.5371 41.0762 27.5936 41.1611C27.6501 41.246 27.6891 41.3413 27.7086 41.4414C27.728 41.5415 27.7274 41.6445 27.7068 41.7443Z" fill="#F5FF6D"/>
<path d="M24.1406 45.9268C24.0491 46.3756 23.8268 46.7872 23.5017 47.1098C23.1765 47.4325 22.7632 47.6516 22.3137 47.7397C21.8642 47.8277 21.3988 47.7807 20.976 47.6046C20.5532 47.4285 20.1919 47.1311 19.9379 46.75C19.6838 46.3689 19.5483 45.9211 19.5483 45.4631C19.5484 45.0051 19.684 44.5574 19.9382 44.1763C20.1923 43.7953 20.5536 43.498 20.9764 43.322C21.3992 43.146 21.8648 43.0991 22.3142 43.1872C22.6148 43.2455 22.9009 43.3629 23.1558 43.5326C23.4108 43.7023 23.6295 43.9209 23.7994 44.1757C23.9693 44.4305 24.0869 44.7165 24.1455 45.0171C24.204 45.3176 24.2024 45.6269 24.1406 45.9268Z" fill="#EEA700"/>
<path d="M23.0995 45.5753C23.0361 45.8888 22.8811 46.1764 22.6542 46.4018C22.4272 46.6272 22.1385 46.7801 21.8246 46.8413C21.5106 46.9025 21.1856 46.8692 20.8906 46.7456C20.5956 46.622 20.3439 46.4137 20.1674 46.147C19.9909 45.8802 19.8975 45.5672 19.8989 45.2473C19.9004 44.9275 19.9968 44.6153 20.1758 44.3502C20.3548 44.0851 20.6084 43.8792 20.9045 43.7583C21.2006 43.6374 21.526 43.6072 21.8393 43.6713C22.2587 43.7571 22.6269 44.0058 22.8631 44.3627C23.0994 44.7197 23.1844 45.1558 23.0995 45.5753Z" fill="#EED51F"/>
<path d="M22.0769 44.8628C22.0467 45.0134 21.9726 45.1517 21.8638 45.2601C21.755 45.3685 21.6166 45.4423 21.4659 45.472C21.3152 45.5017 21.1591 45.486 21.0173 45.427C20.8755 45.3679 20.7545 45.2681 20.6694 45.1402C20.5844 45.0124 20.5392 44.8621 20.5396 44.7085C20.5399 44.555 20.5858 44.4049 20.6715 44.2774C20.7572 44.15 20.8787 44.0508 21.0208 43.9924C21.1629 43.9341 21.3191 43.9192 21.4696 43.9496C21.6711 43.9903 21.8482 44.1094 21.9621 44.2806C22.076 44.4518 22.1172 44.6612 22.0769 44.8628Z" fill="#F5FF6D"/>
<path d="M19.2139 50.2098C19.1653 50.6658 18.9826 51.0973 18.689 51.4495C18.3953 51.8018 18.0037 52.0591 17.5638 52.1889C17.124 52.3187 16.6555 52.3152 16.2176 52.1788C15.7797 52.0424 15.3921 51.7792 15.1037 51.4226C14.8154 51.066 14.6392 50.6319 14.5975 50.1751C14.5558 49.7184 14.6504 49.2596 14.8694 48.8566C15.0884 48.4536 15.422 48.1246 15.8279 47.9112C16.2338 47.6977 16.6939 47.6094 17.1501 47.6574C17.4532 47.6893 17.7472 47.7806 18.015 47.9262C18.2829 48.0718 18.5194 48.2687 18.7111 48.5058C18.9027 48.7428 19.0458 49.0154 19.1321 49.3077C19.2184 49.6001 19.2462 49.9067 19.2139 50.2098Z" fill="#EEA700"/>
<path d="M18.1409 49.9584C18.1075 50.2764 17.9806 50.5773 17.7762 50.8231C17.5718 51.0689 17.2991 51.2486 16.9926 51.3395C16.686 51.4303 16.3594 51.4282 16.0541 51.3334C15.7488 51.2386 15.4784 51.0554 15.2772 50.8069C15.076 50.5584 14.953 50.2559 14.9238 49.9375C14.8945 49.6192 14.9604 49.2993 15.1129 49.0183C15.2655 48.7374 15.498 48.508 15.7809 48.3591C16.0639 48.2103 16.3847 48.1488 16.7026 48.1822C17.1284 48.2283 17.5186 48.4409 17.788 48.7737C18.0575 49.1065 18.1844 49.5324 18.1409 49.9584Z" fill="#EED51F"/>
<path d="M17.0542 49.3468C17.038 49.4995 16.9768 49.6439 16.8785 49.7619C16.7802 49.8798 16.6491 49.9659 16.5018 50.0093C16.3546 50.0527 16.1977 50.0515 16.0512 50.0058C15.9046 49.9601 15.7749 49.8719 15.6784 49.7525C15.5819 49.633 15.5231 49.4876 15.5093 49.3347C15.4954 49.1818 15.5273 49.0282 15.6007 48.8934C15.6742 48.7586 15.786 48.6486 15.922 48.5773C16.058 48.506 16.212 48.4767 16.3647 48.493C16.4663 48.5032 16.5648 48.5335 16.6546 48.5821C16.7443 48.6306 16.8236 48.6965 16.8877 48.7759C16.9518 48.8554 16.9996 48.9467 17.0281 49.0447C17.0567 49.1427 17.0656 49.2454 17.0542 49.3468Z" fill="#F5FF6D"/>
<path d="M14.8672 54.7301C14.7757 55.1789 14.5533 55.5905 14.2282 55.9131C13.9031 56.2357 13.4898 56.4549 13.0403 56.5429C12.5908 56.6309 12.1253 56.584 11.7025 56.4078C11.2797 56.2317 10.9185 55.9344 10.6644 55.5533C10.4104 55.1722 10.2749 54.7244 10.2749 54.2664C10.275 53.8084 10.4106 53.3606 10.6647 52.9796C10.9189 52.5986 11.2801 52.3013 11.703 52.1253C12.1258 51.9492 12.5913 51.9024 13.0408 51.9905C13.3408 52.05 13.6262 52.1681 13.8805 52.338C14.1349 52.508 14.3531 52.7266 14.5228 52.9811C14.6925 53.2356 14.8102 53.5211 14.8693 53.8212C14.9284 54.1214 14.9277 54.4302 14.8672 54.7301Z" fill="#EEA700"/>
<path d="M13.8216 54.383C13.7573 54.6961 13.6017 54.9831 13.3744 55.2078C13.1471 55.4325 12.8582 55.5847 12.5444 55.6452C12.2306 55.7058 11.9059 55.6719 11.6113 55.548C11.3167 55.424 11.0654 55.2155 10.8893 54.9488C10.7132 54.6821 10.6201 54.3691 10.6218 54.0495C10.6236 53.7299 10.72 53.418 10.8989 53.1532C11.0779 52.8883 11.3313 52.6825 11.6272 52.5617C11.9231 52.4409 12.2482 52.4105 12.5614 52.4744C12.7701 52.5158 12.9684 52.5981 13.1451 52.7167C13.3217 52.8354 13.473 52.9879 13.5902 53.1654C13.7075 53.3429 13.7883 53.542 13.828 53.751C13.8677 53.96 13.8655 54.1748 13.8216 54.383Z" fill="#EED51F"/>
<path d="M12.7988 53.6706C12.7685 53.8213 12.6941 53.9596 12.585 54.068C12.4759 54.1763 12.3372 54.2499 12.1863 54.2793C12.0354 54.3086 11.8791 54.2925 11.7374 54.233C11.5956 54.1735 11.4748 54.0732 11.3901 53.9449C11.3054 53.8166 11.2607 53.666 11.2617 53.5123C11.2627 53.3586 11.3094 53.2086 11.3957 53.0814C11.482 52.9542 11.6042 52.8555 11.7467 52.7978C11.8892 52.7401 12.0456 52.7261 12.1962 52.7574C12.2958 52.7776 12.3905 52.8172 12.4748 52.8741C12.5591 52.9309 12.6313 53.0039 12.6873 53.0887C12.7433 53.1736 12.782 53.2687 12.8011 53.3685C12.8203 53.4684 12.8195 53.5711 12.7988 53.6706Z" fill="#F5FF6D"/>
<path d="M9.82179 60.5926C9.73028 61.0414 9.50796 61.4531 9.18285 61.7757C8.85773 62.0983 8.44437 62.3174 7.99489 62.4055C7.54542 62.4935 7.07995 62.4465 6.65714 62.2704C6.23434 62.0943 5.87313 61.7969 5.61907 61.4158C5.365 61.0347 5.22944 60.587 5.22949 60.129C5.22954 59.6709 5.3652 59.2232 5.61935 58.8421C5.87349 58.4611 6.23475 58.1638 6.65759 57.9878C7.08043 57.8118 7.54594 57.7649 7.99539 57.853C8.29574 57.9119 8.58145 58.0297 8.83608 58.1995C9.0907 58.3694 9.3092 58.5879 9.47898 58.8426C9.64875 59.0972 9.76647 59.383 9.8253 59.6833C9.88413 59.9837 9.88294 60.2927 9.82179 60.5926Z" fill="#EEA700"/>
<path d="M8.75782 60.2547C8.69358 60.5678 8.53797 60.8549 8.31064 61.0795C8.08332 61.3042 7.79449 61.4564 7.48066 61.517C7.16684 61.5775 6.84211 61.5437 6.54752 61.4197C6.25292 61.2958 6.00172 61.0872 5.82561 60.8205C5.6495 60.5538 5.55642 60.2409 5.55813 59.9212C5.55984 59.6016 5.65625 59.2897 5.8352 59.0249C6.01414 58.7601 6.26758 58.5543 6.56348 58.4334C6.85938 58.3126 7.18445 58.2823 7.49761 58.3462C7.70573 58.3886 7.90345 58.4717 8.07945 58.5906C8.25544 58.7095 8.40627 58.862 8.52331 59.0393C8.64034 59.2165 8.72128 59.4151 8.76153 59.6237C8.80177 59.8322 8.80051 60.0467 8.75782 60.2547Z" fill="#EED51F"/>
<path d="M7.75337 59.5289C7.72322 59.6795 7.64908 59.8178 7.54032 59.9263C7.43156 60.0347 7.29307 60.1084 7.14239 60.1381C6.9917 60.1678 6.83559 60.1522 6.69382 60.0931C6.55204 60.034 6.43098 59.9343 6.34593 59.8064C6.26089 59.6785 6.21569 59.5283 6.21607 59.3747C6.21644 59.2211 6.26236 59.0711 6.34802 58.9436C6.43369 58.8161 6.55526 58.7169 6.69733 58.6585C6.83939 58.6002 6.99556 58.5853 7.14609 58.6157C7.34762 58.6565 7.52476 58.7755 7.63861 58.9467C7.75246 59.118 7.79374 59.3273 7.75337 59.5289Z" fill="#F5FF6D"/>
<path d="M15.9309 59.6339C15.8973 60.0911 15.7289 60.5281 15.4471 60.8897C15.1653 61.2513 14.7827 61.5213 14.3475 61.6655C13.9123 61.8098 13.4442 61.8219 13.0022 61.7002C12.5602 61.5786 12.1641 61.3287 11.864 60.9821C11.564 60.6355 11.3733 60.2078 11.3162 59.7529C11.259 59.298 11.338 58.8364 11.543 58.4264C11.7481 58.0164 12.07 57.6763 12.4682 57.4491C12.8664 57.2219 13.323 57.1179 13.7803 57.15C14.0848 57.1714 14.3821 57.2527 14.6551 57.3892C14.9281 57.5258 15.1714 57.7148 15.3712 57.9456C15.571 58.1763 15.7233 58.4442 15.8193 58.734C15.9154 59.0237 15.9533 59.3295 15.9309 59.6339Z" fill="#EEA700"/>
<path d="M14.8535 59.4238C14.8292 59.7424 14.711 60.0466 14.5139 60.2981C14.3168 60.5495 14.0496 60.7369 13.746 60.8365C13.4424 60.9362 13.1161 60.9436 12.8084 60.8579C12.5006 60.7722 12.2251 60.5972 12.0167 60.3551C11.8083 60.1129 11.6763 59.8144 11.6375 59.4973C11.5986 59.1802 11.6547 58.8586 11.7984 58.5733C11.9422 58.288 12.1674 58.0517 12.4454 57.8943C12.7234 57.7368 13.0418 57.6653 13.3605 57.6888C13.5725 57.7044 13.7794 57.7617 13.9693 57.8574C14.1592 57.9531 14.3283 58.0853 14.467 58.2465C14.6057 58.4077 14.7113 58.5946 14.7776 58.7967C14.8439 58.9987 14.8697 59.2118 14.8535 59.4238Z" fill="#EED51F"/>
<path d="M13.7486 58.8439C13.7373 58.997 13.6809 59.1434 13.5865 59.2645C13.492 59.3855 13.3638 59.4758 13.218 59.524C13.0723 59.5722 12.9155 59.5761 12.7675 59.5351C12.6195 59.4942 12.487 59.4103 12.3867 59.2941C12.2864 59.1778 12.2229 59.0344 12.2041 58.882C12.1853 58.7296 12.2121 58.5751 12.2812 58.438C12.3502 58.3008 12.4583 58.1873 12.5919 58.1116C12.7255 58.0359 12.8786 58.0016 13.0317 58.0129C13.237 58.0281 13.4278 58.1242 13.5622 58.28C13.6966 58.4358 13.7637 58.6387 13.7486 58.8439Z" fill="#F5FF6D"/>
<path d="M20.8899 55.3692C20.7984 55.818 20.576 56.2297 20.2509 56.5523C19.9258 56.8749 19.5125 57.094 19.063 57.1821C18.6135 57.2701 18.148 57.2231 17.7252 57.047C17.3024 56.8709 16.9412 56.5735 16.6872 56.1924C16.4331 55.8113 16.2976 55.3636 16.2976 54.9056C16.2977 54.4475 16.4333 53.9998 16.6874 53.6187C16.9416 53.2377 17.3028 52.9405 17.7257 52.7644C18.1485 52.5884 18.614 52.5415 19.0635 52.6296C19.3638 52.6885 19.6495 52.8063 19.9042 52.9761C20.1588 53.146 20.3773 53.3645 20.5471 53.6192C20.7168 53.8738 20.8345 54.1596 20.8934 54.4599C20.9522 54.7603 20.951 55.0693 20.8899 55.3692Z" fill="#EEA700"/>
<path d="M19.8486 55.0222C19.7844 55.3362 19.6285 55.6241 19.4007 55.8496C19.1728 56.075 18.8833 56.2279 18.5686 56.2888C18.2539 56.3497 17.9283 56.3159 17.6328 56.1918C17.3373 56.0676 17.0852 55.8587 16.9084 55.5913C16.7317 55.3239 16.6381 55.0101 16.6397 54.6896C16.6412 54.3691 16.7377 54.0562 16.917 53.7906C17.0964 53.5249 17.3504 53.3184 17.6471 53.1971C17.9438 53.0757 18.2698 53.0451 18.5838 53.109C19.0048 53.1959 19.3741 53.446 19.6111 53.8045C19.8482 54.1631 19.9335 54.6009 19.8486 55.0222Z" fill="#EED51F"/>
<path d="M18.8032 54.3189C18.7731 54.4695 18.6989 54.6078 18.5902 54.7162C18.4814 54.8247 18.3429 54.8984 18.1922 54.9281C18.0415 54.9578 17.8854 54.9421 17.7437 54.8831C17.6019 54.824 17.4808 54.7242 17.3957 54.5963C17.3107 54.4685 17.2655 54.3182 17.2659 54.1646C17.2662 54.011 17.3122 53.861 17.3979 53.7336C17.4835 53.6061 17.6051 53.5069 17.7472 53.4485C17.8892 53.3902 18.0454 53.3753 18.1959 53.4057C18.3975 53.4465 18.5746 53.5655 18.6885 53.7367C18.8023 53.9079 18.8436 54.1173 18.8032 54.3189Z" fill="#F5FF6D"/>
<path d="M26.7478 51.7667C26.6563 52.2155 26.4339 52.6272 26.1088 52.9498C25.7837 53.2724 25.3704 53.4916 24.9209 53.5796C24.4714 53.6676 24.0059 53.6206 23.5831 53.4445C23.1603 53.2684 22.7992 52.9711 22.5451 52.59C22.291 52.2089 22.1555 51.7611 22.1555 51.3031C22.1556 50.8451 22.2912 50.3973 22.5454 50.0163C22.7995 49.6352 23.1608 49.338 23.5836 49.1619C24.0065 48.9859 24.472 48.939 24.9214 49.0271C25.222 49.0855 25.5081 49.2029 25.763 49.3726C26.018 49.5423 26.2367 49.7608 26.4066 50.0156C26.5764 50.2704 26.6941 50.5564 26.7526 50.857C26.8112 51.1576 26.8096 51.4668 26.7478 51.7667Z" fill="#EEA700"/>
<path d="M25.7068 51.4151C25.6443 51.7299 25.4896 52.0191 25.2625 52.2459C25.0354 52.4728 24.7461 52.6271 24.4312 52.6893C24.1163 52.7515 23.79 52.7188 23.4937 52.5954C23.1974 52.472 22.9444 52.2633 22.7668 51.996C22.5892 51.7286 22.495 51.4145 22.4961 51.0935C22.4972 50.7726 22.5936 50.4591 22.773 50.193C22.9524 49.9268 23.2068 49.7199 23.504 49.5985C23.8011 49.4771 24.1276 49.4467 24.442 49.5111C24.8616 49.597 25.2302 49.8454 25.4672 50.2022C25.7042 50.559 25.7903 50.995 25.7068 51.4151Z" fill="#EED51F"/>
<path d="M24.6841 50.7027C24.6539 50.8533 24.5798 50.9916 24.471 51.1C24.3623 51.2085 24.2238 51.2822 24.0731 51.3119C23.9224 51.3416 23.7663 51.326 23.6245 51.2669C23.4827 51.2079 23.3616 51.1081 23.2766 50.9802C23.1916 50.8523 23.1464 50.702 23.1467 50.5485C23.1471 50.3949 23.193 50.2449 23.2787 50.1174C23.3644 49.9899 23.4859 49.8907 23.628 49.8323C23.7701 49.774 23.9263 49.7591 24.0768 49.7895C24.2777 49.8314 24.4541 49.9507 24.5678 50.1216C24.6814 50.2925 24.7232 50.5013 24.6841 50.7027Z" fill="#F5FF6D"/>
<path d="M33.0351 47.7349C32.9436 48.1837 32.7213 48.5953 32.3962 48.9179C32.0711 49.2406 31.6577 49.4597 31.2083 49.5477C30.7588 49.6358 30.2933 49.5888 29.8705 49.4127C29.4477 49.2365 29.0865 48.9392 28.8324 48.5581C28.5784 48.177 28.4428 47.7292 28.4429 47.2712C28.4429 46.8132 28.5786 46.3654 28.8327 45.9844C29.0868 45.6034 29.4481 45.3061 29.871 45.1301C30.2938 44.954 30.7593 44.9071 31.2087 44.9953C31.5094 45.0536 31.7954 45.171 32.0504 45.3407C32.3053 45.5104 32.5241 45.7289 32.6939 45.9837C32.8638 46.2385 32.9814 46.5245 33.04 46.8251C33.0986 47.1257 33.0969 47.4349 33.0351 47.7349Z" fill="#EEA700"/>
<path d="M31.9895 47.3881C31.9253 47.7011 31.7697 47.9882 31.5423 48.2128C31.315 48.4375 31.0262 48.5897 30.7124 48.6503C30.3985 48.7108 30.0738 48.677 29.7792 48.553C29.4846 48.4291 29.2334 48.2205 29.0573 47.9538C28.8812 47.6871 28.7881 47.3742 28.7898 47.0546C28.7915 46.7349 28.8879 46.423 29.0669 46.1582C29.2458 45.8934 29.4993 45.6876 29.7952 45.5668C30.0911 45.4459 30.4161 45.4156 30.7293 45.4795C30.9374 45.5219 31.1351 45.605 31.3111 45.7239C31.4871 45.8429 31.6379 45.9953 31.755 46.1726C31.872 46.3498 31.953 46.5484 31.9932 46.757C32.0335 46.9655 32.0322 47.18 31.9895 47.3881Z" fill="#EED51F"/>
<path d="M30.9668 46.6709C30.9365 46.8217 30.862 46.96 30.753 47.0683C30.6439 47.1767 30.5052 47.2502 30.3543 47.2796C30.2034 47.3089 30.0471 47.2929 29.9054 47.2334C29.7636 47.1738 29.6427 47.0736 29.5581 46.9453C29.4734 46.8169 29.4287 46.6664 29.4297 46.5126C29.4307 46.3589 29.4773 46.2089 29.5637 46.0817C29.65 45.9545 29.7722 45.8558 29.9147 45.7982C30.0572 45.7405 30.2136 45.7264 30.3641 45.7577C30.5648 45.7995 30.7408 45.919 30.8537 46.0901C30.9667 46.2612 31.0073 46.47 30.9668 46.6709Z" fill="#F5FF6D"/>
<path d="M52.4499 47.3833C52.3584 47.8321 52.1361 48.2438 51.811 48.5664C51.4859 48.889 51.0725 49.1082 50.623 49.1962C50.1736 49.2842 49.7081 49.2372 49.2853 49.0611C48.8625 48.885 48.5013 48.5876 48.2472 48.2066C47.9932 47.8255 47.8576 47.3777 47.8577 46.9197C47.8577 46.4617 47.9933 46.0139 48.2475 45.6329C48.5016 45.2518 48.8629 44.9546 49.2857 44.7785C49.7086 44.6025 50.1741 44.5556 50.6235 44.6438C50.9239 44.7027 51.2096 44.8204 51.4642 44.9902C51.7188 45.1601 51.9373 45.3786 52.1071 45.6333C52.2769 45.888 52.3946 46.1737 52.4534 46.4741C52.5123 46.7744 52.5111 47.0834 52.4499 47.3833Z" fill="#EEA700"/>
<path d="M51.4088 47.0364C51.3454 47.3508 51.1902 47.6394 50.9627 47.8655C50.7352 48.0916 50.4458 48.2452 50.131 48.3068C49.8162 48.3683 49.4902 48.3351 49.1943 48.2114C48.8984 48.0876 48.6459 47.8787 48.4687 47.6114C48.2915 47.344 48.1977 47.0301 48.199 46.7093C48.2003 46.3886 48.2968 46.0754 48.4761 45.8095C48.6555 45.5436 48.9097 45.3369 49.2067 45.2155C49.5036 45.0942 49.8298 45.0636 50.1441 45.1278C50.3526 45.1697 50.5508 45.2524 50.7273 45.3711C50.9038 45.4898 51.0551 45.6422 51.1726 45.8196C51.2901 45.9969 51.3715 46.1956 51.412 46.4044C51.4526 46.6132 51.4514 46.828 51.4088 47.0364Z" fill="#EED51F"/>
<path d="M50.3859 46.3241C50.3558 46.4747 50.2816 46.613 50.1729 46.7214C50.0641 46.8299 49.9256 46.9036 49.775 46.9333C49.6243 46.963 49.4682 46.9473 49.3264 46.8883C49.1846 46.8292 49.0635 46.7295 48.9785 46.6016C48.8935 46.4737 48.8483 46.3234 48.8486 46.1698C48.849 46.0162 48.8949 45.8662 48.9806 45.7387C49.0663 45.6113 49.1878 45.5121 49.3299 45.4537C49.472 45.3954 49.6282 45.3805 49.7787 45.4109C49.9802 45.4517 50.1573 45.5707 50.2712 45.7419C50.385 45.9131 50.4263 46.1225 50.3859 46.3241Z" fill="#F5FF6D"/>
<path d="M55.3537 52.607C55.2622 53.0558 55.0399 53.4675 54.7148 53.7901C54.3897 54.1127 53.9763 54.3318 53.5269 54.4199C53.0774 54.5079 52.6119 54.4609 52.1891 54.2848C51.7663 54.1087 51.4051 53.8113 51.151 53.4302C50.897 53.0492 50.7614 52.6014 50.7615 52.1434C50.7615 51.6853 50.8972 51.2376 51.1513 50.8566C51.4054 50.4755 51.7667 50.1782 52.1896 50.0022C52.6124 49.8262 53.0779 49.7793 53.5273 49.8674C53.828 49.9258 54.1141 50.0432 54.369 50.2128C54.6239 50.3825 54.8427 50.6011 55.0125 50.8559C55.1824 51.1107 55.3 51.3967 55.3586 51.6973C55.4172 51.9979 55.4155 52.3071 55.3537 52.607Z" fill="#EEA700"/>
<path d="M54.3128 52.2598C54.2479 52.5724 54.092 52.8588 53.8646 53.0828C53.6372 53.3069 53.3485 53.4586 53.035 53.5188C52.7215 53.579 52.3972 53.545 52.103 53.4212C51.8088 53.2973 51.5578 53.0891 51.3818 52.8228C51.2057 52.5565 51.1125 52.2441 51.1138 51.9248C51.1151 51.6056 51.2109 51.2939 51.3891 51.0291C51.5673 50.7642 51.82 50.5581 52.1152 50.4366C52.4104 50.3152 52.735 50.2839 53.048 50.3467C53.2567 50.3891 53.455 50.4724 53.6315 50.5915C53.8081 50.7107 53.9594 50.8634 54.0769 51.0411C54.1943 51.2188 54.2756 51.4179 54.3161 51.627C54.3566 51.8361 54.3555 52.0511 54.3128 52.2598Z" fill="#EED51F"/>
<path d="M53.2898 51.5428C53.2595 51.6935 53.185 51.8318 53.076 51.9402C52.9669 52.0485 52.8281 52.1221 52.6772 52.1514C52.5263 52.1808 52.3701 52.1647 52.2284 52.1052C52.0866 52.0457 51.9657 51.9454 51.8811 51.8171C51.7964 51.6888 51.7517 51.5382 51.7527 51.3845C51.7537 51.2308 51.8003 51.0808 51.8867 50.9536C51.973 50.8264 52.0952 50.7277 52.2377 50.67C52.3802 50.6123 52.5366 50.5983 52.6871 50.6296C52.8878 50.6714 53.0638 50.7909 53.1767 50.962C53.2896 51.1331 53.3303 51.3419 53.2898 51.5428Z" fill="#F5FF6D"/>
<path d="M58.5271 58.0494C58.4356 58.4982 58.2132 58.9098 57.8881 59.2325C57.563 59.5551 57.1496 59.7742 56.7002 59.8623C56.2507 59.9503 55.7852 59.9033 55.3624 59.7272C54.9396 59.5511 54.5784 59.2537 54.3244 58.8726C54.0703 58.4915 53.9348 58.0437 53.9348 57.5857C53.9349 57.1277 54.0705 56.68 54.3246 56.2989C54.5788 55.9179 54.9401 55.6207 55.3629 55.4446C55.7857 55.2686 56.2512 55.2217 56.7007 55.3098C57.001 55.3687 57.2867 55.4865 57.5414 55.6563C57.796 55.8261 58.0145 56.0447 58.1843 56.2994C58.3541 56.554 58.4717 56.8398 58.5306 57.1401C58.5894 57.4405 58.5882 57.7495 58.5271 58.0494Z" fill="#EEA700"/>
<path d="M57.5042 57.7023C57.44 58.0154 57.2843 58.3025 57.057 58.5271C56.8297 58.7518 56.5409 58.904 56.227 58.9646C55.9132 59.0252 55.5885 58.9913 55.2939 58.8673C54.9993 58.7434 54.7481 58.5348 54.572 58.2681C54.3959 58.0014 54.3028 57.6885 54.3045 57.3689C54.3062 57.0493 54.4026 56.7373 54.5816 56.4725C54.7605 56.2077 55.014 56.0018 55.3099 55.881C55.6058 55.7602 55.9308 55.7298 56.244 55.7937C56.4521 55.8362 56.6498 55.9193 56.8258 56.0382C57.0018 56.1571 57.1526 56.3096 57.2697 56.4868C57.3867 56.6641 57.4677 56.8627 57.5079 57.0712C57.5481 57.2798 57.5469 57.4943 57.5042 57.7023Z" fill="#EED51F"/>
<path d="M56.4814 56.9857C56.4513 57.1363 56.3771 57.2746 56.2684 57.383C56.1596 57.4914 56.0211 57.5652 55.8704 57.5949C55.7198 57.6246 55.5637 57.6089 55.4219 57.5499C55.2801 57.4908 55.159 57.391 55.074 57.2631C54.9889 57.1353 54.9437 56.985 54.9441 56.8314C54.9445 56.6778 54.9904 56.5278 55.0761 56.4004C55.1617 56.2729 55.2833 56.1737 55.4254 56.1153C55.5674 56.057 55.7236 56.0421 55.8742 56.0725C56.0757 56.1133 56.2528 56.2323 56.3667 56.4035C56.4805 56.5747 56.5218 56.7841 56.4814 56.9857Z" fill="#F5FF6D"/>
<path d="M61.0659 64.3642C60.9744 64.813 60.7521 65.2246 60.427 65.5473C60.1018 65.8699 59.6885 66.089 59.239 66.1771C58.7895 66.2651 58.3241 66.2181 57.9013 66.042C57.4785 65.8659 57.1172 65.5685 56.8632 65.1874C56.6091 64.8063 56.4736 64.3585 56.4736 63.9005C56.4737 63.4425 56.6093 62.9948 56.8635 62.6137C57.1176 62.2327 57.4789 61.9354 57.9017 61.7594C58.3246 61.5834 58.79 61.5365 59.2395 61.6246C59.5401 61.6829 59.8262 61.8003 60.0812 61.97C60.3361 62.1397 60.5548 62.3583 60.7247 62.6131C60.8946 62.8679 61.0122 63.1539 61.0708 63.4545C61.1293 63.7551 61.1277 64.0643 61.0659 64.3642Z" fill="#EEA700"/>
<path d="M60.0247 64.0034C59.9605 64.3165 59.8048 64.6036 59.5775 64.8282C59.3502 65.0529 59.0614 65.2051 58.7475 65.2657C58.4337 65.3262 58.109 65.2924 57.8144 65.1684C57.5198 65.0444 57.2686 64.8359 57.0925 64.5692C56.9163 64.3025 56.8233 63.9896 56.825 63.6699C56.8267 63.3503 56.9231 63.0384 57.102 62.7736C57.281 62.5088 57.5344 62.3029 57.8303 62.1821C58.1262 62.0613 58.4513 62.031 58.7645 62.0949C58.9726 62.1373 59.1703 62.2204 59.3463 62.3393C59.5223 62.4583 59.6731 62.6107 59.7902 62.788C59.9072 62.9652 59.9882 63.1638 60.0284 63.3724C60.0686 63.5809 60.0674 63.7954 60.0247 64.0034Z" fill="#EED51F"/>
<path d="M58.9836 63.2868C58.9535 63.4374 58.8793 63.5757 58.7706 63.6841C58.6618 63.7926 58.5233 63.8663 58.3726 63.896C58.222 63.9257 58.0659 63.9101 57.9241 63.851C57.7823 63.7919 57.6612 63.6921 57.5762 63.5643C57.4911 63.4364 57.4459 63.2861 57.4463 63.1325C57.4467 62.979 57.4926 62.8289 57.5783 62.7015C57.6639 62.574 57.7855 62.4748 57.9276 62.4164C58.0696 62.3581 58.2258 62.3432 58.3764 62.3736C58.4764 62.3932 58.5716 62.4325 58.6564 62.4891C58.7412 62.5458 58.814 62.6186 58.8705 62.7036C58.9269 62.7885 58.966 62.8837 58.9854 62.9839C59.0049 63.084 59.0043 63.1869 58.9836 63.2868Z" fill="#F5FF6D"/>
<path d="M54.1848 61.958C54.0933 62.4068 53.871 62.8184 53.5459 63.141C53.2207 63.4636 52.8074 63.6828 52.3579 63.7708C51.9084 63.8589 51.443 63.8119 51.0202 63.6358C50.5973 63.4596 50.2361 63.1623 49.9821 62.7812C49.728 62.4001 49.5925 61.9523 49.5925 61.4943C49.5926 61.0363 49.7282 60.5885 49.9824 60.2075C50.2365 59.8265 50.5978 59.5292 51.0206 59.3532C51.4435 59.1772 51.9089 59.1302 52.3584 59.2184C52.659 59.2767 52.9451 59.3941 53.2001 59.5638C53.455 59.7335 53.6737 59.952 53.8436 60.2068C54.0135 60.4617 54.1311 60.7476 54.1897 61.0482C54.2482 61.3488 54.2466 61.658 54.1848 61.958Z" fill="#EEA700"/>
<path d="M53.1438 61.6247C53.0813 61.9396 52.9266 62.2287 52.6995 62.4556C52.4724 62.6824 52.1831 62.8367 51.8682 62.8989C51.5533 62.9611 51.227 62.9285 50.9307 62.805C50.6344 62.6816 50.3814 62.473 50.2038 62.2056C50.0262 61.9382 49.932 61.6242 49.9331 61.3032C49.9342 60.9822 50.0306 60.6688 50.21 60.4026C50.3894 60.1365 50.6438 59.9296 50.941 59.8082C51.2381 59.6868 51.5646 59.6563 51.8791 59.7207C52.2987 59.8066 52.6672 60.0551 52.9042 60.4118C53.1412 60.7686 53.2273 61.2046 53.1438 61.6247Z" fill="#EED51F"/>
<path d="M52.1348 60.894C52.1045 61.0448 52.03 61.183 51.921 61.2914C51.8119 61.3998 51.6731 61.4733 51.5222 61.5027C51.3713 61.5321 51.2151 61.516 51.0734 61.4564C50.9316 61.3969 50.8107 61.2966 50.726 61.1683C50.6414 61.04 50.5967 60.8895 50.5977 60.7357C50.5987 60.582 50.6453 60.432 50.7316 60.3048C50.818 60.1776 50.9402 60.0789 51.0827 60.0212C51.2252 59.9636 51.3816 59.9495 51.5321 59.9808C51.7328 60.0226 51.9088 60.1421 52.0217 60.3132C52.1346 60.4843 52.1753 60.6931 52.1348 60.894Z" fill="#F5FF6D"/>
<path d="M51.8471 57.0175C51.7556 57.4663 51.5333 57.8779 51.2082 58.2005C50.8831 58.5231 50.4697 58.7423 50.0203 58.8303C49.5708 58.9184 49.1053 58.8714 48.6825 58.6952C48.2597 58.5191 47.8985 58.2218 47.6444 57.8407C47.3904 57.4596 47.2548 57.0118 47.2549 56.5538C47.2549 56.0958 47.3906 55.648 47.6447 55.267C47.8989 54.8859 48.2601 54.5887 48.683 54.4127C49.1058 54.2366 49.5713 54.1897 50.0208 54.2779C50.3214 54.3362 50.6075 54.4536 50.8624 54.6233C51.1174 54.793 51.3361 55.0115 51.506 55.2663C51.6758 55.5212 51.7935 55.8071 51.852 56.1077C51.9106 56.4083 51.9089 56.7175 51.8471 57.0175Z" fill="#EEA700"/>
<path d="M50.8061 56.6705C50.7427 56.9849 50.5874 57.2734 50.3599 57.4996C50.1325 57.7257 49.843 57.8793 49.5282 57.9409C49.2134 58.0025 48.8875 57.9692 48.5916 57.8454C48.2957 57.7217 48.0431 57.5129 47.8659 57.2455C47.6888 56.9781 47.5949 56.6642 47.5962 56.3434C47.5975 56.0227 47.694 55.7095 47.8734 55.4436C48.0527 55.1777 48.307 54.971 48.6039 54.8497C48.9008 54.7283 49.227 54.6978 49.5413 54.7619C49.9619 54.8477 50.3312 55.0969 50.5683 55.4547C50.8054 55.8125 50.8909 56.2497 50.8061 56.6705Z" fill="#EED51F"/>
<path d="M49.7832 55.9538C49.753 56.1044 49.6789 56.2426 49.5701 56.3511C49.4613 56.4595 49.3229 56.5332 49.1722 56.5629C49.0215 56.5926 48.8654 56.577 48.7236 56.5179C48.5818 56.4589 48.4608 56.3591 48.3757 56.2312C48.2907 56.1033 48.2455 55.9531 48.2459 55.7995C48.2462 55.6459 48.2921 55.4959 48.3778 55.3684C48.4635 55.2409 48.585 55.1417 48.7271 55.0834C48.8692 55.025 49.0254 55.0101 49.1759 55.0406C49.3768 55.0824 49.5532 55.2017 49.6669 55.3726C49.7805 55.5435 49.8223 55.7523 49.7832 55.9538Z" fill="#F5FF6D"/>
<path d="M48.998 53.1318C48.9065 53.5806 48.6842 53.9922 48.3591 54.3148C48.034 54.6374 47.6206 54.8566 47.1711 54.9446C46.7217 55.0327 46.2562 54.9857 45.8334 54.8096C45.4106 54.6334 45.0494 54.3361 44.7953 53.955C44.5412 53.5739 44.4057 53.1261 44.4058 52.6681C44.4058 52.2101 44.5414 51.7624 44.7956 51.3813C45.0497 51.0003 45.411 50.703 45.8338 50.527C46.2567 50.351 46.7222 50.3041 47.1716 50.3922C47.4725 50.45 47.759 50.567 48.0142 50.7365C48.2695 50.906 48.4885 51.1246 48.6584 51.3796C48.8284 51.6345 48.946 51.9208 49.0043 52.2216C49.0626 52.5224 49.0604 52.8318 48.998 53.1318Z" fill="#EEA700"/>
<path d="M47.9568 52.785C47.8926 53.0981 47.737 53.3851 47.5097 53.6098C47.2823 53.8344 46.9935 53.9867 46.6797 54.0472C46.3659 54.1078 46.0411 54.0739 45.7465 53.95C45.4519 53.826 45.2007 53.6175 45.0246 53.3508C44.8485 53.084 44.7554 52.7711 44.7571 52.4515C44.7588 52.1319 44.8552 51.82 45.0342 51.5551C45.2131 51.2903 45.4666 51.0845 45.7625 50.9637C46.0584 50.8429 46.3835 50.8125 46.6966 50.8764C47.1163 50.9633 47.4845 51.2128 47.7207 51.5705C47.9569 51.9282 48.0418 52.3649 47.9568 52.785Z" fill="#EED51F"/>
<path d="M46.934 52.0681C46.9039 52.2187 46.8297 52.357 46.721 52.4654C46.6122 52.5738 46.4737 52.6476 46.3231 52.6773C46.1724 52.707 46.0163 52.6913 45.8745 52.6323C45.7327 52.5732 45.6116 52.4734 45.5266 52.3455C45.4416 52.2176 45.3964 52.0674 45.3967 51.9138C45.3971 51.7602 45.443 51.6102 45.5287 51.4827C45.6144 51.3553 45.7359 51.2561 45.878 51.1977C46.0201 51.1394 46.1762 51.1244 46.3268 51.1549C46.5283 51.1956 46.7054 51.3147 46.8193 51.4859C46.9331 51.6571 46.9744 51.8665 46.934 52.0681Z" fill="#F5FF6D"/>
<path d="M47.0163 48.2644C46.9248 48.7132 46.7025 49.1248 46.3774 49.4475C46.0523 49.7701 45.6389 49.9892 45.1895 50.0773C44.74 50.1653 44.2745 50.1183 43.8517 49.9422C43.4289 49.7661 43.0677 49.4687 42.8136 49.0876C42.5596 48.7065 42.424 48.2587 42.4241 47.8007C42.4241 47.3427 42.5598 46.895 42.8139 46.5139C43.0681 46.1329 43.4293 45.8356 43.8522 45.6596C44.275 45.4836 44.7405 45.4367 45.1899 45.5248C45.49 45.5843 45.7754 45.7024 46.0297 45.8724C46.284 46.0423 46.5023 46.2609 46.672 46.5154C46.8416 46.7699 46.9594 47.0554 47.0185 47.3556C47.0776 47.6557 47.0769 47.9645 47.0163 48.2644Z" fill="#EEA700"/>
<path d="M45.9707 47.9265C45.9065 48.2396 45.7509 48.5266 45.5235 48.7513C45.2962 48.9759 45.0074 49.1282 44.6936 49.1887C44.3797 49.2493 44.055 49.2154 43.7604 49.0915C43.4658 48.9675 43.2146 48.759 43.0385 48.4923C42.8624 48.2255 42.7693 47.9126 42.771 47.593C42.7727 47.2734 42.8691 46.9615 43.0481 46.6967C43.227 46.4318 43.4805 46.226 43.7764 46.1052C44.0723 45.9844 44.3973 45.954 44.7105 46.0179C44.9186 46.0604 45.1163 46.1434 45.2923 46.2624C45.4683 46.3813 45.6192 46.5337 45.7362 46.711C45.8532 46.8883 45.9342 47.0868 45.9744 47.2954C46.0147 47.504 46.0134 47.7184 45.9707 47.9265Z" fill="#EED51F"/>
<path d="M44.948 47.2007C44.9178 47.3512 44.8437 47.4895 44.7349 47.598C44.6262 47.7064 44.4877 47.7802 44.337 47.8099C44.1863 47.8396 44.0302 47.8239 43.8884 47.7648C43.7466 47.7058 43.6256 47.606 43.5405 47.4781C43.4555 47.3502 43.4103 47.2 43.4106 47.0464C43.411 46.8928 43.457 46.7428 43.5426 46.6153C43.6283 46.4879 43.7498 46.3887 43.8919 46.3303C44.034 46.2719 44.1902 46.257 44.3407 46.2875C44.4408 46.3071 44.536 46.3463 44.6208 46.403C44.7056 46.4596 44.7783 46.5325 44.8348 46.6174C44.8913 46.7023 44.9303 46.7976 44.9498 46.8977C44.9692 46.9978 44.9686 47.1008 44.948 47.2007Z" fill="#F5FF6D"/>
<path d="M62.6364 70.4552C62.5449 70.904 62.3226 71.3156 61.9975 71.6383C61.6724 71.9609 61.259 72.18 60.8095 72.2681C60.3601 72.3561 59.8946 72.3091 59.4718 72.133C59.049 71.9569 58.6878 71.6595 58.4337 71.2784C58.1797 70.8974 58.0441 70.4496 58.0442 69.9916C58.0442 69.5335 58.1799 69.0858 58.434 68.7048C58.6882 68.3237 59.0494 68.0264 59.4723 67.8504C59.8951 67.6744 60.3606 67.6275 60.81 67.7156C61.1104 67.7745 61.3961 67.8923 61.6507 68.0621C61.9054 68.232 62.1239 68.4505 62.2937 68.7052C62.4634 68.9598 62.5811 69.2456 62.6399 69.5459C62.6988 69.8463 62.6976 70.1553 62.6364 70.4552Z" fill="#EEA700"/>
<path d="M61.5954 70.1084C61.5309 70.4234 61.3742 70.712 61.1453 70.9377C60.9163 71.1634 60.6254 71.3159 60.3095 71.3759C59.9937 71.4358 59.6671 71.4004 59.3714 71.2743C59.0757 71.1481 58.8241 70.9369 58.6488 70.6674C58.4734 70.398 58.3822 70.0824 58.3866 69.761C58.3911 69.4395 58.491 69.1266 58.6738 68.8621C58.8565 68.5975 59.1138 68.3933 59.4129 68.2754C59.712 68.1575 60.0394 68.1312 60.3534 68.1998C60.7704 68.2897 61.1349 68.5408 61.3676 68.8983C61.6002 69.2558 61.6821 69.6908 61.5954 70.1084Z" fill="#EED51F"/>
<path d="M60.5727 69.3868C60.5426 69.5374 60.4684 69.6756 60.3596 69.7841C60.2509 69.8925 60.1124 69.9662 59.9617 69.996C59.811 70.0257 59.6549 70.01 59.5131 69.9509C59.3714 69.8919 59.2503 69.7921 59.1653 69.6642C59.0802 69.5363 59.035 69.3861 59.0354 69.2325C59.0358 69.0789 59.0817 68.9289 59.1674 68.8014C59.253 68.6739 59.3746 68.5748 59.5167 68.5164C59.6587 68.458 59.8149 68.4431 59.9655 68.4736C60.1664 68.5154 60.3427 68.6347 60.4564 68.8056C60.57 68.9765 60.6118 69.1853 60.5727 69.3868Z" fill="#F5FF6D"/>
<path d="M62.1113 76.2996C62.0198 76.7484 61.7975 77.16 61.4724 77.4827C61.1473 77.8053 60.7339 78.0244 60.2845 78.1124C59.835 78.2005 59.3695 78.1535 58.9467 77.9774C58.5239 77.8013 58.1627 77.5039 57.9086 77.1228C57.6546 76.7417 57.519 76.294 57.519 75.8359C57.5191 75.3779 57.6548 74.9302 57.9089 74.5492C58.163 74.1681 58.5243 73.8708 58.9471 73.6948C59.37 73.5188 59.8355 73.4719 60.2849 73.56C60.585 73.6195 60.8704 73.7376 61.1247 73.9076C61.379 74.0776 61.5973 74.2961 61.767 74.5506C61.9366 74.8051 62.0544 75.0906 62.1135 75.3908C62.1726 75.6909 62.1719 75.9998 62.1113 76.2996Z" fill="#EEA700"/>
<path d="M61.0659 75.9528C61.0017 76.2659 60.8461 76.5529 60.6187 76.7776C60.3914 77.0023 60.1026 77.1545 59.7888 77.215C59.4749 77.2756 59.1502 77.2417 58.8556 77.1178C58.5611 76.9938 58.3098 76.7853 58.1337 76.5186C57.9576 76.2519 57.8645 75.9389 57.8662 75.6193C57.8679 75.2997 57.9644 74.9878 58.1433 74.723C58.3223 74.4582 58.5757 74.2523 58.8716 74.1315C59.1675 74.0107 59.4926 73.9803 59.8057 74.0442C60.0138 74.0867 60.2116 74.1698 60.3876 74.2887C60.5635 74.4076 60.7144 74.5601 60.8314 74.7373C60.9485 74.9146 61.0294 75.1132 61.0696 75.3217C61.1099 75.5303 61.1086 75.7447 61.0659 75.9528Z" fill="#EED51F"/>
<path d="M60.0432 75.2358C60.027 75.3393 59.9901 75.4386 59.9346 75.5274C59.879 75.6163 59.8061 75.693 59.7201 75.753C59.6342 75.8129 59.5369 75.8548 59.4343 75.8761C59.3317 75.8975 59.2259 75.8978 59.1231 75.8772C59.0204 75.8565 58.9229 75.8152 58.8365 75.7558C58.7502 75.6965 58.6767 75.6202 58.6206 75.5317C58.5645 75.4432 58.5269 75.3443 58.5101 75.2408C58.4932 75.1374 58.4975 75.0316 58.5227 74.9299C58.5388 74.8263 58.5758 74.7271 58.6313 74.6383C58.6868 74.5494 58.7598 74.4727 58.8457 74.4127C58.9317 74.3528 59.0289 74.3109 59.1315 74.2896C59.2341 74.2682 59.34 74.2679 59.4428 74.2885C59.5455 74.3092 59.643 74.3505 59.7294 74.4098C59.8157 74.4692 59.8891 74.5454 59.9453 74.634C60.0014 74.7225 60.039 74.8214 60.0558 74.9248C60.0726 75.0283 60.0683 75.1341 60.0432 75.2358Z" fill="#F5FF6D"/>
<path d="M57.5454 72.7245C57.4539 73.1732 57.2316 73.5849 56.9064 73.9075C56.5813 74.2301 56.168 74.4493 55.7185 74.5373C55.269 74.6253 54.8036 74.5783 54.3807 74.4022C53.9579 74.2261 53.5968 73.9288 53.3427 73.5477C53.0886 73.1666 52.9531 72.7188 52.9531 72.2608C52.9532 71.8028 53.0888 71.355 53.343 70.974C53.5971 70.5929 53.9584 70.2957 54.3812 70.1196C54.8041 69.9436 55.2695 69.8967 55.719 69.9849C56.0196 70.0432 56.3057 70.1606 56.5607 70.3303C56.8156 70.5 57.0343 70.7185 57.2042 70.9733C57.3741 71.2281 57.4917 71.5141 57.5503 71.8147C57.6088 72.1153 57.6072 72.4245 57.5454 72.7245Z" fill="#EEA700"/>
<path d="M56.5045 72.3775C56.4411 72.6919 56.2859 72.9805 56.0584 73.2066C55.8309 73.4328 55.5415 73.5863 55.2267 73.6479C54.9119 73.7095 54.5859 73.6763 54.29 73.5525C53.9941 73.4287 53.7416 73.2199 53.5644 72.9525C53.3872 72.6851 53.2934 72.3712 53.2947 72.0504C53.296 71.7297 53.3924 71.4165 53.5718 71.1506C53.7512 70.8847 54.0054 70.678 54.3023 70.5566C54.5992 70.4353 54.9255 70.4048 55.2397 70.4689C55.4483 70.5109 55.6465 70.5936 55.823 70.7123C55.9995 70.831 56.1508 70.9834 56.2683 71.1607C56.3858 71.338 56.4672 71.5367 56.5077 71.7455C56.5482 71.9544 56.5472 72.1691 56.5045 72.3775Z" fill="#EED51F"/>
<path d="M55.4817 71.6697C55.4515 71.8203 55.3774 71.9585 55.2686 72.067C55.1599 72.1754 55.0214 72.2492 54.8707 72.2789C54.72 72.3086 54.5639 72.2929 54.4221 72.2339C54.2803 72.1748 54.1593 72.075 54.0742 71.9471C53.9892 71.8192 53.944 71.669 53.9443 71.5154C53.9447 71.3618 53.9907 71.2118 54.0763 71.0843C54.162 70.9569 54.2835 70.8577 54.4256 70.7993C54.5677 70.741 54.7239 70.726 54.8744 70.7565C55.0759 70.7972 55.2531 70.9163 55.3669 71.0875C55.4808 71.2587 55.522 71.4681 55.4817 71.6697Z" fill="#F5FF6D"/>
<path d="M56.3584 67.195C56.2669 67.6438 56.0445 68.0555 55.7194 68.3781C55.3943 68.7007 54.981 68.9198 54.5315 69.0079C54.082 69.0959 53.6165 69.0489 53.1937 68.8728C52.7709 68.6967 52.4097 68.3993 52.1557 68.0182C51.9016 67.6371 51.7661 67.1894 51.7661 66.7314C51.7662 66.2733 51.9018 65.8256 52.1559 65.4446C52.4101 65.0635 52.7714 64.7662 53.1942 64.5902C53.6171 64.4142 54.0825 64.3673 54.532 64.4554C54.8323 64.5143 55.118 64.6321 55.3727 64.8019C55.6273 64.9718 55.8458 65.1903 56.0156 65.445C56.1854 65.6996 56.3031 65.9854 56.3619 66.2857C56.4207 66.5861 56.4195 66.8951 56.3584 67.195Z" fill="#EEA700"/>
<path d="M55.331 66.8436C55.2676 67.157 55.1126 67.4447 54.8856 67.67C54.6587 67.8954 54.37 68.0484 54.056 68.1096C53.7421 68.1708 53.4171 68.1375 53.1221 68.0139C52.8271 67.8903 52.5754 67.6819 52.3989 67.4152C52.2223 67.1485 52.1289 66.8354 52.1304 66.5156C52.1319 66.1957 52.2282 65.8835 52.4072 65.6184C52.5862 65.3534 52.8399 65.1474 53.136 65.0265C53.4321 64.9057 53.7574 64.8754 54.0708 64.9395C54.4902 65.0254 54.8583 65.274 55.0946 65.631C55.3309 65.9879 55.4159 66.424 55.331 66.8436Z" fill="#EED51F"/>
<path d="M54.2898 66.1311C54.2595 66.2818 54.185 66.4201 54.076 66.5285C53.9669 66.6368 53.8281 66.7103 53.6772 66.7397C53.5263 66.7691 53.3701 66.753 53.2284 66.6935C53.0866 66.634 52.9657 66.5337 52.8811 66.4054C52.7964 66.2771 52.7517 66.1265 52.7527 65.9728C52.7537 65.819 52.8003 65.6691 52.8867 65.5419C52.973 65.4147 53.0952 65.316 53.2377 65.2583C53.3802 65.2006 53.5366 65.1866 53.6871 65.2179C53.8878 65.2597 54.0638 65.3792 54.1767 65.5503C54.2896 65.7214 54.3303 65.9301 54.2898 66.1311Z" fill="#F5FF6D"/>
<path d="M44.1169 43.3242C44.0254 43.7729 43.8031 44.1846 43.478 44.5072C43.1529 44.8298 42.7395 45.049 42.29 45.137C41.8405 45.2251 41.3751 45.1781 40.9523 45.0019C40.5295 44.8258 40.1683 44.5285 39.9142 44.1474C39.6601 43.7663 39.5246 43.3185 39.5247 42.8605C39.5247 42.4025 39.6603 41.9547 39.9145 41.5737C40.1686 41.1926 40.5299 40.8954 40.9527 40.7194C41.3756 40.5433 41.8411 40.4964 42.2905 40.5846C42.5909 40.6435 42.8766 40.7612 43.1312 40.9311C43.3858 41.1009 43.6043 41.3194 43.7741 41.5741C43.9439 41.8288 44.0616 42.1145 44.1204 42.4149C44.1792 42.7152 44.1781 43.0243 44.1169 43.3242Z" fill="#EEA700"/>
<path d="M43.0758 42.9772C43.0124 43.2916 42.8572 43.5801 42.6297 43.8063C42.4022 44.0324 42.1128 44.186 41.798 44.2476C41.4832 44.3091 41.1572 44.2759 40.8613 44.1521C40.5654 44.0283 40.3129 43.8195 40.1357 43.5522C39.9585 43.2848 39.8647 42.9709 39.866 42.6501C39.8673 42.3294 39.9638 42.0162 40.1431 41.7503C40.3225 41.4844 40.5767 41.2777 40.8736 41.1563C41.1706 41.035 41.4968 41.0044 41.8111 41.0686C42.0199 41.11 42.2184 41.1923 42.3952 41.3109C42.5721 41.4294 42.7236 41.5818 42.8412 41.7593C42.9588 41.9367 43.0401 42.1357 43.0804 42.3448C43.1206 42.5538 43.1191 42.7687 43.0758 42.9772Z" fill="#EED51F"/>
<path d="M42.053 42.2605C42.0228 42.4111 41.9487 42.5493 41.8399 42.6578C41.7311 42.7662 41.5926 42.8399 41.442 42.8696C41.2913 42.8993 41.1352 42.8837 40.9934 42.8246C40.8516 42.7656 40.7305 42.6658 40.6455 42.5379C40.5604 42.41 40.5153 42.2598 40.5156 42.1062C40.516 41.9526 40.5619 41.8026 40.6476 41.6751C40.7333 41.5476 40.8548 41.4484 40.9969 41.3901C41.139 41.3317 41.2952 41.3168 41.4457 41.3473C41.6466 41.3891 41.823 41.5084 41.9366 41.6793C42.0503 41.8502 42.0921 42.059 42.053 42.2605Z" fill="#F5FF6D"/>
<path d="M50.3997 41.3791C50.3081 41.8279 50.0858 42.2395 49.7607 42.5621C49.4356 42.8847 49.0222 43.1039 48.5728 43.1919C48.1233 43.28 47.6578 43.233 47.235 43.0569C46.8122 42.8807 46.451 42.5834 46.1969 42.2023C45.9429 41.8212 45.8073 41.3735 45.8074 40.9154C45.8074 40.4574 45.9431 40.0096 46.1972 39.6286C46.4514 39.2476 46.8126 38.9503 47.2355 38.7743C47.6583 38.5983 48.1238 38.5514 48.5733 38.6395C48.8736 38.6984 49.1593 38.8162 49.4139 38.986C49.6686 39.1558 49.8871 39.3744 50.0568 39.629C50.2266 39.8837 50.3443 40.1695 50.4032 40.4698C50.462 40.7702 50.4608 41.0792 50.3997 41.3791Z" fill="#EEA700"/>
<path d="M49.3585 41.0321C49.2951 41.3466 49.1399 41.6351 48.9124 41.8612C48.685 42.0874 48.3955 42.241 48.0807 42.3025C47.7659 42.3641 47.44 42.3309 47.144 42.2071C46.8481 42.0833 46.5956 41.8745 46.4184 41.6071C46.2413 41.3397 46.1474 41.0258 46.1487 40.7051C46.15 40.3843 46.2465 40.0712 46.4258 39.8052C46.6052 39.5393 46.8594 39.3326 47.1563 39.2113C47.4532 39.0899 47.7795 39.0594 48.0938 39.1235C48.5143 39.2094 48.8837 39.4585 49.1208 39.8163C49.3579 40.1741 49.4434 40.6114 49.3585 41.0321Z" fill="#EED51F"/>
<path d="M48.3312 40.3199C48.2854 40.5168 48.1645 40.688 47.9943 40.7971C47.8241 40.9063 47.6181 40.9447 47.42 40.9043C47.2219 40.8638 47.0474 40.7477 46.9336 40.5805C46.8198 40.4134 46.7758 40.2085 46.8108 40.0093C46.8288 39.9072 46.867 39.8097 46.9233 39.7226C46.9796 39.6354 47.0527 39.5605 47.1385 39.5021C47.2242 39.4437 47.3208 39.4031 47.4225 39.3827C47.5242 39.3623 47.6289 39.3625 47.7306 39.3832C47.8322 39.404 47.9286 39.4449 48.0142 39.5035C48.0997 39.5622 48.1727 39.6374 48.2287 39.7247C48.2847 39.812 48.3226 39.9097 48.3402 40.0119C48.3578 40.1141 48.3548 40.2188 48.3312 40.3199Z" fill="#F5FF6D"/>
<path d="M56.6457 38.2012C56.5542 38.65 56.3319 39.0616 56.0068 39.3842C55.6817 39.7069 55.2683 39.926 54.8188 40.014C54.3694 40.1021 53.9039 40.0551 53.4811 39.879C53.0583 39.7028 52.6971 39.4055 52.443 39.0244C52.189 38.6433 52.0534 38.1955 52.0535 37.7375C52.0535 37.2795 52.1891 36.8317 52.4433 36.4507C52.6974 36.0697 53.0587 35.7724 53.4815 35.5964C53.9044 35.4203 54.3699 35.3735 54.8193 35.4616C55.12 35.5199 55.406 35.6373 55.661 35.807C55.9159 35.9767 56.1347 36.1953 56.3045 36.4501C56.4744 36.7049 56.592 36.9908 56.6506 37.2914C56.7092 37.592 56.7075 37.9012 56.6457 38.2012Z" fill="#EEA700"/>
<path d="M55.6049 37.8495C55.5415 38.1639 55.3862 38.4525 55.1587 38.6786C54.9313 38.9047 54.6418 39.0583 54.327 39.1199C54.0123 39.1814 53.6863 39.1482 53.3904 39.0244C53.0945 38.9006 52.842 38.6918 52.6648 38.4245C52.4876 38.1571 52.3937 37.8432 52.395 37.5224C52.3964 37.2017 52.4928 36.8885 52.6722 36.6226C52.8516 36.3567 53.1058 36.15 53.4027 36.0286C53.6996 35.9073 54.0258 35.8767 54.3401 35.9409C54.5486 35.9828 54.7468 36.0655 54.9233 36.1842C55.0998 36.3029 55.2512 36.4553 55.3687 36.6326C55.4862 36.81 55.5675 37.0087 55.6081 37.2175C55.6486 37.4263 55.6475 37.6411 55.6049 37.8495Z" fill="#EED51F"/>
<path d="M54.5823 37.1372C54.5521 37.2878 54.478 37.4261 54.3692 37.5345C54.2604 37.6429 54.1219 37.7167 53.9713 37.7464C53.8206 37.7761 53.6645 37.7604 53.5227 37.7014C53.3809 37.6423 53.2598 37.5425 53.1748 37.4147C53.0897 37.2868 53.0445 37.1365 53.0449 36.9829C53.0453 36.8293 53.0912 36.6793 53.1769 36.5518C53.2626 36.4244 53.3841 36.3252 53.5262 36.2668C53.6683 36.2085 53.8245 36.1936 53.975 36.224C54.1759 36.2658 54.3523 36.3851 54.4659 36.556C54.5796 36.7269 54.6214 36.9357 54.5823 37.1372Z" fill="#F5FF6D"/>
<path d="M64.052 37.0141C63.9605 37.4629 63.7382 37.8746 63.413 38.1972C63.0879 38.5198 62.6746 38.7389 62.2251 38.827C61.7756 38.915 61.3101 38.868 60.8873 38.6919C60.4645 38.5158 60.1034 38.2185 59.8493 37.8374C59.5952 37.4563 59.4597 37.0085 59.4597 36.5504C59.4598 36.0924 59.5954 35.6447 59.8496 35.2636C60.1037 34.8826 60.465 34.5854 60.8878 34.4093C61.3107 34.2333 61.7761 34.1864 62.2256 34.2745C62.5262 34.3329 62.8123 34.4503 63.0672 34.62C63.3222 34.7896 63.5409 35.0082 63.7108 35.263C63.8807 35.5178 63.9983 35.8038 64.0569 36.1044C64.1154 36.405 64.1138 36.7142 64.052 37.0141Z" fill="#EEA700"/>
<path d="M63.011 36.667C62.9469 36.98 62.7916 37.267 62.5646 37.4917C62.3375 37.7165 62.049 37.8689 61.7354 37.9297C61.4218 37.9906 61.0972 37.9572 60.8025 37.8337C60.5079 37.7102 60.2565 37.5022 60.08 37.2359C59.9036 36.9696 59.81 36.657 59.811 36.3375C59.8121 36.0181 59.9079 35.7061 60.0861 35.441C60.2644 35.1759 60.5173 34.9696 60.8127 34.8481C61.1082 34.7266 61.433 34.6954 61.7462 34.7584C62.1667 34.8442 62.5361 35.0934 62.7732 35.4512C63.0103 35.809 63.0958 36.2462 63.011 36.667Z" fill="#EED51F"/>
<path d="M61.9882 35.95C61.9703 36.0522 61.932 36.1497 61.8757 36.2368C61.8194 36.3239 61.7463 36.3989 61.6605 36.4573C61.5748 36.5157 61.4782 36.5563 61.3765 36.5767C61.2748 36.5971 61.1701 36.5969 61.0684 36.5761C60.9668 36.5554 60.8704 36.5145 60.7848 36.4558C60.6993 36.3972 60.6263 36.322 60.5703 36.2347C60.5143 36.1474 60.4764 36.0497 60.4588 35.9475C60.4412 35.8453 60.4442 35.7406 60.4678 35.6395C60.4873 35.5396 60.5266 35.4445 60.5833 35.3599C60.64 35.2753 60.713 35.2028 60.798 35.1467C60.883 35.0906 60.9783 35.052 61.0784 35.0331C61.1785 35.0143 61.2813 35.0155 61.3809 35.0368C61.5825 35.0776 61.7596 35.1966 61.8735 35.3678C61.9873 35.539 62.0286 35.7484 61.9882 35.95Z" fill="#F5FF6D"/>
<path d="M71.2297 36.0276C71.1382 36.4764 70.9159 36.8881 70.5908 37.2107C70.2657 37.5333 69.8523 37.7524 69.4028 37.8405C68.9533 37.9285 68.4879 37.8815 68.0651 37.7054C67.6423 37.5293 67.2811 37.2319 67.027 36.8508C66.7729 36.4698 66.6374 36.022 66.6375 35.564C66.6375 35.1059 66.7731 34.6582 67.0273 34.2772C67.2814 33.8961 67.6427 33.5988 68.0655 33.4228C68.4884 33.2468 68.9539 33.1999 69.4033 33.2881C69.7037 33.347 69.9894 33.4647 70.244 33.6345C70.4986 33.8044 70.7171 34.0229 70.8869 34.2776C71.0567 34.5322 71.1744 34.818 71.2332 35.1183C71.2921 35.4187 71.2909 35.7277 71.2297 36.0276Z" fill="#EEA700"/>
<path d="M70.1885 35.6808C70.1243 35.9939 69.9687 36.2809 69.7413 36.5056C69.514 36.7303 69.2252 36.8825 68.9114 36.9431C68.5975 37.0036 68.2728 36.9698 67.9782 36.8458C67.6836 36.7218 67.4324 36.5133 67.2563 36.2466C67.0802 35.9799 66.9871 35.6669 66.9888 35.3473C66.9905 35.0277 67.0869 34.7158 67.2659 34.451C67.4448 34.1862 67.6983 33.9803 67.9942 33.8595C68.2901 33.7387 68.6152 33.7084 68.9283 33.7723C69.348 33.8591 69.7162 34.1087 69.9524 34.4664C70.1886 34.8241 70.2735 35.2607 70.1885 35.6808Z" fill="#EED51F"/>
<path d="M69.166 34.9639C69.1358 35.1145 69.0617 35.2528 68.9529 35.3613C68.8442 35.4697 68.7057 35.5434 68.555 35.5731C68.4043 35.6028 68.2482 35.5872 68.1064 35.5281C67.9646 35.4691 67.8436 35.3693 67.7585 35.2414C67.6735 35.1135 67.6283 34.9633 67.6287 34.8097C67.629 34.6561 67.675 34.5061 67.7606 34.3786C67.8463 34.2511 67.9679 34.1519 68.1099 34.0936C68.252 34.0352 68.4081 34.0203 68.5587 34.0507C68.6588 34.0703 68.754 34.1096 68.8388 34.1662C68.9236 34.2229 68.9963 34.2958 69.0528 34.3807C69.1093 34.4656 69.1483 34.5609 69.1678 34.661C69.1872 34.7611 69.1866 34.8641 69.166 34.9639Z" fill="#F5FF6D"/>
<path d="M35.3136 19.1976C36.2268 20.3117 36.7891 21.6716 36.9293 23.1054C37.0696 24.5391 36.7815 25.9822 36.1015 27.2521C35.4214 28.5221 34.38 29.5619 33.109 30.2399C31.838 30.918 30.3945 31.2038 28.961 31.0614C27.5275 30.9189 26.1684 30.3545 25.0557 29.4396C23.943 28.5247 23.1267 27.3003 22.7099 25.9213C22.2931 24.5424 22.2947 23.0708 22.7143 21.6927C23.134 20.3147 23.9529 19.092 25.0675 18.1794C25.807 17.5731 26.6587 17.1186 27.5739 16.8417C28.4892 16.5647 29.45 16.4708 30.4016 16.5654C31.3531 16.66 32.2767 16.9411 33.1195 17.3927C33.9623 17.8444 34.7079 18.4577 35.3136 19.1976Z" fill="#EEA700"/>
<path d="M35.163 17.3712C36.0832 18.4876 36.6512 19.852 36.795 21.2916C36.9387 22.7312 36.6519 24.1811 35.9707 25.4574C35.2895 26.7338 34.2447 27.7792 32.9688 28.461C31.6928 29.1429 30.2431 29.4306 28.8034 29.2876C27.3638 29.1446 25.999 28.5773 24.8821 27.6577C23.7652 26.7382 22.9464 25.5077 22.5297 24.1223C22.1129 22.7369 22.1169 21.2589 22.541 19.8758C22.9652 18.4926 23.7905 17.2665 24.9123 16.353C26.4089 15.1342 28.327 14.5572 30.2477 14.748C32.1683 14.9387 33.9354 15.8818 35.163 17.3712Z" fill="#EEC81F"/>
<path d="M33.7291 19.0059C34.3592 19.7743 34.7472 20.7122 34.844 21.7011C34.9408 22.6901 34.7422 23.6855 34.2731 24.5615C33.8041 25.4374 33.0858 26.1546 32.209 26.6222C31.3323 27.0898 30.3366 27.2869 29.3478 27.1885C28.359 27.0901 27.4217 26.7005 26.6544 26.0693C25.887 25.438 25.3242 24.5933 25.037 23.642C24.7499 22.6908 24.7514 21.6757 25.0412 20.7253C25.3311 19.7749 25.8964 18.9318 26.6656 18.3028C27.6958 17.4601 29.0185 17.0609 30.3429 17.1927C31.6673 17.3246 32.8852 17.9767 33.7291 19.0059Z" fill="white"/>
<path d="M30.3688 21.9006C30.5748 22.152 30.7017 22.4589 30.7333 22.7823C30.765 23.1058 30.7 23.4314 30.5467 23.718C30.3933 24.0045 30.1585 24.2392 29.8718 24.3923C29.5851 24.5454 29.2595 24.6101 28.936 24.5782C28.6126 24.5463 28.3059 24.4193 28.0546 24.2131C27.8034 24.0069 27.6189 23.7309 27.5245 23.4199C27.4301 23.1089 27.43 22.7769 27.5242 22.4658C27.6184 22.1548 27.8028 21.8787 28.0539 21.6723C28.2208 21.5352 28.4131 21.4323 28.6199 21.3695C28.8266 21.3068 29.0437 21.2854 29.2587 21.3066C29.4737 21.3278 29.6824 21.3912 29.8729 21.4931C30.0634 21.5951 30.2319 21.7335 30.3688 21.9006Z" fill="black"/>
<path d="M58.2439 30.1194C57.8275 31.4982 57.0116 32.7227 55.8994 33.6379C54.7872 34.5531 53.4285 35.1179 51.9953 35.261C50.562 35.404 49.1186 35.1189 47.8474 34.4415C46.5762 33.7642 45.5344 32.7252 44.8538 31.4558C44.1731 30.1864 43.8841 28.7437 44.0234 27.3101C44.1626 25.8765 44.7239 24.5164 45.6362 23.4017C46.5484 22.2871 47.7707 21.468 49.1485 21.048C50.5262 20.628 51.9976 20.626 53.3765 21.0422C55.2222 21.6056 56.77 22.8764 57.6819 24.5771C58.5939 26.2778 58.7959 28.2702 58.2439 30.1194Z" fill="#EEA700"/>
<path d="M59.6732 28.987C59.2586 30.3729 58.4418 31.6045 57.3265 32.5257C56.2111 33.4469 54.8474 34.0162 53.4082 34.1615C51.9689 34.3069 50.5189 34.0216 49.2419 33.342C47.9649 32.6624 46.9185 31.619 46.2351 30.344C45.5518 29.0689 45.2624 27.6198 45.4035 26.1801C45.5447 24.7404 46.11 23.3751 47.028 22.2571C47.946 21.1391 49.1751 20.3187 50.5598 19.9001C51.9445 19.4814 53.4223 19.4832 54.8059 19.9053C56.6526 20.4687 58.2012 21.7402 59.1133 23.4419C60.0253 25.1437 60.2267 27.1373 59.6732 28.987Z" fill="#EEC81F"/>
<path d="M57.5225 28.7038C57.2368 29.6557 56.6752 30.5015 55.9086 31.1341C55.1421 31.7667 54.2051 32.1576 53.2162 32.2575C52.2274 32.3573 51.2311 32.1615 50.3536 31.6948C49.4761 31.2282 48.7568 30.5117 48.2866 29.6361C47.8165 28.7604 47.6168 27.765 47.7126 26.7758C47.8085 25.7865 48.1957 24.848 48.8252 24.0789C49.4548 23.3099 50.2983 22.7448 51.2491 22.4554C52.1999 22.166 53.2152 22.1651 54.1665 22.453C55.4395 22.8382 56.5078 23.7126 57.1369 24.8845C57.7661 26.0563 57.9047 27.4299 57.5225 28.7038Z" fill="white"/>
<path d="M53.2443 27.5304C53.1499 27.8415 52.9655 28.1176 52.7141 28.3238C52.4628 28.5301 52.156 28.6572 51.8325 28.689C51.5089 28.7209 51.1832 28.6561 50.8965 28.5028C50.6098 28.3496 50.3749 28.1148 50.2217 27.8281C50.0684 27.5414 50.0036 27.2156 50.0355 26.8921C50.0674 26.5686 50.1945 26.2618 50.4007 26.0104C50.6069 25.7591 50.8831 25.5746 51.1942 25.4802C51.5053 25.3859 51.8374 25.3859 52.1485 25.4802C52.3551 25.5429 52.5473 25.6456 52.7141 25.7826C52.881 25.9195 53.0192 26.088 53.121 26.2783C53.2228 26.4687 53.286 26.6773 53.3072 26.8921C53.3283 27.1069 53.307 27.3238 53.2443 27.5304Z" fill="black"/>
<path d="M0.612061 67.5012C0.612061 67.5012 1.27411 74.583 11.5704 72.0671C21.8667 69.5513 34.1903 59.6979 34.1903 59.6979C34.1903 59.6979 46.4134 83.6328 57.9334 80.7608L59.6959 80.2129C59.6959 80.2129 53.1163 79.9663 49.2671 75.309C45.418 70.6517 35.1126 54.4881 35.1126 54.4881C35.1126 54.4881 33.0762 57.0725 27.7112 60.7755C22.3461 64.4785 7.35602 75.1446 0.612061 67.5012Z" fill="#EEBB00"/>
<path d="M1.70811 18.4899C1.70811 18.4899 -1.78945 22.0285 3.6669 28.8911C9.12326 35.7538 18.4516 43.3607 18.4516 43.3607L20.278 41.9909C17.2991 38.1441 13.894 34.6471 10.1278 31.5668C6.88137 28.882 0.685324 22.686 1.70811 18.4899Z" fill="#EEBB00"/>
<path d="M80.0923 34.5986C80.0923 34.5986 80.937 38.9728 76.266 41.8585C71.595 44.7442 56.8378 50.3376 56.8378 50.3376L55.7876 48.1642C55.7876 48.1642 57.4998 45.9588 63.0932 44.5114C68.6865 43.0639 77.6039 40.1645 80.0923 34.5986Z" fill="#EEBB00"/>
<path d="M18.4743 43.2559C16.3283 41.2103 13.8581 38.9227 11.7988 36.7904C9.13687 34.0508 6.51144 31.2291 4.07776 28.2886C3.47505 27.5489 2.87234 26.8092 2.31986 26.0467C2.0459 25.6631 1.78108 25.275 1.54365 24.8824C1.42493 24.686 1.31534 24.4851 1.21945 24.2888C1.1304 24.1214 1.0629 23.9434 1.01855 23.7591C-0.0453297 21.6085 1.53451 18.7685 2.15092 17.7503C1.69432 18.595 -0.479094 20.7958 0.096221 23.8459C0.129807 24.1358 0.206767 24.419 0.32452 24.686C0.420638 24.9242 0.528836 25.1574 0.648702 25.3846C0.886133 25.8412 1.14183 26.2521 1.41123 26.6677C1.94545 27.4941 2.5025 28.2886 3.09608 29.0648C5.47572 32.1261 8.03569 35.0428 10.7624 37.7995C12.8216 39.8907 15.1594 42.2011 17.3648 44.1371C17.4744 44.0732 18.3465 43.3609 18.4743 43.2559Z" fill="#D79800"/>
<path d="M46 39C42.3137 38.0359 41.1465 47.1409 35.2484 40.9708C32.6373 37.5966 26.4489 33.0164 32.7156 43.4284C37.7843 51.8499 46 43.4284 46 39Z" fill="black" stroke="black"/>
</g>
<defs>
<filter id="filter0_d" x="0" y="0" width="88.2439" height="89" filterUnits="userSpaceOnUse" color-interpolation-filters="sRGB">
<feFlood flood-opacity="0" result="BackgroundImageFix"/>
<feColorMatrix in="SourceAlpha" type="matrix" values="0 0 0 0 0 0 0 0 0 0 0 0 0 0 0 0 0 0 127 0"/>
<feOffset dx="4" dy="4"/>
<feGaussianBlur stdDeviation="2"/>
<feColorMatrix type="matrix" values="0 0 0 0 0 0 0 0 0 0 0 0 0 0 0 0 0 0 0.25 0"/>
<feBlend mode="normal" in2="BackgroundImageFix" result="effect1_dropShadow"/>
<feBlend mode="normal" in="SourceGraphic" in2="effect1_dropShadow" result="shape"/>
</filter>
</defs>
</svg>
