<svg width="1095" height="810" viewBox="0 0 1095 810" fill="none" xmlns="http://www.w3.org/2000/svg">
<path d="M912.469 743.842C912.42 743.311 913.124 743.083 913.396 743.541L916.989 749.582C917.166 749.879 917.583 749.912 917.804 749.646L922.296 744.239C922.636 743.829 923.296 744.165 923.165 744.682L921.433 751.495C921.348 751.83 921.62 752.148 921.964 752.116L928.964 751.469C929.494 751.42 929.723 752.124 929.265 752.396L923.223 755.989C922.927 756.166 922.894 756.583 923.16 756.804L928.567 761.296C928.977 761.636 928.641 762.296 928.124 762.165L921.311 760.433C920.976 760.348 920.658 760.62 920.69 760.964L921.337 767.964C921.386 768.494 920.682 768.723 920.41 768.265L916.816 762.223C916.64 761.927 916.223 761.894 916.002 762.159L911.51 767.567C911.17 767.977 910.51 767.64 910.641 767.124L912.373 760.311C912.458 759.976 912.186 759.658 911.842 759.69L904.842 760.337C904.312 760.386 904.083 759.682 904.541 759.41L910.582 755.816C910.879 755.64 910.912 755.223 910.646 755.002L905.239 750.51C904.829 750.17 905.165 749.51 905.682 749.641L912.495 751.373C912.83 751.458 913.148 751.186 913.116 750.842L912.469 743.842Z" fill="#F0D53A"/>
<path d="M1071.47 637.842C1071.42 637.311 1072.12 637.082 1072.4 637.54L1075.99 643.582C1076.17 643.879 1076.58 643.912 1076.8 643.646L1081.3 638.239C1081.64 637.829 1082.3 638.165 1082.16 638.682L1080.43 645.495C1080.35 645.83 1080.62 646.148 1080.96 646.116L1087.96 645.469C1088.49 645.42 1088.72 646.124 1088.27 646.396L1082.22 649.989C1081.93 650.166 1081.89 650.583 1082.16 650.804L1087.57 655.296C1087.98 655.636 1087.64 656.296 1087.12 656.165L1080.31 654.433C1079.98 654.348 1079.66 654.62 1079.69 654.964L1080.34 661.964C1080.39 662.494 1079.68 662.723 1079.41 662.265L1075.82 656.223C1075.64 655.927 1075.22 655.894 1075 656.159L1070.51 661.567C1070.17 661.977 1069.51 661.64 1069.64 661.124L1071.37 654.311C1071.46 653.976 1071.19 653.658 1070.84 653.69L1063.84 654.337C1063.31 654.386 1063.08 653.682 1063.54 653.41L1069.58 649.816C1069.88 649.64 1069.91 649.223 1069.65 649.002L1064.24 644.51C1063.83 644.17 1064.17 643.51 1064.68 643.641L1071.49 645.372C1071.83 645.458 1072.15 645.186 1072.12 644.842L1071.47 637.842Z" fill="#F0D53A"/>
<path d="M996.469 341.842C996.42 341.311 997.124 341.082 997.396 341.54L1000.99 347.582C1001.17 347.879 1001.58 347.912 1001.8 347.646L1006.3 342.239C1006.64 341.829 1007.3 342.165 1007.16 342.682L1005.43 349.495C1005.35 349.83 1005.62 350.148 1005.96 350.116L1012.96 349.469C1013.49 349.42 1013.72 350.124 1013.27 350.396L1007.22 353.989C1006.93 354.166 1006.89 354.583 1007.16 354.804L1012.57 359.296C1012.98 359.636 1012.64 360.296 1012.12 360.165L1005.31 358.433C1004.98 358.348 1004.66 358.62 1004.69 358.964L1005.34 365.964C1005.39 366.494 1004.68 366.723 1004.41 366.265L1000.82 360.223C1000.64 359.927 1000.22 359.894 1000 360.159L995.51 365.567C995.17 365.977 994.51 365.64 994.641 365.124L996.373 358.311C996.458 357.976 996.186 357.658 995.842 357.69L988.842 358.337C988.312 358.386 988.083 357.682 988.541 357.41L994.582 353.816C994.879 353.64 994.912 353.223 994.646 353.002L989.239 348.51C988.829 348.17 989.165 347.51 989.682 347.641L996.495 349.372C996.83 349.458 997.148 349.186 997.116 348.842L996.469 341.842Z" fill="#F0D53A"/>
<path d="M834.469 469.842C834.42 469.311 835.124 469.082 835.396 469.54L838.989 475.582C839.166 475.879 839.583 475.912 839.804 475.646L844.296 470.239C844.636 469.829 845.296 470.165 845.165 470.682L843.433 477.495C843.348 477.83 843.62 478.148 843.964 478.116L850.964 477.469C851.494 477.42 851.723 478.124 851.265 478.396L845.223 481.989C844.927 482.166 844.894 482.583 845.16 482.804L850.567 487.296C850.977 487.636 850.641 488.296 850.124 488.165L843.311 486.433C842.976 486.348 842.658 486.62 842.69 486.964L843.337 493.964C843.386 494.494 842.682 494.723 842.41 494.265L838.816 488.223C838.64 487.927 838.223 487.894 838.002 488.159L833.51 493.567C833.17 493.977 832.51 493.64 832.641 493.124L834.373 486.311C834.458 485.976 834.186 485.658 833.842 485.69L826.842 486.337C826.312 486.386 826.083 485.682 826.541 485.41L832.582 481.816C832.879 481.64 832.912 481.223 832.646 481.002L827.239 476.51C826.829 476.17 827.165 475.51 827.682 475.641L834.495 477.372C834.83 477.458 835.148 477.186 835.116 476.842L834.469 469.842Z" fill="#F0D53A"/>
<path d="M935.469 513.842C935.42 513.311 936.124 513.083 936.396 513.541L939.989 519.582C940.166 519.879 940.583 519.912 940.804 519.646L945.296 514.239C945.636 513.829 946.296 514.165 946.165 514.682L944.433 521.495C944.348 521.83 944.62 522.148 944.964 522.116L951.964 521.469C952.494 521.42 952.723 522.124 952.265 522.396L946.223 525.989C945.927 526.166 945.894 526.583 946.16 526.804L951.567 531.296C951.977 531.636 951.641 532.296 951.124 532.165L944.311 530.433C943.976 530.348 943.658 530.62 943.69 530.964L944.337 537.964C944.386 538.494 943.682 538.723 943.41 538.265L939.816 532.223C939.64 531.927 939.223 531.894 939.002 532.159L934.51 537.567C934.17 537.977 933.51 537.64 933.641 537.124L935.373 530.311C935.458 529.976 935.186 529.658 934.842 529.69L927.842 530.337C927.312 530.386 927.083 529.682 927.541 529.41L933.582 525.816C933.879 525.64 933.912 525.223 933.646 525.002L928.239 520.51C927.829 520.17 928.165 519.51 928.682 519.641L935.495 521.373C935.83 521.458 936.148 521.186 936.116 520.842L935.469 513.842Z" fill="#F0D53A"/>
<path d="M732.469 778.842C732.42 778.311 733.124 778.083 733.396 778.541L736.989 784.582C737.166 784.879 737.583 784.912 737.804 784.646L742.296 779.239C742.636 778.829 743.296 779.165 743.165 779.682L741.433 786.495C741.348 786.83 741.62 787.148 741.964 787.116L748.964 786.469C749.494 786.42 749.723 787.124 749.265 787.396L743.223 790.989C742.927 791.166 742.894 791.583 743.16 791.804L748.567 796.296C748.977 796.636 748.641 797.296 748.124 797.165L741.311 795.433C740.976 795.348 740.658 795.62 740.69 795.964L741.337 802.964C741.386 803.494 740.682 803.723 740.41 803.265L736.816 797.223C736.64 796.927 736.223 796.894 736.002 797.159L731.51 802.567C731.17 802.977 730.51 802.64 730.641 802.124L732.373 795.311C732.458 794.976 732.186 794.658 731.842 794.69L724.842 795.337C724.312 795.386 724.083 794.682 724.541 794.41L730.582 790.816C730.879 790.64 730.912 790.223 730.646 790.002L725.239 785.51C724.829 785.17 725.165 784.51 725.682 784.641L732.495 786.373C732.83 786.458 733.148 786.186 733.116 785.842L732.469 778.842Z" fill="#F0D53A"/>
<path d="M438.469 778.842C438.42 778.311 439.124 778.083 439.396 778.541L442.989 784.582C443.166 784.879 443.583 784.912 443.804 784.646L448.296 779.239C448.636 778.829 449.296 779.165 449.165 779.682L447.433 786.495C447.348 786.83 447.62 787.148 447.964 787.116L454.964 786.469C455.494 786.42 455.723 787.124 455.265 787.396L449.223 790.989C448.927 791.166 448.894 791.583 449.16 791.804L454.567 796.296C454.977 796.636 454.641 797.296 454.124 797.165L447.311 795.433C446.976 795.348 446.658 795.62 446.69 795.964L447.337 802.964C447.386 803.494 446.682 803.723 446.41 803.265L442.816 797.223C442.64 796.927 442.223 796.894 442.002 797.159L437.51 802.567C437.17 802.977 436.51 802.64 436.641 802.124L438.373 795.311C438.458 794.976 438.186 794.658 437.842 794.69L430.842 795.337C430.312 795.386 430.083 794.682 430.541 794.41L436.582 790.816C436.879 790.64 436.912 790.223 436.646 790.002L431.239 785.51C430.829 785.17 431.165 784.51 431.682 784.641L438.495 786.373C438.83 786.458 439.148 786.186 439.116 785.842L438.469 778.842Z" fill="#F0D53A"/>
<path d="M559.469 714.842C559.42 714.311 560.124 714.083 560.396 714.541L563.989 720.582C564.166 720.879 564.583 720.912 564.804 720.646L569.296 715.239C569.636 714.829 570.296 715.165 570.165 715.682L568.433 722.495C568.348 722.83 568.62 723.148 568.964 723.116L575.964 722.469C576.494 722.42 576.723 723.124 576.265 723.396L570.223 726.989C569.927 727.166 569.894 727.583 570.16 727.804L575.567 732.296C575.977 732.636 575.641 733.296 575.124 733.165L568.311 731.433C567.976 731.348 567.658 731.62 567.69 731.964L568.337 738.964C568.386 739.494 567.682 739.723 567.41 739.265L563.816 733.223C563.64 732.927 563.223 732.894 563.002 733.159L558.51 738.567C558.17 738.977 557.51 738.64 557.641 738.124L559.373 731.311C559.458 730.976 559.186 730.658 558.842 730.69L551.842 731.337C551.312 731.386 551.083 730.682 551.541 730.41L557.582 726.816C557.879 726.64 557.912 726.223 557.646 726.002L552.239 721.51C551.829 721.17 552.165 720.51 552.682 720.641L559.495 722.373C559.83 722.458 560.148 722.186 560.116 721.842L559.469 714.842Z" fill="#F0D53A"/>
<path d="M492.469 449.842C492.42 449.311 493.124 449.082 493.396 449.54L496.989 455.582C497.166 455.879 497.583 455.912 497.804 455.646L502.296 450.239C502.636 449.829 503.296 450.165 503.165 450.682L501.433 457.495C501.348 457.83 501.62 458.148 501.964 458.116L508.964 457.469C509.494 457.42 509.723 458.124 509.265 458.396L503.223 461.989C502.927 462.166 502.894 462.583 503.16 462.804L508.567 467.296C508.977 467.636 508.641 468.296 508.124 468.165L501.311 466.433C500.976 466.348 500.658 466.62 500.69 466.964L501.337 473.964C501.386 474.494 500.682 474.723 500.41 474.265L496.816 468.223C496.64 467.927 496.223 467.894 496.002 468.159L491.51 473.567C491.17 473.977 490.51 473.64 490.641 473.124L492.373 466.311C492.458 465.976 492.186 465.658 491.842 465.69L484.842 466.337C484.312 466.386 484.083 465.682 484.541 465.41L490.582 461.816C490.879 461.64 490.912 461.223 490.646 461.002L485.239 456.51C484.829 456.17 485.165 455.51 485.682 455.641L492.495 457.372C492.83 457.458 493.148 457.186 493.116 456.842L492.469 449.842Z" fill="#F0D53A"/>
<path d="M558.469 199.842C558.42 199.311 559.124 199.083 559.396 199.541L562.989 205.582C563.166 205.879 563.583 205.912 563.804 205.646L568.296 200.239C568.636 199.829 569.296 200.165 569.165 200.682L567.433 207.495C567.348 207.83 567.62 208.148 567.964 208.116L574.964 207.469C575.494 207.42 575.723 208.124 575.265 208.396L569.223 211.989C568.927 212.166 568.894 212.583 569.16 212.804L574.567 217.296C574.977 217.636 574.641 218.296 574.124 218.165L567.311 216.433C566.976 216.348 566.658 216.62 566.69 216.964L567.337 223.964C567.386 224.494 566.682 224.723 566.41 224.265L562.816 218.223C562.64 217.927 562.223 217.894 562.002 218.159L557.51 223.567C557.17 223.977 556.51 223.64 556.641 223.124L558.373 216.311C558.458 215.976 558.186 215.658 557.842 215.69L550.842 216.337C550.312 216.386 550.083 215.682 550.541 215.41L556.582 211.816C556.879 211.64 556.912 211.223 556.646 211.002L551.239 206.51C550.829 206.17 551.165 205.51 551.682 205.641L558.495 207.373C558.83 207.458 559.148 207.186 559.116 206.842L558.469 199.842Z" fill="#F0D53A"/>
<path d="M14.4687 199.842C14.4197 199.311 15.124 199.083 15.3964 199.541L18.9895 205.582C19.166 205.879 19.5831 205.912 19.8038 205.646L24.2958 200.239C24.6363 199.829 25.2962 200.165 25.165 200.682L23.4334 207.495C23.3483 207.83 23.6201 208.148 23.964 208.116L30.9638 207.469C31.4944 207.42 31.7234 208.124 31.2654 208.396L25.2234 211.989C24.9266 212.166 24.8939 212.583 25.1595 212.804L30.5667 217.296C30.9766 217.636 30.6405 218.296 30.1241 218.165L23.311 216.433C22.9763 216.348 22.6582 216.62 22.69 216.964L23.3372 223.964C23.3862 224.494 22.6819 224.723 22.4096 224.265L18.8164 218.223C18.6399 217.927 18.2228 217.894 18.0021 218.159L13.5101 223.567C13.1696 223.977 12.5097 223.64 12.6409 223.124L14.3725 216.311C14.4576 215.976 14.1858 215.658 13.8419 215.69L6.84212 216.337C6.31151 216.386 6.08252 215.682 6.54052 215.41L12.5825 211.816C12.8793 211.64 12.9121 211.223 12.6464 211.002L7.2392 206.51C6.82931 206.17 7.16541 205.51 7.68186 205.641L14.4949 207.373C14.8296 207.458 15.1477 207.186 15.1159 206.842L14.4687 199.842Z" fill="#F0D53A"/>
<path d="M67.4687 48.8421C67.4197 48.3115 68.124 48.0825 68.3964 48.5405L71.9895 54.5825C72.166 54.8793 72.5831 54.9121 72.8038 54.6464L77.2958 49.2392C77.6363 48.8293 78.2962 49.1654 78.165 49.6818L76.4334 56.4949C76.3483 56.8296 76.6201 57.1477 76.964 57.1159L83.9638 56.4687C84.4944 56.4197 84.7234 57.124 84.2654 57.3964L78.2234 60.9895C77.9266 61.166 77.8939 61.5831 78.1595 61.8038L83.5667 66.2958C83.9766 66.6363 83.6405 67.2962 83.1241 67.165L76.311 65.4334C75.9763 65.3483 75.6582 65.6201 75.69 65.964L76.3372 72.9638C76.3862 73.4944 75.6819 73.7234 75.4096 73.2654L71.8164 67.2234C71.6399 66.9266 71.2228 66.8938 71.0021 67.1595L66.5101 72.5667C66.1696 72.9766 65.5097 72.6405 65.6409 72.124L67.3725 65.311C67.4576 64.9763 67.1858 64.6582 66.8419 64.69L59.8421 65.3372C59.3115 65.3862 59.0825 64.6819 59.5405 64.4095L65.5825 60.8164C65.8793 60.6399 65.9121 60.2228 65.6464 60.0021L60.2392 55.5101C59.8293 55.1696 60.1654 54.5097 60.6819 54.6409L67.4949 56.3725C67.8296 56.4576 68.1477 56.1858 68.1159 55.8419L67.4687 48.8421Z" fill="#F0D53A"/>
<path d="M343.469 6.84211C343.42 6.3115 344.124 6.08251 344.396 6.54051L347.989 12.5825C348.166 12.8793 348.583 12.9121 348.804 12.6464L353.296 7.23918C353.636 6.82929 354.296 7.1654 354.165 7.68185L352.433 14.4949C352.348 14.8296 352.62 15.1477 352.964 15.1159L359.964 14.4687C360.494 14.4197 360.723 15.124 360.265 15.3964L354.223 18.9895C353.927 19.166 353.894 19.5831 354.16 19.8038L359.567 24.2958C359.977 24.6363 359.641 25.2962 359.124 25.165L352.311 23.4334C351.976 23.3483 351.658 23.6201 351.69 23.964L352.337 30.9638C352.386 31.4944 351.682 31.7234 351.41 31.2654L347.816 25.2234C347.64 24.9266 347.223 24.8938 347.002 25.1595L342.51 30.5667C342.17 30.9766 341.51 30.6405 341.641 30.124L343.373 23.311C343.458 22.9763 343.186 22.6582 342.842 22.69L335.842 23.3372C335.312 23.3862 335.083 22.6819 335.541 22.4095L341.582 18.8164C341.879 18.6399 341.912 18.2228 341.646 18.0021L336.239 13.5101C335.829 13.1696 336.165 12.5097 336.682 12.6409L343.495 14.3725C343.83 14.4576 344.148 14.1858 344.116 13.8419L343.469 6.84211Z" fill="#F0D53A"/>
<path d="M213.469 154.842C213.42 154.311 214.124 154.083 214.396 154.541L217.989 160.582C218.166 160.879 218.583 160.912 218.804 160.646L223.296 155.239C223.636 154.829 224.296 155.165 224.165 155.682L222.433 162.495C222.348 162.83 222.62 163.148 222.964 163.116L229.964 162.469C230.494 162.42 230.723 163.124 230.265 163.396L224.223 166.989C223.927 167.166 223.894 167.583 224.16 167.804L229.567 172.296C229.977 172.636 229.641 173.296 229.124 173.165L222.311 171.433C221.976 171.348 221.658 171.62 221.69 171.964L222.337 178.964C222.386 179.494 221.682 179.723 221.41 179.265L217.816 173.223C217.64 172.927 217.223 172.894 217.002 173.159L212.51 178.567C212.17 178.977 211.51 178.64 211.641 178.124L213.373 171.311C213.458 170.976 213.186 170.658 212.842 170.69L205.842 171.337C205.312 171.386 205.083 170.682 205.541 170.41L211.582 166.816C211.879 166.64 211.912 166.223 211.646 166.002L206.239 161.51C205.829 161.17 206.165 160.51 206.682 160.641L213.495 162.373C213.83 162.458 214.148 162.186 214.116 161.842L213.469 154.842Z" fill="#F0D53A"/>
<path d="M587.469 63.8421C587.42 63.3115 588.124 63.0825 588.396 63.5405L591.989 69.5825C592.166 69.8793 592.583 69.9121 592.804 69.6464L597.296 64.2392C597.636 63.8293 598.296 64.1654 598.165 64.6818L596.433 71.4949C596.348 71.8296 596.62 72.1477 596.964 72.1159L603.964 71.4687C604.494 71.4197 604.723 72.124 604.265 72.3964L598.223 75.9895C597.927 76.166 597.894 76.5831 598.16 76.8038L603.567 81.2958C603.977 81.6363 603.641 82.2962 603.124 82.165L596.311 80.4334C595.976 80.3483 595.658 80.6201 595.69 80.964L596.337 87.9638C596.386 88.4944 595.682 88.7234 595.41 88.2654L591.816 82.2234C591.64 81.9266 591.223 81.8938 591.002 82.1595L586.51 87.5667C586.17 87.9766 585.51 87.6405 585.641 87.124L587.373 80.311C587.458 79.9763 587.186 79.6582 586.842 79.69L579.842 80.3372C579.312 80.3862 579.083 79.6819 579.541 79.4095L585.582 75.8164C585.879 75.6399 585.912 75.2228 585.646 75.0021L580.239 70.5101C579.829 70.1696 580.165 69.5097 580.682 69.6409L587.495 71.3725C587.83 71.4576 588.148 71.1858 588.116 70.8419L587.469 63.8421Z" fill="#F0D53A"/>
<path d="M793.469 44.8421C793.42 44.3115 794.124 44.0825 794.396 44.5405L797.989 50.5825C798.166 50.8793 798.583 50.9121 798.804 50.6464L803.296 45.2392C803.636 44.8293 804.296 45.1654 804.165 45.6818L802.433 52.4949C802.348 52.8296 802.62 53.1477 802.964 53.1159L809.964 52.4687C810.494 52.4197 810.723 53.124 810.265 53.3964L804.223 56.9895C803.927 57.166 803.894 57.5831 804.16 57.8038L809.567 62.2958C809.977 62.6363 809.641 63.2962 809.124 63.165L802.311 61.4334C801.976 61.3483 801.658 61.6201 801.69 61.964L802.337 68.9638C802.386 69.4944 801.682 69.7234 801.41 69.2654L797.816 63.2234C797.64 62.9266 797.223 62.8938 797.002 63.1595L792.51 68.5667C792.17 68.9766 791.51 68.6405 791.641 68.124L793.373 61.311C793.458 60.9763 793.186 60.6582 792.842 60.69L785.842 61.3372C785.312 61.3862 785.083 60.6819 785.541 60.4095L791.582 56.8164C791.879 56.6399 791.912 56.2228 791.646 56.0021L786.239 51.5101C785.829 51.1696 786.165 50.5097 786.682 50.6409L793.495 52.3725C793.83 52.4576 794.148 52.1858 794.116 51.8419L793.469 44.8421Z" fill="#F0D53A"/>
</svg>
