<svg height="465pt" viewBox="-2 0 465 465.31782" width="465pt" xmlns="http://www.w3.org/2000/svg"><path d="m.160156 120h48v144h-48zm0 0" fill="#2d75bb"/><path d="m48.160156 136h32v112h-32zm0 0" fill="#50b3c9"/><path d="m272.160156 272h96v32h-96zm0 0" fill="#50b3c9"/><path d="m272.160156 160h-24l-16-32h-96l-16 32h-40v64h176c17.671875 0 32 14.328125 32 32v16h64v-32c0-44.183594-35.820312-80-80-80zm0 0" fill="#86d5e2"/><path d="m118.585938 167.84375 3.136718-15.691406 40 8-3.136718 15.691406zm0 0" fill="#cdeef6"/><path d="m206.636719 160.3125 40.019531-7.992188 3.136719 15.695313-40.019531 7.996094zm0 0" fill="#cdeef6"/><path d="m152.160156 96h64v32h-64zm0 0" fill="#2d75bb"/><path d="m168.160156 64h32v32h-32zm0 0" fill="#195c85"/><path d="m96.160156 32h176v32h-176zm0 0" fill="#dd3e46"/><path d="m184.160156 0c8.835938 0 16 7.164062 16 16v16h-32v-16c0-8.835938 7.164063-16 16-16zm0 0" fill="#fcf05a"/><path d="m128.160156 32h16v32h-16zm0 0" fill="#b11e48"/><path d="m176.160156 32h16v32h-16zm0 0" fill="#b11e48"/><path d="m224.160156 32h16v32h-16zm0 0" fill="#b11e48"/><path d="m376.160156 464h-112l24-160h64zm0 0" fill="#cdeef6"/><path d="m288.261719 462.683594 16.015625-96 15.785156 2.632812-16.019531 96zm0 0" fill="#86d5e2"/><path d="m328.207031 392.878906 15.902344-1.765625 8 71.996094-15.902344 1.769531zm0 0" fill="#86d5e2"/><path d="m408.160156 432s-4.378906-38.976562 16-64c20.375-25.023438 58.398438 10.113281 24 32-34.402344 21.886719-40 32-40 32zm0 0" fill="#cdeef6"/><path d="m232.160156 448s1.808594-52.648438-24-72c-32-24-60.105468 20.992188-24 40 36.101563 19.007812 48 32 48 32zm0 0" fill="#cdeef6"/><g fill="#2d75bb"><path d="m240.160156 360h16v16h-16zm0 0"/><path d="m384.160156 336h16v16h-16zm0 0"/><path d="m208.160156 312h16v16h-16zm0 0"/><path d="m416.160156 272h16v16h-16zm0 0"/></g></svg>