<svg id="Capa_1" enable-background="new 0 0 512 512" height="512" viewBox="0 0 512 512" width="512" xmlns="http://www.w3.org/2000/svg"><circle cx="256" cy="256" fill="#4a7aff" r="256"/><path d="m512 256c0-1.187-.029-2.366-.045-3.549l-111.224-111.224-12.822 31.16-107.106-107.106-120.291 140.436-15.631-36.717-75.881 64 86.649 86.649 2.055 132.405 56.537 56.537c13.592 2.23 27.537 3.409 41.759 3.409 141.385 0 256-114.615 256-256z" fill="#0053bf"/><path d="m177 166s-21-42-55-31-53 98-53 98 79-68.983 85-23.991z" fill="#ffa300"/><path d="m170.228 335.296s-42.535-8.554-53.832 22.47 41.309 94.288 41.309 94.288-5.395-96.752 30.8-75.568z" fill="#ffa300"/><path d="m335 166s21-42 55-31 53 98 53 98-79-68.983-85-23.991z" fill="#fe8205"/><path d="m341.772 335.296s42.535-8.554 53.832 22.47-41.309 94.288-41.309 94.288 5.395-96.752-30.8-75.568z" fill="#fe8205"/><path d="m294.158 153.861h-76.316v-59.595c0-21.074 17.084-38.158 38.158-38.158 21.074 0 38.158 17.084 38.158 38.158z" fill="#ffa300"/><path d="m294.158 94.266c0-21.074-17.084-38.158-38.158-38.158-.136 0-.269.009-.405.01v97.743h38.563z" fill="#fe8205"/><path d="m279.828 415h-47.656c-50.485 0-91.412-40.927-91.412-91.412v-97.176c0-50.485 40.927-91.412 91.412-91.412h47.656c50.486 0 91.412 40.927 91.412 91.412v97.176c0 50.485-40.927 91.412-91.412 91.412z" fill="#1ce8b7"/><path d="m279.828 135h-24.233v280h24.233c50.485 0 91.412-40.927 91.412-91.412v-97.176c0-50.485-40.927-91.412-91.412-91.412z" fill="#1dcc9e"/><path d="m371.24 289.268v-30h-48.637l-19.9-34.468 42.766-62c-6.975-7.196-15.119-13.251-24.131-17.852l-44.242 64.141h-42.191l-44.242-64.141c-9.012 4.601-17.156 10.657-24.131 17.852l42.765 62-19.9 34.468h-48.637v30h48.637l19.962 34.575-42.698 63.489c6.991 7.184 15.151 13.224 24.177 17.807l44.179-65.691h41.965l44.179 65.691c9.026-4.584 17.186-10.624 24.177-17.807l-42.698-63.489 19.962-34.575zm-94.929 20.18h-40.622l-20.311-35.18 20.311-35.18h40.622l20.311 35.18z" fill="#20d1a2"/><path d="m371.24 289.268v-30h-48.637l-19.9-34.468 42.766-62c-6.975-7.196-15.119-13.251-24.131-17.852l-44.242 64.141h-21.5v30h20.716l20.311 35.18-20.311 35.18h-20.716v30h21.387l44.179 65.691c9.026-4.584 17.186-10.624 24.177-17.807l-42.698-63.489 19.962-34.575h48.637z" fill="#1bb287"/></svg>