<svg width="93" height="94" fill="none" xmlns="http://www.w3.org/2000/svg">
  <g filter="">
    <path d="M42.5 0A42.56 42.56 0 000 42.53a42.56 42.56 0 0042.5 42.52A42.56 42.56 0 0085 42.53 42.56 42.56 0 0042.5 0zm0 79.48A36.98 36.98 0 015.57 42.53 36.98 36.98 0 0142.5 5.58a36.98 36.98 0 0136.93 36.95A36.98 36.98 0 0142.5 79.48z" fill="#000"/>
    <ellipse cx="42.5" cy="42.53" rx="42.5" ry="42.53" fill="#A10094"/>
    <path d="M62.42 22.6a3.99 3.99 0 00-5.64 0L42.5 36.88 28.23 22.6a3.99 3.99 0 10-5.65 5.64l14.28 14.29L22.58 56.8a4 4 0 005.64 5.65L42.5 48.17l14.28 14.29a3.97 3.97 0 005.64 0 4 4 0 000-5.65L48.14 42.53l14.28-14.29a4 4 0 000-5.64z" fill="#fff"/>
  </g>
  <defs>
    <filter id="filter0_d" x="0" y="0" width="93" height="93.05" filterUnits="userSpaceOnUse" color-interpolation-filters="sRGB">
      <feFlood flood-opacity="0" result="BackgroundImageFix"/>
      <feColorMatrix in="SourceAlpha" values="0 0 0 0 0 0 0 0 0 0 0 0 0 0 0 0 0 0 127 0"/>
      <feOffset dx="4" dy="4"/>
      <feGaussianBlur stdDeviation="2"/>
      <feColorMatrix values="0 0 0 0 0 0 0 0 0 0 0 0 0 0 0 0 0 0 0.25 0"/>
      <feBlend in2="BackgroundImageFix" result="effect1_dropShadow"/>
      <feBlend in="SourceGraphic" in2="effect1_dropShadow" result="shape"/>
    </filter>
  </defs>
</svg>